<?xml version="1.0" encoding="UTF-8"?>
<svg id="Layer_1" data-name="Layer 1" xmlns="http://www.w3.org/2000/svg" viewBox="0 0 457.35 337.96">
  <defs>
    <style>
      .cls-1 {
        fill: #dcffb0;
      }
    </style>
  </defs>
  <path class="cls-1" d="M226.8,337.82c-5.44,0-10.73-1.04-15.74-3.07-15.27-6.24-25.48-20.42-26.85-36.78l-71.38,21.6-4.68.24c-.8,0-1.65.05-2.46.05-22.83,0-42.26-13.76-48.31-34.18l-.19-.71c-6.05-20.38-37.02-124.94-54.79-180.3l-.47-1.47-.33-1.51c-5.2-22.27,2.6-43.11,20.37-54.46C34.91,38.95,162.08,4.68,163.35,4.35l3.17-.85c6.71-1.8,13.1-3.5,20.71-3.5,33.28,0,43.35,30.02,47.13,41.36.1.33,1.09,3.26,2.36,7.42,4.73-.85,9.93-1.32,15.69-1.32,4.49,0,8.75.24,12.15.47,1.61.09,3.17.19,4.54.24,10.26.28,20.19,1.13,29.83,1.99,6.9.61,13.47,1.13,19.81,1.51,9.03.47,18.34.8,27.8,1.13,20.47.71,41.6,1.42,61.83,3.78,30.16,3.5,49.4,25.34,48.97,55.59-.19,14.42-3.88,99.75-7.18,127.5-3.55,30.02-23.21,47.93-52.61,47.93-2.27,0-4.68-.09-7.33-.19l-3.26-.14c-6.24-.19-12.29-.8-18.11-1.37-4.63-.47-9.03-.9-12.67-1.04-9.79-.38-19.57-.66-29.31-.9-11.82-.33-23.92-.66-36.12-1.18l-30.68,40.51-2.36,2.22c-3.97,3.74-14.99,12.43-30.78,12.43l-.14-.14Z"/>
  <path d="M221.83,247.05l-115.49,34.93c-4.82.24-11.2-1.8-12.81-7.09-1.61-5.29-35.88-121.54-55.31-181.86-1.99-8.46.99-12.15,3.88-13.99,2.88-1.84,86.84-26.66,130.62-38.15,17.82-4.68,19.19-6.52,25.53,12.39,1.65,4.96,5.81,18.72,6.29,23.35.14,1.28.52,2.41-.33,3.59l-62.45,56.78c-3.59.8-3.55-11.63-5.72-14.7-1.42-1.99-4.54-2.6-6.19-.66-3.36,3.97.62,32.43,11.3,27.23l66.42-59.52,15.13,46.85-61.69,56.4c-2.51,1.09-3.07-6.76-3.88-8.56-3.03-6.85-10.21-6.15-10.26.14,0,1.89,5.62,16.07,6.9,17.92,4.87,7.19,16.02-3.64,20.85-7.28,18.72-14.13,34.13-32.24,52.52-46.71l2.6-50.2c2.65-16.36,25.01-12.39,38.01-12.01,16.17.47,32.62,2.6,48.74,3.45,28.22,1.51,59.47,1.42,87.22,4.68,10.64,1.23,15.7,6.67,15.51,17.49-.19,13.71-3.88,97.9-6.9,123.62-1.99,16.64-10.02,14.7-24.44,14.23-9.74-.33-20.8-1.99-30.54-2.36-28.36-1.09-56.63-1.32-84.9-3.12l-40.84,53.89s-3.4,3.17-6.43,1.94c-3.03-1.23-3.45-4.63-3.45-5.58v-47.08h.14ZM351.5,133.97l-22.64,22.17c-1.42.24-11.11-7.9-12.9-9.5-3.83-3.45-12.53-14.8-16.45-14.8-3.17,0-6.05,2.22-5.96,5.53.19,5.96,18.63,20.38,23.45,25.24.95.95,1.61.99,1.18,2.74l-32.57,25.29c-3.88,5.39-.19,12.38,6.43,9.31,10.73-10.16,21.56-20.18,33.66-28.74,3.21-.66,25.34,20.75,33.9,20.33,4.49-.24,6.48-5.15,4.07-8.7-2.65-3.92-27.32-18.1-27.28-20.33,3.54-6.34,20.94-17.26,23.21-22.12,2.74-5.86-2.6-10.31-8.13-6.38l.05-.05Z"/>
</svg>