<?xml version="1.0" encoding="UTF-8"?>
<svg id="Layer_1" data-name="Layer 1" xmlns="http://www.w3.org/2000/svg" xmlns:xlink="http://www.w3.org/1999/xlink" viewBox="0 0 305.75 132.96">
  <defs>
    <style>
      .cls-1 {
        fill: none;
      }

      .cls-2 {
        fill: #dcffb0;
      }

      .cls-3 {
        clip-path: url(#clippath);
      }
    </style>
    <clipPath id="clippath">
      <rect class="cls-1" x="91.82" y="-84.28" width="122.11" height="301.52" transform="translate(80.89 216.84) rotate(-87.92)"/>
    </clipPath>
  </defs>
  <g class="cls-3">
    <g>
      <path class="cls-2" d="M121.13,16.69c1.61,1.8.74,4.13-1.17,5.32-12.51,6.51-26.41,12.1-37.85,20.29-16.26,11.64-10.88,36.87-7.79,53.37.51,2.75,3.15,11.31,2.68,13.23-.63,2.51-3.62,3.18-5.1.8-1.19-1.91-2.47-9.11-2.95-11.69-2.67-14.02-2.99-28.06-3.56-42.24-.03-.64.39-1.2-.63-1.06-.24.1-3.75,3.18-3.93,3.42-1.08,1.65-.65,11.33-.47,13.96.23,3.76,2.72,13.65.06,16.29-1,.99-3.03,1.19-4.3.6-5.64-2.65-2.8-16.56-3.78-21.6-13.2,10.33-24.31,22.31-33.79,35.86-2.73,3.92-9.33,16.14-12.73,18.04-1.75.99-3.73,1.43-5.1-.34-2.45-3.19,3.18-9.91,5.22-12.66,5.04-6.78,10.82-13.21,16.13-19.81.32-1.15-1.86-1.04-2.57-1.38-5.15-2.53-1.4-10.31.4-14,4.41-8.99,11.65-17.82,19.13-24.62-.27-.57-1.2-.08-1.65.06-3.53,1.18-9.55,4.36-13.02,2.33-4.46-2.61.3-7.22,2.72-9.38,6.49-5.79,22.1-15.87,30.29-18.85,5.82-2.12,3.97,2.47,3.84,6.13,2.14-2.09,6.58-10.05,9.03-10.88,13.75-1.62,28.06-4.69,41.98-3.32,1.86.17,7.81.97,8.88,2.14h.04ZM110.09,19.97c-12.53-.68-25.06.85-37.43,2.52-2.75,1.91-11.26,16.25-13.19,16.71-5.16,1.22-4.48-8.38-3.71-11.06-.27-.31-6.38,3.43-7.1,3.88-5.91,3.66-11.79,8.07-16.98,12.59l18.32-7.28c5.47.96,3.61,4.33,1.17,7.34-5.43,6.75-12.8,11.94-18.33,19.3-1.55,2.06-10.85,16.17-9.57,17.54,1.16.08,2.25-.36,3.28-.8,5.87-2.55,12.83-10.83,17.46-15.37,2.26-2.23,8.98-7.48,10.33-9.55,1.84-2.79.58-11.47,3.3-13.26,3.63-2.41,2.95,6.28,3.28,7.77,6.7-5.63,14.07-10.45,21.46-15.21l27.72-15.14-.02.02Z"/>
      <path class="cls-2" d="M143.04,52.03c.71.18,1.04-.1,1.58-.35,2.89-1.34,8.7-6.7,11.84-8.88,9.73-6.71,20.29-12.25,30.58-18.12l21.18-10.9c-19.97.44-40.4,7.58-58.16,15.85-15.96,7.42-26.82,14.33-33.76,30.62-1.41,3.3-2.58,13.02-8.41,8.47l-10.18-12c-.66,2.78,1.66,15.68-.49,16.92l-1.29.34c-1.56-.11-1.88-4.19-2.09-5.47-.75-4.66-2.08-12.85-2.16-17.32-.07-4.09,2.73-5.45,6.09-2.93l11.71,13.11c5.79-20.55,25-31.74,43.98-40.07,15.38-6.76,34.34-11.85,51.25-13.1,3.2-.24,8.46-.73,11.48-.52,6.09.45,6.05,4.8,1.58,7.79-6.77,4.55-16.75,8.38-24.22,12.38-13.7,7.35-27.57,14.99-39.9,24.32-1.73,1.31-10.19,7.69-10.49,8.94-.35,1.5-.04,3.79-.2,5.47-1.2,11.64-.71,23.5.92,35.13-.62,2.46-3.36,3.68-5.1,1.3-.97-1.3-1.12-4.15-1.3-5.79-1.09-10.58.01-21.27.22-31.88-13.22,9.85-23.63,22.41-34.46,34.49-2.12,2-5.11.5-4.83-2.29.14-1.37,1-2.03,1.74-3.07,4.02-5.53,10.76-12.69,15.65-17.67,6.98-7.11,14.81-13.46,22.43-19.91.73-2.72.13-13.67,2.29-15.18,1.48-1.02,2.91.3,2.86,1.62l-.32,8.7Z"/>
      <path class="cls-2" d="M230.39,33.76c1.17.96,1.04,3.39.81,4.74-5,10.53-14.06,19.11-20.38,28.96,1.31,6.71,2.71,13.42,3.81,20.16,1.5,9.04,3.43,18.98,4.37,28.01.15,1.38.74,3.11-.27,4.27-1,1.16-3.43,1.02-4.39-.16-.95-1.18-2.65-14.37-3.02-16.94-1.49-10.19-2.69-20.46-3.91-30.67-1.22.68-4.02,3.94-4.15,5.15l3.08,20.91c-.08,2.24-3.89,3.51-5.27,1.75-2.21-2.81-1.88-12.72-3.15-16.31-4.85,6.03-9.42,12.3-13.93,18.57-1.55,2.15-4.49,9.27-8.2,7.23-1.65-.9-1.98-2.49-1.12-4.09l12.69-17.64c.26-1.21-1.38-.19-2.37-.3-1.43-.16-3.25-1.51-3.93-2.68-2.62-4.52,1.3-11.39,2.55-15.96-2.65,2.2-7.79,2.54-7.93-1.77-.12-3.67,7.82-17.02,10.32-20.53,1.25-1.74,3.66-5.75,6.27-4.83.58.29.96.99,1.05,1.57.4,2.8-7.55,12.26-8.03,15.89,2.71-3.55,10.05-6.49,8.63.75-1.29,6.63-7.17,13.49-7.19,20.66,1.53-.03,2.45-1.97,3.86-2.19,1.41-.21,2.28.14,3.27.96.85-2.1,3.12-3.22,3.36-5.57.47-4.9-1.24-12.98-1.59-18.26-.1-1.36.19-2.78.12-4.19-.14-2.35-2.04-3.37,1.18-5.44,8.36-2.99,16.62-8.39,24.87-11.28,2.26-.78,6.53-2.48,8.61-.76h-.02ZM223.19,40.57l-22.74,9.33,1.83,17.83,20.92-27.16Z"/>
      <path class="cls-2" d="M258.12,86.52c-4.8,4.18-10.27,4.76-15.85,1.47-3.24,2.39-7.39,9.76-10.62,11.46-2.2,1.15-4.82.09-4.66-2.2.2-2.9,10.25-10.84,11.85-14.13-1.53-5.15-2.34-24.16,1.26-27.59.63-.59,4.44-1.74,5.46-1.85,5.28-.51,10.36,2.44,13.92,5.95l11.69-16.46c2.16-2.51,5.14-.15,3.87,2.66l-12.3,18.01c3.41,7.81,1.97,16.9-4.62,22.67h.02ZM243.32,59.47l-.54,15c-.02.62.84,2.78.98,3.63l11.76-13.67c-1.64-2.23-4.66-4.45-7.54-4.79-1.75-.19-3.18.54-4.64-.17ZM258.23,75.88c.38-1.78-.07-4.25.22-6.13l-12.02,13.73c4.59,3.27,10.99-3.81,11.79-7.61Z"/>
      <path class="cls-2" d="M275.6,73.33c.08,3.28,2.26,9.92,1.21,12.86-.6,1.67-3.71,1.98-4.75.29-.82-1.35-2.27-14.15-2.48-16.6-.27-3.32-1.86-11.96,3.99-7.61,3.72,2.78,7.58,9.32,12.16,12.92.43.33.52.85,1.3.68.12-9.32,2.77-18.46,6.3-27.06,1.09-2.67,5.24-12.71,7.89-13.37,1.38-.34,3.17.26,3.52,1.63.58,2.17-4.26,10.44-5.39,13.13-4.06,9.69-5.96,17.74-6.25,28.24-.04,1.02.45,1.96.37,2.94-.18,2.94-2.37,4.81-5.45,3.61l-12.44-11.64h.02Z"/>
      <path class="cls-2" d="M164.25,74.71c-.38.34-1.18.38-1.7.47.48,5.53,1.63,12.5.64,17.97-.41,2.26-3.61,2.41-4.77,1.24-1.74-1.77-.95-13.89-1.71-16.88-2.89.21-9.71,4.02-10.43-.38-.17-1.03.6-1.42.77-2.33.54-3.26,1.63-15.49,5.36-16.39,4.32-1.06,6.93,3.74,8.19,6.87.41,1,.71,3.44,1.07,3.95.47.67,2.52.67,3.04,1.8.39.86.24,3.08-.45,3.7v-.02ZM154.47,65.98c-1.14-.16-.7-.03-.91.58-.72,2.07-.97,4.41-1.55,6.52l4.03-1.12-1.56-5.98h-.02Z"/>
      <path class="cls-2" d="M165.85,57.51c-.44-.47-7.88,3.38-8.8-.2-.68-2.67,6.04-4.65,8.26-5.83,4.29-2.28,10.5-6.51,14.78-8.05,4.28-1.54,6.41,2.28,3.35,4.74-1.77,1.42-12.27,5.95-12.58,6.84.63,9.15,3.34,18.43,3.82,27.56.07,1.57.47,3.74-.8,4.84-2.08,1.79-4.42-.18-4.64-2.46l-3.38-27.48-.02.03Z"/>
      <path class="cls-2" d="M222.41,68.02c-1.5-.37-2.88-2.61-2.77-4.12.16-1.99,5.91-7.63,7.66-9.26,1.28-1.19,3.92-4.26,5.67-2.14,1.66,2.02-6.28,9.27-5.72,9.75,19.48-.72,2.79,16.33-3.46,21.64-2.12,1.39-5.48.52-5.21-2.25.27-2.78,10.17-9.62,11.12-13.38-2.11-.38-5.36.21-7.3-.26l.02.02Z"/>
      <path class="cls-2" d="M83.23,48.66c.5-.05.89,0,1.24.36l.49.79c.48,5.02.35,10.06.97,15.09.48,3.98,2.42,9.52,2.54,12.92.1,2.96-4.21,4.04-5.55.79-2.16-5.21-2.72-21.3-1.9-26.93.19-1.28.62-2.89,2.21-3.04v.02Z"/>
      <path class="cls-2" d="M33.2,100.09c-3.1,5.19-2.89,12.41-5.29,17.57-2.86,6.12-7.96,4.81-6.75-2.11.81-4.64,6.57-11.78,10.46-14.67.51-.39.76-.99,1.58-.79Z"/>
    </g>
  </g>
</svg>