<?xml version="1.0" encoding="UTF-8"?>
<svg id="Layer_1" data-name="Layer 1" xmlns="http://www.w3.org/2000/svg" xmlns:xlink="http://www.w3.org/1999/xlink" viewBox="0 0 909.77 395.63">
  <defs>
    <style>
      .cls-1 {
        fill: none;
      }

      .cls-2 {
        fill: #dcffb0;
      }

      .cls-3 {
        clip-path: url(#clippath);
      }
    </style>
    <clipPath id="clippath">
      <rect class="cls-1" x="276.2" y="-243.4" width="357.37" height="882.44" transform="translate(240.71 645.23) rotate(-87.92)"/>
    </clipPath>
  </defs>
  <g class="cls-3">
    <g>
      <path class="cls-2" d="M362,52.09c4.72,5.28,2.15,12.1-3.43,15.56-36.62,19.05-77.29,35.42-110.79,59.38-47.58,34.07-31.84,107.89-22.79,156.19,1.49,8.05,9.23,33.09,7.83,38.71-1.83,7.36-10.6,9.31-14.94,2.35-3.47-5.6-7.24-26.67-8.64-34.21-7.8-41.03-8.74-82.13-10.43-123.61-.09-1.86,1.15-3.52-1.83-3.11-.71.28-10.98,9.3-11.49,10-3.15,4.84-1.9,33.15-1.37,40.86.68,11.01,7.95,39.96.16,47.67-2.91,2.89-8.88,3.5-12.6,1.76-16.52-7.77-8.18-48.48-11.05-63.23-38.64,30.22-71.14,65.3-98.88,104.95-7.98,11.47-27.32,47.24-37.24,52.81-5.13,2.91-10.9,4.19-14.93-1.01-7.17-9.34,9.32-29.01,15.28-37.05,14.76-19.84,31.65-38.68,47.21-57.97.93-3.37-5.45-3.03-7.52-4.04-15.07-7.41-4.09-30.17,1.16-40.97,12.89-26.3,34.09-52.15,55.98-72.04-.8-1.68-3.5-.23-4.81.19-10.33,3.44-27.96,12.76-38.11,6.82-13.07-7.64.87-21.12,7.96-27.46,18.98-16.95,64.67-46.45,88.65-55.18,17.02-6.19,11.62,7.23,11.23,17.95,6.27-6.12,19.27-29.43,26.44-31.85,40.25-4.73,82.12-13.73,122.87-9.73,5.44.51,22.86,2.84,25.97,6.26h.11ZM329.67,61.7c-36.66-2-73.34,2.5-109.55,7.37-8.04,5.59-32.95,47.55-38.61,48.89-15.09,3.58-13.1-24.51-10.87-32.38-.78-.91-18.68,10.05-20.78,11.37-17.3,10.72-34.51,23.61-49.68,36.83l53.6-21.32c16,2.8,10.56,12.66,3.43,21.48-15.9,19.75-37.46,34.96-53.64,56.5-4.54,6.03-31.75,47.34-28.01,51.34,3.39.23,6.57-1.05,9.59-2.33,17.18-7.48,37.56-31.7,51.11-44.98,6.61-6.52,26.29-21.9,30.24-27.94,5.37-8.16,1.7-33.57,9.67-38.8,10.63-7.04,8.63,18.37,9.6,22.74,19.61-16.47,41.19-30.59,62.82-44.51l81.12-44.31-.06.05Z"/>
      <path class="cls-2" d="M426.09,155.52c2.09.54,3.04-.3,4.63-1.02,8.46-3.92,25.45-19.61,34.65-25.98,28.48-19.65,59.37-35.86,89.49-53.03l61.98-31.9c-58.44,1.28-118.24,22.17-170.22,46.39-46.7,21.72-78.5,41.93-98.81,89.63-4.13,9.65-7.54,38.1-24.61,24.8l-29.79-35.13c-1.92,8.13,4.87,45.88-1.42,49.52l-3.76,1c-4.58-.32-5.5-12.27-6.12-16.01-2.21-13.65-6.09-37.62-6.32-50.68-.21-11.98,7.98-15.96,17.81-8.59l34.26,38.38c16.93-60.15,73.16-92.88,128.71-117.27,45.02-19.77,100.49-34.68,150-38.35,9.37-.69,24.76-2.15,33.6-1.52,17.83,1.32,17.69,14.05,4.63,22.81-19.82,13.31-49.02,24.53-70.89,36.22-40.11,21.5-80.68,43.86-116.78,71.18-5.05,3.84-29.83,22.49-30.72,26.17-1.02,4.4-.13,11.09-.58,16.02-3.51,34.07-2.06,68.79,2.7,102.8-1.83,7.21-9.85,10.78-14.94,3.79-2.83-3.82-3.29-12.14-3.82-16.96-3.2-30.96.04-62.26.63-93.29-38.7,28.82-69.15,65.58-100.84,100.95-6.21,5.86-14.96,1.47-14.13-6.7.42-4.01,2.91-5.93,5.08-9,11.77-16.18,31.49-37.13,45.79-51.73,20.42-20.82,43.35-39.39,65.64-58.28,2.12-7.97.37-40.02,6.69-44.43,4.32-2.99,8.5.88,8.36,4.74l-.92,25.45Z"/>
      <path class="cls-2" d="M681.76,102.07c3.41,2.81,3.04,9.91,2.36,13.86-14.62,30.83-41.14,55.92-59.63,84.75,3.83,19.64,7.92,39.28,11.15,59,4.39,26.47,10.03,55.56,12.8,81.97.45,4.04,2.15,9.1-.78,12.51-2.93,3.4-10.05,2.99-12.84-.47-2.79-3.45-7.76-42.06-8.84-49.58-4.37-29.82-7.88-59.87-11.44-89.76-3.58,1.98-11.76,11.54-12.16,15.09l9.02,61.2c-.24,6.54-11.39,10.26-15.42,5.11-6.45-8.23-5.51-37.24-9.23-47.74-14.2,17.64-27.56,35.99-40.76,54.33-4.55,6.28-13.14,27.12-24,21.15-4.82-2.65-5.79-7.28-3.29-11.98l37.15-51.63c.78-3.53-4.03-.56-6.94-.87-4.2-.46-9.51-4.42-11.49-7.84-7.68-13.23,3.8-33.34,7.47-46.72-7.74,6.42-22.8,7.43-23.2-5.17-.37-10.74,22.87-49.82,30.21-60.08,3.64-5.08,10.71-16.84,18.34-14.14,1.7.84,2.81,2.89,3.07,4.6,1.16,8.19-22.1,35.87-23.51,46.5,7.94-10.39,29.43-19,25.25,2.21-3.78,19.41-20.99,39.47-21.05,60.47,4.49-.1,7.18-5.77,11.31-6.4,4.13-.62,6.68.4,9.57,2.82,2.49-6.15,9.15-9.42,9.83-16.3,1.38-14.34-3.64-37.99-4.65-53.45-.29-3.98.56-8.13.34-12.26-.4-6.88-5.96-9.86,3.44-15.92,24.46-8.76,48.64-24.54,72.77-33,6.62-2.29,19.11-7.25,25.2-2.23h-.05ZM660.67,121.99l-66.57,27.3,5.34,52.19,61.22-79.49Z"/>
      <path class="cls-2" d="M762.91,256.46c-14.06,12.23-30.05,13.92-46.4,4.3-9.49,6.98-21.62,28.57-31.09,33.54-6.44,3.38-14.11.26-13.65-6.43.58-8.49,30-31.72,34.67-41.35-4.48-15.07-6.84-70.71,3.68-80.75,1.84-1.74,12.99-5.1,15.97-5.4,15.45-1.5,30.32,7.13,40.75,17.42l34.21-48.18c6.32-7.35,15.03-.43,11.33,7.79l-36,52.7c9.97,22.85,5.77,49.47-13.54,66.36h.06ZM719.6,177.31l-1.59,43.89c-.07,1.8,2.46,8.14,2.85,10.63l34.4-40.02c-4.79-6.52-13.63-13.03-22.07-14.01-5.11-.55-9.3,1.57-13.59-.49ZM763.23,225.32c1.11-5.22-.2-12.44.65-17.93l-35.17,40.2c13.43,9.57,32.17-11.16,34.52-22.27Z"/>
      <path class="cls-2" d="M814.07,217.87c.25,9.6,6.62,29.02,3.55,37.63-1.74,4.89-10.85,5.8-13.91.84-2.39-3.96-6.66-41.4-7.26-48.6-.78-9.73-5.43-35.02,11.67-22.27,10.89,8.13,22.18,27.27,35.58,37.81,1.26.97,1.53,2.48,3.82,2,.34-27.28,8.12-54.02,18.43-79.18,3.2-7.83,15.34-37.2,23.08-39.14,4.03-.99,9.26.75,10.31,4.76,1.71,6.36-12.45,30.55-15.76,38.43-11.89,28.35-17.44,51.93-18.29,82.64-.11,2.99,1.31,5.72,1.09,8.6-.53,8.6-6.94,14.09-15.94,10.56l-36.42-34.08h.06Z"/>
      <path class="cls-2" d="M488.19,221.89c-1.12.99-3.44,1.11-4.97,1.37,1.41,16.2,4.78,36.59,1.88,52.58-1.21,6.61-10.57,7.04-13.96,3.62-5.11-5.19-2.79-40.65-5.02-49.39-8.45.62-28.41,11.76-30.53-1.11-.49-3.01,1.77-4.17,2.25-6.83,1.59-9.54,4.78-45.32,15.68-47.97,12.65-3.1,20.29,10.95,23.96,20.11,1.19,2.93,2.07,10.08,3.15,11.57,1.39,1.96,7.38,1.97,8.88,5.27,1.15,2.52.7,9-1.31,10.84v-.05ZM459.56,196.35c-3.33-.48-2.05-.07-2.65,1.71-2.11,6.06-2.84,12.9-4.53,19.08l11.79-3.29-4.55-17.5h-.06Z"/>
      <path class="cls-2" d="M492.87,171.56c-1.3-1.39-23.05,9.89-25.75-.57-1.98-7.81,17.67-13.6,24.17-17.07,12.56-6.66,30.72-19.05,43.26-23.55,12.53-4.5,18.77,6.66,9.81,13.87-5.17,4.15-35.9,17.42-36.81,20.02,1.84,26.79,9.76,53.95,11.17,80.67.21,4.6,1.39,10.93-2.35,14.15-6.08,5.25-12.94-.52-13.57-7.2l-9.88-80.41-.06.1Z"/>
      <path class="cls-2" d="M658.41,202.32c-4.39-1.09-8.42-7.63-8.1-12.05.48-5.81,17.28-22.33,22.43-27.09,3.75-3.47,11.47-12.48,16.59-6.26,4.86,5.9-18.38,27.14-16.75,28.54,57.01-2.11,8.15,47.8-10.13,63.34-6.2,4.06-16.04,1.53-15.26-6.59.78-8.12,29.76-28.17,32.54-39.16-6.17-1.1-15.69.62-21.36-.77l.05.05Z"/>
      <path class="cls-2" d="M251.05,145.66c1.46-.15,2.59,0,3.63,1.06l1.43,2.32c1.41,14.7,1.04,29.44,2.83,44.15,1.41,11.66,7.09,27.85,7.43,37.82.28,8.68-12.31,11.83-16.23,2.3-6.31-15.24-7.95-62.34-5.57-78.81.57-3.74,1.82-8.44,6.48-8.9v.05Z"/>
      <path class="cls-2" d="M104.65,296.19c-9.09,15.2-8.45,36.32-15.48,51.43-8.37,17.91-23.31,14.06-19.76-6.18,2.38-13.58,19.24-34.48,30.62-42.94,1.5-1.13,2.21-2.91,4.62-2.31Z"/>
    </g>
  </g>
</svg>