<?xml version="1.0" encoding="utf-8"?>
<!-- Generator: Adobe Illustrator 28.0.0, SVG Export Plug-In . SVG Version: 6.00 Build 0)  -->
<svg version="1.1" id="Flat" xmlns="http://www.w3.org/2000/svg" xmlns:xlink="http://www.w3.org/1999/xlink" x="0px" y="0px"
	 viewBox="0 0 256 256" style="enable-background:new 0 0 256 256;" xml:space="preserve">
<style type="text/css">
	.st0{fill:#FFFFFF;}
</style>
<path class="st0" d="M201.3,160H65.6l2.9,16H192c15.5,0,28,12.5,28,28c0,15.5-12.5,28-28,28c-15.5,0-28-12.5-28-28
	c0-4.2,0.9-8.3,2.7-12H97.3c6.6,14,0.7,30.7-13.3,37.3c-14,6.6-30.7,0.7-37.3-13.3c-5.5-11.5-2.5-25.2,7.2-33.4
	c-0.5-1.2-0.9-2.5-1.2-3.8L26.1,32H8c-4.4,0-8-3.6-8-8s3.6-8,8-8h18.1c7.7,0,14.4,5.5,15.7,13.1L46.7,56h167.7c8.8,0,16,7.2,16,16
	c0,1-0.1,1.9-0.3,2.9l-13.1,72C215.7,154.5,209.1,160,201.3,160z"/>
</svg>
