<?xml version="1.0" encoding="UTF-8"?>
<svg id="Layer_1" data-name="Layer 1" xmlns="http://www.w3.org/2000/svg" viewBox="0 0 29.96 25.02">
  <defs>
    <style>
      .cls-1, .cls-2, .cls-3, .cls-4, .cls-5, .cls-6 {
        stroke-width: 0px;
      }

      .cls-2 {
        fill: #889a6a;
      }

      .cls-3 {
        fill: #e2d271;
      }

      .cls-4 {
        fill: #fff;
      }

      .cls-5 {
        fill: #e8e7e7;
      }

      .cls-6 {
        fill: #e9e8e7;
      }
    </style>
  </defs>
  <path class="cls-1" d="m22.86,2.44C22.48,1.23,16.78-.06,11.33,0,6.39.06-.08,1.06,0,3.42c.23,1.51.89,1.47,1.39,3.78,2.44,9.03,6.41,7.03,6.37,8.15,0,.79-1.35.33-2.18,1.26-.5.3-1.07,2.6,6.23,2.67,7.95-.06,7.49-2.13,7.18-2.6-.43-.65-2.67-1.04-2.48-1.68-.23-.63,2.39-.45,4.09-3.29.2-1.24,8.07-.01,9.3-5.86C30.62-.05,24.08.12,22.86,2.44Zm-2.02,7.02s.31-1.7,1.1-3.78c.85,1.3,2.72,1.98,2.66.64-2.12-1.58-.69-4.02,1.47-3.91,1.59.08,2.26,1.36,2.27,2.34.14,5.44-7.37,4.62-7.5,4.71Z"/>
  <g>
    <path class="cls-2" d="m19.9,16.34c-.99-.03-3.12.96-3.09,2.49s2.81,2.6,3.55,2.21c1.07-.44,1.29-4.64-.46-4.7Z"/>
    <path class="cls-4" d="m22.18,17.82c.2.45,3.08-3.49,1.05-4.04-1.74-.46-1.08,4.23-1.05,4.04Z"/>
    <path class="cls-5" d="m22.45,17.86c-.11.48,4.55-.99,3.23-2.64-1.13-1.41-3.37,2.77-3.23,2.64Z"/>
    <path class="cls-5" d="m22.89,18.63c-.41.26,3.99,2.33,4.15.35.14-1.7-4.35-.35-4.15-.35Z"/>
    <path class="cls-4" d="m22.76,18.19c-.3.4,4.56.97,4.03-1.07-.45-1.75-4.21,1.14-4.03,1.07Z"/>
    <path class="cls-4" d="m22.75,19.12c-.15-.47,4.63.56,3.47,2.32-.99,1.51-3.62-2.44-3.47-2.32Z"/>
    <path class="cls-5" d="m22.79,19.05c-.41-.25-.32,4.61,1.53,3.88,1.58-.62-1.62-4.05-1.53-3.88Z"/>
    <path class="cls-4" d="m21.9,20.11c-.17.24-1.3,3.22.56,2.99,1.41-.17.71-3,.28-3.18-.18-.14-.65-.07-.84.19Z"/>
    <path class="cls-3" d="m23.37,18.1c-.26-1.51-3.25-2.14-2.41.83.8,2.34,2.73,1.07,2.41-.83Z"/>
    <path class="cls-5" d="m21.76,19.32c.54-.2-.17,4.17-1.73,2.25-1.56-1.92,1.73-2.25,1.73-2.25Z"/>
    <path class="cls-5" d="m21.54,17.33c-.22-.19-2.28-3.25-.42-3.5,1.41-.19,1.48,3.05,1.11,3.33-.14.18-.45.37-.69.17Z"/>
    <path class="cls-4" d="m21.57,17.62c.33.06-.24-1.83-.89-2.47-.9-1-2.1.7-1.22,1.46l2.11,1.01Z"/>
    <path class="cls-5" d="m21.11,18.5c-.42.13-.98.11-1.73-.08-.96-.33-.57-1.92.61-1.97,1.8.07,2.01,1.77,1.12,2.05Z"/>
    <path class="cls-4" d="m21.23,18.34c-.43-.09-.99,0-1.71.25-.92.42-.38,1.96.8,1.9,1.79-.25,1.82-1.96.91-2.15Z"/>
  </g>
  <g>
    <path class="cls-2" d="m16.52,17.34c-.92-.36-3.26-.12-3.73,1.34s1.8,3.38,2.63,3.25c1.16-.06,2.74-3.96,1.1-4.59Z"/>
    <path class="cls-4" d="m18.2,19.49c.04.5,4.06-2.29,2.31-3.47-1.5-1.01-2.4,3.64-2.31,3.47Z"/>
    <path class="cls-5" d="m18.44,19.62c-.26.42,4.63.55,3.92-1.43-.61-1.7-4.09,1.52-3.92,1.43Z"/>
    <path class="cls-5" d="m18.6,20.49c-.47.11,3.01,3.51,3.81,1.69.69-1.56-4-1.75-3.81-1.69Z"/>
    <path class="cls-4" d="m18.62,20.04c-.41.28,3.99,2.41,4.16.31.15-1.8-4.35-.3-4.16-.31Z"/>
    <path class="cls-4" d="m18.31,20.9c0-.5,4.19,2.04,2.52,3.33-1.43,1.1-2.62-3.49-2.52-3.33Z"/>
    <path class="cls-5" d="m18.37,20.85c-.31-.38-1.82,4.25.17,4.17,1.7-.07-.2-4.36-.17-4.17Z"/>
    <path class="cls-4" d="m17.18,21.56c-.24.17-2.29,2.61-.45,3,1.39.3,1.65-2.6,1.3-2.91-.13-.19-.59-.28-.85-.09Z"/>
    <path class="cls-3" d="m19.22,20.15c.25-1.51-2.36-3.09-2.55,0-.01,2.48,2.23,1.9,2.55,0Z"/>
    <path class="cls-5" d="m17.31,20.77c.58-.01-1.52,3.89-2.37,1.56s2.37-1.56,2.37-1.56Z"/>
    <path class="cls-5" d="m17.75,18.82c-.15-.25-1.09-3.82.75-3.44,1.39.29.4,3.37-.04,3.51-.19.12-.54.2-.71-.07Z"/>
    <path class="cls-4" d="m17.68,19.1c.3.16.37-1.8-.03-2.62-.53-1.24-2.22-.03-1.63.98l1.66,1.64Z"/>
    <path class="cls-5" d="m16.97,19.78c-.44-.01-.96-.22-1.61-.64-.8-.62.09-2,1.22-1.66,1.68.66,1.32,2.33.39,2.3Z"/>
    <path class="cls-4" d="m17.13,19.67c-.37-.22-.93-.33-1.7-.32-1.01.1-1,1.73.14,2.05,1.77.35,2.36-1.25,1.56-1.73Z"/>
  </g>
  <path class="cls-6" d="m16.55,8.08c-.03-.49-.13-.96-.3-1.4.06.22.1.46.11.7.11,1.93-1.37,3.58-3.3,3.68s-3.58-1.37-3.68-3.3,1.37-3.58,3.3-3.68c.49-.03.97.05,1.41.21-.69-.35-1.47-.53-2.29-.48-2.49.14-4.41,2.27-4.27,4.76s2.27,4.41,4.76,4.27,4.41-2.27,4.27-4.76Z"/>
</svg>