<?xml version="1.0" encoding="UTF-8"?>
<svg id="Layer_1" data-name="Layer 1" xmlns="http://www.w3.org/2000/svg" viewBox="0 0 20 20">
  <defs>
    <style>
      .cls-1 {
        fill: #fff;
        stroke-width: 0px;
      }
    </style>
  </defs>
  <path class="cls-1" d="m20,3.2v13.6c-.05.24-.1.47-.16.71-.19.76-.5,1.45-1.1,1.99-.28.26-.62.39-.98.5H2.24s-.04-.03-.07-.04c-.49-.1-.87-.37-1.19-.75-.46-.55-.71-1.19-.86-1.88-.04-.17-.08-.35-.12-.53V3.2c.04-.18.08-.37.13-.55C.43,1.43.91.35,2.28,0h15.44c.56.11,1.02.39,1.36.86.33.45.58.94.71,1.48.07.29.14.58.2.87h.01Zm-11.05,9.4c.17.19.34.38.53.54.34.27.7.26,1.05,0,.11-.08.2-.17.29-.27.43-.49.86-.98,1.29-1.47,2.16-2.47,4.32-4.93,6.47-7.4.09-.1.17-.25.16-.37-.04-.58-.18-1.13-.5-1.62-.2-.3-.47-.46-.85-.45H2.77c-.38,0-.67.14-.9.43-.35.44-.51.94-.59,1.48-.04.23.03.42.19.6l7.48,8.54h0Zm6.61,5.84v.04c.56,0,1.12-.02,1.68,0,.46.02.76-.18,1-.54.29-.45.44-.95.5-1.48.02-.18-.02-.32-.14-.46-1.52-1.73-3.04-3.47-4.56-5.2-.17-.19-.21-.19-.37,0-.39.44-.77.89-1.16,1.33-.49.56-.98,1.13-1.48,1.68-.31.33-.69.53-1.16.48-.46-.05-.78-.32-1.07-.65-.83-.94-1.65-1.89-2.47-2.83-.16-.19-.2-.19-.34-.03-1.53,1.75-3.06,3.5-4.59,5.26-.09.11-.14.29-.13.43.05.58.31,1.08.69,1.52.3.35.67.52,1.16.51,1.66-.03,3.32-.04,4.98-.05h7.46,0Zm3.17-13.41c-.1.11-.17.18-.24.26-1.31,1.5-2.62,3-3.94,4.49-.17.2-.17.23.03.45,1.11,1.27,2.23,2.54,3.34,3.82.26.29.52.59.81.92V5.04h0ZM1.27,5.03v9.89s.03.02.05.03c.04-.05.07-.1.11-.14,1.35-1.54,2.69-3.08,4.04-4.61.13-.15.12-.24-.01-.39-1.33-1.51-2.65-3.02-3.98-4.54-.06-.06-.11-.13-.21-.23h0Z"/>
</svg>