<?xml version="1.0" encoding="UTF-8"?>
<svg id="Layer_1" data-name="Layer 1" xmlns="http://www.w3.org/2000/svg" viewBox="0 0 20.07 20.05">
  <defs>
    <style>
      .cls-1 {
        fill: #fff;
        stroke-width: 0px;
      }
    </style>
  </defs>
  <path class="cls-1" d="m0,10.03v7.23c0,1.6,1.12,2.77,2.71,2.78,2.33.02,4.66,0,6.98,0,.19,0,.24-.05.24-.24v-6.71c0-.19-.05-.24-.24-.24-.52.01-1.04,0-1.56,0-.32,0-.48-.15-.49-.46-.01-.71-.02-1.43-.02-2.14,0-.42.16-.57.58-.58.48,0,.96-.01,1.44,0,.23,0,.29-.05.29-.28-.01-.78-.03-1.55,0-2.33.09-1.98,1.25-3.29,3.18-3.56.83-.12,1.67-.03,2.51-.04.36,0,.5.14.5.5v1.75c0,.41-.14.55-.55.55s-.82-.01-1.22,0c-.93.05-1.3.44-1.31,1.37,0,.58.01,1.16,0,1.75,0,.23.06.29.29.29.79-.01,1.57,0,2.36,0,.41,0,.59.21.54.59-.08.69-.16,1.38-.25,2.07-.05.39-.19.51-.58.51h-2.11c-.19,0-.24.05-.24.24v6.68c0,.21.05.27.27.27,1.33-.01,2.65,0,3.98,0,.16,0,.33,0,.49-.03,1.38-.25,2.27-1.33,2.27-2.77V5.47c0-.97.02-1.94-.01-2.91-.06-1.43-1.25-2.56-2.69-2.56H2.69C1.19,0,0,1.19,0,2.68v7.35Z"/>
  <path class="cls-1" d="m0,10.03V2.68C0,1.19,1.19,0,2.69,0h14.67c1.44,0,2.63,1.13,2.67,2.57.03.97.01,1.94.01,2.91v11.76c0,1.44-.89,2.52-2.27,2.77-.16.03-.32.03-.49.03h-3.98c-.22,0-.27-.06-.27-.27.01-2.23.01-4.45,0-6.68,0-.19.05-.24.24-.24.7.01,1.41,0,2.11,0,.39,0,.53-.12.58-.51.08-.69.16-1.38.25-2.07.05-.39-.13-.59-.54-.59-.79,0-1.57-.01-2.36,0-.23,0-.29-.06-.29-.29.02-.58,0-1.16,0-1.75,0-.93.37-1.32,1.31-1.37.41-.02.82,0,1.22,0,.42,0,.55-.14.55-.55v-1.75c0-.36-.14-.5-.5-.5-.84,0-1.68-.08-2.51.04-1.92.27-3.08,1.59-3.18,3.56-.04.77-.02,1.55,0,2.33,0,.23-.06.29-.29.28-.48-.02-.96,0-1.44,0-.42,0-.58.16-.58.58,0,.71.01,1.43.02,2.14,0,.31.16.45.49.46h1.56c.19,0,.24.05.24.24,0,2.24-.01,4.47,0,6.71,0,.19-.05.24-.24.24H2.69c-1.57-.02-2.69-1.2-2.69-2.79v-7.23Z"/>
</svg>