<?xml version="1.0" encoding="UTF-8"?>
<svg id="Layer_1" data-name="Layer 1" xmlns="http://www.w3.org/2000/svg" viewBox="0 0 23.54 23.45">
  <defs>
    <style>
      .cls-1 {
        fill: #fff;
        stroke-width: 0px;
      }
    </style>
  </defs>
  <path class="cls-1" d="m1,14.03v-7.64c0-.68.04-1.36.22-2.01.52-1.79,1.69-2.91,3.49-3.37.46-.12.93-.15,1.4-.17.47-.03.95-.03,1.42-.03h9.66c.77,0,1.55.03,2.3.24.82.22,1.53.63,2.11,1.24.51.54.9,1.15,1.1,1.87.1.37.2.74.23,1.12.03.43.05.87.05,1.3v11c0,.9-.14,1.78-.56,2.59-.41.8-1,1.44-1.77,1.89-.25.15-.51.29-.79.37-.03-.15-.07-.3-.1-.44-.07-.33-.11-.67-.17-1-.06-.36-.17-.7-.26-1.05-.11-.4-.27-.79-.38-1.19-.02-.06-.03-.17-.15-.17.79-.81,1.15-1.8,1.26-2.91.07-.68.08-1.37.08-2.06,0-1.78.05-3.57-.06-5.35-.03-.41-.07-.82-.17-1.22-.42-1.58-1.4-2.62-2.96-3.11-.73-.23-1.5-.26-2.26-.27-1.97-.03-3.93-.05-5.9.02-.58.02-1.16.08-1.72.24-1.26.37-2.17,1.13-2.73,2.32-.3.65-.42,1.35-.47,2.05-.03.36-.03.72-.03,1.08,0,1.09,0,2.17-.02,3.26-.07,0-.12.03-.16.07-.21.21-.49.25-.75.33-.21.06-.43.08-.62.19-.4.22-.77.48-1.14.74-.04.03-.08.07-.13.06h-.02Z"/>
  <path class="cls-1" d="m18.8,18.59c.12,0,.13.1.15.17.12.4.27.79.38,1.19.09.35.21.69.26,1.05.05.34.1.67.17,1,.03.15.07.29.1.44-.35.14-.71.21-1.08.27-.74.1-1.49.1-2.24.1-3.32,0-6.63,0-9.95-.02-.7,0-1.39-.05-2.07-.24-.98-.27-1.78-.79-2.42-1.58-.62-.77-.93-1.65-1.03-2.62-.07-.72-.07-1.44-.07-2.16v-2.16c.06.01.09-.03.13-.06.37-.26.74-.52,1.14-.74.19-.11.41-.13.62-.19.27-.08.55-.12.75-.33.04-.04.09-.08.16-.07v.07c.02.78,0,1.56.04,2.34.02.34.05.68.1,1.02.08.54.24,1.05.48,1.54.25.49.61.91,1.03,1.27.28.24.59.42.92.58.3.14.61.24.94.32.34.08.68.15,1.03.16.26,0,.52.03.78.03,1.36.02,2.73.01,4.09.02h1.24c.22,0,.44,0,.66-.03.32-.04.65-.03.97-.08.55-.08,1.08-.22,1.58-.46.43-.2.79-.48,1.13-.81v-.02Z"/>
  <path class="cls-1" d="m5.28,12.12c-.02-.95-.01-1.9.01-2.85.02-.59.02-1.17.15-1.75.21-.93.71-1.64,1.59-2.03.44-.2.9-.28,1.37-.31,1.63-.11,3.26-.06,4.9-.07.75,0,1.5.01,2.26.07.58.04,1.15.16,1.66.46.75.45,1.15,1.14,1.32,1.98.09.45.11.91.12,1.37.05,1.64.03,3.29.02,4.94,0,.34-.02.68-.04,1.02-.03.49-.05.98-.2,1.45-.1.31-.23.61-.43.88-.03.05-.07.09-.12.12-.02-.07-.06-.11-.11-.16-.1-.11-.23-.2-.23-.39,0-.11,0-.24-.1-.35-.16-.18-.35-.34-.45-.57,0-.01-.02-.02-.03-.03-.28-.21-.48-.5-.7-.76-.13-.15-.29-.26-.42-.41-.15-.17-.33-.32-.44-.53,0-.01,0-.02.01-.03.64-.95.86-2,.65-3.12-.34-1.88-1.92-3.28-3.8-3.4-1.43-.09-2.62.42-3.55,1.52-.33.39-.57.83-.74,1.31-.12.33-.18.69-.21,1.04-.28.05-.56,0-.83.05-.27.06-.54.07-.81.16-.12.04-.22.12-.33.15-.14.04-.28.1-.39.19-.05.04-.1.06-.16.06h.03Zm12.03-4.66c0-.55-.43-.98-.97-.98s-.97.43-.98.96c0,.58.45,1.03,1.06.99.45-.03.89-.4.89-.98h0Z"/>
  <path class="cls-1" d="m5.28,12.12c.06,0,.11-.02.16-.06.11-.1.25-.15.39-.19.12-.04.21-.11.33-.15.26-.09.54-.1.81-.16.27-.06.56,0,.83-.05v.12c-.04,1.05.26,2,.93,2.81.31.38.67.71,1.1.97.85.49,1.76.68,2.74.56.56-.07,1.08-.27,1.57-.55.53-.31.95-.72,1.31-1.21.1.21.28.36.44.53.13.15.29.26.42.41.22.26.42.55.7.76,0,0,.02.02.03.03.1.23.29.39.45.57.09.11.1.23.1.35,0,.19.13.28.23.39.04.05.09.09.11.16-.15.23-.36.39-.58.54-.61.4-1.3.51-2.01.54-1.79.08-3.58.05-5.37.04-.66,0-1.33-.01-1.99-.11-.84-.13-1.54-.48-2.04-1.18-.34-.48-.49-1.03-.54-1.6-.1-1.08-.09-2.16-.09-3.24v-.25l-.03-.03Z"/>
  <path class="cls-1" d="m9.29,12.24c-.23-1.37.65-2.73,1.99-3.06.25-.06.5-.11.76-.09.58.05,1.13.19,1.61.57.81.64,1.14,1.47,1.05,2.48-.03.36-.14.7-.33,1.01-.19-.12-.4-.23-.63-.22-.28,0-.53-.07-.77-.19-.21-.1-.43-.17-.64-.26-.32-.13-.66-.18-.98-.3-.17-.06-.34-.11-.51-.16-.22-.06-.46-.09-.68-.16-.07-.02-.13,0-.12.1.02.13-.03.18-.17.19-.03,0-.07,0-.1.02-.16.07-.33.07-.49.08h.01Z"/>
  <path class="cls-1" d="m9.29,12.24c.17,0,.34,0,.49-.08.03-.01.06-.01.1-.02.14-.01.18-.06.17-.19-.01-.1.05-.12.12-.1.22.08.46.1.68.16.17.05.34.1.51.16.32.12.66.16.98.3.21.09.43.15.64.26.24.12.49.2.77.19.23,0,.44.1.63.22-.34.57-.81.97-1.43,1.22-1.31.53-3.08-.12-3.59-1.82-.03-.1-.04-.2-.06-.3h0Z"/>
</svg>