<?xml version="1.0" encoding="UTF-8"?>
<svg id="Layer_1" data-name="Layer 1" xmlns="http://www.w3.org/2000/svg" viewBox="0 0 136.3 49.74">
  <defs>
    <style>
      .cls-1 {
        fill: #5c5d83;
      }

      .cls-1, .cls-2, .cls-3, .cls-4, .cls-5, .cls-6, .cls-7, .cls-8 {
        stroke-width: 0px;
      }

      .cls-2 {
        fill: #889a6a;
      }

      .cls-3 {
        fill: #6c6896;
      }

      .cls-4 {
        fill: #e3d371;
      }

      .cls-5 {
        fill: #fff;
      }

      .cls-6 {
        fill: #eaeae8;
      }

      .cls-7 {
        fill: #e9e8e7;
      }

      .cls-8 {
        fill: #010101;
      }
    </style>
  </defs>
  <g>
    <path class="cls-6" d="m9.01,5c.27-.02,1.64,3.24,1.01,3.32-1.39-1.6-9.78-2.88-7.89,2.85.68,1.95,3.08,2.96,6.28,2.58,3.99-.47,6.41,1.18,7.08,3.65.59,2.18-.94,6.46-7.36,6.59-2.65.12-3.93,1.09-3.46,1.65-.92-.87.47-2.88-.54-4.11.89-.21,3.34,2.68,6.28,1.78,2.87-.88,3.06-3.51,2.57-5.23-.49-1.72-2.39-2.89-5.31-2.36-10.39,2.15-9.95-10.56-.32-9.5,1.08.26,1.38-1.18,1.65-1.2Z"/>
    <path class="cls-6" d="m20.92,5.34c-.47.1-4.75,1.07-5.93,1.44-1.25.32-1.96.83-.56,1.03.85.16,1.31.83,1.31.83,0,0,2.12,8.33,2.55,9.98.43,1.65-.03,1.51-.55,2.09-.37.61.25.52.25.52,0,0,3.28-.79,3.82-.92.92-.22.29-.79-.24-.78-.53-.12-.83-.28-1.12-1.45-.38-1.59-.57-2.39-.94-3.98,0,0,2.1-.51,3.76-.89,2.49-.64,3.95-2.2,3.4-4.88-.52-2.53-3.14-3.56-5.76-2.99Zm-.89,7.85c-.45.1-.87-.44-.97-.88-.42-1.63-.63-2.44-1.05-4.07,0,0-.51-1.18.43-1.54,7.52-3.12,9.64,5.66,1.59,6.49Z"/>
    <path class="cls-6" d="m72.78,7.05c.94-.65,1.53-1.31,1.57-2.81.07-2.58-1.77-4.17-4.44-4.22-.48,0-4.84-.05-6.07.04-1.28.03-2.08.36-.77.88.79.35,1.08,1.1,1.08,1.1,0,0,.15,8.6.19,10.3.04,1.71-.37,1.46-1.01,1.9-.5.51.12.57.12.57,0,0,6.41-.06,7-.05,1.49.02,4.32-.99,4.41-4.04.09-3.04-2.08-3.67-2.08-3.67Zm-6.56-1.15c-.05-1.41-.07-2.12-.12-3.53-.03-.44-.05-1.26,1.1-1.51,3.12-.53,5.26.47,5.22,2.76,0,3.37-3.03,3.16-5.5,2.99-.7-.06-.7-.71-.7-.71Zm0,6.72c.02-1.52.02-2.29.04-3.81-.01-.41.17-.85.72-.96,4.4-.58,6,.75,6.05,2.83-.08,4.01-4.66,3.45-6.19,3.17-.74-.14-.62-1.23-.62-1.23Z"/>
    <path class="cls-6" d="m27.58,4.02s8.41-1.47,8.83-1.53c.61-.09,1.08,3,.48,3.1-.58.12-.45-1.61-2.13-2.03-2.11-.46-4.26.51-4.26,1.51.36,1.94.53,2.91.89,4.85.93-.17,1.4-.25,2.34-.41,1.39-.14,1.07-1.07,1.64-1.19.58-.11,1.17,2.81.4,3.02-.35.06-.7-.86-1.76-.75-.8.14-2.38.46-2.38.46.36,1.95.54,2.92.89,4.87,0,0,.16,1.4,1.38,1.17,0,0,1.99-.34,2.87-.48.48-.08,1.34-.38,1.82-2.38.45-.86,1.32,2.14.41,2.75-3.58.54-5.36.84-8.92,1.54-.42-.29.6-1.12.5-1.66-.11-.55-1.9-9.79-2.11-10.86-.21-1.07-3.23-1.36-.89-1.97Z"/>
    <path class="cls-6" d="m39.42,2.27c-.09-.63,3.84-1.02,3.9-.5.06.46,1.09,10.27,1.32,12.42.03.27-2.29,1.86-2.29,1.86,1.06-.6,1.6-.9,2.67-1.49,1.68-.2,2.53-.29,4.22-.45,1.02-.1,1.1-2.01,1.72-1.36.29.7.31,2.86-.27,2.91-.58.05-8.73.98-8.73.98,0,0-.54-.1-.09-.65.45-.55.7-1.36.52-2.74-.18-1.38-1.15-8.79-1.15-8.79-.43-2.42-1.8-1.53-1.81-2.2Z"/>
    <path class="cls-6" d="m51.06,1c-.05-.64,3.88-.81,3.92-.28.03.47.52,10.31.63,12.48.01.27-2.39,1.74-2.39,1.74,1.09-.54,1.64-.81,2.75-1.34,1.69-.11,2.54-.15,4.23-.22,1.02-.04,1.21-1.94,1.79-1.26.25.71.16,2.87-.43,2.89-.58.02-8.77.5-8.77.5,0,0-.53-.13-.05-.66.48-.52.77-1.32.67-2.71-.1-1.39-.67-8.84-.67-8.84-.3-2.44-1.71-1.62-1.68-2.3Z"/>
    <path class="cls-6" d="m83.05.36c-3.8-.26-7,3.07-7.15,7.31-.15,4.24,2.59,7.76,6.12,8,3.53.24,6.73-2.87,7.15-7.09.42-4.22-2.31-7.96-6.11-8.22Zm-.99,14.69c-2.4-.17-3.75-3.75-3.58-7.28.17-3.52,1.92-6.92,4.53-6.74,2.61.18,3.89,3.78,3.58,7.3-.31,3.51-2.13,6.88-4.53,6.72Z"/>
    <path class="cls-6" d="m104.55,3.61c-1.55-.27-2.33-.39-3.89-.63-.12.81.7,1,.67,1.76-.03.76-.97,6.32-1.21,7.84-.31,1.95-1.83,4.08-4.39,3.75-2.56-.39-3.44-2.85-3.21-4.81.18-1.53.78-7.13.95-7.88.17-.74,1.02-.7,1.12-1.52-1.56-.19-2.34-.28-3.91-.45-.08.8.62.95.72,1.73.11.77-.57,6.24-.79,8.27-.35,3.17,1.73,5.03,4.92,5.52,0,0,0,0,0,0,.02,0,.05,0,.07,0,.02,0,.05,0,.07.01,0,0,0,0,0,0,3.2.4,5.71-.83,6.23-3.98.34-2.02,1.16-7.46,1.47-8.18.31-.71,1.03-.67,1.16-1.47Z"/>
    <path class="cls-6" d="m119.03,6.37c-.72-.43-2.56-.91-2.99-.65-.57.24.74.74.76,1.51.01.51-1.05,5.21-1.89,8.83,0,0-5.02-9.86-5.34-10.55-.32-.69-1.42-1.38-2.28-1.53-1.28-.23-2.15-.07-.94.69.71.5.91.95.85,1.29-.06.33-1.54,8.35-1.85,10.01-.3,1.66-.66,1.34-1.38,1.64-.6.39.01.57.01.57.36.07.54.1.91.17.67.13,1.01.19,1.68.32.36.07.54.11.91.18,0,0,.64.06.22-.53-.56-.54-1.01-.38-.68-2.03.24-1.2,1.12-5.71,1.62-8.25,2.59,2.44,4.49,7.4,5.27,11.21,0,0,.23,1.06.49,1.12.65.15.98.23,1.63.39,0,0,3.12-13.11,3.13-13.16.65-.2.57-.81-.13-1.22Z"/>
    <path class="cls-6" d="m131.8,7.04c-.98-.52-6-2.32-9.21-2.75-.87-.08-1.59.35-.44,1.06,1.05.37,1.39.82,1.39,1.31,0,.26-3.44,12.97-3.44,12.97,0,0-.21.78-.56.85-.36.07-1.35.26-.91,1.02.4.55,6.1,1.83,6.92,1.94.81.12,7.57,1.86,10.09-5.51,2.52-7.37-2.86-10.38-3.84-10.9Zm-9.61,13.39s3.6-12.95,3.59-12.95c.4-2.92,10.5-.7,7.27,9.16-2.9,8.88-11.81,6.67-10.86,3.8Z"/>
  </g>
  <g>
    <path class="cls-8" d="m76.11,28.24c-.37-1.16-5.79-2.39-10.98-2.33-4.71.06-10.87,1.01-10.79,3.25.22,1.43.85,1.4,1.32,3.6,2.32,8.6,6.1,6.69,6.07,7.76,0,.75-1.28.32-2.08,1.2-.48.28-1.02,2.47,5.93,2.54,7.57-.06,7.14-2.03,6.84-2.47-.41-.62-2.54-.99-2.36-1.6-.22-.6,2.27-.43,3.9-3.14.19-1.18,7.69-.01,8.86-5.58.69-5.62-5.55-5.45-6.71-3.24Zm-1.93,6.69s.29-1.62,1.05-3.6c.81,1.23,2.59,1.88,2.53.61-2.02-1.5-.66-3.83,1.4-3.73,1.52.08,2.15,1.29,2.16,2.23.14,5.18-7.02,4.4-7.14,4.48Z"/>
    <g>
      <path class="cls-2" d="m73.29,41.47c-.94-.03-2.97.91-2.94,2.37s2.67,2.48,3.38,2.1c1.02-.42,1.23-4.42-.44-4.48Z"/>
      <path class="cls-5" d="m75.46,42.88c.19.43,2.94-3.33,1-3.84-1.66-.44-1.03,4.03-1,3.84Z"/>
      <path class="cls-7" d="m75.72,42.92c-.1.46,4.34-.95,3.08-2.51-1.08-1.34-3.21,2.64-3.08,2.51Z"/>
      <path class="cls-7" d="m76.14,43.65c-.39.24,3.8,2.22,3.96.33.14-1.62-4.14-.33-3.96-.33Z"/>
      <path class="cls-5" d="m76.02,43.24c-.28.38,4.34.92,3.84-1.02-.43-1.66-4.01,1.08-3.84,1.02Z"/>
      <path class="cls-5" d="m76.01,44.11c-.15-.45,4.41.53,3.3,2.21-.95,1.43-3.44-2.33-3.3-2.21Z"/>
      <path class="cls-7" d="m76.04,44.05c-.39-.24-.31,4.39,1.45,3.69,1.51-.59-1.54-3.86-1.45-3.69Z"/>
      <path class="cls-5" d="m75.2,45.06c-.16.23-1.24,3.06.53,2.84,1.34-.17.67-2.86.27-3.02-.17-.13-.62-.07-.8.18Z"/>
      <path class="cls-4" d="m76.59,43.15c-.25-1.44-3.09-2.04-2.29.79.76,2.23,2.6,1.02,2.29-.79Z"/>
      <path class="cls-7" d="m75.06,44.31c.52-.19-.16,3.97-1.65,2.14-1.49-1.83,1.65-2.14,1.65-2.14Z"/>
      <path class="cls-7" d="m74.85,42.42c-.21-.18-2.17-3.1-.4-3.33,1.34-.18,1.41,2.91,1.06,3.17-.13.17-.43.35-.66.16Z"/>
      <path class="cls-5" d="m74.88,42.69c.32.05-.23-1.74-.85-2.35-.86-.96-2,.66-1.16,1.39l2.01.96Z"/>
      <path class="cls-7" d="m74.45,43.52c-.4.12-.93.1-1.65-.08-.91-.31-.55-1.83.58-1.87,1.72.07,1.91,1.68,1.06,1.95Z"/>
      <path class="cls-5" d="m74.56,43.37c-.41-.08-.94,0-1.63.24-.87.4-.36,1.87.76,1.81,1.7-.24,1.74-1.86.87-2.05Z"/>
    </g>
    <g>
      <path class="cls-2" d="m70.07,42.42c-.88-.34-3.11-.11-3.56,1.28s1.72,3.21,2.51,3.1c1.1-.06,2.61-3.77,1.05-4.38Z"/>
      <path class="cls-5" d="m71.67,44.47c.04.47,3.86-2.18,2.2-3.31-1.42-.96-2.29,3.47-2.2,3.31Z"/>
      <path class="cls-7" d="m71.9,44.59c-.25.4,4.41.53,3.73-1.36-.58-1.62-3.9,1.45-3.73,1.36Z"/>
      <path class="cls-7" d="m72.05,45.42c-.45.1,2.86,3.34,3.63,1.61.66-1.48-3.81-1.67-3.63-1.61Z"/>
      <path class="cls-5" d="m72.07,44.99c-.39.26,3.8,2.3,3.96.3.14-1.71-4.15-.29-3.96-.3Z"/>
      <path class="cls-5" d="m71.78,45.82c0-.47,3.99,1.95,2.4,3.17-1.36,1.05-2.49-3.33-2.4-3.17Z"/>
      <path class="cls-7" d="m71.83,45.77c-.29-.36-1.73,4.05.16,3.97,1.62-.07-.19-4.15-.16-3.97Z"/>
      <path class="cls-5" d="m70.7,46.44c-.23.16-2.18,2.49-.43,2.86,1.32.28,1.57-2.48,1.24-2.77-.12-.18-.56-.27-.81-.09Z"/>
      <path class="cls-4" d="m72.65,45.09c.23-1.44-2.25-2.94-2.43,0-.01,2.36,2.12,1.81,2.43,0Z"/>
      <path class="cls-7" d="m70.82,45.69c.55,0-1.45,3.7-2.26,1.49-.81-2.22,2.26-1.49,2.26-1.49Z"/>
      <path class="cls-7" d="m71.24,43.83c-.14-.24-1.04-3.64.71-3.28,1.32.27.38,3.21-.04,3.34-.18.12-.52.19-.67-.06Z"/>
      <path class="cls-5" d="m71.17,44.1c.28.15.35-1.72-.03-2.5-.5-1.18-2.11-.03-1.55.93l1.58,1.57Z"/>
      <path class="cls-7" d="m70.5,44.75c-.41-.01-.92-.21-1.53-.61-.76-.59.08-1.9,1.16-1.58,1.6.63,1.26,2.22.37,2.19Z"/>
      <path class="cls-5" d="m70.65,44.64c-.36-.21-.88-.32-1.62-.31-.96.09-.95,1.65.13,1.96,1.69.33,2.25-1.19,1.49-1.65Z"/>
    </g>
    <path class="cls-7" d="m70.1,33.61c-.03-.47-.13-.92-.29-1.33.06.21.09.44.1.67.1,1.84-1.31,3.41-3.14,3.51s-3.41-1.31-3.51-3.14,1.31-3.41,3.14-3.51c.47-.03.92.05,1.34.2-.65-.33-1.4-.5-2.18-.46-2.38.13-4.2,2.16-4.07,4.54s2.16,4.2,4.54,4.07,4.2-2.16,4.07-4.54Z"/>
  </g>
  <g>
    <g>
      <g>
        <path class="cls-1" d="m113.87,42.74c.31-.2,1.74-.61,2.31-.45.15.32-.66.48-.66.48,0,0,.94.4.84.48s-.97-.12-1.16-.09-1.88-.06-1.33-.42Z"/>
        <g>
          <path class="cls-2" d="m88.03,43.92c-.26.38.87.38.87.38,7.68-1.69,19.48-3.76,40.97,2.9-17.27-6.64-34.13-5.3-41.85-3.28Z"/>
          <path class="cls-3" d="m111.48,44.74c.47-.06,1.53.77,1.5,1.53-.12.24-.65-.3-.65-.3,0,0,.08.25-.02.21s-.22-.22-.33-.35-.01.04-.24.03-.84-1.04-.26-1.12Z"/>
          <path class="cls-3" d="m111.62,44.69c.24.41,1.54.74,2.13.26.11-.24-.64-.33-.64-.33,0,0,.25-.09.15-.14s-.31-.03-.48-.05.03-.04-.12-.21-1.34-.03-1.04.48Z"/>
          <path class="cls-1" d="m111.53,43.89s-2.3-.87-2.58-.63,1.38,1.5,1.65,1.61,1.64-.74.92-.99Z"/>
          <path class="cls-1" d="m111.68,44.94c-.26-.13-1.12-.04-1.26.45.14.5.58.34.58.34,0,0-.05.28.04.33s.18-.07.28-.11.12.23.22.33c.63.12.6-1.11.14-1.34Z"/>
          <path class="cls-1" d="m112.03,44.68c.28.09,1.12-.14,1.18-.64-.21-.47-.63-.24-.63-.24,0,0,.01-.28-.09-.32s-.17.1-.26.15-.15-.21-.27-.29c-.64-.02-.42,1.19.07,1.34Z"/>
          <path class="cls-3" d="m112.15,44.91c.33-.15.7-1.15.39-1.64-.17-.11-.31.47-.31.47,0,0-.04-.21-.09-.13s-.4,1.49.01,1.3Z"/>
          <path class="cls-3" d="m112.13,45.03c.02.36-.67,1.17-1.25,1.14-.18-.1.26-.5.26-.5,0,0-.2.06-.16-.02s1.12-1.07,1.15-.62Z"/>
          <path class="cls-3" d="m111.85,44.83c.13-.26.06-1.12-.42-1.27-.5.13-.35.58-.35.58,0,0-.27-.06-.33.03s.07.18.1.28-.23.12-.33.22c-.13.63,1.1.62,1.34.16Z"/>
          <path class="cls-3" d="m106.55,42.29c.41-.05,1.91-.7,2.29-1.25-.09-.38-.9.06-.9.06,0,0,.17-.3.03-.29s-.33.19-.51.29-1.63,1.28-.9,1.19Z"/>
          <path class="cls-3" d="m108.53,42.19c.24-.33,1.57-1.31,2.23-1.36.28.27-.51.75-.51.75,0,0,1.13.05,1.05.17s-1.06.25-1.24.36-1.98.66-1.54.08Z"/>
          <path class="cls-3" d="m108.19,42.45c.28.17,1.22,1.14,1.38,1.64-.14.23-.63-.35-.63-.35,0,0,.06.26-.04.21s-.2-.24-.31-.37-.13.05-.24.01c-.68-.57-.67-1.44-.17-1.13Z"/>
          <path class="cls-1" d="m111.9,44.84s1.55.11,1.5.56c.27.37-.15.34-.15.34-.2.26-1.01-.41-1.35-.9Z"/>
          <ellipse class="cls-4" cx="111.96" cy="44.88" rx=".29" ry=".18" transform="translate(22.47 125.76) rotate(-63.95)"/>
          <path class="cls-3" d="m101.21,43.95c.4-.16,1.54.33,1.68,1.01-.05.24-.65-.12-.65-.12,0,0,.13.21.03.19s-.24-.15-.38-.23,0,.04-.2.08-.98-.73-.49-.93Z"/>
          <path class="cls-3" d="m101.32,43.87c.3.31,1.54.3,1.95-.26.04-.24-.64-.15-.64-.15,0,0,.2-.14.1-.16s-.28.04-.44.06.01-.04-.15-.16-1.19.28-.82.66Z"/>
          <path class="cls-1" d="m101.06,43.19s-2.24-.24-2.43.03,1.57,1.02,1.84,1.05,1.29-1.04.59-1.09Z"/>
          <path class="cls-1" d="m101.44,44.08c-.26-.06-1.01.22-1.02.69.24.41.6.17.6.17,0,0,.01.26.11.29s.14-.1.22-.16.16.18.27.24c.59-.04.28-1.12-.18-1.22Z"/>
          <path class="cls-1" d="m101.69,43.77c.26.01.96-.38.9-.84-.3-.37-.61-.07-.61-.07,0,0-.06-.25-.15-.27s-.13.13-.2.2-.19-.15-.31-.19c-.58.13-.1,1.15.38,1.18Z"/>
          <path class="cls-3" d="m101.85,43.95c.26-.21.36-1.18-.03-1.55-.18-.06-.17.49-.17.49,0,0-.09-.17-.11-.1s0,1.42.31,1.16Z"/>
          <path class="cls-3" d="m101.86,44.06c.1.31-.32,1.19-.85,1.3-.18-.05.12-.5.12-.5,0,0-.16.1-.15.02s.75-1.2.88-.81Z"/>
          <path class="cls-3" d="m101.56,43.94c.06-.26-.21-1.01-.67-1.03-.42.23-.18.59-.18.59,0,0-.26.01-.29.1s.1.15.16.23-.18.16-.25.27c.03.59,1.12.3,1.22-.16Z"/>
          <path class="cls-3" d="m97.7,43.15c.29.07,1.53.08,1.96-.14.06-.24-.63-.19-.63-.19,0,0,.21-.12.11-.16s-.28.02-.44.04-.05-.11-.14-.16c-.81-.09-1.38.48-.86.61Z"/>
          <path class="cls-3" d="m97.76,42.68c.29.09,1.34.73,1.6,1.14-.07.23-.64-.17-.64-.17,0,0,.12.22.02.19s-.23-.17-.36-.26-.1.07-.21.06c-.74-.35-.92-1.13-.41-.97Z"/>
          <path class="cls-1" d="m101.61,43.94s1.4-.26,1.46.15c.33.27-.05.34-.05.34-.12.27-1-.13-1.4-.49Z"/>
          <ellipse class="cls-4" cx="101.67" cy="43.9" rx=".32" ry=".18" transform="translate(26.22 124.97) rotate(-70.41)"/>
          <path class="cls-3" d="m102.7,40.73c.42.1,1.48-.54,1.53-1.23-.09-.23-.63.21-.63.21,0,0,.1-.22,0-.19s-.22.18-.34.28,0-.04-.21-.05-.87.86-.35.99Z"/>
          <path class="cls-3" d="m102.82,40.8c.26-.35,1.48-.51,1.96-.01.08.23-.62.24-.62.24,0,0,.22.11.13.15s-.28,0-.44,0,.02.04-.13.17-1.22-.12-.9-.55Z"/>
          <path class="cls-1" d="m102.65,41.51s-2.19.55-2.42.3,1.41-1.22,1.68-1.3,1.42.85.74,1Z"/>
          <path class="cls-1" d="m102.9,40.58c-.25.09-1.03-.08-1.1-.54.18-.44.57-.25.57-.25,0,0-.02-.26.07-.3s.16.08.24.13.13-.2.24-.28c.59-.04.43,1.07-.01,1.24Z"/>
          <path class="cls-1" d="m103.19,40.85c.26-.05,1,.25,1,.71-.24.41-.6.16-.6.16,0,0-.02.26-.12.28s-.14-.11-.22-.17-.16.17-.28.23c-.59-.05-.25-1.13.21-1.22Z"/>
          <path class="cls-3" d="m103.33,40.65c.28.17.52,1.12.18,1.54-.17.08-.23-.46-.23-.46,0,0-.06.18-.1.11s-.2-1.4.15-1.19Z"/>
          <path class="cls-3" d="m103.32,40.53c.06-.33-.48-1.14-1.02-1.17-.17.07.19.48.19.48,0,0-.18-.08-.15,0s.91,1.09.98.69Z"/>
          <path class="cls-3" d="m103.04,40.7c.1.25-.07,1.03-.52,1.11-.44-.17-.26-.56-.26-.56,0,0-.26.03-.3-.06s.08-.16.12-.25-.2-.13-.28-.23c-.05-.59,1.07-.45,1.24,0Z"/>
          <path class="cls-3" d="m99.33,42.01c.28-.11,1.5-.29,1.96-.13.09.23-.6.27-.6.27,0,0,.23.09.13.14s-.28.02-.44.03-.03.12-.12.18c-.79.2-1.43-.29-.93-.49Z"/>
          <path class="cls-3" d="m99.46,42.47c.27-.13,1.23-.91,1.43-1.35-.11-.22-.61.25-.61.25,0,0,.08-.23-.01-.19s-.2.2-.32.31-.11-.06-.22-.04c-.68.44-.76,1.24-.27,1.02Z"/>
          <path class="cls-1" d="m103.1,40.69s1.42.06,1.42-.35c.29-.31-.1-.33-.1-.33-.16-.25-.97.27-1.32.68Z"/>
          <ellipse class="cls-4" cx="103.16" cy="40.72" rx=".18" ry=".32" transform="translate(-7.15 52.21) rotate(-27.49)"/>
          <path class="cls-1" d="m110.19,41.66s1.14-2.28,1.77-1.93c.72-.18.41.44.41.44.25.46-1.25,1.29-2.18,1.49Z"/>
          <path class="cls-1" d="m111.04,41.39s1.82-1.78,2.3-1.25c.74.06.25.55.25.55.09.52-1.6.81-2.55.7Z"/>
          <path class="cls-1" d="m110.99,41.37s2.4-.88,2.61-.19c0-.05-.06.57,0,.6-.14.51-1.79.08-2.61-.41Z"/>
          <path class="cls-3" d="m110.33,41.71c.42.26,2.31.73,3.07.47.19-.45-.9-.61-.9-.61,0,0,.38-.17.24-.26s-.44-.06-.69-.1-.03-.24-.16-.38c-1.21-.48-2.31.43-1.56.88Z"/>
          <path class="cls-3" d="m115.26,43.47c.15.34,1.1,1.48,1.67,1.66.3-.18-.29-.76-.29-.76,0,0,1,.19.96.07s-.88-.44-1.01-.57-1.6-1-1.34-.39Z"/>
          <path class="cls-3" d="m117.2,44.39s.52,2.24,1.15,2.07c.59.31.46-.3.46-.3.32-.35-.82-1.39-1.6-1.77Z"/>
          <path class="cls-3" d="m116.73,44.27c.42-.14,2.19-.15,2.79.24.07.43-.92.35-.92.35,0,0,.3.22.15.28s-.4-.04-.63-.06-.08.21-.22.3c-1.16.17-1.94-.86-1.19-1.11Z"/>
          <path class="cls-1" d="m122.42,44.36s1.45-1.79,1.93-1.37c.67-.02.28.47.28.47.13.46-1.35.9-2.21.9Z"/>
          <path class="cls-1" d="m122.46,44.53c.31-.2,1.74-.61,2.31-.45.15.32-.66.48-.66.48,0,0,.94.4.84.48s-.97-.12-1.16-.09-1.88-.06-1.33-.42Z"/>
          <path class="cls-1" d="m117.59,43.57s1.5-1.75,1.97-1.31c.67,0,.27.47.27.47.12.46-1.38.86-2.24.83Z"/>
          <path class="cls-1" d="m118.42,42.98s1.99-1.16,2.29-.59c.64.22.1.53.1.53-.04.47-1.58.36-2.39.06Z"/>
          <path class="cls-1" d="m118.38,42.95s2.29-.24,2.33.4c.49.46-.13.53-.13.53-.23.42-1.59-.32-2.2-.93Z"/>
          <path class="cls-3" d="m118.25,43.7c.31.32,1.87,1.15,2.58,1.08.26-.35-.65-.73-.65-.73,0,0,.37-.06.27-.18s-.38-.15-.58-.24.03-.22-.05-.37c-.95-.69-2.11-.13-1.56.43Z"/>
          <path class="cls-3" d="m120.87,42.42c.4.16,1.53-.35,1.67-1.03-.06-.24-.65.13-.65.13,0,0,.13-.21.03-.19s-.24.15-.37.24,0-.04-.2-.08-.97.75-.48.94Z"/>
          <path class="cls-3" d="m120.98,42.5c.3-.31,1.54-.32,1.95.24.05.24-.64.16-.64.16,0,0,.21.13.11.16s-.28-.04-.44-.06.01.04-.15.16-1.2-.27-.82-.65Z"/>
          <path class="cls-1" d="m121.1,42.29c-.26.06-1.01-.21-1.03-.68.23-.41.59-.18.59-.18,0,0,.01-.26.11-.29s.15.1.23.16.16-.18.27-.24c.59.03.29,1.12-.17,1.22Z"/>
          <path class="cls-1" d="m121.35,42.6c.26-.02.96.37.91.83-.29.37-.61.08-.61.08,0,0-.05.25-.15.27s-.13-.12-.2-.19-.18.15-.31.2c-.58-.12-.11-1.15.36-1.18Z"/>
          <path class="cls-3" d="m121.51,42.41c.26.21.37,1.18-.01,1.55-.18.06-.17-.49-.17-.49,0,0-.08.17-.11.1s-.02-1.42.3-1.16Z"/>
          <path class="cls-1" d="m105.33,41.83s1.45-1.79,1.93-1.37c.67-.02.28.47.28.47.13.46-1.35.9-2.21.9Z"/>
          <path class="cls-1" d="m105.38,42c.31-.2,1.74-.61,2.31-.45.15.32-.66.48-.66.48,0,0,.94.4.84.48s-.97-.12-1.16-.09-1.88-.06-1.33-.42Z"/>
          <path class="cls-3" d="m104.18,42.33c.15.34,1.1,1.48,1.67,1.66.3-.18-.29-.76-.29-.76,0,0,1,.19.96.07s-.88-.44-1.01-.57-1.6-1-1.34-.39Z"/>
          <path class="cls-3" d="m104.82,42.34c.37-.02,1.81.32,2.23.75-.02.35-.81.09-.81.09,0,0,.62.81.49.83s-.79-.59-.97-.65-1.61-.98-.95-1.02Z"/>
          <path class="cls-1" d="m106.54,41.89s1.5-1.75,1.97-1.31c.67,0,.27.47.27.47.12.46-1.38.86-2.24.83Z"/>
          <path class="cls-3" d="m104.54,42.11c.42.13,2.19.11,2.79-.3.06-.43-.92-.33-.92-.33,0,0,.29-.23.15-.29s-.4.05-.63.07-.08-.2-.22-.3c-1.16-.15-1.92.9-1.16,1.13Z"/>
          <path class="cls-3" d="m121.51,42.3c.1-.32-.34-1.19-.87-1.29-.18.05.13.5.13.5,0,0-.17-.1-.15-.02s.76,1.2.89.8Z"/>
          <path class="cls-3" d="m121.22,42.43c.06.26-.19,1.01-.66,1.04-.42-.22-.19-.59-.19-.59,0,0-.26,0-.29-.1s.1-.15.15-.23-.18-.15-.25-.27c.02-.59,1.11-.31,1.23.15Z"/>
          <path class="cls-1" d="m116.27,43.76c.19.31,1.3,1.31,1.89,1.41.28-.22-.39-.72-.39-.72,0,0,1.02.05.96-.07s-.93-.31-1.08-.43-1.72-.76-1.38-.2Z"/>
          <path class="cls-3" d="m117.72,44.38s.84,2.15,1.43,1.89c.63.22.41-.36.41-.36.26-.4-1.01-1.26-1.84-1.53Z"/>
          <path class="cls-3" d="m121.27,44.86c.15.34,1.1,1.48,1.67,1.66.3-.18-.29-.76-.29-.76,0,0,1,.19.96.07s-.88-.44-1.01-.57-1.6-1-1.34-.39Z"/>
          <path class="cls-3" d="m121.9,44.87c.37-.02,1.81.32,2.23.75-.02.35-.81.09-.81.09,0,0,.62.81.49.83s-.79-.59-.97-.65-1.61-.98-.95-1.02Z"/>
          <path class="cls-1" d="m123.62,44.42s1.5-1.75,1.97-1.31c.67,0,.27.47.27.47.12.46-1.38.86-2.24.83Z"/>
          <path class="cls-1" d="m128.7,47.14s2.3.06,2.26.7c.43.52-.2.51-.2.51-.28.38-1.53-.52-2.06-1.21Z"/>
          <path class="cls-3" d="m127.74,46.72s2.19-.73,2.36-.11c.58.34-.01.54-.01.54-.14.46-1.62.03-2.35-.44Z"/>
          <path class="cls-1" d="m127.2,46.59c.42.13,2.19.11,2.79-.3.06-.43-.92-.33-.92-.33,0,0,.29-.23.15-.29s-.4.05-.63.07-.08-.2-.22-.3c-1.16-.15-1.92.9-1.16,1.13Z"/>
          <path class="cls-1" d="m127.49,46.42s2.25.82,1.99,1.45c.25.66-.36.44-.36.44-.41.29-1.34-1.03-1.63-1.88Z"/>
          <path class="cls-3" d="m125.33,45.61c.17-.36,1.29-1.45,1.95-1.51.35.3-.34.83-.34.83,0,0-1.92,1.32-1.61.68Z"/>
          <path class="cls-3" d="m125.9,45.9s2.22.61,2.02,1.23c.29.61-.32.44-.32.44-.37.3-1.36-.88-1.71-1.67Z"/>
          <path class="cls-1" d="m123.18,44.17s2.3-.2,2.32.45c.48.47-.14.53-.14.53-.24.41-1.58-.35-2.18-.97Z"/>
          <path class="cls-3" d="m121.62,44.64c.42.13,2.19.11,2.79-.3.06-.43-.92-.33-.92-.33,0,0,.29-.23.15-.29s-.4.05-.63.07-.08-.2-.22-.3c-1.16-.15-1.92.9-1.16,1.13Z"/>
          <path class="cls-1" d="m113.83,42.58s1.45-1.79,1.93-1.37c.67-.02.28.47.28.47.13.46-1.35.9-2.21.9Z"/>
          <path class="cls-3" d="m112.68,43.08c.15.34,1.1,1.48,1.67,1.66.3-.18-.29-.76-.29-.76,0,0,1,.19.96.07s-.88-.44-1.01-.57-1.6-1-1.34-.39Z"/>
          <path class="cls-3" d="m112.76,42.85c.37-.02,1.81.32,2.23.75-.02.35-.81.09-.81.09,0,0,.62.81.49.83s-.79-.59-.97-.65-1.61-.98-.95-1.02Z"/>
          <path class="cls-1" d="m115.03,42.64s1.5-1.75,1.97-1.31c.67,0,.27.47.27.47.12.46-1.38.86-2.24.83Z"/>
          <path class="cls-1" d="m114.59,42.39s2.3-.2,2.32.45c.48.47-.14.53-.14.53-.24.41-1.58-.35-2.18-.97Z"/>
          <path class="cls-3" d="m113.53,42.98c.42.13,2.19.11,2.79-.3.06-.43-.92-.33-.92-.33,0,0,.29-.23.15-.29s-.4.05-.63.07-.08-.2-.22-.3c-1.16-.15-1.92.9-1.16,1.13Z"/>
          <path class="cls-3" d="m125.33,45.58c.33-.37,1.98-1.1,2.75-.75.28.63-.69.89-.69.89,0,0-2.64.53-2.05-.14Z"/>
          <path class="cls-1" d="m121.27,42.42s1.4.24,1.46-.17c.32-.27-.06-.34-.06-.34-.12-.27-.99.14-1.4.51Z"/>
          <ellipse class="cls-4" cx="121.27" cy="42.39" rx=".16" ry=".28" transform="translate(-7.18 44.63) rotate(-20.26)"/>
          <path class="cls-3" d="m125.07,46.55c.31.02.91.68.8,1.17-.11.14-.39-.27-.39-.27,0,0,.02.18-.04.13s-.11-.17-.18-.27-.01.03-.16,0-.43-.78-.04-.76Z"/>
          <path class="cls-3" d="m125.17,46.53c.11.29.92.66,1.36.42.1-.15-.38-.29-.38-.29,0,0,.18-.03.12-.08s-.2-.06-.31-.09.02-.02-.05-.15-.87-.17-.74.19Z"/>
          <path class="cls-1" d="m125.19,45.85s-1.52-.58-1.71-.42.91,1,1.09,1.08,1.09-.49.61-.65Z"/>
          <path class="cls-1" d="m125.18,46.7c-.15-.11-.73-.16-.88.14.03.34.34.29.34.29,0,0-.07.17-.01.22s.13-.02.2-.04.05.16.11.24c.4.15.52-.65.25-.86Z"/>
          <path class="cls-1" d="m125.44,46.57c.17.09.74.04.84-.28-.09-.33-.38-.23-.38-.23,0,0,.04-.18-.02-.22s-.12.04-.19.07-.08-.15-.14-.22c-.42-.09-.41.73-.11.89Z"/>
          <path class="cls-3" d="m125.49,46.74c.23-.06.59-.67.45-1.03-.1-.09-.26.27-.26.27,0,0,0-.14-.05-.1s-.43.93-.14.85Z"/>
          <path class="cls-3" d="m125.46,46.82c-.03.24-.57.69-.95.6-.1-.09.23-.3.23-.3,0,0-.14.02-.1-.03s.85-.57.82-.27Z"/>
          <path class="cls-3" d="m125.3,46.65c.12-.15.17-.73-.13-.88-.34.03-.3.34-.3.34,0,0-.17-.07-.22-.02s.02.13.04.2-.17.05-.24.1c-.16.4.64.53.85.26Z"/>
          <path class="cls-1" d="m125.34,46.66s1,.25.91.54c.13.28-.14.21-.14.21-.16.14-.61-.39-.78-.75Z"/>
          <ellipse class="cls-4" cx="125.39" cy="46.66" rx=".23" ry=".13" transform="translate(4.54 104.06) rotate(-45.82)"/>
        </g>
      </g>
      <g>
        <path class="cls-1" d="m103.19,37.61c.21-.31,1.36-1.24,1.96-1.32.27.23-.43.7-.43.7,0,0,1.02,0,.96.11s-.94.27-1.1.37-1.76.68-1.39.13Z"/>
        <g>
          <path class="cls-2" d="m79.87,48.8c-.09.45.95,0,.95,0,6.41-4.56,16.46-11.08,38.84-13.36-18.49.65-33.48,8.48-39.79,13.36Z"/>
          <path class="cls-3" d="m101.77,40.39c.41-.24,1.71.11,1.98.82-.02.27-.72-.02-.72-.02,0,0,.18.2.06.2s-.29-.12-.44-.19,0,.05-.21.12-1.18-.63-.68-.93Z"/>
          <path class="cls-3" d="m101.88,40.28c.38.28,1.71.08,2.06-.59,0-.27-.72-.06-.72-.06,0,0,.2-.18.09-.19s-.3.09-.46.14,0-.04-.19-.14-1.24.5-.77.85Z"/>
          <path class="cls-1" d="m101.48,39.59s-2.45.1-2.62.43,1.85.84,2.15.84,1.22-1.32.46-1.27Z"/>
          <path class="cls-1" d="m102.04,40.49c-.29-.02-1.05.4-.99.91.32.41.67.09.67.09,0,0,.06.27.16.29s.14-.14.22-.21.2.17.33.22c.63-.14.12-1.25-.39-1.29Z"/>
          <path class="cls-1" d="m102.26,40.12c.29-.03.97-.57.83-1.05-.38-.35-.67.02-.67.02,0,0-.1-.26-.21-.26s-.12.16-.18.24-.22-.13-.36-.16c-.6.23.08,1.26.59,1.21Z"/>
          <path class="cls-3" d="m102.46,40.28c.24-.27.2-1.33-.28-1.67-.2-.03-.1.56-.1.56,0,0-.12-.17-.14-.09s.22,1.53.52,1.2Z"/>
          <path class="cls-3" d="m102.48,40.4c.16.32-.16,1.34-.71,1.53-.2-.02.05-.56.05-.56,0,0-.16.13-.16.05s.61-1.42.81-1.02Z"/>
          <path class="cls-3" d="m102.15,40.32c.02-.29-.39-1.06-.89-1-.41.31-.1.67-.1.67,0,0-.28.05-.29.16s.13.14.21.22-.17.2-.22.33c.12.63,1.25.14,1.29-.37Z"/>
          <path class="cls-3" d="m96.28,40.06c.35-.2,1.48-1.4,1.61-2.05-.24-.31-.8.41-.8.41,0,0,.04-.34-.09-.28s-.23.3-.36.47-1,1.81-.37,1.45Z"/>
          <path class="cls-3" d="m98.06,39.2c.1-.4.93-1.81,1.52-2.12.37.14-.17.89-.17.89,0,0,1.06-.39,1.04-.25s-.88.64-1,.81-1.56,1.38-1.39.67Z"/>
          <path class="cls-3" d="m97.85,39.57c.32.05,1.57.57,1.91.97-.04.26-.71-.08-.71-.08,0,0,.16.21.05.2s-.27-.14-.43-.22-.1.09-.21.1c-.85-.25-1.18-1.07-.6-.98Z"/>
          <path class="cls-1" d="m102.2,40.31s1.47-.5,1.6-.07c.39.24,0,.38,0,.38-.09.31-1.09.02-1.59-.3Z"/>
          <ellipse class="cls-4" cx="102.27" cy="40.32" rx=".29" ry=".18" transform="translate(56.63 140.33) rotate(-86.99)"/>
          <path class="cls-3" d="m92.01,43.68c.31-.3,1.54-.3,1.95.27.04.24-.64.15-.64.15,0,0,.2.14.1.16s-.28-.04-.44-.07.01.04-.16.15-1.19-.29-.81-.67Z"/>
          <path class="cls-3" d="m92.09,43.56c.4.16,1.54-.32,1.69-1-.05-.24-.65.11-.65.11,0,0,.13-.21.03-.19s-.24.15-.38.23,0-.04-.2-.08-.99.73-.49.93Z"/>
          <path class="cls-1" d="m91.57,43.03s-2.16.65-2.23.98,1.84.32,2.11.25.78-1.46.12-1.23Z"/>
          <path class="cls-1" d="m92.27,43.71c-.26.05-.84.6-.67,1.03.38.29.61-.08.61-.08,0,0,.11.23.21.22s.09-.15.14-.24.22.1.35.11c.53-.26-.18-1.14-.65-1.05Z"/>
          <path class="cls-1" d="m92.38,43.33c.25-.09.73-.73.5-1.12-.42-.22-.59.17-.59.17,0,0-.15-.21-.24-.18s-.07.16-.1.26-.23-.07-.36-.06c-.48.35.36,1.1.81.94Z"/>
          <path class="cls-3" d="m92.6,43.43c.15-.29-.13-1.23-.63-1.42-.19.02.04.52.04.52,0,0-.15-.12-.14-.04s.55,1.31.74.94Z"/>
          <path class="cls-3" d="m92.65,43.53c.22.25.17,1.22-.28,1.53-.18.03-.09-.51-.09-.51,0,0-.11.16-.13.08s.22-1.4.49-1.09Z"/>
          <path class="cls-3" d="m92.33,43.53c-.05-.26-.59-.85-1.02-.69-.29.37.07.61.07.61,0,0-.23.11-.23.21s.15.09.23.15-.11.21-.12.34c.26.53,1.14-.16,1.06-.63Z"/>
          <path class="cls-3" d="m88.47,44.32c.3-.05,1.44-.52,1.75-.89-.04-.24-.66.07-.66.07,0,0,.15-.2.04-.19s-.25.13-.39.2-.09-.08-.2-.09c-.78.23-1.08.98-.55.9Z"/>
          <path class="cls-3" d="m88.34,43.86c.3-.03,1.52.15,1.92.42.02.24-.65.09-.65.09,0,0,.19.15.09.17s-.28-.06-.43-.1-.07.1-.17.14c-.81-.03-1.29-.68-.76-.73Z"/>
          <path class="cls-1" d="m92.38,43.51s1.19-.78,1.4-.43c.41.12.08.33.08.33,0,.3-.97.27-1.49.1Z"/>
          <ellipse class="cls-4" cx="92.42" cy="43.46" rx=".18" ry=".32" transform="translate(-2.45 5.64) rotate(-3.45)"/>
          <path class="cls-3" d="m92.12,40.14c.43-.07,1.15-1.07.93-1.73-.17-.18-.5.43-.5.43,0,0,0-.25-.07-.18s-.13.25-.2.39-.02-.03-.22.03-.47,1.14.06,1.05Z"/>
          <path class="cls-3" d="m92.26,40.15c.1-.42,1.16-1.05,1.8-.78.16.18-.47.46-.47.46,0,0,.25.01.17.09s-.26.11-.41.17.03.03-.05.21-1.17.37-1.04-.15Z"/>
          <path class="cls-1" d="m92.39,40.87s-1.8,1.36-2.1,1.22.82-1.68,1.04-1.85,1.64.23,1.07.63Z"/>
          <path class="cls-1" d="m92.25,39.91c-.19.18-.98.33-1.23-.07,0-.47.42-.45.42-.45,0,0-.12-.23-.05-.3s.18.01.28.02.05-.23.11-.35c.52-.27.82.82.47,1.14Z"/>
          <path class="cls-1" d="m92.63,40.05c.22-.15,1.02-.17,1.2.26-.07.47-.49.38-.49.38,0,0,.08.24,0,.31s-.17-.04-.27-.07-.08.22-.17.33c-.56.18-.68-.94-.28-1.2Z"/>
          <path class="cls-3" d="m92.67,39.81c.33.05.92.83.77,1.34-.12.14-.4-.33-.4-.33,0,0,.01.19-.05.14s-.74-1.21-.33-1.15Z"/>
          <path class="cls-3" d="m92.62,39.71c-.07-.32-.89-.86-1.4-.68-.13.13.36.37.36.37,0,0-.19,0-.14.06s1.26.65,1.17.25Z"/>
          <path class="cls-3" d="m92.43,39.97c.18.19.34.97-.04,1.23-.47.02-.46-.42-.46-.42,0,0-.23.12-.3.06s.01-.18.02-.28-.23-.04-.35-.11c-.28-.52.8-.83,1.13-.49Z"/>
          <path class="cls-3" d="m89.52,42.63c.21-.21,1.27-.85,1.75-.89.17.17-.45.49-.45.49,0,0,.25,0,.18.07s-.25.13-.4.2.02.12-.04.22c-.65.49-1.43.3-1.05-.08Z"/>
          <path class="cls-3" d="m89.82,43c.2-.22.78-1.32.79-1.8-.18-.16-.46.47-.46.47,0,0-.01-.25-.09-.17s-.11.26-.17.41-.12,0-.21.05c-.45.68-.21,1.44.15,1.04Z"/>
          <path class="cls-1" d="m92.47,39.94s1.33-.5,1.17-.88c.14-.4-.22-.26-.22-.26-.24-.17-.79.63-.95,1.14Z"/>
          <ellipse class="cls-4" cx="92.54" cy="39.94" rx=".18" ry=".32" transform="translate(2.88 85.98) rotate(-50.53)"/>
          <path class="cls-1" d="m99.38,38.06s.16-2.55.87-2.47c.59-.45.55.24.55.24.41.33-.64,1.67-1.42,2.23Z"/>
          <path class="cls-1" d="m100.06,37.47s.98-2.36,1.63-2.05c.71-.23.44.41.44.41.28.44-1.15,1.37-2.07,1.64Z"/>
          <path class="cls-1" d="m100,37.48s1.86-1.74,2.33-1.2c-.02-.05.17.54.24.55.07.52-1.62.78-2.56.65Z"/>
          <path class="cls-3" d="m99.53,38.05c.48.07,2.41-.23,3-.77,0-.49-1.06-.21-1.06-.21,0,0,.28-.3.12-.34s-.43.12-.67.18-.12-.21-.29-.29c-1.3.03-1.95,1.3-1.09,1.43Z"/>
          <path class="cls-3" d="m104.75,37.74c.27.25,1.59.93,2.19.87.21-.28-.56-.59-.56-.59,0,0,1-.22.91-.31s-.98-.06-1.16-.13-1.86-.29-1.38.16Z"/>
          <path class="cls-3" d="m106.9,37.83s1.36,1.86,1.86,1.46c.67.05.3-.45.3-.45.15-.45-1.3-.96-2.17-1Z"/>
          <path class="cls-3" d="m106.43,37.9c.33-.29,1.95-1,2.66-.87.23.37-.71.68-.71.68,0,0,.36.09.25.2s-.39.12-.6.19,0,.22-.08.36c-1,.61-2.12-.04-1.52-.55Z"/>
          <path class="cls-1" d="m111.69,35.76s.63-2.22,1.24-2.01c.61-.28.44.32.44.32.3.37-.89,1.35-1.68,1.69Z"/>
          <path class="cls-1" d="m111.79,35.89c.21-.31,1.36-1.24,1.96-1.32.27.23-.43.7-.43.7,0,0,1.02,0,.96.11s-.94.27-1.1.37-1.76.68-1.39.13Z"/>
          <path class="cls-1" d="m106.94,36.92s.7-2.2,1.3-1.97c.62-.26.43.33.43.33.29.38-.93,1.33-1.73,1.64Z"/>
          <path class="cls-1" d="m107.47,36.05s1.37-1.85,1.87-1.44c.67-.05.3.45.3.45.15.45-1.31.95-2.17.99Z"/>
          <path class="cls-1" d="m107.42,36.04s2.01-1.12,2.3-.54c.63.23.09.54.09.54-.05.47-1.59.33-2.39,0Z"/>
          <path class="cls-3" d="m107.6,36.78c.41.17,2.17.33,2.8-.02.1-.43-.88-.42-.88-.42,0,0,.31-.2.18-.27s-.41,0-.63.01-.06-.21-.19-.32c-1.14-.26-2,.71-1.27,1.01Z"/>
          <path class="cls-3" d="m109.51,34.58c.43-.01,1.27-.92,1.14-1.6-.15-.2-.55.37-.55.37,0,0,.04-.24-.05-.19s-.16.23-.25.36-.02-.04-.22,0-.61,1.07-.07,1.05Z"/>
          <path class="cls-3" d="m109.64,34.6c.16-.4,1.29-.9,1.89-.55.14.2-.53.4-.53.4,0,0,.24.04.16.11s-.27.08-.43.12.03.03-.08.2-1.21.22-1.01-.28Z"/>
          <path class="cls-1" d="m109.67,34.37c-.21.16-1.01.2-1.21-.22.05-.47.48-.39.48-.39,0,0-.09-.24-.02-.31s.17.04.27.06.07-.23.15-.33c.55-.2.71.91.32,1.19Z"/>
          <path class="cls-1" d="m110.02,34.55c.24-.12,1.03-.04,1.16.41-.12.46-.53.31-.53.31,0,0,.05.25-.03.3s-.17-.06-.26-.1-.11.21-.2.3c-.58.11-.55-1.02-.13-1.23Z"/>
          <path class="cls-3" d="m110.09,34.32c.32.09.8.94.6,1.43-.14.12-.35-.38-.35-.38,0,0,0,.19-.07.13s-.58-1.3-.18-1.18Z"/>
          <path class="cls-1" d="m94.98,40.12s.63-2.22,1.24-2.01c.61-.28.44.32.44.32.3.37-.89,1.35-1.68,1.69Z"/>
          <path class="cls-1" d="m95.08,40.25c.21-.31,1.36-1.24,1.96-1.32.27.23-.43.7-.43.7,0,0,1.02,0,.96.11s-.94.27-1.1.37-1.76.68-1.39.13Z"/>
          <path class="cls-3" d="m94.12,41.03c.27.25,1.59.93,2.19.87.21-.28-.56-.59-.56-.59,0,0,1-.22.91-.31s-.98-.06-1.16-.13-1.86-.29-1.38.16Z"/>
          <path class="cls-3" d="m94.71,40.79c.33-.16,1.79-.41,2.35-.18.12.33-.71.4-.71.4,0,0,.89.51.78.57s-.95-.23-1.14-.22-1.86-.27-1.27-.57Z"/>
          <path class="cls-1" d="m96.11,39.7s.7-2.2,1.3-1.97c.62-.26.43.33.43.33.29.38-.93,1.33-1.73,1.64Z"/>
          <path class="cls-3" d="m94.36,40.68c.44-.05,2.06-.76,2.45-1.36-.11-.42-.98.06-.98.06,0,0,.18-.33.02-.32s-.35.2-.55.31-.16-.16-.32-.18c-1.13.32-1.41,1.58-.63,1.5Z"/>
          <path class="cls-3" d="m110.05,34.22c-.03-.33-.77-.96-1.3-.85-.15.12.31.41.31.41,0,0-.19-.03-.14.04s1.17.8,1.13.39Z"/>
          <path class="cls-3" d="m109.83,34.45c.16.21.22,1.01-.2,1.21-.47-.04-.4-.47-.4-.47,0,0-.24.09-.31.02s.03-.17.05-.27-.23-.07-.33-.15c-.21-.55.9-.72,1.19-.34Z"/>
          <path class="cls-1" d="m105.8,37.61c.3.21,1.71.69,2.29.56.17-.31-.64-.51-.64-.51,0,0,.96-.36.86-.44s-.98.07-1.16.03-1.88-.03-1.35.36Z"/>
          <path class="cls-3" d="m107.37,37.61s1.61,1.65,2.05,1.18c.67-.04.24-.49.24-.49.09-.47-1.43-.77-2.29-.69Z"/>
          <path class="cls-3" d="m110.83,36.67c.27.25,1.59.93,2.19.87.21-.28-.56-.59-.56-.59,0,0,1-.22.91-.31s-.98-.06-1.16-.13-1.86-.29-1.38.16Z"/>
          <path class="cls-3" d="m111.42,36.43c.33-.16,1.79-.41,2.35-.18.12.33-.71.4-.71.4,0,0,.89.51.78.57s-.95-.23-1.14-.22-1.86-.27-1.27-.57Z"/>
          <path class="cls-1" d="m112.82,35.34s.7-2.2,1.3-1.97c.62-.26.43.33.43.33.29.38-.93,1.33-1.73,1.64Z"/>
          <path class="cls-1" d="m118.57,35.86s2.14-.85,2.35-.24c.59.31.02.54.02.54-.11.46-1.62.12-2.37-.31Z"/>
          <path class="cls-3" d="m117.51,35.85s1.73-1.53,2.13-1.02c.66.09.2.51.2.51.05.47-1.48.66-2.33.52Z"/>
          <path class="cls-1" d="m116.97,35.93c.44-.05,2.06-.76,2.45-1.36-.11-.42-.98.06-.98.06,0,0,.18-.33.02-.32s-.35.2-.55.31-.16-.16-.32-.18c-1.13.32-1.41,1.58-.63,1.5Z"/>
          <path class="cls-1" d="m117.16,35.66s2.4-.13,2.4.55c.48.51-.16.54-.16.54-.26.42-1.63-.42-2.24-1.1Z"/>
          <path class="cls-3" d="m114.86,35.77c.02-.4.62-1.84,1.2-2.15.44.14.01.9.01.9,0,0-1.25,1.97-1.22,1.25Z"/>
          <path class="cls-3" d="m115.5,35.81s2.28-.3,2.34.34c.5.45-.12.53-.12.53-.22.42-1.6-.28-2.22-.87Z"/>
          <path class="cls-1" d="m112.32,35.29s2.03-1.08,2.31-.5c.63.24.08.54.08.54-.06.47-1.59.3-2.39-.04Z"/>
          <path class="cls-3" d="m111.07,36.32c.44-.05,2.06-.76,2.45-1.36-.11-.42-.98.06-.98.06,0,0,.18-.33.02-.32s-.35.2-.55.31-.16-.16-.32-.18c-1.13.32-1.41,1.58-.63,1.5Z"/>
          <path class="cls-1" d="m103.09,37.48s.63-2.22,1.24-2.01c.61-.28.44.32.44.32.3.37-.89,1.35-1.68,1.69Z"/>
          <path class="cls-3" d="m102.22,38.39c.27.25,1.59.93,2.19.87.21-.28-.56-.59-.56-.59,0,0,1-.22.91-.31s-.98-.06-1.16-.13-1.86-.29-1.38.16Z"/>
          <path class="cls-3" d="m102.21,38.15c.33-.16,1.79-.41,2.35-.18.12.33-.71.4-.71.4,0,0,.89.51.78.57s-.95-.23-1.14-.22-1.86-.27-1.27-.57Z"/>
          <path class="cls-1" d="m104.22,37.06s.7-2.2,1.3-1.97c.62-.26.43.33.43.33.29.38-.93,1.33-1.73,1.64Z"/>
          <path class="cls-1" d="m103.71,37.01s2.03-1.08,2.31-.5c.63.24.08.54.08.54-.06.47-1.59.3-2.39-.04Z"/>
          <path class="cls-3" d="m102.97,37.96c.44-.05,2.06-.76,2.45-1.36-.11-.42-.98.06-.98.06,0,0,.18-.33.02-.32s-.35.2-.55.31-.16-.16-.32-.18c-1.13.32-1.41,1.58-.63,1.5Z"/>
          <path class="cls-3" d="m114.84,35.74c.16-.47,1.39-1.79,2.23-1.77.5.47-.29,1.09-.29,1.09,0,0-2.22,1.52-1.95.67Z"/>
          <path class="cls-1" d="m109.88,34.42s1.39-.33,1.27-.73c.19-.38-.19-.29-.19-.29-.22-.2-.86.52-1.09,1.02Z"/>
          <ellipse class="cls-4" cx="109.87" cy="34.39" rx=".16" ry=".28" transform="translate(6.32 84.72) rotate(-43.3)"/>
          <path class="cls-3" d="m114.99,36.73c.29-.11,1.1.27,1.2.76-.04.17-.47-.1-.47-.1,0,0,.09.15.02.14s-.17-.11-.27-.17,0,.03-.15.05-.7-.55-.33-.68Z"/>
          <path class="cls-3" d="m115.07,36.68c.21.23,1.11.25,1.41-.15.04-.17-.46-.12-.46-.12,0,0,.15-.1.08-.12s-.2.02-.32.04.01-.03-.11-.12-.87.18-.6.46Z"/>
          <path class="cls-1" d="m114.83,36.05s-1.63.06-1.74.28,1.23.56,1.43.56.81-.88.31-.84Z"/>
          <path class="cls-1" d="m115.15,36.83c-.19-.05-.73.14-.75.48.16.3.43.13.43.13,0,0,0,.19.07.21s.11-.07.17-.11.11.13.19.18c.43-.02.22-.81-.11-.89Z"/>
          <path class="cls-1" d="m115.34,36.61c.19.02.7-.26.67-.59-.21-.27-.44-.06-.44-.06,0,0-.04-.18-.11-.2s-.09.09-.15.14-.13-.11-.22-.15c-.42.08-.09.83.25.86Z"/>
          <path class="cls-3" d="m115.45,36.74c.19-.15.28-.85,0-1.12-.13-.04-.13.35-.13.35,0,0-.06-.13-.08-.07s-.03,1.02.2.84Z"/>
          <path class="cls-3" d="m115.45,36.82c.07.23-.26.85-.64.92-.13-.04.1-.36.1-.36,0,0-.12.07-.11.01s.56-.86.65-.57Z"/>
          <path class="cls-3" d="m115.24,36.73c.05-.19-.13-.73-.46-.76-.31.16-.14.42-.14.42,0,0-.19,0-.21.07s.07.11.11.17-.13.11-.18.19c0,.43.8.24.89-.09Z"/>
          <path class="cls-1" d="m115.28,36.73s1.02-.16,1.05.14c.23.2-.05.25-.05.25-.09.2-.72-.12-1.01-.38Z"/>
          <ellipse class="cls-4" cx="115.32" cy="36.71" rx=".23" ry=".13" transform="translate(39.49 131.03) rotate(-68.86)"/>
        </g>
      </g>
    </g>
    <g>
      <g>
        <path class="cls-1" d="m23.34,42.74c-.31-.2-1.74-.61-2.31-.45-.15.32.66.48.66.48,0,0-.94.4-.84.48s.97-.12,1.16-.09,1.88-.06,1.33-.42Z"/>
        <g>
          <path class="cls-2" d="m49.18,43.92c.26.38-.87.38-.87.38-7.68-1.69-19.48-3.76-40.97,2.9,17.27-6.64,34.13-5.3,41.85-3.28Z"/>
          <path class="cls-3" d="m25.73,44.74c-.47-.06-1.53.77-1.5,1.53.12.24.65-.3.65-.3,0,0-.08.25.02.21s.22-.22.33-.35.01.04.24.03.84-1.04.26-1.12Z"/>
          <path class="cls-3" d="m25.59,44.69c-.24.41-1.54.74-2.13.26-.11-.24.64-.33.64-.33,0,0-.25-.09-.15-.14s.31-.03.48-.05-.03-.04.12-.21,1.34-.03,1.04.48Z"/>
          <path class="cls-1" d="m25.68,43.89s2.3-.87,2.58-.63-1.38,1.5-1.65,1.61-1.64-.74-.92-.99Z"/>
          <path class="cls-1" d="m25.53,44.94c.26-.13,1.12-.04,1.26.45-.14.5-.58.34-.58.34,0,0,.05.28-.04.33s-.18-.07-.28-.11-.12.23-.22.33c-.63.12-.6-1.11-.14-1.34Z"/>
          <path class="cls-1" d="m25.18,44.68c-.28.09-1.12-.14-1.18-.64.21-.47.63-.24.63-.24,0,0-.01-.28.09-.32s.17.1.26.15.15-.21.27-.29c.64-.02.42,1.19-.07,1.34Z"/>
          <path class="cls-3" d="m25.06,44.91c-.33-.15-.7-1.15-.39-1.64.17-.11.31.47.31.47,0,0,.04-.21.09-.13s.4,1.49-.01,1.3Z"/>
          <path class="cls-3" d="m25.08,45.03c-.02.36.67,1.17,1.25,1.14.18-.1-.26-.5-.26-.5,0,0,.2.06.16-.02s-1.12-1.07-1.15-.62Z"/>
          <path class="cls-3" d="m25.36,44.83c-.13-.26-.06-1.12.42-1.27.5.13.35.58.35.58,0,0,.27-.06.33.03s-.07.18-.1.28.23.12.33.22c.13.63-1.1.62-1.34.16Z"/>
          <path class="cls-3" d="m30.65,42.29c-.41-.05-1.91-.7-2.29-1.25.09-.38.9.06.9.06,0,0-.17-.3-.03-.29s.33.19.51.29,1.63,1.28.9,1.19Z"/>
          <path class="cls-3" d="m28.68,42.19c-.24-.33-1.57-1.31-2.23-1.36-.28.27.51.75.51.75,0,0-1.13.05-1.05.17s1.06.25,1.24.36,1.98.66,1.54.08Z"/>
          <path class="cls-3" d="m29.02,42.45c-.28.17-1.22,1.14-1.38,1.64.14.23.63-.35.63-.35,0,0-.06.26.04.21s.2-.24.31-.37.13.05.24.01c.68-.57.67-1.44.17-1.13Z"/>
          <path class="cls-1" d="m25.3,44.84s-1.55.11-1.5.56c-.27.37.15.34.15.34.2.26,1.01-.41,1.35-.9Z"/>
          <ellipse class="cls-4" cx="25.25" cy="44.88" rx=".18" ry=".29" transform="translate(-17.14 15.65) rotate(-26.05)"/>
          <path class="cls-3" d="m36,43.95c-.4-.16-1.54.33-1.68,1.01.05.24.65-.12.65-.12,0,0-.13.21-.03.19s.24-.15.38-.23,0,.04.2.08.98-.73.49-.93Z"/>
          <path class="cls-3" d="m35.89,43.87c-.3.31-1.54.3-1.95-.26-.04-.24.64-.15.64-.15,0,0-.2-.14-.1-.16s.28.04.44.06-.01-.04.15-.16,1.19.28.82.66Z"/>
          <path class="cls-1" d="m36.15,43.19s2.24-.24,2.43.03-1.57,1.02-1.84,1.05-1.29-1.04-.59-1.09Z"/>
          <path class="cls-1" d="m35.77,44.08c.26-.06,1.01.22,1.02.69-.24.41-.6.17-.6.17,0,0-.01.26-.11.29s-.14-.1-.22-.16-.16.18-.27.24c-.59-.04-.28-1.12.18-1.22Z"/>
          <path class="cls-1" d="m35.52,43.77c-.26.01-.96-.38-.9-.84.3-.37.61-.07.61-.07,0,0,.06-.25.15-.27s.13.13.2.2.19-.15.31-.19c.58.13.1,1.15-.38,1.18Z"/>
          <path class="cls-3" d="m35.36,43.95c-.26-.21-.36-1.18.03-1.55.18-.06.17.49.17.49,0,0,.09-.17.11-.1s0,1.42-.31,1.16Z"/>
          <path class="cls-3" d="m35.35,44.06c-.1.31.32,1.19.85,1.3.18-.05-.12-.5-.12-.5,0,0,.16.1.15.02s-.75-1.2-.88-.81Z"/>
          <path class="cls-3" d="m35.65,43.94c-.06-.26.21-1.01.67-1.03.42.23.18.59.18.59,0,0,.26.01.29.1s-.1.15-.16.23.18.16.25.27c-.03.59-1.12.3-1.22-.16Z"/>
          <path class="cls-3" d="m39.51,43.15c-.29.07-1.53.08-1.96-.14-.06-.24.63-.19.63-.19,0,0-.21-.12-.11-.16s.28.02.44.04.05-.11.14-.16c.81-.09,1.38.48.86.61Z"/>
          <path class="cls-3" d="m39.44,42.68c-.29.09-1.34.73-1.6,1.14.07.23.64-.17.64-.17,0,0-.12.22-.02.19s.23-.17.36-.26.1.07.21.06c.74-.35.92-1.13.41-.97Z"/>
          <path class="cls-1" d="m35.6,43.94s-1.4-.26-1.46.15c-.33.27.05.34.05.34.12.27,1-.13,1.4-.49Z"/>
          <ellipse class="cls-4" cx="35.54" cy="43.9" rx=".18" ry=".32" transform="translate(-12.66 14.46) rotate(-19.59)"/>
          <path class="cls-3" d="m34.51,40.73c-.42.1-1.48-.54-1.53-1.23.09-.23.63.21.63.21,0,0-.1-.22,0-.19s.22.18.34.28,0-.04.21-.05.87.86.35.99Z"/>
          <path class="cls-3" d="m34.39,40.8c-.26-.35-1.48-.51-1.96-.01-.08.23.62.24.62.24,0,0-.22.11-.13.15s.28,0,.44,0-.02.04.13.17,1.22-.12.9-.55Z"/>
          <path class="cls-1" d="m34.56,41.51s2.19.55,2.42.3-1.41-1.22-1.68-1.3-1.42.85-.74,1Z"/>
          <path class="cls-1" d="m34.3,40.58c.25.09,1.03-.08,1.1-.54-.18-.44-.57-.25-.57-.25,0,0,.02-.26-.07-.3s-.16.08-.24.13-.13-.2-.24-.28c-.59-.04-.43,1.07.01,1.24Z"/>
          <path class="cls-1" d="m34.01,40.85c-.26-.05-1,.25-1,.71.24.41.6.16.6.16,0,0,.02.26.12.28s.14-.11.22-.17.16.17.28.23c.59-.05.25-1.13-.21-1.22Z"/>
          <path class="cls-3" d="m33.88,40.65c-.28.17-.52,1.12-.18,1.54.17.08.23-.46.23-.46,0,0,.06.18.1.11s.2-1.4-.15-1.19Z"/>
          <path class="cls-3" d="m33.89,40.53c-.06-.33.48-1.14,1.02-1.17.17.07-.19.48-.19.48,0,0,.18-.08.15,0s-.91,1.09-.98.69Z"/>
          <path class="cls-3" d="m34.17,40.7c-.1.25.07,1.03.52,1.11.44-.17.26-.56.26-.56,0,0,.26.03.3-.06s-.08-.16-.12-.25.2-.13.28-.23c.05-.59-1.07-.45-1.24,0Z"/>
          <path class="cls-3" d="m37.88,42.01c-.28-.11-1.5-.29-1.96-.13-.09.23.6.27.6.27,0,0-.23.09-.13.14s.28.02.44.03.03.12.12.18c.79.2,1.43-.29.93-.49Z"/>
          <path class="cls-3" d="m37.75,42.47c-.27-.13-1.23-.91-1.43-1.35.11-.22.61.25.61.25,0,0-.08-.23.01-.19s.2.2.32.31.11-.06.22-.04c.68.44.76,1.24.27,1.02Z"/>
          <path class="cls-1" d="m34.11,40.69s-1.42.06-1.42-.35c-.29-.31.1-.33.1-.33.16-.25.97.27,1.32.68Z"/>
          <ellipse class="cls-4" cx="34.05" cy="40.72" rx=".32" ry=".18" transform="translate(-17.79 52.13) rotate(-62.51)"/>
          <path class="cls-1" d="m27.02,41.66s-1.14-2.28-1.77-1.93c-.72-.18-.41.44-.41.44-.25.46,1.25,1.29,2.18,1.49Z"/>
          <path class="cls-1" d="m26.16,41.39s-1.82-1.78-2.3-1.25c-.74.06-.25.55-.25.55-.09.52,1.6.81,2.55.7Z"/>
          <path class="cls-1" d="m26.22,41.37s-2.4-.88-2.61-.19c0-.05.06.57,0,.6.14.51,1.79.08,2.61-.41Z"/>
          <path class="cls-3" d="m26.88,41.71c-.42.26-2.31.73-3.07.47-.19-.45.9-.61.9-.61,0,0-.38-.17-.24-.26s.44-.06.69-.1.03-.24.16-.38c1.21-.48,2.31.43,1.56.88Z"/>
          <path class="cls-3" d="m21.95,43.47c-.15.34-1.1,1.48-1.67,1.66-.3-.18.29-.76.29-.76,0,0-1,.19-.96.07s.88-.44,1.01-.57,1.6-1,1.34-.39Z"/>
          <path class="cls-3" d="m20.01,44.39s-.52,2.24-1.15,2.07c-.59.31-.46-.3-.46-.3-.32-.35.82-1.39,1.6-1.77Z"/>
          <path class="cls-3" d="m20.48,44.27c-.42-.14-2.19-.15-2.79.24-.07.43.92.35.92.35,0,0-.3.22-.15.28s.4-.04.63-.06.08.21.22.3c1.16.17,1.94-.86,1.19-1.11Z"/>
          <path class="cls-1" d="m14.79,44.36s-1.45-1.79-1.93-1.37c-.67-.02-.28.47-.28.47-.13.46,1.35.9,2.21.9Z"/>
          <path class="cls-1" d="m14.75,44.53c-.31-.2-1.74-.61-2.31-.45-.15.32.66.48.66.48,0,0-.94.4-.84.48s.97-.12,1.16-.09,1.88-.06,1.33-.42Z"/>
          <path class="cls-1" d="m19.62,43.57s-1.5-1.75-1.97-1.31c-.67,0-.27.47-.27.47-.12.46,1.38.86,2.24.83Z"/>
          <path class="cls-1" d="m18.79,42.98s-1.99-1.16-2.29-.59c-.64.22-.1.53-.1.53.04.47,1.58.36,2.39.06Z"/>
          <path class="cls-1" d="m18.83,42.95s-2.29-.24-2.33.4c-.49.46.13.53.13.53.23.42,1.59-.32,2.2-.93Z"/>
          <path class="cls-3" d="m18.96,43.7c-.31.32-1.87,1.15-2.58,1.08-.26-.35.65-.73.65-.73,0,0-.37-.06-.27-.18s.38-.15.58-.24-.03-.22.05-.37c.95-.69,2.11-.13,1.56.43Z"/>
          <path class="cls-3" d="m16.34,42.42c-.4.16-1.53-.35-1.67-1.03.06-.24.65.13.65.13,0,0-.13-.21-.03-.19s.24.15.37.24,0-.04.2-.08.97.75.48.94Z"/>
          <path class="cls-3" d="m16.22,42.5c-.3-.31-1.54-.32-1.95.24-.05.24.64.16.64.16,0,0-.21.13-.11.16s.28-.04.44-.06-.01.04.15.16,1.2-.27.82-.65Z"/>
          <path class="cls-1" d="m16.11,42.29c.26.06,1.01-.21,1.03-.68-.23-.41-.59-.18-.59-.18,0,0-.01-.26-.11-.29s-.15.1-.23.16-.16-.18-.27-.24c-.59.03-.29,1.12.17,1.22Z"/>
          <path class="cls-1" d="m15.86,42.6c-.26-.02-.96.37-.91.83.29.37.61.08.61.08,0,0,.05.25.15.27s.13-.12.2-.19.18.15.31.2c.58-.12.11-1.15-.36-1.18Z"/>
          <path class="cls-3" d="m15.7,42.41c-.26.21-.37,1.18.01,1.55.18.06.17-.49.17-.49,0,0,.08.17.11.1s.02-1.42-.3-1.16Z"/>
          <path class="cls-1" d="m31.87,41.83s-1.45-1.79-1.93-1.37c-.67-.02-.28.47-.28.47-.13.46,1.35.9,2.21.9Z"/>
          <path class="cls-1" d="m31.83,42c-.31-.2-1.74-.61-2.31-.45-.15.32.66.48.66.48,0,0-.94.4-.84.48s.97-.12,1.16-.09,1.88-.06,1.33-.42Z"/>
          <path class="cls-3" d="m33.03,42.33c-.15.34-1.1,1.48-1.67,1.66-.3-.18.29-.76.29-.76,0,0-1,.19-.96.07s.88-.44,1.01-.57,1.6-1,1.34-.39Z"/>
          <path class="cls-3" d="m32.39,42.34c-.37-.02-1.81.32-2.23.75.02.35.81.09.81.09,0,0-.62.81-.49.83s.79-.59.97-.65,1.61-.98.95-1.02Z"/>
          <path class="cls-1" d="m30.67,41.89s-1.5-1.75-1.97-1.31c-.67,0-.27.47-.27.47-.12.46,1.38.86,2.24.83Z"/>
          <path class="cls-3" d="m32.67,42.11c-.42.13-2.19.11-2.79-.3-.06-.43.92-.33.92-.33,0,0-.29-.23-.15-.29s.4.05.63.07.08-.2.22-.3c1.16-.15,1.92.9,1.16,1.13Z"/>
          <path class="cls-3" d="m15.69,42.3c-.1-.32.34-1.19.87-1.29.18.05-.13.5-.13.5,0,0,.17-.1.15-.02s-.76,1.2-.89.8Z"/>
          <path class="cls-3" d="m15.99,42.43c-.06.26.19,1.01.66,1.04.42-.22.19-.59.19-.59,0,0,.26,0,.29-.1s-.1-.15-.15-.23.18-.15.25-.27c-.02-.59-1.11-.31-1.23.15Z"/>
          <path class="cls-1" d="m20.94,43.76c-.19.31-1.3,1.31-1.89,1.41-.28-.22.39-.72.39-.72,0,0-1.02.05-.96-.07s.93-.31,1.08-.43,1.72-.76,1.38-.2Z"/>
          <path class="cls-3" d="m19.49,44.38s-.84,2.15-1.43,1.89c-.63.22-.41-.36-.41-.36-.26-.4,1.01-1.26,1.84-1.53Z"/>
          <path class="cls-3" d="m15.94,44.86c-.15.34-1.1,1.48-1.67,1.66-.3-.18.29-.76.29-.76,0,0-1,.19-.96.07s.88-.44,1.01-.57,1.6-1,1.34-.39Z"/>
          <path class="cls-3" d="m15.31,44.87c-.37-.02-1.81.32-2.23.75.02.35.81.09.81.09,0,0-.62.81-.49.83s.79-.59.97-.65,1.61-.98.95-1.02Z"/>
          <path class="cls-1" d="m13.58,44.42s-1.5-1.75-1.97-1.31c-.67,0-.27.47-.27.47-.12.46,1.38.86,2.24.83Z"/>
          <path class="cls-1" d="m8.5,47.14s-2.3.06-2.26.7c-.43.52.2.51.2.51.28.38,1.53-.52,2.06-1.21Z"/>
          <path class="cls-3" d="m9.47,46.72s-2.19-.73-2.36-.11c-.58.34.01.54.01.54.14.46,1.62.03,2.35-.44Z"/>
          <path class="cls-1" d="m10,46.59c-.42.13-2.19.11-2.79-.3-.06-.43.92-.33.92-.33,0,0-.29-.23-.15-.29s.4.05.63.07.08-.2.22-.3c1.16-.15,1.92.9,1.16,1.13Z"/>
          <path class="cls-1" d="m9.72,46.42s-2.25.82-1.99,1.45c-.25.66.36.44.36.44.41.29,1.34-1.03,1.63-1.88Z"/>
          <path class="cls-3" d="m11.88,45.61c-.17-.36-1.29-1.45-1.95-1.51-.35.3.34.83.34.83,0,0,1.92,1.32,1.61.68Z"/>
          <path class="cls-3" d="m11.31,45.9s-2.22.61-2.02,1.23c-.29.61.32.44.32.44.37.3,1.36-.88,1.71-1.67Z"/>
          <path class="cls-1" d="m14.03,44.17s-2.3-.2-2.32.45c-.48.47.14.53.14.53.24.41,1.58-.35,2.18-.97Z"/>
          <path class="cls-3" d="m15.59,44.64c-.42.13-2.19.11-2.79-.3-.06-.43.92-.33.92-.33,0,0-.29-.23-.15-.29s.4.05.63.07.08-.2.22-.3c1.16-.15,1.92.9,1.16,1.13Z"/>
          <path class="cls-1" d="m23.38,42.58s-1.45-1.79-1.93-1.37c-.67-.02-.28.47-.28.47-.13.46,1.35.9,2.21.9Z"/>
          <path class="cls-3" d="m24.53,43.08c-.15.34-1.1,1.48-1.67,1.66-.3-.18.29-.76.29-.76,0,0-1,.19-.96.07s.88-.44,1.01-.57,1.6-1,1.34-.39Z"/>
          <path class="cls-3" d="m24.45,42.85c-.37-.02-1.81.32-2.23.75.02.35.81.09.81.09,0,0-.62.81-.49.83s.79-.59.97-.65,1.61-.98.95-1.02Z"/>
          <path class="cls-1" d="m22.17,42.64s-1.5-1.75-1.97-1.31c-.67,0-.27.47-.27.47-.12.46,1.38.86,2.24.83Z"/>
          <path class="cls-1" d="m22.62,42.39s-2.3-.2-2.32.45c-.48.47.14.53.14.53.24.41,1.58-.35,2.18-.97Z"/>
          <path class="cls-3" d="m23.68,42.98c-.42.13-2.19.11-2.79-.3-.06-.43.92-.33.92-.33,0,0-.29-.23-.15-.29s.4.05.63.07.08-.2.22-.3c1.16-.15,1.92.9,1.16,1.13Z"/>
          <path class="cls-3" d="m11.88,45.58c-.33-.37-1.98-1.1-2.75-.75-.28.63.69.89.69.89,0,0,2.64.53,2.05-.14Z"/>
          <path class="cls-1" d="m15.94,42.42s-1.4.24-1.46-.17c-.32-.27.06-.34.06-.34.12-.27.99.14,1.4.51Z"/>
          <ellipse class="cls-4" cx="15.94" cy="42.39" rx=".28" ry=".16" transform="translate(-29.35 42.66) rotate(-69.74)"/>
          <path class="cls-3" d="m12.14,46.55c-.31.02-.91.68-.8,1.17.11.14.39-.27.39-.27,0,0-.02.18.04.13s.11-.17.18-.27.01.03.16,0,.43-.78.04-.76Z"/>
          <path class="cls-3" d="m12.04,46.53c-.11.29-.92.66-1.36.42-.1-.15.38-.29.38-.29,0,0-.18-.03-.12-.08s.2-.06.31-.09-.02-.02.05-.15.87-.17.74.19Z"/>
          <path class="cls-1" d="m12.02,45.85s1.52-.58,1.71-.42-.91,1-1.09,1.08-1.09-.49-.61-.65Z"/>
          <path class="cls-1" d="m12.03,46.7c.15-.11.73-.16.88.14-.03.34-.34.29-.34.29,0,0,.07.17.01.22s-.13-.02-.2-.04-.05.16-.11.24c-.4.15-.52-.65-.25-.86Z"/>
          <path class="cls-1" d="m11.77,46.57c-.17.09-.74.04-.84-.28.09-.33.38-.23.38-.23,0,0-.04-.18.02-.22s.12.04.19.07.08-.15.14-.22c.42-.09.41.73.11.89Z"/>
          <path class="cls-3" d="m11.72,46.74c-.23-.06-.59-.67-.45-1.03.1-.09.26.27.26.27,0,0,0-.14.05-.1s.43.93.14.85Z"/>
          <path class="cls-3" d="m11.75,46.82c.03.24.57.69.95.6.1-.09-.23-.3-.23-.3,0,0,.14.02.1-.03s-.85-.57-.82-.27Z"/>
          <path class="cls-3" d="m11.91,46.65c-.12-.15-.17-.73.13-.88.34.03.3.34.3.34,0,0,.17-.07.22-.02s-.02.13-.04.2.17.05.24.1c.16.4-.64.53-.85.26Z"/>
          <path class="cls-1" d="m11.87,46.66s-1,.25-.91.54c-.13.28.14.21.14.21.16.14.61-.39.78-.75Z"/>
          <ellipse class="cls-4" cx="11.82" cy="46.66" rx=".13" ry=".23" transform="translate(-29.17 21.43) rotate(-44.18)"/>
        </g>
      </g>
      <g>
        <path class="cls-1" d="m34.02,37.61c-.21-.31-1.36-1.24-1.96-1.32-.27.23.43.7.43.7,0,0-1.02,0-.96.11s.94.27,1.1.37,1.76.68,1.39.13Z"/>
        <g>
          <path class="cls-2" d="m57.34,48.8c.09.45-.95,0-.95,0-6.41-4.56-16.46-11.08-38.84-13.36,18.49.65,33.48,8.48,39.79,13.36Z"/>
          <path class="cls-3" d="m35.44,40.39c-.41-.24-1.71.11-1.98.82.02.27.72-.02.72-.02,0,0-.18.2-.06.2s.29-.12.44-.19,0,.05.21.12,1.18-.63.68-.93Z"/>
          <path class="cls-3" d="m35.33,40.28c-.38.28-1.71.08-2.06-.59,0-.27.72-.06.72-.06,0,0-.2-.18-.09-.19s.3.09.46.14,0-.04.19-.14,1.24.5.77.85Z"/>
          <path class="cls-1" d="m35.73,39.59s2.45.1,2.62.43-1.85.84-2.15.84-1.22-1.32-.46-1.27Z"/>
          <path class="cls-1" d="m35.17,40.49c.29-.02,1.05.4.99.91-.32.41-.67.09-.67.09,0,0-.06.27-.16.29s-.14-.14-.22-.21-.2.17-.33.22c-.63-.14-.12-1.25.39-1.29Z"/>
          <path class="cls-1" d="m34.95,40.12c-.29-.03-.97-.57-.83-1.05.38-.35.67.02.67.02,0,0,.1-.26.21-.26s.12.16.18.24.22-.13.36-.16c.6.23-.08,1.26-.59,1.21Z"/>
          <path class="cls-3" d="m34.75,40.28c-.24-.27-.2-1.33.28-1.67.2-.03.1.56.1.56,0,0,.12-.17.14-.09s-.22,1.53-.52,1.2Z"/>
          <path class="cls-3" d="m34.72,40.4c-.16.32.16,1.34.71,1.53.2-.02-.05-.56-.05-.56,0,0,.16.13.16.05s-.61-1.42-.81-1.02Z"/>
          <path class="cls-3" d="m35.06,40.32c-.02-.29.39-1.06.89-1,.41.31.1.67.1.67,0,0,.28.05.29.16s-.13.14-.21.22.17.2.22.33c-.12.63-1.25.14-1.29-.37Z"/>
          <path class="cls-3" d="m40.93,40.06c-.35-.2-1.48-1.4-1.61-2.05.24-.31.8.41.8.41,0,0-.04-.34.09-.28s.23.3.36.47,1,1.81.37,1.45Z"/>
          <path class="cls-3" d="m39.14,39.2c-.1-.4-.93-1.81-1.52-2.12-.37.14.17.89.17.89,0,0-1.06-.39-1.04-.25s.88.64,1,.81,1.56,1.38,1.39.67Z"/>
          <path class="cls-3" d="m39.36,39.57c-.32.05-1.57.57-1.91.97.04.26.71-.08.71-.08,0,0-.16.21-.05.2s.27-.14.43-.22.1.09.21.1c.85-.25,1.18-1.07.6-.98Z"/>
          <path class="cls-1" d="m35,40.31s-1.47-.5-1.6-.07c-.39.24,0,.38,0,.38.09.31,1.09.02,1.59-.3Z"/>
          <ellipse class="cls-4" cx="34.94" cy="40.32" rx=".18" ry=".29" transform="translate(-2.07 1.89) rotate(-3.01)"/>
          <path class="cls-3" d="m45.19,43.68c-.31-.3-1.54-.3-1.95.27-.04.24.64.15.64.15,0,0-.2.14-.1.16s.28-.04.44-.07-.01.04.16.15,1.19-.29.81-.67Z"/>
          <path class="cls-3" d="m45.12,43.56c-.4.16-1.54-.32-1.69-1,.05-.24.65.11.65.11,0,0-.13-.21-.03-.19s.24.15.38.23,0-.04.2-.08.99.73.49.93Z"/>
          <path class="cls-1" d="m45.63,43.03s2.16.65,2.23.98-1.84.32-2.11.25-.78-1.46-.12-1.23Z"/>
          <path class="cls-1" d="m44.94,43.71c.26.05.84.6.67,1.03-.38.29-.61-.08-.61-.08,0,0-.11.23-.21.22s-.09-.15-.14-.24-.22.1-.35.11c-.53-.26.18-1.14.65-1.05Z"/>
          <path class="cls-1" d="m44.83,43.33c-.25-.09-.73-.73-.5-1.12.42-.22.59.17.59.17,0,0,.15-.21.24-.18s.07.16.1.26.23-.07.36-.06c.48.35-.36,1.1-.81.94Z"/>
          <path class="cls-3" d="m44.61,43.43c-.15-.29.13-1.23.63-1.42.19.02-.04.52-.04.52,0,0,.15-.12.14-.04s-.55,1.31-.74.94Z"/>
          <path class="cls-3" d="m44.56,43.53c-.22.25-.17,1.22.28,1.53.18.03.09-.51.09-.51,0,0,.11.16.13.08s-.22-1.4-.49-1.09Z"/>
          <path class="cls-3" d="m44.88,43.53c.05-.26.59-.85,1.02-.69.29.37-.07.61-.07.61,0,0,.23.11.23.21s-.15.09-.23.15.11.21.12.34c-.26.53-1.14-.16-1.06-.63Z"/>
          <path class="cls-3" d="m48.74,44.32c-.3-.05-1.44-.52-1.75-.89.04-.24.66.07.66.07,0,0-.15-.2-.04-.19s.25.13.39.2.09-.08.2-.09c.78.23,1.08.98.55.9Z"/>
          <path class="cls-3" d="m48.86,43.86c-.3-.03-1.52.15-1.92.42-.02.24.65.09.65.09,0,0-.19.15-.09.17s.28-.06.43-.1.07.1.17.14c.81-.03,1.29-.68.76-.73Z"/>
          <path class="cls-1" d="m44.83,43.51s-1.19-.78-1.4-.43c-.41.12-.08.33-.08.33,0,.3.97.27,1.49.1Z"/>
          <ellipse class="cls-4" cx="44.79" cy="43.46" rx=".32" ry=".18" transform="translate(-1.28 85.55) rotate(-86.55)"/>
          <path class="cls-3" d="m45.09,40.14c-.43-.07-1.15-1.07-.93-1.73.17-.18.5.43.5.43,0,0,0-.25.07-.18s.13.25.2.39.02-.03.22.03.47,1.14-.06,1.05Z"/>
          <path class="cls-3" d="m44.95,40.15c-.1-.42-1.16-1.05-1.8-.78-.16.18.47.46.47.46,0,0-.25.01-.17.09s.26.11.41.17-.03.03.05.21,1.17.37,1.04-.15Z"/>
          <path class="cls-1" d="m44.82,40.87s1.8,1.36,2.1,1.22-.82-1.68-1.04-1.85-1.64.23-1.07.63Z"/>
          <path class="cls-1" d="m44.95,39.91c.19.18.98.33,1.23-.07,0-.47-.42-.45-.42-.45,0,0,.12-.23.05-.3s-.18.01-.28.02-.05-.23-.11-.35c-.52-.27-.82.82-.47,1.14Z"/>
          <path class="cls-1" d="m44.58,40.05c-.22-.15-1.02-.17-1.2.26.07.47.49.38.49.38,0,0-.08.24,0,.31s.17-.04.27-.07.08.22.17.33c.56.18.68-.94.28-1.2Z"/>
          <path class="cls-3" d="m44.54,39.81c-.33.05-.92.83-.77,1.34.12.14.4-.33.4-.33,0,0-.01.19.05.14s.74-1.21.33-1.15Z"/>
          <path class="cls-3" d="m44.59,39.71c.07-.32.89-.86,1.4-.68.13.13-.36.37-.36.37,0,0,.19,0,.14.06s-1.26.65-1.17.25Z"/>
          <path class="cls-3" d="m44.78,39.97c-.18.19-.34.97.04,1.23.47.02.46-.42.46-.42,0,0,.23.12.3.06s-.01-.18-.02-.28.23-.04.35-.11c.28-.52-.8-.83-1.13-.49Z"/>
          <path class="cls-3" d="m47.69,42.63c-.21-.21-1.27-.85-1.75-.89-.17.17.45.49.45.49,0,0-.25,0-.18.07s.25.13.4.2-.02.12.04.22c.65.49,1.43.3,1.05-.08Z"/>
          <path class="cls-3" d="m47.39,43c-.2-.22-.78-1.32-.79-1.8.18-.16.46.47.46.47,0,0,.01-.25.09-.17s.11.26.17.41.12,0,.21.05c.45.68.21,1.44-.15,1.04Z"/>
          <path class="cls-1" d="m44.74,39.94s-1.33-.5-1.17-.88c-.14-.4.22-.26.22-.26.24-.17.79.63.95,1.14Z"/>
          <ellipse class="cls-4" cx="44.66" cy="39.94" rx=".32" ry=".18" transform="translate(-15.2 37.5) rotate(-39.47)"/>
          <path class="cls-1" d="m37.83,38.06s-.16-2.55-.87-2.47c-.59-.45-.55.24-.55.24-.41.33.64,1.67,1.42,2.23Z"/>
          <path class="cls-1" d="m37.15,37.47s-.98-2.36-1.63-2.05c-.71-.23-.44.41-.44.41-.28.44,1.15,1.37,2.07,1.64Z"/>
          <path class="cls-1" d="m37.21,37.48s-1.86-1.74-2.33-1.2c.02-.05-.17.54-.24.55-.07.52,1.62.78,2.56.65Z"/>
          <path class="cls-3" d="m37.68,38.05c-.48.07-2.41-.23-3-.77,0-.49,1.06-.21,1.06-.21,0,0-.28-.3-.12-.34s.43.12.67.18.12-.21.29-.29c1.3.03,1.95,1.3,1.09,1.43Z"/>
          <path class="cls-3" d="m32.46,37.74c-.27.25-1.59.93-2.19.87-.21-.28.56-.59.56-.59,0,0-1-.22-.91-.31s.98-.06,1.16-.13,1.86-.29,1.38.16Z"/>
          <path class="cls-3" d="m30.31,37.83s-1.36,1.86-1.86,1.46c-.67.05-.3-.45-.3-.45-.15-.45,1.3-.96,2.17-1Z"/>
          <path class="cls-3" d="m30.78,37.9c-.33-.29-1.95-1-2.66-.87-.23.37.71.68.71.68,0,0-.36.09-.25.2s.39.12.6.19,0,.22.08.36c1,.61,2.12-.04,1.52-.55Z"/>
          <path class="cls-1" d="m25.52,35.76s-.63-2.22-1.24-2.01c-.61-.28-.44.32-.44.32-.3.37.89,1.35,1.68,1.69Z"/>
          <path class="cls-1" d="m25.41,35.89c-.21-.31-1.36-1.24-1.96-1.32-.27.23.43.7.43.7,0,0-1.02,0-.96.11s.94.27,1.1.37,1.76.68,1.39.13Z"/>
          <path class="cls-1" d="m30.27,36.92s-.7-2.2-1.3-1.97c-.62-.26-.43.33-.43.33-.29.38.93,1.33,1.73,1.64Z"/>
          <path class="cls-1" d="m29.73,36.05s-1.37-1.85-1.87-1.44c-.67-.05-.3.45-.3.45-.15.45,1.31.95,2.17.99Z"/>
          <path class="cls-1" d="m29.79,36.04s-2.01-1.12-2.3-.54c-.63.23-.09.54-.09.54.05.47,1.59.33,2.39,0Z"/>
          <path class="cls-3" d="m29.61,36.78c-.41.17-2.17.33-2.8-.02-.1-.43.88-.42.88-.42,0,0-.31-.2-.18-.27s.41,0,.63.01.06-.21.19-.32c1.14-.26,2,.71,1.27,1.01Z"/>
          <path class="cls-3" d="m27.7,34.58c-.43-.01-1.27-.92-1.14-1.6.15-.2.55.37.55.37,0,0-.04-.24.05-.19s.16.23.25.36.02-.04.22,0,.61,1.07.07,1.05Z"/>
          <path class="cls-3" d="m27.57,34.6c-.16-.4-1.29-.9-1.89-.55-.14.2.53.4.53.4,0,0-.24.04-.16.11s.27.08.43.12-.03.03.08.2,1.21.22,1.01-.28Z"/>
          <path class="cls-1" d="m27.54,34.37c.21.16,1.01.2,1.21-.22-.05-.47-.48-.39-.48-.39,0,0,.09-.24.02-.31s-.17.04-.27.06-.07-.23-.15-.33c-.55-.2-.71.91-.32,1.19Z"/>
          <path class="cls-1" d="m27.19,34.55c-.24-.12-1.03-.04-1.16.41.12.46.53.31.53.31,0,0-.05.25.03.3s.17-.06.26-.1.11.21.2.3c.58.11.55-1.02.13-1.23Z"/>
          <path class="cls-3" d="m27.12,34.32c-.32.09-.8.94-.6,1.43.14.12.35-.38.35-.38,0,0,0,.19.07.13s.58-1.3.18-1.18Z"/>
          <path class="cls-1" d="m42.23,40.12s-.63-2.22-1.24-2.01c-.61-.28-.44.32-.44.32-.3.37.89,1.35,1.68,1.69Z"/>
          <path class="cls-1" d="m42.13,40.25c-.21-.31-1.36-1.24-1.96-1.32-.27.23.43.7.43.7,0,0-1.02,0-.96.11s.94.27,1.1.37,1.76.68,1.39.13Z"/>
          <path class="cls-3" d="m43.09,41.03c-.27.25-1.59.93-2.19.87-.21-.28.56-.59.56-.59,0,0-1-.22-.91-.31s.98-.06,1.16-.13,1.86-.29,1.38.16Z"/>
          <path class="cls-3" d="m42.5,40.79c-.33-.16-1.79-.41-2.35-.18-.12.33.71.4.71.4,0,0-.89.51-.78.57s.95-.23,1.14-.22,1.86-.27,1.27-.57Z"/>
          <path class="cls-1" d="m41.1,39.7s-.7-2.2-1.3-1.97c-.62-.26-.43.33-.43.33-.29.38.93,1.33,1.73,1.64Z"/>
          <path class="cls-3" d="m42.85,40.68c-.44-.05-2.06-.76-2.45-1.36.11-.42.98.06.98.06,0,0-.18-.33-.02-.32s.35.2.55.31.16-.16.32-.18c1.13.32,1.41,1.58.63,1.5Z"/>
          <path class="cls-3" d="m27.15,34.22c.03-.33.77-.96,1.3-.85.15.12-.31.41-.31.41,0,0,.19-.03.14.04s-1.17.8-1.13.39Z"/>
          <path class="cls-3" d="m27.38,34.45c-.16.21-.22,1.01.2,1.21.47-.04.4-.47.4-.47,0,0,.24.09.31.02s-.03-.17-.05-.27.23-.07.33-.15c.21-.55-.9-.72-1.19-.34Z"/>
          <path class="cls-1" d="m31.41,37.61c-.3.21-1.71.69-2.29.56-.17-.31.64-.51.64-.51,0,0-.96-.36-.86-.44s.98.07,1.16.03,1.88-.03,1.35.36Z"/>
          <path class="cls-3" d="m29.84,37.61s-1.61,1.65-2.05,1.18c-.67-.04-.24-.49-.24-.49-.09-.47,1.43-.77,2.29-.69Z"/>
          <path class="cls-3" d="m26.38,36.67c-.27.25-1.59.93-2.19.87-.21-.28.56-.59.56-.59,0,0-1-.22-.91-.31s.98-.06,1.16-.13,1.86-.29,1.38.16Z"/>
          <path class="cls-3" d="m25.79,36.43c-.33-.16-1.79-.41-2.35-.18-.12.33.71.4.71.4,0,0-.89.51-.78.57s.95-.23,1.14-.22,1.86-.27,1.27-.57Z"/>
          <path class="cls-1" d="m24.38,35.34s-.7-2.2-1.3-1.97c-.62-.26-.43.33-.43.33-.29.38.93,1.33,1.73,1.64Z"/>
          <path class="cls-1" d="m18.64,35.86s-2.14-.85-2.35-.24c-.59.31-.02.54-.02.54.11.46,1.62.12,2.37-.31Z"/>
          <path class="cls-3" d="m19.69,35.85s-1.73-1.53-2.13-1.02c-.66.09-.2.51-.2.51-.05.47,1.48.66,2.33.52Z"/>
          <path class="cls-1" d="m20.24,35.93c-.44-.05-2.06-.76-2.45-1.36.11-.42.98.06.98.06,0,0-.18-.33-.02-.32s.35.2.55.31.16-.16.32-.18c1.13.32,1.41,1.58.63,1.5Z"/>
          <path class="cls-1" d="m20.04,35.66s-2.4-.13-2.4.55c-.48.51.16.54.16.54.26.42,1.63-.42,2.24-1.1Z"/>
          <path class="cls-3" d="m22.35,35.77c-.02-.4-.62-1.84-1.2-2.15-.44.14-.01.9-.01.9,0,0,1.25,1.97,1.22,1.25Z"/>
          <path class="cls-3" d="m21.71,35.81s-2.28-.3-2.34.34c-.5.45.12.53.12.53.22.42,1.6-.28,2.22-.87Z"/>
          <path class="cls-1" d="m24.89,35.29s-2.03-1.08-2.31-.5c-.63.24-.08.54-.08.54.06.47,1.59.3,2.39-.04Z"/>
          <path class="cls-3" d="m26.14,36.32c-.44-.05-2.06-.76-2.45-1.36.11-.42.98.06.98.06,0,0-.18-.33-.02-.32s.35.2.55.31.16-.16.32-.18c1.13.32,1.41,1.58.63,1.5Z"/>
          <path class="cls-1" d="m34.12,37.48s-.63-2.22-1.24-2.01c-.61-.28-.44.32-.44.32-.3.37.89,1.35,1.68,1.69Z"/>
          <path class="cls-3" d="m34.98,38.39c-.27.25-1.59.93-2.19.87-.21-.28.56-.59.56-.59,0,0-1-.22-.91-.31s.98-.06,1.16-.13,1.86-.29,1.38.16Z"/>
          <path class="cls-3" d="m35,38.15c-.33-.16-1.79-.41-2.35-.18-.12.33.71.4.71.4,0,0-.89.51-.78.57s.95-.23,1.14-.22,1.86-.27,1.27-.57Z"/>
          <path class="cls-1" d="m32.99,37.06s-.7-2.2-1.3-1.97c-.62-.26-.43.33-.43.33-.29.38.93,1.33,1.73,1.64Z"/>
          <path class="cls-1" d="m33.5,37.01s-2.03-1.08-2.31-.5c-.63.24-.08.54-.08.54.06.47,1.59.3,2.39-.04Z"/>
          <path class="cls-3" d="m34.24,37.96c-.44-.05-2.06-.76-2.45-1.36.11-.42.98.06.98.06,0,0-.18-.33-.02-.32s.35.2.55.31.16-.16.32-.18c1.13.32,1.41,1.58.63,1.5Z"/>
          <path class="cls-3" d="m22.36,35.74c-.16-.47-1.39-1.79-2.23-1.77-.5.47.29,1.09.29,1.09,0,0,2.22,1.52,1.95.67Z"/>
          <path class="cls-1" d="m27.33,34.42s-1.39-.33-1.27-.73c-.19-.38.19-.29.19-.29.22-.2.86.52,1.09,1.02Z"/>
          <ellipse class="cls-4" cx="27.34" cy="34.39" rx=".28" ry=".16" transform="translate(-16.44 30.7) rotate(-46.7)"/>
          <path class="cls-3" d="m22.22,36.73c-.29-.11-1.1.27-1.2.76.04.17.47-.1.47-.1,0,0-.09.15-.02.14s.17-.11.27-.17,0,.03.15.05.7-.55.33-.68Z"/>
          <path class="cls-3" d="m22.14,36.68c-.21.23-1.11.25-1.41-.15-.04-.17.46-.12.46-.12,0,0-.15-.1-.08-.12s.2.02.32.04-.01-.03.11-.12.87.18.6.46Z"/>
          <path class="cls-1" d="m22.38,36.05s1.63.06,1.74.28-1.23.56-1.43.56-.81-.88-.31-.84Z"/>
          <path class="cls-1" d="m22.06,36.83c.19-.05.73.14.75.48-.16.3-.43.13-.43.13,0,0,0,.19-.07.21s-.11-.07-.17-.11-.11.13-.19.18c-.43-.02-.22-.81.11-.89Z"/>
          <path class="cls-1" d="m21.87,36.61c-.19.02-.7-.26-.67-.59.21-.27.44-.06.44-.06,0,0,.04-.18.11-.2s.09.09.15.14.13-.11.22-.15c.42.08.09.83-.25.86Z"/>
          <path class="cls-3" d="m21.76,36.74c-.19-.15-.28-.85,0-1.12.13-.04.13.35.13.35,0,0,.06-.13.08-.07s.03,1.02-.2.84Z"/>
          <path class="cls-3" d="m21.76,36.82c-.07.23.26.85.64.92.13-.04-.1-.36-.1-.36,0,0,.12.07.11.01s-.56-.86-.65-.57Z"/>
          <path class="cls-3" d="m21.97,36.73c-.05-.19.13-.73.46-.76.31.16.14.42.14.42,0,0,.19,0,.21.07s-.07.11-.11.17.13.11.18.19c0,.43-.8.24-.89-.09Z"/>
          <path class="cls-1" d="m21.93,36.73s-1.02-.16-1.05.14c-.23.2.05.25.05.25.09.2.72-.12,1.01-.38Z"/>
          <ellipse class="cls-4" cx="21.89" cy="36.71" rx=".13" ry=".23" transform="translate(-11.77 10.36) rotate(-21.14)"/>
        </g>
      </g>
    </g>
  </g>
</svg>