<?xml version="1.0" encoding="UTF-8"?>
<svg id="Layer_1" data-name="Layer 1" xmlns="http://www.w3.org/2000/svg" viewBox="0 0 16.99 14.19">
  <defs>
    <style>
      .cls-1, .cls-2, .cls-3, .cls-4, .cls-5, .cls-6 {
        stroke-width: 0px;
      }

      .cls-2 {
        fill: #889a6a;
      }

      .cls-3 {
        fill: #e2d271;
      }

      .cls-4 {
        fill: #fff;
      }

      .cls-5 {
        fill: #e8e7e7;
      }

      .cls-6 {
        fill: #e9e8e7;
      }
    </style>
  </defs>
  <path class="cls-1" d="m12.97,1.39C12.75.7,9.52-.04,6.43,0,3.62.03-.04.6,0,1.94c.13.85.51.83.79,2.14,1.38,5.12,3.63,3.99,3.62,4.62,0,.45-.76.19-1.24.71-.29.17-.61,1.47,3.53,1.51,4.51-.03,4.25-1.21,4.07-1.47-.24-.37-1.51-.59-1.41-.95-.13-.36,1.35-.25,2.32-1.87.12-.7,4.58,0,5.28-3.32C17.37-.03,13.66.07,12.97,1.39Zm-1.15,3.98s.18-.96.63-2.14c.48.74,1.54,1.12,1.51.36-1.2-.9-.39-2.28.83-2.22.9.05,1.28.77,1.29,1.33.08,3.09-4.18,2.62-4.25,2.67Z"/>
  <g>
    <path class="cls-2" d="m11.29,9.27c-.56-.02-1.77.54-1.75,1.41s1.59,1.47,2.01,1.25c.61-.25.73-2.63-.26-2.67Z"/>
    <path class="cls-4" d="m12.58,10.11c.11.26,1.75-1.98.59-2.29-.99-.26-.61,2.4-.59,2.29Z"/>
    <path class="cls-5" d="m12.73,10.13c-.06.27,2.58-.56,1.83-1.49-.64-.8-1.91,1.57-1.83,1.49Z"/>
    <path class="cls-5" d="m12.98,10.57c-.23.15,2.26,1.32,2.36.2.08-.96-2.47-.2-2.36-.2Z"/>
    <path class="cls-4" d="m12.91,10.32c-.17.23,2.58.55,2.29-.61-.26-.99-2.39.65-2.29.61Z"/>
    <path class="cls-4" d="m12.9,10.84c-.09-.27,2.62.32,1.97,1.32-.56.85-2.05-1.39-1.97-1.32Z"/>
    <path class="cls-5" d="m12.92,10.81c-.23-.14-.18,2.61.87,2.2.9-.35-.92-2.3-.87-2.2Z"/>
    <path class="cls-4" d="m12.42,11.41c-.1.13-.74,1.82.32,1.69.8-.1.4-1.7.16-1.8-.1-.08-.37-.04-.47.11Z"/>
    <path class="cls-3" d="m13.25,10.27c-.15-.86-1.84-1.22-1.37.47.45,1.33,1.55.61,1.37-.47Z"/>
    <path class="cls-5" d="m12.34,10.96c.31-.11-.09,2.37-.98,1.28s.98-1.28.98-1.28Z"/>
    <path class="cls-5" d="m12.22,9.83c-.13-.11-1.29-1.84-.24-1.98.8-.11.84,1.73.63,1.89-.08.1-.25.21-.39.1Z"/>
    <path class="cls-4" d="m12.23,9.99c.19.03-.14-1.04-.5-1.4-.51-.57-1.19.39-.69.83l1.2.57Z"/>
    <path class="cls-5" d="m11.98,10.49c-.24.07-.56.06-.98-.05-.54-.19-.33-1.09.35-1.12,1.02.04,1.14,1,.63,1.16Z"/>
    <path class="cls-4" d="m12.04,10.4c-.24-.05-.56,0-.97.14-.52.24-.22,1.11.46,1.08,1.01-.14,1.03-1.11.52-1.22Z"/>
  </g>
  <g>
    <path class="cls-2" d="m9.37,9.84c-.52-.2-1.85-.07-2.12.76s1.02,1.91,1.49,1.84c.66-.04,1.56-2.25.62-2.61Z"/>
    <path class="cls-4" d="m10.32,11.05c.02.28,2.3-1.3,1.31-1.97-.85-.57-1.36,2.07-1.31,1.97Z"/>
    <path class="cls-5" d="m10.46,11.13c-.15.24,2.62.31,2.22-.81-.35-.96-2.32.86-2.22.81Z"/>
    <path class="cls-5" d="m10.55,11.62c-.27.06,1.71,1.99,2.16.96.39-.88-2.27-.99-2.16-.96Z"/>
    <path class="cls-4" d="m10.56,11.36c-.23.16,2.26,1.37,2.36.18.08-1.02-2.47-.17-2.36-.18Z"/>
    <path class="cls-4" d="m10.39,11.86c0-.28,2.38,1.16,1.43,1.89-.81.62-1.48-1.98-1.43-1.89Z"/>
    <path class="cls-5" d="m10.42,11.83c-.17-.21-1.03,2.41.1,2.36.97-.04-.11-2.47-.1-2.36Z"/>
    <path class="cls-4" d="m9.75,12.23c-.13.1-1.3,1.48-.26,1.7.79.17.94-1.48.74-1.65-.07-.11-.34-.16-.48-.05Z"/>
    <path class="cls-3" d="m10.9,11.43c.14-.86-1.34-1.75-1.44,0,0,1.4,1.26,1.08,1.44,0Z"/>
    <path class="cls-5" d="m9.82,11.78c.33,0-.86,2.21-1.35.88s1.35-.88,1.35-.88Z"/>
    <path class="cls-5" d="m10.07,10.68c-.09-.14-.62-2.17.42-1.95.79.16.23,1.91-.02,1.99-.11.07-.31.12-.4-.04Z"/>
    <path class="cls-4" d="m10.03,10.83c.17.09.21-1.02-.02-1.49-.3-.71-1.26-.02-.92.56l.94.93Z"/>
    <path class="cls-5" d="m9.62,11.22c-.25,0-.55-.12-.91-.36-.45-.35.05-1.13.69-.94.95.37.75,1.32.22,1.3Z"/>
    <path class="cls-4" d="m9.72,11.16c-.21-.13-.53-.19-.96-.18-.57.05-.57.98.08,1.16,1,.2,1.34-.71.89-.98Z"/>
  </g>
  <path class="cls-6" d="m9.39,4.58c-.02-.28-.08-.55-.17-.79.03.13.05.26.06.4.06,1.09-.78,2.03-1.87,2.09s-2.03-.78-2.09-1.87.78-2.03,1.87-2.09c.28-.02.55.03.8.12-.39-.2-.83-.3-1.3-.27-1.41.08-2.5,1.29-2.42,2.7s1.29,2.5,2.7,2.42,2.5-1.29,2.42-2.7Z"/>
</svg>