<?xml version="1.0" encoding="UTF-8"?>
<svg id="Contours" xmlns="http://www.w3.org/2000/svg" viewBox="0 0 145 105.1">
  <defs>
    <style>
      .cls-1 {
        fill: none;
        stroke: #fff;
        stroke-miterlimit: 10;
        stroke-width: 2px;
      }
    </style>
  </defs>
  <path class="cls-1" d="m128.22,32.59c1.02.44,1.99.89,3.07,1.05.38.06.74.25,1.13.29,1.33.18,2.59-.24,3.8-.74,1.22-.5,2.4-1.11,3.62-1.6.58-.24,1.22-.42,1.85-.44.55-.02,1.12.19,1.67.34.64.19.89,1.16.41,1.66-.6.64-1.16,1.37-1.88,1.84-.67.44-1.37.9-2.21,1.06-.5.09-.96.46-1.41.74-.97.6-1.95,1.2-2.89,1.85-1.3.91-2.26,2.16-3.19,3.44-1.11,1.53-1.59,3.31-2.17,5.05-.49,1.48-.89,2.98-.97,4.56-.04.87-.29,1.72-.43,2.58-.11.69-.18,1.38-.28,2.06-.07.47-.2.94-.27,1.41-.1.63-.15,1.25-.26,1.87-.06.38-.24.74-.32,1.12-.36,1.59-.96,3.09-1.55,4.59-.28.69-.46,1.41-.73,2.1-.16.41-.42.76-.6,1.16-.45.94-.92,1.87-1.57,2.69-.73.92-1.43,1.88-2.2,2.78-.9,1.06-1.95,1.96-3.16,2.65-1.08.6-2.15,1.29-3.31,1.71-2.34.82-4.67,1.62-6.87,2.78-1.44.76-2.88,1.52-4.36,2.2-.96.45-1.97.78-2.97,1.14-1.28.46-2.62.68-3.97.87-2.06.28-4.1.72-6.07,1.43-1.55.55-3.16.95-4.71,1.47-1.04.35-2.05.82-3.09,1.24-1.21.48-2.44.91-3.61,1.48-1.29.65-2.69,1.14-3.84,2.08-.33.28-.81.39-1.2.6-.69.41-1.35.88-2.04,1.26-1.17.65-2.38,1.22-3.54,1.89-1.38.8-2.71,1.69-4.07,2.52-.18.11-.36.2-.56.28-1.56.71-2.96,1.7-4.36,2.68-.52.36-.98.82-1.47,1.24-.06.05-.13.11-.2.15-.22.11-.44.2-.66.31-.45.25-.32-.15-.39-.33-.07-.24-.17-.46-.2-.7-.13-.72-.27-1.44-.3-2.17-.04-.73.08-1.47.07-2.21,0-.73-.09-1.46-.13-2.18-.04-.8-.06-1.6-.06-2.4-.01-1.46,0-2.93-.01-4.39-.01-.64-.05-1.26-.1-1.89-.13-1.44-.33-2.87-.4-4.32-.05-1.18-.01-2.39.1-3.57.13-1.29.33-2.59.64-3.86.19-.8.62-1.54.91-2.33.27-.74.45-1.52.74-2.24.39-.94.81-1.87,1.29-2.75.4-.73.91-1.4,1.35-2.11.15-.22.43-.52-.21-.54-.8-.01-1.61-.11-2.42-.19-.68-.06-1.38-.06-2.04-.22-1.26-.3-2.51-.65-3.73-1.04-1.09-.35-2.23-.46-3.35-.6-1.49-.2-3-.16-4.48-.51-1.27-.31-2.59-.45-3.86-.76-1.32-.33-2.62-.8-3.93-1.19-.45-.13-.93-.15-1.38-.26-.45-.13-.88-.32-1.32-.45-1.45-.42-2.93-.75-4.35-1.24-.75-.26-1.47-.43-2.24-.52-.48-.05-.93-.38-1.41-.5-1.37-.33-2.68-.83-3.97-1.4-.82-.35-1.6-.83-2.41-1.23-.4-.2-.84-.32-1.24-.53-1.38-.73-2.84-1.29-4.32-1.77-1.26-.42-2.46-1.02-3.82-1.14-.45-.03-.87-.35-1.31-.46-.69-.17-1.4-.22-2.09-.38-.55-.14-1.08-.36-1.64-.55-1.22-.41-2.41-.9-3.49-1.62-.38-.25-.35-.59.08-.79,1.04-.5,2.03-1.12,3.19-1.36.43-.08.81-.38,1.23-.56.82-.39,1.68-.72,2.48-1.16,1.76-.95,3.31-2.18,4.63-3.68,1.36-1.53,2.68-3.1,4.03-4.64.49-.57,1.02-1.13,1.49-1.72.31-.38.53-.82.82-1.22.63-.86,1.28-1.7,1.91-2.54,1.01-1.36,2.05-2.68,3.01-4.08,1.25-1.79,2.44-3.64,3.62-5.49.84-1.32,1.55-2.74,2.46-4.03,1.12-1.59,2.09-3.27,3.55-4.6.73-.65,1.3-1.48,2.05-2.11,1.31-1.08,2.69-2.11,4.08-3.1.45-.31,1.04-.42,1.55-.65.8-.36,1.6-.76,2.4-1.15.74-.34,1.5-.67,2.22-1.05.62-.32,1.19-.74,1.78-1.11.88-.53,1.7-1.18,2.64-1.56,1.22-.5,2.51-.81,3.79-1.17.73-.2,1.47-.32,2.2-.48.11-.02.23-.03.34-.05.55-.06,1.09-.16,1.64-.2.25-.02.5.06.75.06.39-.01.76-.07,1.15-.06,1.48.02,2.96.01,4.43.11,1.14.07,2.27.2,3.39.48,1.27.33,2.59.47,3.87.76,1.27.3,2.52.69,3.79,1.04,1.04.3,2.08.6,3.11.94.63.21,1.21.51,1.84.72,1.12.36,2.25.69,3.37,1.05.97.3,1.91.7,2.89.96,1.07.29,2.18.45,3.25.71.72.18,1.44.39,2.13.65.56.2,1.07.53,1.62.75.55.23,1.14.38,1.69.58.44.16.88.32,1.29.53,1.21.62,2.41,1.23,3.61,1.87,1.22.65,2.42,1.33,3.42,2.33.32.32.78.51,1.11.83.52.52.96,1.14,1.48,1.66,1.27,1.27,2.58,2.49,3.84,3.76.78.78,1.48,1.66,2.26,2.44.95.95,2,1.77,3.11,2.53,1.04.72,2.01,1.52,3.03,2.25.36.25.83.34,1.23.56,1.03.55,2.05,1.15,3.11,1.69.65.33,1.35.6,2.01.91.63.29,1.25.59,1.87.91.36.18.73.36,1.14.55m-12.83,8.71h-.09s.06.03.09.1c1.36,1.3,2.83,2.43,4.71,2.84.75.16,1.48.27,2.2-.22.51-.35,1.11-.65,1.71-.76.91-.19,1.67-.63,2.4-1.12,1.17-.79,2.28-1.67,3.39-2.53.9-.71,1.75-1.47,2.63-2.21.06-.05.1-.11.16-.18-.09,0-.21-.03-.28,0-1.09.53-2.19,1.08-3.3,1.62-.6.29-1.2.71-1.84.82-1.96.31-3.82,1.01-5.78,1.32-1.32.21-2.64.35-3.96.46-.68.05-1.36-.05-2.04-.15m5.27,31.54s.03-.07.1-.1m0,0c.23-.32.43-.67.67-.97.58-.73,1.17-1.46,1.48-2.37.22-.64.42-1.29.73-1.88.91-1.64,1.36-3.44,1.95-5.19.44-1.27.69-2.61.95-3.93.29-1.5.49-3.02.75-4.54.14-.82.33-1.64.52-2.45.16-.69.34-1.39.51-2.08.21-.86.38-1.72.64-2.55.36-1.13.72-2.27,1.23-3.35.49-1.03,1.16-1.99,1.78-2.96.43-.65.78-1.42,1.39-1.86,1.35-.97,2.82-1.8,4.26-2.64.92-.52,1.93-.89,2.85-1.42.72-.42,1.57-.67,2.05-1.43.08-.13.16-.34.09-.45-.07-.14-.27-.26-.43-.29-.75-.11-1.44.14-2.12.41-.92.35-1.81.75-2.71,1.14-.4.17-.81.32-1.18.54-.83.47-1.73.65-2.67.6-.44-.01-.89-.09-1.31-.2-.88-.24-1.75-.49-2.61-.77-.44-.15-.84-.4-1.27-.57-1.2-.5-2.41-.98-3.62-1.47-.77-.31-1.52-.68-2.3-.96-1.96-.73-3.59-1.98-5.27-3.17-.78-.56-1.66-1-2.51-1.48-.54-.3-1.09-.62-1.68-.84-1.03-.39-2.14-.64-3.14-1.09-1.06-.5-2.16-.88-3.31-1.08-.88-.16-1.76-.29-2.64-.44-.7-.11-1.42-.16-2.1-.35-.71-.21-1.38-.42-2.15-.42-.86.01-1.7-.31-2.55-.48-.57-.1-1.16-.27-1.74-.3-1.84-.07-3.04,1.08-4.21,2.25-.39.38-.73.8-1.04,1.24-.52.73-1.03,1.48-1.51,2.23-.19.3-.31.64-.45.97-.09.23-.18.48-.23.73-.11.48-.17.97-.33,1.43-.19.51-.55.96-.7,1.48-.3,1.01-.48,2.06-.76,3.08-.23.83-.58,1.64-.81,2.48-.31,1.16-.54,2.34-.86,3.5-.11.46-.38.89-.5,1.36-.27,1.05-.46,2.13-.75,3.18-.16.53-.5,1.01-.69,1.53-.26.73-.43,1.49-.68,2.23-.34,1.03-.72,2.05-1.11,3.09-.16.45-.46.88-.52,1.33-.11.89-.54,1.63-.91,2.4-.15.3-.33.58-.46.91-.04.11.03.29.04.44.09-.09.2-.19.29-.28.07-.07.15-.15.22-.23,1.29-1.36,2.58-2.71,3.87-4.08.05-.04.1-.09.15-.15.8-.97,1.59-1.95,2.41-2.91.36-.44.84-.78,1.2-1.23,1-1.24,1.99-2.5,2.95-3.79.59-.79,1.11-1.66,1.67-2.48.39-.57.77-1.15,1.18-1.7.69-.94,1.38-1.87,2.08-2.78.52-.68,1.04-1.35,1.57-2.01.45-.57.87-1.19,1.36-1.73.65-.71,1.31-1.42,2.03-2.06.6-.53,1.37-.9,1.93-1.46.91-.92,1.95-1.56,3.13-2.04.46-.2.91-.43,1.39-.56.5-.14,1.03-.2,1.54-.29.52-.08,1.08-.32,1.56-.21,1.48.35,2.86.98,4.15,1.79,1.07.68,2.14,1.38,3.25,1.98,1.47.79,2.98,1.5,4.48,2.24.93.46,1.82.97,2.78,1.33.88.33,1.8.52,2.71.75.87.22,1.74.42,2.61.64.33.08.64.26.97.29,1.03.1,2.06.15,3.09.23.18.01.35.08.52.13-.07.16-.14.31-.22.47-.04.07-.11.13-.18.18-.9.7-1.82,1.35-2.58,2.23-.51.59-1.21,1.03-1.87,1.48-1.27.86-2.55,1.7-3.87,2.49-.47.29-1.02.5-1.56.63-1.03.26-1.53,1.02-1.94,1.88-.15.3-.17.67-.28.99-.34.94-.81,1.85-1.01,2.82-.28,1.4-.52,2.84-.52,4.25.01,2.05-.32,4.12.36,6.15.28.81.31,1.71.44,2.58.11.76.24,1.51.3,2.27.05.63.01,1.26.01,1.89,0,3.64.08,4.05.01,1.22.02.44-.23,4.09-.27,4.53m.73-27.84,0,0c-.14.04-.28.07-.43.1-1.47.35-2.94.68-4.41,1.05-1.19.3-2.37.67-3.56.98-1.36.34-2.71.66-4.07,1-.31.07-.6.24-.92.3-1.03.2-2.09.31-3.11.55-1.16.28-2.28.69-3.44,1.01-1.37.38-2.78.57-4.08,1.24-.45.23-.98.38-1.48.41-1.06.07-1.84.68-2.62,1.25-.44.32-.84.73-1.17,1.17-.43.57-.88,1.18-1.09,1.84-.26.8-.31,1.68-.44,2.53-.09.6-.18,1.22-.21,1.84-.03.77-.02,1.54,0,2.31,0,.42.15.86.06,1.25-.23.96.14,1.85.22,2.76.05.53.23,1.05.33,1.59.15.72.24,1.46.41,2.18.15.7.39,1.38.52,2.08.1.52.07,1.07.14,1.62.11.98.34,1.97.38,2.96.02.75-.35,1.47-.21,2.27.08.49-.11,1.02-.19,1.53-.05.41-.04.84-.2,1.22-.48,1.11-.82,2.27-1.56,3.26-.06.08-.05.23-.07.34.14.01.26.03.39.01.22-.05.42-.16.65-.2.6-.14,1.22-.25,1.84-.35,1.27-.21,2.54-.4,3.82-.59.39-.06.78-.1,1.17-.21.88-.26,1.76-.51,2.62-.84,1.24-.48,2.48-.99,3.68-1.56.96-.46,1.86-1.05,2.81-1.54.64-.32,1.36-.51,1.99-.86,1.49-.8,2.99-1.55,4.62-2.05,1.54-.48,3.06-1,4.29-2.11.66-.59,1.51-1.05,1.59-2.1.01-.15.07-.28.1-.43.44-1.75.92-3.47.52-5.34-.16-.72-.06-1.54-.16-2.31-.1-.92-.14-1.85-.23-2.77-.07-.62-.24-1.23-.3-1.85-.1-.93-.44-1.81-.26-2.81.17-.88-.02-1.82-.06-2.73-.02-.42-.13-.84-.09-1.26.06-.77.21-1.54.3-2.33.16-1.2,0-2.46.63-3.6.44-.8.63-1.74,1.24-2.46.08-.08.08-.24.17-.36m-37.18-26.54c-.25.02-.52-.02-.75.06-1.52.58-3.17.27-4.71.71-.41.11-.9.01-1.28.17-1.04.43-2.13.44-3.2.57-.88.11-1.76.21-2.63.33-.7.1-1.18.54-1.68,1.01-.83.8-1.81,1.47-2.6,2.33-.82.9-1.57,1.9-2.21,2.95-.78,1.29-1.42,2.67-2.11,4.03-.49.97-.97,1.95-1.46,2.94-.63,1.26-1.4,2.49-1.84,3.82-.47,1.43-1.36,2.6-1.94,3.94-.21.48-.49.92-.7,1.39-.45.96-.8,1.97-1.31,2.9-.52.95-1.2,1.82-1.78,2.75-.28.46-.53.96-.76,1.45-.62,1.31-1.21,2.64-1.82,3.94-.52,1.12-1.29,2.06-2.06,3-1.15,1.36-2.3,2.71-3.51,4.01-.52.56-1.18.99-1.77,1.49-.07.06-.11.17-.18.25.09.04.18.1.27.11.4.04.8.08,1.2.1,1.13.07,2.24.11,3.36.22.58.05,1.17.19,1.75.3.63.13,1.23.3,1.86.42.9.17,1.78.34,2.58.83.09.05.21.09.32.1,1.19.15,2.39.31,3.58.41.52.04,1.05-.03,1.57-.09,1.3-.16,2.61-.33,3.9-.52.45-.07.91-.18,1.33-.31.76-.26,1.5-.58,2.26-.82.81-.26,1.66-.44,2.47-.71.97-.32,1.88-.75,2.77-1.24.95-.52,1.88-1.03,2.74-1.71,1.3-1.02,2.06-2.39,2.71-3.84.35-.8.64-1.65.94-2.48.24-.65.48-1.29.71-1.95.06-.2.04-.43.11-.63.38-1.05.77-2.11,1.16-3.17.15-.41.29-.82.42-1.23.25-.78.51-1.56.73-2.36.19-.69.3-1.4.5-2.1.19-.68.46-1.33.65-2.02.26-.95.48-1.92.74-2.88.07-.3.22-.59.3-.91.15-.6.23-1.22.42-1.81.36-1.17.78-2.31,1.17-3.47.28-.87.44-1.77.83-2.58.55-1.12,1.23-2.18,1.94-3.21.68-.95,1.45-1.85,2.21-2.73.28-.31.64-.62,1.02-.78.55-.25,1.16-.43,1.75-.52.55-.08,1.13-.05,1.69-.01.77.07,1.54.2,2.31.3.06.01.14-.02.2-.03-.07-.03-.14-.04-.21-.07-.51-.19-1.02-.39-1.54-.55-.96-.31-1.93-.65-2.91-.9-1.23-.31-2.48-.53-3.71-.86-1-.26-1.97-.56-3.02-.51-.91.05-1.81.07-2.77.16M31.82,59.18c.62.2,1.23.41,1.85.59,1.53.46,3.07.92,4.61,1.38.58.18,1.17.39,1.76.53.93.23,1.87.43,2.82.63.09.02.24-.02.32-.09,1.07-.93,2.3-1.69,3.18-2.85.27-.34.7-.55.97-.9.74-.93,1.45-1.9,2.14-2.87.55-.77,1.13-1.53,1.59-2.37.71-1.29,1.29-2.66,2-3.96.63-1.14,1.38-2.2,2.01-3.34.55-1,1.02-2.04,1.52-3.07.19-.38.31-.78.52-1.15.44-.76.96-1.47,1.35-2.25.71-1.45,1.33-2.92,1.99-4.39.39-.87.75-1.74,1.16-2.6.35-.74.76-1.46,1.14-2.19.48-.93.9-1.89,1.42-2.81.53-.95,1.14-1.86,1.72-2.77.32-.51.59-1.07,1.01-1.5.76-.8,1.62-1.51,2.43-2.26.08-.07.14-.19.2-.28-.13-.02-.25-.08-.38-.06-.86.09-1.71.25-2.58.29-1.45.07-2.91.09-4.36.11-1.35.02-2.69-.01-4.03.01-.81.01-1.62.06-2.43.09-.73.03-1.47.04-2.2.11-1.29.11-2.61.22-3.89.43-1.59.25-3.15.6-4.72.93-.23.05-.43.22-.66.3-.31.11-.67.15-.96.3-.65.35-1.24.78-1.89,1.13-.96.52-1.98.94-2.92,1.51-1.48.9-3.09,1.65-4.17,3.09-.44.57-.95,1.09-1.36,1.69-.51.73-.98,1.5-1.42,2.27-.46.81-.87,1.66-1.28,2.5-.31.63-.64,1.26-.91,1.91-.25.59-.42,1.22-.64,1.82-.11.33-.24.67-.38.99-.14.32-.32.64-.45.96-.36.95-.68,1.91-1.05,2.85-.27.67-.63,1.3-.94,1.96-.97,2.12-1.97,4.21-3.49,6.01-.34.41-.76.75-1.14,1.14-.41.44-.79.89-1.21,1.31-.3.3-.28.58.13.78.55.26,1.13.48,1.68.73.94.44,1.85.94,2.82,1.3.71.28,1.5.36,2.24.58,1.6.47,3.18.97,4.87,1.45m34.52,37.23c.53-.24,1.06-.46,1.57-.74,1.01-.57,1.99-1.22,3.02-1.75,1.78-.9,3.6-1.72,5.39-2.6.9-.44,1.76-.95,2.66-1.39,1.13-.57,2.26-1.15,3.43-1.65.93-.4,1.91-.69,2.87-1.01,1.09-.36,2.2-.73,3.31-1.07.56-.18,1.04-.4,1.27-1.02.27-.7.59-1.39.94-2.05.29-.59.58-1.13.65-1.84.14-1.41.39-2.82.36-4.22-.02-1.2-.23-2.39-.41-3.58-.17-1.14-.41-2.26-.62-3.39-.1-.55-.22-1.09-.31-1.65-.17-1.01-.36-2.01-.47-3.03-.07-.65,0-1.3,0-1.96,0-.11-.03-.23-.04-.35-.04-.75-.1-1.51-.1-2.26.01-.53.15-1.05.2-1.59.08-.91.14-1.81.22-2.72.02-.26.09-.52.21-.75.45-.82.69-1.78,1.47-2.41.11-.09.18-.24.26-.36.02-.03.02-.09.03-.14-.04,0-.08,0-.11.01-1.02.5-2.03,1.04-3.09,1.49-1.19.52-2.18,1.3-3.1,2.2-.18.16-.38.28-.55.44-.89.79-1.84,1.52-2.65,2.38-.87.91-1.71,1.8-2.79,2.45-.16.09-.28.25-.41.41-.8,1-1.59,2.02-2.4,3.01-.46.54-.97,1.04-1.46,1.57-.19.21-.38.43-.55.66-.45.58-.92,1.17-1.33,1.79-.41.62-.77,1.27-1.13,1.92-.41.74-.79,1.48-1.19,2.22-.26.5-.51,1.01-.77,1.5-.25.48-.56.92-.76,1.41-.57,1.33-1.08,2.68-1.64,4.01-.3.72-.65,1.43-.68,2.22-.03,1.03-.09,2.06-.09,3.09,0,1.4.06,2.78.09,4.18.01.19-.05.4.01.57.28.77-.07,1.51-.2,2.24-.21,1.26-.9,2.37-1.48,3.49-.09.19-.2.36-.29.54.2-.07.41-.16.66-.28M11.17,45.62c.41-.21.8-.42,1.2-.63,1.02-.52,2.08-.98,3.04-1.59.89-.55,1.65-1.29,2.49-1.9,1.06-.77,2.18-1.47,3.23-2.26.74-.55,1.41-1.22,2.1-1.84.28-.25.55-.52.83-.76.65-.53,1.38-.99,1.95-1.6,1.43-1.47,2.65-3.14,4.34-4.36.7-.51,1.26-1.19,1.95-1.71.65-.48,1.38-.86,2.06-1.3.54-.36,1.07-.76,1.62-1.14.34-.25.68-.51,1.04-.73.39-.24.79-.44,1.18-.67.45-.26.9-.53,1.33-.8.82-.49,1.79-.59,2.58-1.23,1.03-.82,2.37-.99,3.6-1.36.83-.24,1.73-.27,2.59-.45.44-.08.86-.33,1.29-.39,1.22-.15,2.45-.23,3.67-.33.6-.04,1.2-.05,1.8-.1.59-.05,1.19-.17,1.79-.2.45-.02.91.09,1.36.09.65-.01,1.29-.09,1.94-.09.58,0,1.17.09,1.75.09.8-.01,1.61-.07,2.41-.1.99-.03,1.98-.06,2.98-.1.48-.02.97-.06,1.45-.13.86-.13,1.7-.26,2.55-.4.15-.02.29-.05.43-.08.06-.01.13-.05.18-.07-.06-.02-.11-.04-.18-.07-.47-.22-.95-.41-1.39-.67-.98-.57-1.45-1.6-2.06-2.47-1.15-1.62-2.24-3.24-4.03-4.24-.99-.55-1.81-1.39-2.98-1.63-.4-.07-.79-.19-1.17-.32-.83-.33-1.66-.69-2.49-1.03-.32-.13-.66-.27-1-.34-.96-.22-1.93-.38-2.88-.63-.91-.23-1.77-.64-2.74-.53-.35.04-.71.1-1.05.1-.84-.02-1.69-.1-2.53-.09-.8.02-1.62.09-2.41.21-.49.07-.97.26-1.45.42-.18.06-.31.24-.5.3-.98.34-1.98.67-2.96,1.02-.3.11-.63.23-.86.45-1.11,1.08-2.57,1.76-3.55,3-.48.6-1.04,1.15-1.52,1.75-.63.78-1.19,1.6-1.78,2.39-.41.55-.86,1.06-1.23,1.63-.47.71-.87,1.46-1.31,2.17-.88,1.38-1.72,2.77-2.67,4.11-.75,1.03-1.12,2.33-2.12,3.19-.03.03-.04.08-.06.14-.38,1.02-1.04,1.86-1.78,2.64-.21.22-.5.38-.69.6-.52.63-1.02,1.27-1.51,1.92-.73.96-1.45,1.94-2.18,2.9-.58.77-1.18,1.52-1.76,2.29-.28.36-.54.75-.83,1.12-.7.89-1.36,1.82-2.13,2.65-1.24,1.33-2.72,2.35-4.35,3.19-1.31.68-2.49,1.62-3.93,2.1-.7.24-1.39.51-2.06.8-.24.1-.44.31-.65.48.27.03.54.06.8.09.01,0,.03-.03.04-.03.75-.29,1.51-.54,2.25-.88.99-.44,1.98-.92,2.95-1.42.66-.35,1.27-.78,2.01-1.18M71.76,3.81c-.4-.08-.79-.18-1.2-.25-1.09-.23-2.2-.51-3.32-.67-1.03-.15-2.1-.19-3.14-.22-1.3-.03-2.6,0-3.9-.01-.83-.01-1.67-.04-2.5-.08-.43-.02-.87-.11-1.3-.11-.54,0-1.08.06-1.63.09-.08.01-.17.01-.24.03-1.7.57-3.39,1.15-4.94,2.05-.19.11-.4.22-.58.34-.95.59-1.9,1.2-2.86,1.8-.08.05-.19.07-.28.11.09.01.25-.01.28.04.21.34.47.08.71.09.49.03.98.1,1.47.1.86-.01,1.72-.06,2.58-.1.86-.03,1.67.17,2.47.47.54.21,1.12.33,1.68.47.79.18,1.62.29,2.4.51.6.19,1.17.53,1.77.74,1.28.43,2.64.67,3.81,1.39,1.23.75,2.42,1.56,3.49,2.53,1.3,1.18,2.02,2.79,3.19,4.06.18.19.26.49.46.64,1.27.98,2.69,1.43,4.33,1.32,1.03-.07,2.02-.27,3.02-.52s2.14-.3,3.2-.45c.84-.1,1.69-.21,2.52-.33.86-.13,1.7-.32,2.55-.38.77-.05,1.56.01,2.35.09.77.09,1.52.25,2.28.42.83.18,1.67.42,2.5.62.1.02.23-.02.34-.04-.03-.1-.03-.23-.09-.31-.16-.19-.42-.31-.49-.52-.32-.81-.59-1.64-.86-2.46-.3-.92-.55-1.85-1.26-2.57-.23-.23-.47-.49-.62-.78-.6-1.24-1.63-2.09-2.67-2.9-.76-.59-1.53-1.16-2.47-1.45-.71-.23-1.4-.5-2.1-.75-.7-.24-1.39-.52-2.1-.72-1.22-.34-2.45-.64-3.68-.95-1.71-.43-3.42-.87-5.19-1.36m17.73,46.72c-.23-.02-.47-.09-.7-.06-.72.08-1.5-.43-2.17.14-.46.39-.89.83-1.28,1.28-.98,1.08-1.92,2.19-2.89,3.28-.33.39-.67.76-1.02,1.13-.44.45-.86.93-1.33,1.31-1.03.84-2.09,1.66-3.16,2.45-.78.57-1.57,1.13-2.41,1.62-.94.55-1.92,1.06-2.92,1.5-1.19.53-2.4,1-3.63,1.42-.59.2-1.28.11-1.84.35-.93.4-2.01.16-2.86.8-.04.03-.14-.01-.2,0-.64.13-1.32.17-1.69.8-.47.81-.92,1.64-1.35,2.47-.49.96-.97,1.93-1.44,2.9-.23.49-.49.98-.66,1.49-.25.82-.38,1.69-.65,2.5-.53,1.59-.89,3.19-.82,4.87,0,.08-.01.17-.01.26-.03.78-.1,1.57-.08,2.36.03,1.13.13,2.25.21,3.37.01.25.06.49.11.73.01.03.17.07.19.05.15-.16.31-.31.42-.5.53-1.04,1.43-1.77,2.27-2.53.52-.48,1.14-.84,1.72-1.24.62-.43,1.25-.83,1.89-1.24.71-.46,1.41-.95,2.14-1.37.75-.44,1.57-.75,2.29-1.23.52-.33.84-.88.96-1.52.05-.29.18-.58.31-.86.56-1.11,1.16-2.2,1.73-3.3.21-.41.39-.82.59-1.22.18-.34.43-.66.58-1.01.55-1.23,1.17-2.43,2.03-3.48.52-.64,1.05-1.26,1.59-1.9.4-.48.79-.96,1.21-1.42.5-.56,1.03-1.09,1.53-1.65.53-.58,1-1.21,1.56-1.74.74-.72,1.55-1.36,2.33-2.03.47-.42.93-.84,1.38-1.28.89-.83,1.69-1.77,2.66-2.5,1.08-.82,2.27-1.52,3.47-2.17.93-.5,1.95-.83,2.92-1.25.2-.08.39-.2.58-.29-.21-.11-.42-.27-.64-.34-.95-.33-1.9-.64-2.95-.95m18.98-2.92c.48-.06.97-.08,1.43-.22,1.66-.46,3.31-.99,4.97-1.44,1.3-.35,2.62-.64,3.93-.94.23-.05.47-.05.7-.09.06-.01.13-.07.18-.11-.05-.04-.1-.1-.18-.13-.39-.11-.78-.19-1.16-.34-.69-.28-1.37-.56-1.96-1.08-.73-.63-1.56-1.15-2.37-1.68-.38-.25-.77-.52-1.2-.62-1.12-.23-2.26-.3-3.38-.55-1.6-.38-3.23-.42-4.85-.6-.43-.04-.88.09-1.31.09-.52-.01-1.04-.06-1.56-.1-.82-.06-1.67-.04-2.46-.23-1.05-.25-2.08-.19-3.11-.07-.58.06-1.13.28-1.5.78-.69.94-1.39,1.86-2.08,2.79-.56.77-1.07,1.59-1.69,2.31-1.14,1.37-2.33,2.69-3.49,4.04-.05.05-.1.13-.13.2-.01.06.03.18.05.18.44.05.88.1,1.31.11,1.55.04,2.95.57,4.33,1.25.39.19.86.32,1.27.29.59-.04,1.18-.24,1.75-.42.64-.21,1.26-.47,1.89-.71.33-.13.65-.32.98-.41,1.02-.26,2.05-.48,3.09-.74.88-.23,1.74-.5,2.62-.72.68-.17,1.38-.28,2.06-.43.58-.13,1.17-.27,1.86-.42m-1.98-8.45c.82.1,1.66.2,2.48.32.84.11,1.69.26,2.53.41.53.09,1.05.24,1.6.31.97.13,1.97.14,2.93.33,1.24.26,2.43-.03,3.62-.17.86-.1,1.68-.46,2.52-.69.92-.25,1.86-.46,2.77-.74.78-.23,1.52-.58,2.31-.81.69-.2,1.41-.27,2.12-.43.18-.04.34-.17.52-.25-.14-.09-.27-.26-.4-.26-1.12.03-2.14-.42-3.11-.81-1.87-.74-3.82-1.27-5.56-2.31-.52-.3-1.15-.43-1.69-.71-.93-.47-1.84-1-2.76-1.5-.78-.41-1.57-.79-2.36-1.22-.54-.29-1.02-.74-1.6-.93-1.03-.33-2.04-.74-3.17-.79-1.07-.05-2.13-.35-3.19.03-1,.36-1.96.8-2.73,1.59-.55.56-1.13,1.11-1.7,1.65-.53.5-1.21.9-1.6,1.49-.51.8-1.18,1.46-1.79,2.17-.49.58-.94,1.2-1.4,1.81-.07.11-.07.28-.1.43.11.01.23.05.34.04.36-.02.74-.13,1.09-.09.71.07,1.41.2,2.12.3.32.05.66.07.99.13.9.13,1.79.28,2.7.4.81.1,1.63.18,2.49.31m-78.94,1.36c.14-.24.31-.46.41-.72.26-.72.46-1.47.75-2.19.36-.93.77-1.84,1.2-2.73.4-.84.81-1.68,1.25-2.51.24-.46.49-.92.79-1.33.33-.46.73-.88,1.08-1.32.06-.07.05-.21.07-.31-.1.02-.24,0-.31.06-.25.18-.48.38-.7.58-.63.6-1.15,1.38-1.87,1.79-1.19.68-1.93,1.77-2.89,2.66-.64.59-1.18,1.28-1.8,1.89-.83.77-1.7,1.5-2.57,2.25-.38.32-.77.64-1.16.96-.52.42-1.03.84-1.57,1.25-.75.56-1.51,1.11-2.28,1.66-.16.11-.33.2-.5.29-.29.19-.58.36-.87.56-.16.11-.28.3-.46.4-1.65.88-3.31,1.75-4.96,2.62-.36.19-.77.32-1.14.52-.58.32-1.12.74-1.71,1.02-1.13.53-2.27.99-3.4,1.49-.1.04-.24.16-.24.24,0,.09.14.23.23.25.71.2,1.42.36,2.13.53,1.27.3,2.54.55,3.8.93.87.26,1.68.73,2.53,1.04.94.33,1.92.56,2.86.9.8.29,1.56.68,2.36.98.2.07.48.04.67-.05.25-.11.46-.33.66-.54.48-.49.94-.99,1.41-1.5.52-.55,1.15-1.05,1.56-1.69.7-1.08,1.31-2.23,1.9-3.38.5-.97.82-2.04,1.4-2.96.69-1.12,1-2.34,1.38-3.63M104.29,15.9s-.1-.01-.14-.03c-1.14-.79-2.23-1.63-3.41-2.35-1.08-.67-2.23-1.23-3.38-1.78-1.42-.68-2.86-1.31-4.3-1.95-.59-.25-1.2-.48-1.81-.66-1.17-.33-2.35-.63-3.52-.92-.15-.04-.32.01-.49.02.09.13.18.25.26.36.03.04.07.07.11.1.67.6,1.36,1.18,1.99,1.81.36.36.57.91.97,1.24,1.3,1.08,1.67,2.62,2.1,4.13.15.51.28,1.06.59,1.47.8,1.04,1.68,1.98,3.09,2.31,1.17.28,2.26.81,3.41,1.18,2.09.67,4.25.99,6.29,1.81.49.2,1.06.18,1.59.33,1.14.34,2.27.72,3.4,1.11.55.2,1.08.47,1.64.69.07.03.17,0,.25,0-.02-.08-.02-.17-.07-.22-.14-.16-.28-.3-.45-.44-.65-.52-1.33-1-1.95-1.56-.71-.67-1.36-1.41-2.02-2.12-.78-.83-1.54-1.68-2.31-2.52-.59-.66-1.18-1.32-1.82-2.03m-47.08,75.34v3.41c0,.46-.04.92.01,1.37.06.53.24,1.05.3,1.6.1.95.44,1.89.11,2.86-.02.05.01.13.02.19.03-.04.05-.09.08-.14.49-.7.94-1.44,1.48-2.09.47-.56.83-1.16,1.11-1.85.25-.64.59-1.24.91-1.86.32-.62.7-1.21.97-1.85.46-1.04.82-2.13,1.27-3.17.5-1.15,1.06-2.27,1.59-3.41.24-.52.45-1.06.66-1.6.13-.31.2-.65.34-.96.48-1.05.98-2.09,1.47-3.14.06-.14.05-.3.07-.46-.14.05-.28.08-.4.16-.49.31-.96.67-1.46.97-1.28.76-2.59,1.48-3.85,2.26-.68.42-1.3.91-1.93,1.4-.42.33-.83.7-1.19,1.09-.46.51-.83,1.09-1.31,1.59-.42.45-.6.96-.56,1.54.05.68.17,1.35.3,2.08m9.7-5.74c.07-.52.16-1.05.2-1.57.01-.15-.09-.3-.15-.46-.08.08-.19.17-.25.26-.08.14-.16.28-.22.43-.42,1.01-.82,2.02-1.25,3.02-.48,1.16-.98,2.3-1.46,3.46-.49,1.19-.94,2.39-1.47,3.56-.39.87-.89,1.68-1.3,2.53-.56,1.14-1.24,2.2-2.1,3.15-.44.5-.77,1.09-1.15,1.66-.06.1-.05.26-.08.39.15-.03.32-.03.42-.11.49-.4.92-.89,1.43-1.23.96-.63,1.98-1.18,2.95-1.78.88-.54,1.84-.98,2.37-1.94.41-.75.82-1.5,1.21-2.26.15-.3.14-.71.35-.94.64-.67.52-1.56.8-2.33.07-.19.02-.42,0-.63-.06-.75-.15-1.5-.19-2.25-.01-.26.1-.53.08-.79-.04-.69-.13-1.37-.2-2.16"/>
</svg>