<?xml version="1.0" encoding="UTF-8"?>
<svg id="Layer_1" data-name="Layer 1" xmlns="http://www.w3.org/2000/svg" viewBox="0 0 219.41 263.65">
  <defs>
    <style>
      .cls-1 {
        fill: #fff;
        stroke-width: 0px;
      }
    </style>
  </defs>
  <path class="cls-1" d="m79.85,111.34c-1.13,2.01-2.26,3.87-3.39,5.75-.38.68-.83,1.36-1.03,2.09-.28.95-.55.9-1.16.3-2.64-2.66-5.15-5.4-6.99-8.67-.85-1.53-1.71-3.09-2.29-4.72-.3-.85-.15-1.96.05-2.91.5-2.29,1.18-4.55,1.68-6.84.08-.3-.3-.88-.6-1.06-1.21-.63-2.49-.98-3.9-.65-.73.15-1.51.13-2.26.13-1.86,0-3.72-.03-5.58,0-3.64.03-6.76-1.33-9.6-3.49-.58-.45-1.16-.88-1.73-1.28-.18-.1-.4-.13-.6-.18.05.18.08.35.15.53.78,1.61,1.48,3.24,2.34,4.8,1.28,2.36,2.59,4.72,4,7.01,2.16,3.52,4.32,7.06,6.68,10.43,2.49,3.57,5.25,6.96,7.87,10.45,3.37,4.5,7.39,8.39,11.53,12.14,3.17,2.84,6.96,5,10.35,7.61,2.91,2.21,6.18,3.67,9.57,4.85,3.77,1.31,7.66,2.29,11.51,3.42,2.36.7,4.67,1.48,7.06,2.11,1.11.28,2.31.28,3.47.4,1.81.18,3.62.5,5.45.45,2.11-.03,4.37-.28,5.6-2.36.6-1.03.93-2.36,1.01-3.57.2-3.22.18-6.41.3-9.62.13-2.94.18-5.91.53-8.82.33-2.44,1.01-4.85,1.61-7.24.93-3.69,1.86-7.36,2.89-11.01.78-2.64,1.58-5.28,2.66-7.82,1.76-4.17,3.54-8.37,5.68-12.34,1.53-2.84,3.47-5.55,5.63-7.94,1.93-2.14,4.42-3.77,6.71-5.55.38-.28,1.03-.4,1.46-.25.28.08.45.78.45,1.21-.03,1.11-.25,2.21-.23,3.29.13,3.12.33,6.23,1.73,9.07.95,1.88,2.04,3.72,3.19,5.48,2.44,3.62,4.95,7.16,7.46,10.73.53.73,1.23,1.31,1.76,2.04s1.06.55,1.66.18c.43-.28.83-.68,1.31-.75.45-.08,1.36.08,1.41.33.83,2.84,3.12,4.8,4.32,7.39,1.38,2.94,2.26,6.03,2.86,9.25.83,4.55-.05,8.82-1.38,13.02-1.08,3.42-2.84,6.48-5.38,9.1-.23.25-.4.58-.6.85.35.05.73.13,1.08.13,2.06-.08,4.15-.3,6.21-.2,1.61.08,3.19.53,4.77.85,4.07.85,7.59,2.89,11.23,4.8,3.12,1.63,6.66,2.49,9.93,3.87,3.12,1.31,6.23,2.64,9.15,4.3,2.56,1.46,2.49,3.27.55,5.08-3.95,3.72-8.02,7.29-12.06,10.86-3.27,2.86-7.04,4.77-11.16,6.16-3.39,1.13-6.89,1.48-10.4,1.18-3.72-.33-7.41-.98-10.78-2.76-.28-.15-.68-.08-1.01-.1.15.25.3.5.45.78.18.25.33.53.48.78-.38.08-.8.28-1.18.23-1.33-.15-2.66-.4-4-.63-.15-.03-.33.03-.48.05.08.15.18.3.28.45,2.64,2.81,4.62,5.98,5.53,9.78.6,2.56.1,5.03-.43,7.54s-1.06,5.1-1.11,7.66c-.03,1.88.7,3.77,1.18,5.63,1.06,4.22,1.91,8.49,3.34,12.56,1.23,3.57,3.17,6.91,4.8,10.33.55,1.16,1.16,2.29,1.66,3.47.18.35.13.83.2,1.26-.45.03-.95.2-1.33.05-2.84-1.18-5.8-1.46-8.82-1.51-2.44,0-4.93.1-7.31-.28-3.62-.58-7.16-1.56-10.33-3.54-3.07-1.93-6.13-3.9-9.02-6.06-2.31-1.76-4.37-3.82-6.56-5.75-.2-.18-.48-.28-.7-.43.05.3.1.58.13.88.28,2.69.5,5.38-.2,8.09-.83,3.17-1.31,6.41-2.06,9.6-1.03,4.2-2.19,8.39-3.24,12.59-.5,1.99-.83,4.02-1.28,6.01-.1.45-.4.83-.6,1.26-.23-.3-.48-.6-.7-.9-1.93-2.69-3.67-5.53-5.8-8.02-2.91-3.39-6.18-6.46-9.17-9.78-2.91-3.24-5.63-6.63-8.47-9.93-1.38-1.58-2.89-3.07-4.32-4.6-2.99-3.19-5.43-6.71-6.63-10.93-.48-1.68-.8-3.42-.93-5.15-.28-3.22-.35-6.46-.55-9.7-.1-1.53-.58-3.07-.43-4.57.28-3.19-.88-6.53.95-9.55.7-1.16,1.48-2.31,2.44-3.24,3.9-3.95,7.89-7.79,11.86-11.66,1.31-1.28,2.71-2.44,3.97-3.77,1.36-1.43,2.76-2.89,3.77-4.57,1.03-1.71.6-3.59-.63-5.18-1.99-2.61-4.3-4.52-7.71-5.33-3.9-.9-7.66-2.41-11.46-3.84-3.22-1.21-6.46-2.44-9.5-4.02-3.92-2.01-7.82-4.17-11.41-6.68-2.71-1.88-4.95-4.47-7.39-6.73-.53-.5-1.16-.93-1.66-1.43-2.01-1.96-4.1-3.84-5.93-5.96-3.12-3.62-6.11-7.34-9.07-11.06-1.76-2.21-3.42-4.52-5.05-6.84-.48-.65-.78-1.43-1.18-2.14-.13-.23-.35-.4-.53-.6-.1.28-.3.6-.28.88.13,1.06.33,2.11.5,3.17.25,1.41.58,2.81.73,4.22.18,1.88.15,3.79.28,5.68.13,2.24.25,4.47.55,6.68.08.53.8,1.08,1.36,1.36,2.59,1.23,5.28,2.26,7.82,3.57,2.41,1.23,3.84,3.47,4.8,5.91,1.18,3.02,2.26,6.06,4.65,8.42.25.25.3,1.13.05,1.38-1.18,1.36-5.88,3.39-7.82,2.36-.65-.35-1.28-.78-1.91-1.18-.2-.1-.4-.2-.6-.3-.05.23-.2.55-.1.7,1.16,1.68.7,3.69,1.21,5.53.2.73-.18,1.58-.2,2.39-.05,1.03.03,2.04-.03,3.07-.05,1.68-.1,3.37-.25,5.05-.18,1.86-.45,3.72-.75,5.58-.8,5.3-3.22,9.62-7.49,12.99-1.66,1.31-2.86,3.22-4.5,4.62-1.68,1.46-2.79,3.29-3.87,5.18-1.16,2.01-1.71,4.15-1.73,6.46,0,.28-.2.58-.3.85-.23-.23-.55-.43-.68-.7-1.31-2.91-2.61-5.8-3.84-8.72-1.73-4.1-4.37-7.61-6.91-11.21-2.11-3.02-4-6.16-4.82-9.8-.33-1.43-.63-2.89-.73-4.35-.2-2.56-.18-5.13-.3-7.69-.13-2.39-.38-4.8-.48-7.19-.08-1.73.38-3.39,1.23-4.9.93-1.71,1.88-3.39,2.81-5.13.05-.1-.23-.53-.35-.53-.63.03-1.28.23-1.91.2-3.09,0-6.06-.53-8.97-1.68-2.76-1.11-5.68-1.86-8.49-2.84-1.46-.5-2.89-1.11-4.3-1.76-.38-.18-.83-.73-.83-1.11s.43-.88.8-1.11c1.83-1.13,3.74-2.14,5.53-3.32,1.26-.8,2.44-1.73,3.52-2.76,2.91-2.74,5.53-5.8,9-7.97,3.62-2.24,7.54-3.62,11.79-2.99,3.57.53,7.06,1.68,9.67,4.5.45.48.75,1.11,1.16,1.63.13.15.33.23.5.33.05-.18.15-.33.18-.5.48-3.67.23-7.29-.48-10.91-.98-5-1.66-10.08-2.84-15.03-.8-3.34-2.06-6.61-3.42-9.78-1.41-3.27-3.37-6.31-4.77-9.57-2.09-4.88-3.95-9.85-5.8-14.8-1.16-3.14-2.11-6.33-3.14-9.52-1.48-4.7-2.97-9.4-4.4-14.12-2.11-6.96-4.27-13.9-6.21-20.91-1.08-3.87-1.73-7.84-2.61-11.76-.35-1.63-.85-3.24-1.23-4.88-.18-.73-.03-1.33.95-1.11,1.28.28,2.56.5,3.07,2.06,1.63,4.88,3.44,9.72,4.98,14.63,1.48,4.7,2.76,9.42,4.05,14.17,1.21,4.52,2.21,9.12,3.47,13.65,1.08,3.84,2.31,7.66,3.59,11.43,1.33,3.84,2.56,7.76,4.35,11.41,1.78,3.67,4.15,7.09,6.36,10.55,1.56,2.46,3.32,4.82,4.95,7.26,1.48,2.19,3.62,3.67,5.91,4.8,1.93.95,4.07,2.01,6.13,2.06,2.74.05,5.73.63,8.34-.8,2.14-1.21,3.32-3.14,3.39-5.6.13-3.82-.45-7.56-1.21-11.28-.4-1.88-.48-3.82-.8-5.7-.75-4.27-.73-8.57-.78-12.89-.03-3.27,1.18-6.01,3.02-8.57,1.03-1.43,2.06-2.86,3.22-4.2,1.61-1.86,3.69-3.14,5.91-4.17,3.27-1.51,6.36-3.32,9.37-5.3,2.56-1.66,5.4-2.94,8.09-4.4.9-.48,1.38-.1,1.93.7,3.12,4.57,4.37,9.88,5.83,15.05,1.16,4.05,2.26,8.24,1.86,12.56-.23,2.36-.58,4.75-1.01,7.11-.5,2.74-1.11,5.48-1.76,8.19-.75,3.17-2.31,5.98-4.27,8.52-.88,1.13-2.19,1.91-3.32,2.86-.15.15-.28.3-.43.45.18.05.38.08.55.13,1.73.5,3.54.78,5.13,1.58,1.51.73,2.86,1.91,4.07,3.09,1.36,1.33,2.61,2.81,3.64,4.4,2.09,3.14,3.95,6.41,5.96,9.57,1.63,2.61,3.27,5.25,5.8,7.14.13.1.23.25.35.35,1.21,1.18,1.08,1.93-.45,2.44-2.84.95-5.65,1.96-8.54,2.71-1.88.5-3.87.63-5.8.88-1.21.13-2.44.15-3.67.25-3.34.28-6.51-.53-9.67-1.51-1.86-.58-3.82-.88-5.35-2.26-1.08-.95-2.26-1.81-3.39-2.71-.3-.23-.6-.48-.88-.73-.1.43-.2.88-.3,1.43m-2.01-4.15c.08,0,.15,0,.23.03-.08-.05-.15-.1-.23-.28-1.21-1.78-2.41-3.59-3.64-5.38-.23-.35-.5-.68-.78-1.01.05.35.05.73.15,1.08.78,3.42.83,4.42,4.27,5.55m17.97-27.77c-.38.2-.78.38-1.13.63-1.13.78-2.16,1.81-3.42,2.34-4.35,1.83-8.82,3.29-13.42,4.3-2.44.53-4.3,1.93-6.01,3.64-.1.1-.15.23-.2.35.15.03.33.1.48.05.78-.33,1.53-.78,2.34-.98,2.39-.65,4.82-1.08,7.16-1.81,2.49-.78,4.85-1.88,7.29-2.71,3.09-1.08,5.1-3.37,7.16-5.8v-.23c-.05.08-.1.15-.25.23m58.68,20.73c.08,0,.15,0,.23.03-.08-.05-.15-.1-.23-.28-.18-1.18-.33-2.39-.53-3.57-.3-1.99-.68-3.97-.98-5.98-.33-2.16-.68-4.32-.03-6.48.3-.98.53-1.96.75-2.94.05-.15-.05-.33-.08-.48-.1.08-.18.13-.28.2-1.73,1.48-3.49,2.91-5.15,4.47-.65.6-1.23,1.23-.83,2.49,1.46,4.3,3.97,8.02,6.21,11.86.15.28.6.38.9.68m10.93,51.64c-.3.03-.63,0-.88.13-1.86.83-3.69,1.78-5.6,2.54-2.54,1.03-5.1,2.06-7.74,2.81-1.96.58-4.05.85-6.11,1.03-2.51.2-5.05.35-7.56.23-2.11-.1-4.25-.6-6.36-.95-1.28-.23-2.56-.48-3.84-.78-.18-.03-.45-.28-.45-.45s.23-.4.43-.53c1.23-.7,2.54-1.36,3.77-2.11,3.02-1.81,6.26-2.94,9.75-3.44.3-.03.55-.33.85-.48-.25-.18-.5-.48-.75-.48-1.43,0-2.49-.83-3.67-1.48-.43-.25-1.23-.4-1.56-.18-.93.7-1.73,1.58-2.56,2.41s-1.53,1.66-2.29,2.49c-.1.1-.33.1-.48.13.03-.1.03-.23.08-.33.95-1.73,1.83-3.52,3.59-4.67.68-.45,1.41-1.23,1.53-1.96.35-1.93-.03-3.84-.93-5.6-1.01-1.93-2.01-3.84-3.04-5.75-.08-.15-.23-.25-.33-.38-.05.18-.15.33-.15.5-.03.98,0,1.96,0,2.94,0,2.46-.08,4.95,0,7.41.08,2.41-.53,4.62-1.66,6.73-1.46,2.74-4.67,4.35-7.69,3.74-1.06-.2-2.11-.45-3.17-.48-3.37-.1-6.63-.6-9.85-1.73-3.84-1.38-7.84-2.29-11.71-3.59-3.14-1.08-6.28-2.26-9.22-3.77-2.79-1.46-5.3-3.42-7.97-5.1-4-2.54-7.21-5.98-10.6-9.2-2.16-2.04-4.1-4.37-5.98-6.68-2.69-3.29-5.38-6.58-7.79-10.08-2.97-4.3-5.88-8.67-8.42-13.22-2.41-4.35-5.2-8.52-6.31-13.47-.1-.53-.43-1.01-.6-1.51-.08-.23.03-.48.05-.73.18.15.38.28.55.43,2.06,1.76,4.1,3.57,6.26,5.23,1.86,1.43,4.17,1.96,6.43,2.31,1.81.25,3.64.28,5.45.25,1.58-.03,3.14-.4,4.7-.45,1.71-.03,3.39.15,5.1.23.1,0,.23.05.33.13.88.7,1.93,1.26,2.59,2.14,1.76,2.31,3.29,4.75,4.98,7.11,1.41,1.99,2.86,3.92,4.32,5.88.08.13.23.2.35.3.03-.13.1-.23.08-.33-.15-1.23-.3-2.46-.5-3.69-.23-1.66-.53-3.32-.73-4.98-.13-.93-.5-1.63-1.38-2.04s-1.76-.83-2.64-1.26c-2.19-1.08-4.37-2.19-6.56-3.27-.18-.1-.33-.25-.48-.35.2-.15.38-.35.58-.38.2-.05.45.08.68.13,2.66.6,4.95,2.04,7.26,3.44.95.58,2.06,1.01,3.24.43,3.04-1.48,6.03-3.04,9.12-4.4,3.39-1.46,6.89-2.64,10.68-2.39.28.03.55.08.85.13-.23-.3-.38-.65-.65-.88-1.68-1.28-3.57-2.16-5.65-2.71-2.56-.65-5.03-1.06-7.54.18-1.46.7-2.99,1.31-4.55,1.76-2.94.83-5.91,1.56-8.87,2.29-1.26.3-2.44,1.41-3.9.53-.1-.08-.35.1-.55.13-1.26.3-2.54.58-3.79.85-.13.03-.28-.1-.43-.13.15-.08.28-.13.43-.2,1.26-.58,2.61-1.06,3.77-1.81,1.06-.68,2.21-1.51,2.74-2.56.55-1.08-.08-2.46-.73-3.49-1.08-1.71-2.29-3.34-3.44-5-.23-.28-.43-.58-.63-.88-.05.35-.1.7-.13,1.06-.03.13-.03.25,0,.38.53,2.69.7,5.38.25,8.12-.25,1.51-2.09,4.07-3.32,4.25-2.24.33-4.47.55-6.71.75-.88.1-1.78.15-2.64,0-1.91-.38-3.95-.6-5.68-1.43-4.75-2.29-8.34-5.93-11.06-10.43-1.51-2.46-2.84-5.05-4.45-7.44-2.16-3.24-3.95-6.66-5.33-10.25-2.01-5.35-3.84-10.81-5.53-16.31-1.21-3.92-2.04-7.94-3.04-11.91-1.11-4.32-2.09-8.67-3.34-12.97-1.91-6.63-3.9-13.24-6.51-19.65-.23-.55-.95-.88-1.48-1.31.03.5.03.98.03,1.48,0,.03-.03.08,0,.13,1.01,3.97,1.96,7.97,3.02,11.94,1.56,5.93,3.07,11.86,4.8,17.74,1.26,4.27,2.86,8.44,4.22,12.69,1.06,3.27,1.88,6.58,2.97,9.83,1.71,5.15,3.52,10.28,5.35,15.38.73,2.04,1.41,4.15,2.49,6.01,3.07,5.25,5.73,10.65,7.54,16.48,1.61,5.13,2.79,10.4,3.52,15.76.45,3.39.7,6.84,1.01,10.25.05.78-.18,1.61-.23,2.41-.1,1.76-.15,3.52-.28,5.28-.03.23-.33.45-.5.65-.15-.18-.4-.35-.48-.55-.28-.85-.35-1.81-.8-2.56-1.68-2.89-4.42-4.5-7.39-5.8-.15-.05-.4.08-.58.1.1.2.15.48.3.6,1.08.85,1.13,2.21,1.71,3.29,1.01,1.91,1.41,4.25,3.52,5.45.98.55,2.01,1.01,3.02,1.51.23.15.43.35.65.53-.3.2-.58.5-.9.55-.3.05-.68-.2-1.01-.2-.6-.03-1.26-.13-1.76.1-3.57,1.71-5.35,5.03-7.24,8.22-.1.15-.05.4-.08.6.2-.05.4-.08.6-.15,2.29-.75,4.35-1.86,6.08-3.54.9-.93,1.81-1.86,2.76-2.74.18-.15.55-.15.83-.1.08,0,.23.48.15.55-.93,1.13-1.76,2.39-2.84,3.32-3.14,2.74-6.94,4.22-10.98,4.98-1.11.2-1.88.68-2.36,1.48-1.01,1.76-1.96,3.54-2.69,5.43-.95,2.41-.95,4.98-.85,7.54.03.3.2.6.33.88.18-.23.35-.45.53-.68.98-1.33,1.76-2.86,2.97-3.9,1.66-1.41,3.64-2.46,5.5-3.67,2.64-1.71,5.58-3.04,7.61-5.55.93-1.18,1.78-2.51,2.36-3.92.8-1.96,1.28-4.07,1.93-6.11.05-.18.25-.33.38-.5.08.2.25.4.23.58-.15,1.61-.23,3.24-.5,4.82-.38,1.99.78,2.91,2.16,3.92,1.51,1.08,3.09,2.19,4.25,3.59,1.51,1.78,3.59,3.09,4.52,5.38.18.43.68.7,1.03,1.06.08.08.18.15.25.23.05-.1.13-.23.1-.33-.33-.93-.5-2.04-1.08-2.79-1.03-1.38-2.39-2.51-3.49-3.87-.83-1.03-1.61-2.16-2.16-3.34-.93-1.96-1.68-4-2.46-6.03-.35-.9-.58-1.86-.83-2.79-.05-.2.1-.45.15-.68.2.18.48.3.58.5.38.73.73,1.46,1.01,2.21.7,1.88,1.33,3.82,2.04,5.7.1.25.38.43.58.63.05-.28.2-.55.15-.8-.38-1.78-.3-3.54.48-5.25.13-.28-.28-.95-.6-1.21-.78-.58-1.68-1.01-2.49-1.56-.18-.1-.23-.43-.33-.68.23,0,.48-.13.65-.03.83.4,1.66.83,2.46,1.28.38.2.73.65,1.11.68.93.03,1.88-.13,2.81-.23.23-.05.43-.2.63-.33-.18-.13-.35-.33-.58-.43-1.81-.75-3.59-1.78-5.5-2.14-2.11-.43-2.61-1.76-2.61-3.39-.05-4.9,0-9.8-.78-14.65-.28-1.78-.1-3.69-.55-5.43-.93-3.44-2.14-6.81-3.24-10.2-.43-1.33-.95-2.64-1.41-3.95-.05-.13,0-.28.03-.43.13.08.33.15.38.28.45.83.9,1.63,1.26,2.49,1.11,2.51,1.96,5.18,3.27,7.56,1.66,2.99,3.77,5.7,5.53,8.64,2.41,4.1,5.28,7.79,8.39,11.33,2.31,2.64,4.72,5.23,7.21,7.71,3.07,3.07,6.11,6.23,9.5,8.92,3.42,2.71,7.09,5.2,10.93,7.24,4.07,2.14,8.44,3.64,12.74,5.33,2.21.9,4.5,1.68,6.78,2.39,1.61.5,3.37.6,4.93,1.21,1.51.6,2.97,1.46,4.22,2.51,2.29,1.91,4.02,4.27,4.95,7.21.63,2.04,1.38,4.07,3.49,5.2,1.58.85,3.07,1.88,4.6,2.84,2.14,1.33,3.97,2.99,5.38,5.1.08.13.3.13.45.2.03-1.06.43-2.26.05-3.12-.7-1.51-1.66-3.09-2.91-4.15-2.19-1.88-4.67-3.39-7.06-5.05-2.36-1.66-4.22-3.54-4.07-6.76.08-1.18.78-1.11,1.48-1.18.43-.05.88.08,1.31.15,1.56.33,3.14.53,4.6,1.06,1.23.43,2.36,1.18,3.49,1.88,2.29,1.46,3.64,3.62,4.22,6.26.45,1.99.88,4,1.26,6.01.53,2.69.95,5.38,1.53,8.04.28,1.26-.15,2.84,1.01,3.69,1.71,1.31,3.52,2.56,5.48,3.42,2.74,1.16,5.73,1.73,8.47,2.91,2.24.93,4.72,1.41,6.63,3.14.35.33,1.01.35,1.53.65.08,0,.15,0,.23.03-.08-.05-.15-.1-.23-.28-.43-.5-.8-1.03-1.26-1.48-3.64-3.74-8.07-6.58-11.61-10.5-3.74-4.15-6.71-8.8-9.72-13.44-1.96-3.02-3.67-6.21-6.43-8.62-.63-.53-1.28-1.01-1.88-1.51-.2-.18-.33-.4-.48-.6.13-.05.25-.15.38-.15,1.73.15,3.49.23,5.2.48,3.17.5,6.18,1.78,9.55,1.33,2.64-.33,5.28.18,7.87.9.6.18,1.53.1,1.99-.28,1.58-1.31,3.04-2.79,4.52-4.22,1.26-1.21,2.46-2.49,3.72-3.69.68-.65,1.46-1.21,2.31-1.81v-.23c-.05.08-.1.15-.25.23m-9.8,41.97c-.45-.18-.88-.35-1.31-.5-3.79-1.33-7.61-2.61-11.38-4.07-1.06-.38-1.91-1.28-2.86-1.91-.23-.15-.55-.18-.85-.25.05.25.1.53.13.78.28,1.99.6,3.95.8,5.93.18,1.68.18,3.37.28,5.05.2,3.82,1.28,7.44,3.04,10.81,1.51,2.89,2.19,6.43,5.45,8.09,1.58.8,3.27,1.46,4.98,1.91,1.76.48,3.62.55,5.4.98,2.04.5,4.05,1.13,6.01,1.86,3.32,1.23,6.61,2.56,9.15,5.23.2.23.5.35.78.53-.05-.38-.03-.75-.13-1.11-.75-2.34-1.83-4.6-2.19-6.99-.4-2.69-1.23-5.2-1.96-7.76-.2-.63-.08-1.38-.3-2.01-1.21-3.27-2.86-6.31-4.88-9.15-.88-1.26-1.66-2.76-2.86-3.57-2.19-1.51-4.67-2.59-7.29-3.84m-43.6,15.45c.13-.23.25-.5.45-.68,2.39-2.19,4.8-4.32,7.21-6.51.95-.85,1.73-1.71,1.66-3.22-.13-3.09-.03-6.21-.05-9.3,0-.75-.28-1.53-.23-2.29.3-3.22.8-6.41.95-9.62.08-2.36-.3-4.72-.48-7.09,0-.1-.05-.23-.08-.33-.05.1-.13.23-.15.35-.3,1.71-.38,3.52-.95,5.13-1.21,3.29-3.67,5.8-6.03,8.29-2.94,3.12-6.71,5.23-10.48,7.11-3.22,1.63-5.13,4.27-7.14,6.96-.4.5-.53,1.33-.5,2.01.08,1.71.33,3.39.45,5.08.2,2.54.38,5.05.5,7.59.15,2.89.6,5.7,1.71,8.44,1.38,3.39,3.57,6.11,5.93,8.74.13.13.33.2.5.3.05-.18.15-.35.15-.53.28-2.24.43-4.5.78-6.71.78-5,2.56-9.57,5.78-13.75m8.04-6.28c-.7.68-1.31,1.46-2.06,2.04-3.69,2.69-6.63,6.01-8.29,10.33-.83,2.19-1.66,4.37-2.19,6.63-.6,2.64-.9,5.33-1.26,8.02-.1.63-.03,1.51.35,1.96,1.46,1.71,3.12,3.29,4.65,4.98,1.23,1.36,2.41,2.76,3.64,4.12,2.86,3.22,5.73,6.43,8.62,9.62.13.15.28.28.43.4.05-.23.1-.48.1-.7.1-1.88.13-3.79.28-5.68.3-4.02,1.53-7.84,2.74-11.66.58-1.91,1.41-3.72.6-5.93-2.19-5.96-4.27-11.96-5.35-18.24-.28-1.76-.3-3.57-.53-5.33-.08-.63-.38-1.26-.58-1.88-.3.4-.6.8-.93,1.21,0,.03-.08,0-.23.13m44.1-67.47c4.1-1.31,7.69-3.37,10.15-7.04.65-.95,1.51-1.96,1.68-3.04.25-1.46.05-3.07-.2-4.55-.48-2.94-1.78-5.58-3.57-7.94-1.28-1.66-2.81-3.14-4.05-4.85-3.04-4.2-5.96-8.49-8.92-12.74-.35-.5-.65-1.03-.98-1.56-.28.55-.53,1.16-.85,1.68-1.83,2.94-1.66,6.13-1.18,9.35.05.35.23.68.23,1.03.05,1.13-.03,2.29.05,3.42.13,2.16.4,4.3.43,6.46.03,1.43-.25,2.89-.48,4.32-.28,1.91-.5,3.87-.98,5.73-.88,3.37-2.14,6.58-4.12,9.47-.15.23,0,.95.1.95,1.73.33,3.49.85,5.2.73,2.46-.18,4.9-.85,7.49-1.43m-30.91-15.33c-.45,1.78-.95,3.54-1.33,5.35-.33,1.68-.83,3.39-.75,5.05.1,2.34,1.73,4.12,2.71,6.16,1.36,2.76,3.72,5.33,2.51,8.85-.05.13.05.3.1.45.13-.05.3-.05.4-.13.63-.43,1.21-.95,1.86-1.33,3.39-1.88,6.68-3.95,9.32-6.86.68-.73,1.46-1.68,1.56-2.59.2-2.39.45-4.88-.03-7.16-.65-2.94-1.81-5.78-3.09-8.49-1.16-2.39-2.91-4.47-4.17-6.84-1.33-2.51-3.44-4.72-3.47-7.84,0-.33-.35-.63-.53-.95-.15.3-.35.58-.45.88-1.11,3.44-2.21,6.86-3.27,10.33-.5,1.63-.85,3.34-1.38,5.13m-101.02,52.02c.53-.53,1.01-1.13,1.61-1.58,3.09-2.36,6.26-4.57,8.29-8.04.78-1.36,1.66-2.61,1.53-4.27-.25-2.97-.5-5.91-.78-8.87-.23-2.51-.48-5.05-.75-7.59-.03-.28-.08-.53-.13-.78-.2.25-.48.45-.6.75-.95,2.09-2.69,3.49-4.5,4.72-2.89,1.96-6.03,3.64-8.97,5.6-2.81,1.86-4.82,4.45-5.08,7.87-.23,3.04-.05,6.16.23,9.2.33,3.57,2.09,6.66,3.82,9.7.03.05.45-.05.5-.15.28-.65.33-1.43.75-1.93,1.23-1.56,2.61-3.02,4.07-4.62m38.57-120.49c-.25-1.93-.5-3.9-.78-5.83,0-.13-.08-.23-.13-.33-.08.1-.18.18-.25.28-1.21,1.88-2.74,3.64-3.57,5.68-1.58,3.97-1.13,8.19-.8,12.36.08.98.1,1.96.25,2.91.3,2.09.75,4.15.95,6.23.2,1.86.98,3.47,1.81,5.05,1.53,2.94,4.2,5.23,5.23,8.49.05.13.6.25.65.18.9-1.23,1.83-2.46,2.64-3.79,1.96-3.19,3.69-6.48,4.37-10.23.2-1.23.65-2.59.3-3.69-1.01-3.32-2.97-6.21-5.1-8.9-2.09-2.61-4.05-5.25-5.58-8.42m76.14,37.69c-.1-.23-.2-.43-.25-.65-.1-.33-.15-.65-.23-.98-.28.28-.58.53-.78.85-.75,1.23-1.51,2.46-2.19,3.72-.98,1.86-1.99,3.69-2.84,5.6-.93,2.16-2.61,4.27-.78,6.78.05.08-.03.25.03.35.45,1.28.78,2.64,1.43,3.79,2.16,3.95,5.05,7.44,6.81,11.61,1.41,3.37,2.86,6.66,2.81,10.4-.03.7-.03,1.41,0,2.14,0,.15.05.3.1.45.1-.1.28-.18.33-.3.3-.55.53-1.13.83-1.68,2.61-4.82,3.34-10.13,3.44-15.48.08-3.82-.38-7.66-.73-11.48-.13-1.51-.43-3.02-1.76-4.2-.93-.8-1.58-1.96-2.21-3.07-1.38-2.51-2.69-5.08-4.02-7.87m-54.53-25.13c-2.69,2.41-5.4,4.8-8.04,7.26-.85.8-1.88,1.73-2.21,2.81-1.01,3.22-2.44,6.21-4.15,9.07-.58.95-1.31,1.81-1.93,2.74-.13.15-.05.45-.08.68.2-.05.38-.1.55-.18.5-.23.98-.48,1.48-.65,2.91-.93,5.88-1.78,8.77-2.79,2.11-.73,4.27-1.43,6.16-2.74,1.68-1.18,3.67-2.09,4.67-3.97,1.91-3.52,2.69-7.39,3.29-11.31.25-1.56.25-3.14.55-4.7.55-2.81.7-5.63.2-8.47-.05-.33-.25-.63-.38-.93-.13.33-.33.63-.35.98-.1,1.73-.9,3.22-1.78,4.67-1.73,2.89-4.17,5.15-6.76,7.51m-7.66-11.43c-.3,2.31-.65,4.6-.88,6.91-.23,2.39-.3,4.8-.53,7.19-.15,1.46-.5,2.89-.73,4.35-.03.18.03.4.05.6.15-.13.33-.2.45-.33.9-.93,1.81-1.86,2.76-2.76,3.42-3.19,6.91-6.33,10.28-9.57,2.24-2.14,3.42-4.98,4.47-7.82.38-.98.23-2.29.03-3.39-.25-1.36-.85-2.66-1.21-4-.48-1.73-.83-3.52-1.28-5.25-.05-.25-.23-.5-.35-.73-.1.18-.23.38-.35.55-.8,1.53-2.29,2.26-3.64,3.22-2.39,1.66-4.85,3.27-6.96,5.25-1.46,1.41-2.06,3.49-2.11,5.78m46.36,158.69c.2.55.3,1.16.63,1.61,1.38,2.04,2.79,4.05,4.25,6.03,1.18,1.58,2.29,3.24,3.67,4.62,1.93,1.93,4.07,3.64,6.13,5.43.85.75,1.76,1.46,2.64,2.14.18.13.45.08.68.13-.05-.2-.08-.43-.18-.6-2.09-4-2.74-8.29-3.04-12.72-.05-.9-.4-1.83-.78-2.66-1.18-2.49-2.61-4.85-3.67-7.39-2.04-4.85-2.49-10-2.56-15.2-.05-2.01-.33-4.05-.5-6.06,0-.1-.08-.23-.1-.33-.05.1-.1.2-.13.33-.18.68-.33,1.36-.53,2.04-.48,1.86-.65,3.9-1.56,5.5-1.68,3.04-3.54,5.93-4.82,9.17-1.06,2.64-1.83,5.18-.13,7.97m-49.88-112.7c3.34,2.11,6.68,4.25,10.08,6.28,1.13.68,2.19,1.28,3.77,1.08,2.94-.33,5.7-1.18,8.57-1.78,1.88-.4,3.87-.4,5.8-.55.33-.03.65.13,1.01.18-.15-.35-.25-.7-.45-1.03-1.93-3.22-3.79-6.48-5.91-9.6-.78-1.18-1.61-2.79-3.59-2.36-.4.08-.78.18-1.16.25-2.09.43-4.3.55-6.23,1.31-3.92,1.53-7.71,3.39-11.53,5.2-.13.05-1.33.1-.35,1.03m52.14,80.54c-1.58-2.16-3.42-4.07-5.73-5.48-1.18-.7-2.39-1.36-3.54-2.04-.43-.25-.83-.55-1.23-.83-.03.53-.03,1.06-.03,1.58,0,.03.08.08.08.1.13,1.73.4,3.49.35,5.23-.05,1.66-.6,3.32-.68,4.98-.18,3.42-.2,6.86-.28,10.3-.03.33,0,.68,0,1.01.08,1.81.18,3.64.23,5.45.03.05-.03.08-.05.1-.48,1.26.05,2.36.8,3.14,1.53,1.58,3.27,2.99,4.9,4.45.1.1.18.18.25.28.05-.15.15-.3.13-.45-.05-.8-.2-1.58-.23-2.39-.1-1.91.15-3.74.7-5.6,1.51-4.88,2.81-9.8,4.22-14.7.5-1.66,1.03-3.29.1-5.13m-84.81-14.45c.7,1.26,1.76,2.44,2.06,3.77.8,3.62,1.76,7.29.58,11.03-.05.15.05.33.08.48.15-.05.4-.05.5-.18.65-.93,1.43-1.81,1.91-2.84,1.88-4.22,2.11-8.77,2.49-13.27.18-1.96.05-3.92.05-5.91,0-.93.2-1.93-.05-2.79-.4-1.28-.93-2.61-1.76-3.64-1.86-2.19-3.84-4.3-5.93-6.28-1.43-1.36-3.07-2.44-4.62-3.67-.13-.1-.23-.2-.35-.3-.05.18-.13.38-.1.58.15,2.06.3,4.12.5,6.18.33,3.67.65,7.34,1.01,11.01.08.65.18,1.41.53,1.91.9,1.33,1.99,2.54,3.12,3.92m120.24-25.25c.48-.43,1.01-.83,1.48-1.26,2.46-2.14,3.72-5.05,4.95-7.99.18-.4,0-.93-.03-1.41-.38.28-.83.5-1.13.85-.53.68-.83,1.58-1.46,2.11-3.09,2.46-6.51,4.32-10.4,5.2-3.27.75-6.51,1.28-9.85.38-1.03-.28-2.09-.95-3.07.43-.78,1.08-1.86,2.01-2.94,2.79-2.31,1.66-4.72,3.19-7.06,4.77-.63.4-1.23.83-1.83,1.23.68.35,1.38.73,2.06,1.08,1.66.78,3.24,1.93,5.18,1.71,1.88-.23,3.79-.48,5.6-1.03,2.94-.85,5.93-1.71,8.67-3.04,3.34-1.63,6.46-3.77,9.83-5.83m-130.42,51.01c.13-.58.3-1.13.43-1.71,1.41-5.73,3.62-11.28,4.1-17.24.25-2.97.65-5.93.98-8.9.03-.2-.08-.45-.13-.68-.13.18-.25.33-.35.48-1.91,2.94-4.27,5.43-7.21,7.41-1.33.9-2.44,2.19-3.62,3.32-1.73,1.63-2.81,3.72-4.1,5.68-.6.93-.43,1.46-.1,2.14.25.48.68.9,1.06,1.31,2.86,3.04,4.67,6.68,6.16,10.5.58,1.48,1.01,3.02,1.53,4.52.08.23.33.38.5.58.08-.25.2-.48.23-.73.18-2.14.35-4.3.53-6.68m147.51-30.91c.33-.4.7-.78.98-1.23,1.28-1.93,2.51-3.9,3.82-5.8.43-.63.48-.95-.33-1.13-2.46-.58-4.93-1.36-7.44-1.68-1.26-.18-2.81.1-3.9.75-1.91,1.16-3.69,2.59-5.25,4.17-2.74,2.76-5.3,5.73-7.92,8.62-.1.13,0,.68.05.68,1.93.18,3.87.43,5.8.48.98.03,1.96-.33,2.94-.43.3-.05.6.15.93.25-.3.25-.55.6-.9.7-1.56.48-3.14.85-4.72,1.28-.25.08-.45.3-.65.45.13.18.23.5.4.53,1.01.23,2.04.43,3.07.5,2.01.18,3.64-.93,5.23-1.86,2.86-1.66,5.53-3.67,7.89-6.28M82.87,46.38c-.58-1.28-.8-6.38-.38-7.94.08-.23.08-.45.13-.7.13-.73-.33-.4-.58-.28-.88.48-1.73,1.06-2.64,1.51-2.11,1.03-4.35,1.88-6.36,3.07-1.06.63-2.31,1.46-2.24,3.02.08,1.36.3,2.69.5,4.05.38,2.81,1.73,5.18,3.49,7.34,1.06,1.31,2.11,2.61,3.02,4.02,1.33,2.06,2.54,4.22,3.79,6.33.1.2.25.38.38.58.05-.2.1-.4.1-.6.28-2.64.48-5.3.78-7.97.28-2.36.73-4.72.93-7.11.18-1.73,1.43-3.77-.93-5.3m96.24,134.19c.55.48,1.06,1.01,1.66,1.41,1.31.85,2.56,2.14,4,2.39,2.01.35,4.25.25,6.26-.23,3.62-.88,7.09-2.31,10.18-4.45.23-.15.35-.4.53-.6-.23-.05-.48-.18-.68-.15-2.64.33-4.98-.7-7.09-1.93-2.86-1.66-5.53-3.64-8.19-5.63-2.51-1.86-5.25-2.97-8.39-2.99-.8,0-1.58-.05-2.39.03-.3.03-.6.28-.9.4.2.2.4.45.65.58.93.45,1.91.83,2.81,1.36,1.18.73,2.44,1.08,3.79,1.16.18.03.35.2.53.3-.18.23-.35.68-.53.68-2.66.08-4.55,2.01-6.89,2.81-.05,0-.08.4.03.5.95.98,1.91,1.96,2.91,2.91.5.48,1.06.88,1.71,1.46m-46.74,35.93c-.75-1.36-1.51-2.71-2.26-4.1-.83-1.46-1.43-3.09-2.51-4.32-1.23-1.48-2.86-2.64-4.35-3.95-.1-.1-.28-.15-.43-.2-.05.2-.18.4-.15.6.1.53.4,1.06.38,1.58-.15,2.97,1.08,5.68,1.73,8.47.83,3.62,2.21,7.09,3.49,10.6.53,1.46,1.03,3.17,2.09,4.17,2.61,2.54,4.37,5.45,5.53,8.85.1.28.28.53.43.78.2-.23.48-.4.55-.65.53-2.21,1.23-4.42,1.46-6.66.2-2.06-.15-4.15-.15-6.23-.03-.93-.15-1.73-.8-2.44-.35-.38-.65-.8-.98-1.23-1.31-1.71-2.61-3.44-4.02-5.28m54.4-56.16c-.83.73-1.61,1.53-2.49,2.21-1.68,1.26-3.42,2.46-5.15,3.64-.48.33-1.03.53-1.53.8.65.05,1.33.25,1.93.1,3.52-.85,7.09-1.01,10.65-.98,1.41.03,2.81.2,4.22.25,1.46.03,2.94.13,4.37-.03,1.91-.23,2.66-2.16,4.12-3.09,1.73-1.08,3.39-2.34,5.08-3.52.23-.15.5-.18.78-.28l-.98-.38c-2.54-.88-5.1-1.63-7.56-2.69-2.39-1.03-4.6-2.41-6.94-3.57-.43-.2-1.38-.18-1.58.1-1.66,2.39-3.22,4.85-4.93,7.41m-37.95,67.85c.38,1.06.7,2.14,1.13,3.17.28.65.58,1.41,1.11,1.78,1.61,1.11,3.29,2.09,5,3.04,4.65,2.61,9.65,3.82,14.98,3.59.68-.05,1.36.25,2.04.2,2.76-.15,5.43.45,8.07,1.16.1.03.3-.28.48-.45-.28-.23-.53-.53-.83-.65-.85-.4-1.76-.65-2.59-1.06-2.89-1.43-5.73-2.91-8.62-4.32-1.08-.53-2.19-.98-3.32-1.43-1.76-.68-3.64-1.13-5.28-2.06-2.26-1.28-4.37-2.84-6.51-4.35-2.99-2.11-5.3-4.82-6.91-8.14-.1-.2-.33-.35-.5-.53-.1.3-.38.65-.3.93.6,3.02,1.28,6.01,2.06,9.12m18.97,4.4c3.92,2.01,8.29,3.22,11.81,6.03.15.13.45.05.68.08-.08-.3-.1-.6-.23-.85-1.03-1.99-2.21-3.87-3.07-5.91-.53-1.28-1.21-2.41-2.29-3.19-1.73-1.26-3.49-2.59-5.43-3.52-3.74-1.81-7.66-3.24-11.76-4.07-2.69-.55-5.45-.8-7.87-2.26-.2-.1-.48-.08-.7-.13.08.25.13.55.28.78,1.68,2.74,3.97,4.98,6.48,6.94,1.83,1.43,3.9,2.66,5.98,3.72,1.88.95,3.97,1.53,6.11,2.39m40.83-58.43c.95-.8,1.93-1.58,2.89-2.41.2-.18.33-.43.5-.65-.25-.08-.5-.15-.75-.2-1.71-.33-3.42-.68-5.13-.98-1.43-.23-2.59-1.01-3.79-1.76-1.61-.95-3.44-.53-5.23-.55-2.71-.08-5.45-.35-8.19-.45-1.01-.05-2.01.15-3.04.23-1.53.1-3.09.18-4.65.25-.13,0-.23.05-.35.08.13.08.23.13.35.18,1.11.55,2.29.98,3.34,1.63,1.28.78,2.44,1.76,3.69,2.64,3.62,2.51,7.06,5.43,11.71,5.91,1.26.13,2.79.33,3.82-.23,1.71-.88,3.14-2.34,4.82-3.67m-102.28,14.07c.3-.18.6-.35.9-.5,4.47-2.29,7.71-5.93,10.65-9.85,1.63-2.19,2.51-4.72,2.59-7.46.05-1.31-.3-2.61-.48-3.92,0-.13-.05-.23-.08-.35-.13.1-.3.18-.35.3-.75,2.51-2.64,4.17-4.42,5.93-3.74,3.74-7.39,7.59-11.11,11.33-2.01,2.04-4.22,3.87-6.16,5.98-1.68,1.78-1.88,4.2-1.99,6.56,0,.23.2.48.33.73.15-.2.33-.38.43-.6,1.38-2.71,3.37-4.77,6.23-6.01,1.18-.5,2.21-1.33,3.44-2.14m-55.79-14.57c-.13-.75-.3-1.48-.38-2.24-.33-3.72-2.86-6.31-4.77-9.17-.1-.15-.3-.23-.45-.35-.03.18-.05.33-.05.48-.25,3.04-.43,6.08-.78,9.1-.33,2.56-.68,5.13-1.31,7.61-1.28,5.03-2.76,9.98-4.12,14.98-.08.35.18.8.28,1.21.23-.3.53-.55.6-.88.65-2.14,1.88-3.9,3.49-5.45,1.83-1.81,3.72-3.62,5.45-5.5.78-.85,1.66-1.91,1.81-2.99.35-2.19.25-4.45.23-6.78m-14.07-43.22c.5-.25,1.06-.5,1.56-.75.28-.15.55-.35.83-.53-.3-.18-.58-.38-.9-.48-3.04-1.03-6.21-.8-9.35-.7-1.01.03-2.19.25-2.81,1.33-.68,1.13-1.23,2.34-1.96,3.44-1.71,2.56-2.64,5.75-5.73,7.24-.1.05-.2.13-.3.18.15.1.33.3.5.3,3.27.23,6.56.73,9.78-.38,1.06-.38,2.34-.28,2.84-1.61,1.16-3.09,2.94-5.73,5.55-8.04m45.36-25.25c.15,1.18.3,2.36.45,3.54.05.43-.1,1.03.13,1.26,1.58,1.71,3.44,3.09,5.68,3.84,1.21.43,2.46.78,3.72,1.01,2.61.48,5.25.88,7.89,1.26.38.05.8-.23,1.21-.35-.3-.15-.63-.28-.93-.45-.28-.15-.5-.4-.8-.53-2.94-1.33-4.77-3.77-6.16-6.53-.4-.8-.85-1.28-1.56-1.66-.28-.15-.6-.23-.85-.4-2.97-2.04-5.91-4.07-8.9-6.08-.18-.13-.78-.6-.63.28.23,1.51.5,3.04.75,4.82m-62.95,17.97c2.31.48,4.4,1.41,5.86,3.39.6.78,1.38.68,2.14.6,1.23-.1,2.46-.45,3.69-.45,1.86.05,3.72.33,5.55.48.25,0,.48-.08.7-.13-.05-.15-.1-.28-.15-.43-.88-1.78-1.83-3.52-2.56-5.35-.75-1.83-1.83-3.34-3.82-3.59-1.56-.18-3.19.05-4.75.35-3.44.6-6.28,2.49-9.05,4.5-.2.13-.33.33-.5.5.28.13.58.35.85.35.58,0,1.18-.15,2.04-.23m140.85,35.56c-1.21.95-2.39,1.91-3.57,2.89-.2.18-.3.43-.45.65.28.1.55.3.85.35,1.91.25,3.82.5,5.7.75.73.08,1.58.43,2.11.15.9-.5,1.68-1.31,2.36-2.11,1.36-1.58,2.51-3.37,4-4.85,2.16-2.14,4.52-4.1,6.81-6.13.18-.15.33-.35.5-.53-.25-.03-.48-.1-.73-.1-1.76.08-3.54.15-5.33.25-2.81.18-5.13,1.46-7.14,3.32-1.78,1.63-3.44,3.39-5.13,5.35m-34.43,85.44c-.1.5-.23,1.01-.25,1.53-.1,1.71-.23,3.44-.23,5.15,0,.58.28,1.26.63,1.73,1.48,1.96,3.07,3.84,4.62,5.75.15.2.38.35.55.53.15-.25.43-.53.43-.78.05-2.49.73-4.9.33-7.49-.45-3.07-.35-6.21-.58-9.3-.15-1.76-.48-3.49-.75-5.23-.23-1.48-.48-2.97-.75-4.45-.03-.23-.18-.43-.28-.65-.25.2-.6.38-.7.65-.5,1.71-1.01,3.44-1.43,5.18-.55,2.36-1.06,4.75-1.58,7.36m54.4-106.92c-1.68,2.66-4.15,4.27-7.06,5.28-1.43.5-2.97.83-4.25,1.56-1.51.88-2.86,2.06-4.22,3.17-4.07,3.34-8.85,5.4-13.67,7.31-2.04.8-4.2,1.38-6.28,2.09-.3.1-.53.4-.8.6.28.05.58.13.85.1,1.68-.25,3.47-.28,5.05-.85,4.67-1.66,9.27-3.59,13.97-5.33,2.29-.83,4.65-1.58,7.04-2.06,1.53-.3,2.94-.63,4.05-1.78,2.56-2.64,3.95-6.01,5.65-9.2.13-.23-.13-.68-.33-.88m1.13-12.69c-.1-.43-.18-.85-.25-1.28-.55-2.51-1.31-4.98-2.69-7.16-1.08-1.73-2.24-3.44-3.37-5.15-.18-.3-.45-.83-.6-.8-.43.1-.93.33-1.18.68-.13.2.08.75.25,1.08.23.43.55.78.88,1.16,3.07,3.62,4.1,7.94,3.87,12.54-.1,2.04-.85,4.05-1.46,6.03-.65,2.14-1.31,4.32-2.31,6.31-.7,1.41-1.99,2.51-3.02,3.77-.18.2-.28.45-.43.68.3.03.68.15.93.05,1.06-.5,2.09-1.01,3.09-1.58,2.34-1.36,3.97-3.44,5.8-5.33.25-.23.38-.6.45-.93.78-3.29.68-6.61.03-10.05M6.1,135.46c-.38.13-.75.23-1.13.35.28.2.53.48.85.6.65.3,1.36.58,2.06.8,2.04.63,4.12,1.16,6.11,1.91,2.49.93,4.32.48,5.78-1.76,1.83-2.81,3.62-5.63,5.4-8.47.05-.08-.2-.48-.25-.45-.7.13-1.38.3-2.06.48-3.49.9-6.71,2.39-9.88,4.07-2.06,1.11-4.42,1.66-6.89,2.46m135.82,36.56c1.86,2.86,3.72,5.75,5.6,8.59.15.25.5.4.75.58.05-.35.2-.7.15-1.03-.3-2.51-.6-5.03-1.03-7.51-.18-1.08-.5-2.21-1.06-3.19-1.18-2.06-2.79-3.74-4.52-5.4-2.31-2.26-5.13-3.17-8.07-3.95-.33-.1-.73.03-1.08.05.23.28.45.53.68.8,1.36,1.43,2.86,2.76,4.05,4.35,1.58,2.09,2.94,4.37,4.52,6.71M14.77,130.82c2.84-1.43,5.73-2.79,8.97-3.14.18-.03.35-.2.48-.33.03-.03-.1-.25-.2-.33-1.13-.73-2.16-1.66-3.39-2.06-1.36-.45-2.91-.25-4.3-.6-1.08-.28-1.71.1-2.39.75-2.04,1.86-3.95,3.87-6.13,5.53-1.71,1.33-3.74,2.24-5.63,3.32-.25.13-.5.23-.73.35.23.18.45.4.73.5.3.1.65.2.95.13,1.81-.35,3.67-.58,5.38-1.21,2.11-.75,4.1-1.83,6.26-2.91m100.89-18.72c.33,0,.68.05.98-.03.23-.03.43-.2.63-.33-.15-.15-.25-.33-.4-.45-2.14-1.36-3.57-3.37-4.95-5.43-.3-.43-.78-.98-1.21-1.01-1.63-.08-3.32-.13-4.95.1-1.81.23-3.54.75-5.33,1.08-1.28.25-2.61.35-3.92.53-.3.05-.55.25-.83.38.23.15.45.35.7.45.85.3,1.76.6,2.64.88,2.14.7,4.25,1.53,6.43,2.01,3.29.75,6.63,1.23,10.2,1.81m49,77.4c-.2-.03-.43-.03-.6-.1-1.28-.53-2.54-1.11-3.82-1.66-.18-.05-.38-.03-.58-.05.03.2,0,.43.1.58.43.58.93,1.11,1.33,1.71,1.51,2.14,2.97,4.3,4.42,6.46.4.58.6,1.36,1.11,1.78,1.83,1.46,3.47,3.02,4.42,5.2.05.15.2.28.3.4.08-.15.18-.33.2-.48.55-2.39,1.31-4.75,1.01-7.24-.08-.55-.3-1.18-.68-1.61-1.93-2.21-4.5-3.57-7.21-5m-29.28-9.17c-.13.78-.18,1.61-.38,2.36-.43,1.46-.98,2.86-1.38,4.32-1.33,4.77-2.66,9.55-3.9,14.32-.25.98-.15,2.04-.2,3.04,0,.15.2.3.3.45.08-.15.2-.28.25-.43.13-.3.15-.6.28-.9.95-2.24,1.56-4.72,2.97-6.66,2.76-3.79,3.82-8.04,4-12.54.1-2.94-.43-5.91-.7-8.85-.05-.35-.45-.65-.68-.95-.03.33-.05.68-.05,1.01-.03.23,0,.43-.03.63-.15,1.33-.33,2.64-.48,4.2m-2.01-15.33c-.13-.13-.25-.25-.38-.35-1.08-1.01-2.01-2.41-3.29-2.91-2.29-.9-4.82-1.28-7.26-1.88-.55-.13-.7.15-.65.68.18,1.86,1.53,2.99,2.76,4.05,1.31,1.11,2.91,1.86,4.35,2.81,2.06,1.41,3.97,2.94,5.23,5.18.08.15.23.23.35.35.13-.2.38-.38.38-.58-.05-.85-.08-1.71-.25-2.54-.33-1.56-.73-3.12-1.23-4.8m70.61-1.51c-.9.8-1.76,1.61-2.66,2.39-.18.15-.4.25-.6.35.23.15.43.35.68.45.33.1.7.2,1.03.2,2.61-.15,5.23-.2,7.82-.55,2.29-.3,4.52-.93,6.78-1.46.7-.18,1.16-.6.25-1.11-1.88-1.11-3.79-2.14-5.7-3.17-.8-.4-1.58-.55-2.49-.03-1.63,1.01-3.32,1.86-5.1,2.91m-70.36,71.87c-.93-1.43-1.83-2.84-2.76-4.25-.18-.25-.48-.4-.7-.58-.03.33-.1.65-.05.98.48,2.46,1.13,4.93,1.46,7.41.48,3.39.8,6.84,1.01,10.25.18,2.81-.23,5.63-.95,8.37-.1.45.03.98.05,1.48.18-.38.35-.75.53-1.13.15-.4.3-.8.4-1.21,1.11-4.32,2.19-8.64,3.29-12.97.28-1.13.75-2.24.18-3.42-.8-1.61-1.56-3.22-2.44-4.95M88.65,39.09c-.15.33-.33.63-.45.95-.7,1.88-1.41,3.77-2.06,5.68-.1.28.03.63.05.95.23-.18.5-.35.7-.58.55-.6.98-1.36,1.63-1.81,1.26-.93,2.66-1.68,3.95-2.59,1.21-.83,2.44-1.71,3.49-2.71.63-.58,1.46-1.61,1.31-2.21-.45-1.78-1.36-3.44-2.11-5.15-.08-.15-.25-.3-.38-.45-.13.2-.3.4-.35.6-.18,1.08-.93,1.76-1.71,2.41-.2.2-.4.43-.58.65-1.13,1.36-2.26,2.74-3.49,4.25m67.6,141.98c-2.46-2.69-5.6-4.8-7.09-8.32-.05-.15-.23-.23-.35-.33-.03.15-.13.3-.1.45.23,2.11.4,4.22.78,6.31.25,1.41.45,3.02,1.28,4.07,1.53,1.99,3.49,3.64,5.33,5.43.08.08.6-.1.6-.23.23-1.18.58-2.36.48-3.54-.08-1.21-.6-2.39-.93-3.84m-60.69-70.74c.28.38.58.75.88,1.13,1.36,1.71,3.32,2.59,5.15,3.62.65.35,1.56.58,2.29.48,1.76-.2,3.52-.55,5.23-.98,1.58-.4,3.12-.98,4.65-1.48.18-.08.33-.23.48-.35-.15-.05-.33-.13-.5-.15-1.08-.1-2.21-.05-3.27-.28-2.84-.55-5.7-1.11-8.49-1.91-2.49-.7-4.85-1.78-7.29-2.69-.2-.08-.45-.08-.68-.13.1.25.15.5.28.7.38.65.75,1.28,1.28,2.04m57.29,38.7c-.35.08-.73.1-1.03.28-.55.28-1.26.55-1.58,1.03-.6.93-1.01,2.01-1.46,3.02-.08.18-.13.45-.05.58.1.13.4.18.55.1,2.56-1.08,5.18-2.06,7.64-3.37,2.29-1.21,4.4-2.74,6.56-4.15,3.29-2.14,6.38-4.47,8.92-7.49.48-.58.98-1.11,1.41-1.68.15-.23.13-.58.18-.85-.25.13-.5.23-.7.4-2.06,1.78-3.97,3.79-6.21,5.35-2.59,1.78-5.38,3.29-8.19,4.7-1.83.9-3.84,1.41-6.03,2.09M83.12,41.86c.08.85.08,1.71.25,2.54.2.85.53,1.71.83,2.54.05.15.3.23.48.33.05-.18.15-.33.18-.5.35-1.21.73-2.39,1.01-3.62.95-4.25,3.74-7.29,6.56-10.35.53-.55,1.03-1.13,1.48-1.76.15-.2.1-.55.15-.83-.25.08-.53.1-.75.23-1.23.7-2.44,1.43-3.64,2.14-1.51.83-3.07,1.56-4.47,2.51-.75.53-1.53,1.41-1.76,2.26-.33,1.36-.23,2.84-.3,4.52m-24.63,102.53c-.1-.5-.03-1.16-.3-1.51-1.99-2.31-4.05-4.6-6.11-6.86-.08-.08-.6.08-.6.15-.13,2.21-.25,4.45-.25,6.66,0,.48.45,1.01.83,1.38,1.11,1.11,2.24,2.21,3.44,3.19,1.01.83,2.14,1.51,3.22,2.21.13.1.33.05.5.08-.05-.15-.08-.33-.15-.43-1.03-1.48-.38-3.19-.58-4.88m84.81,11.69c.75-.28,1.53-.55,2.29-.8,1.08-.33,1.78-1.03,2.26-2.01.43-.83.85-1.66,1.26-2.49.1-.23.15-.48.25-.7-.25,0-.5-.05-.75-.03-2.26.4-4.5.88-6.76,1.23-1.31.23-2.26.88-3.14,1.83-1.06,1.11-2.21,2.06-3.34,3.09-.15.15-.33.28-.48.4.18.13.35.35.53.38,1.16.15,2.36.45,3.49.3,1.41-.2,2.76-.78,4.4-1.21m24.88,34.18c1.11.93,2.21,1.88,3.32,2.81.18.15.35.25.53.35,0-.2.05-.4-.03-.58-.98-2.54-2.39-4.8-4.27-6.78-.98-1.06-1.93-2.16-3.47-2.49-.78-.15-1.56-.3-2.29-.55-1.36-.45-2.69-.98-4.05-1.48-.18-.05-.38-.05-.58-.05.05.2.08.4.15.6.33.85.6,1.76,1.01,2.59.25.48.63,1.03,1.11,1.28,2.79,1.43,5.6,2.79,8.57,4.3m-99.51-81.42c1.03-1.46,1.99-2.97,3.12-4.35.5-.6.9-1.16.75-1.96-.23-1.36-.45-2.71-.78-4.07-.05-.15-.78-.33-1.03-.18-1.83,1.06-3.27,2.36-4.02,4.55-.85,2.41-.25,4.4.88,6.41.15.28.5.4.75.6.05-.3.13-.58.33-1.01m-14.83,27.39c1.38,1.56,2.84,3.07,4.12,4.7.85,1.03,1.53,2.14,3.12,1.33.05-.03.18-.03.23,0,.3.13.6.28.9.43-.1-.38-.18-.75-.28-1.11-.03-.15-.13-.28-.18-.43-.93-2.26-1.81-4.55-3.69-6.26-.75-.65-1.51-1.11-2.51-.93-.58.1-1.18.15-1.78.25-.45.1-.88.28-1.31.4.23.33.45.63.73.95.15.18.35.35.65.65m107.55,29.9c-.73-.05-1.48-.05-2.19-.2-2.76-.48-5.53-1.03-8.27-1.56-.78-.15-1.56-.33-2.34-.45-.3-.05-.6.05-.9.1.18.25.33.55.55.75.18.18.5.2.73.35,2.29,1.58,4.98,2.16,7.54,2.99.63.2,1.38.15,2.06.05,2.01-.3,4-.65,5.98-1.03,1.38-.28,2.74-.65,4.1-1.03.4-.1.75-.38,1.13-.6-.5-.03-1.08-.23-1.56-.1-2.16.58-4.35.83-6.84.73m19.1,17.84c.45.05.9.1,1.36.15-.4-.4-.75-.85-1.18-1.21-2.11-1.81-4.35-3.52-6.36-5.45-.78-.75-1.18-1.61-2.44-.8-.68.43-1.56.55-2.31.83.4.73.85,1.46,1.23,2.24.53,1.06,1.31,1.68,2.46,2.01,2.36.65,4.65,1.48,7.24,2.24m-24.75-87.32c.53-.95,1.11-1.88,1.56-2.86.2-.43.33-1.06.15-1.46-1.61-4.02-2.16-8.17-1.48-12.46.03-.13-.08-.28-.13-.43-.13.13-.25.23-.35.35-1.36,1.73-1.58,3.87-1.71,5.91-.1,1.81.25,3.64.45,5.43.23,1.96.48,3.9.75,5.83.03.2.25.38.38.55.13-.2.25-.4.38-.85m9.17,75.26c.63.03,1.31.13,1.93.05,2.09-.3,3.72-2.19,6.03-1.83.2.03.45-.25.68-.38-.25-.2-.48-.53-.75-.58-2.24-.48-4.32-1.66-6.81-1.08-1.91.45-3.95.38-5.91.58-.3.03-.55.23-.83.38.2.2.4.58.63.58,1.91.1,3.37,1.21,5.03,2.29m-11.56-.75c1.31,1.23,3.04,1.18,4.65,1.48,1.91.38,3.84.63,5.78.9.23.03.5-.03.75-.03-.13-.2-.23-.43-.38-.6-1.33-1.31-3.07-1.86-4.75-2.49-3.14-1.21-6.31-2.31-9.5-3.44-.13-.05-.28-.03-.43-.03.1.13.18.25.28.35,1.16,1.26,2.31,2.49,3.59,3.84m9.8,3.02c-.13,0-.28.03-.38,0-2.16-.33-4.32-.68-6.48-1.01-.25-.03-.53.1-.8.13.18.18.33.4.53.53.8.5,1.61,1.01,2.44,1.43,1.91.93,3.77,1.99,5.78,2.69,1.16.4,2.54.2,3.82.23.05,0,.23-.35.18-.4-.93-1.13-1.78-2.31-2.86-3.29-.4-.38-1.31-.23-2.21-.3m-3.27,7.04c1.03.33,2.04.68,3.09.98.23.08.48,0,.73-.03-.15-.13-.33-.23-.48-.35-.63-.7-1.26-1.38-1.83-2.14-.65-.83-1.08-1.96-1.91-2.54-1.78-1.21-3.82-2.04-5.1-3.92-.1-.15-.33-.2-.5-.3-.05.23-.18.45-.15.65.18,1.06.3,2.11.65,3.12.85,2.56,3.02,3.62,5.5,4.52m-86.57-75.51c-.08-.3-.08-.63-.2-.93-.05-.1-.45-.18-.5-.1-1.16,1.63-2.34,3.24-3.42,4.95-.25.38-.33,1.08-.13,1.46.7,1.23,1.53,2.36,2.36,3.52.05.1.38.13.4.08.68-1.16,1.71-2.31,1.88-3.57.23-1.66-.25-3.42-.4-5.4m133.06,62.19c-.53-.08-1.03-.23-1.53-.23-.38,0-.73.23-1.11.35.28.2.53.55.83.6,2.34.45,4.67.93,7.01,1.23.73.1,1.68-.05,2.29-.48,1.38-1.01,2.61-2.21,3.9-3.34.13-.13.15-.4.23-.6-.23.03-.48,0-.68.08-1.21.43-2.36,1.03-3.59,1.28-2.36.48-4.72.75-7.34,1.11m-131.3-54.4c0,.8-.03,1.61,0,2.41,0,.18.15.33.23.48.13-.08.3-.13.38-.25.93-1.51,1.91-2.97,2.74-4.52.55-1.06.18-2.84-.65-3.44-.95-.68-1.96-1.31-2.94-1.93-.03-.03-.25.15-.25.23.08.68.2,1.36.23,2.04.08,1.63.1,3.24.28,5m87.58,51.89c.83,0,1.66.03,2.49-.03.23,0,.43-.28.65-.45-.2-.08-.35-.23-.55-.28-1.66-.25-3.29-.73-4.95-.7-2.91.03-5.65-.98-8.49-1.33-2.44-.3-4.9-.5-7.36-.73-.15,0-.33.13-.5.18.15.15.28.35.45.4,1.58.33,3.17.73,4.77.9,1.73.2,3.52.18,5.28.28.18.03.48.05.53.18.4.85,1.18.75,1.91.83,1.88.2,3.77.43,5.78.75m3.02,14.32c-.93-.4-1.83-.83-2.76-1.23-.43-.18-.9-.3-1.36-.43.15.4.2.93.48,1.26,1.28,1.48,2.19,3.44,4.55,3.59,1.08.08,2.16.23,3.24.33.3.03.6-.03.9-.05-.18-.23-.3-.53-.53-.68-1.46-.9-2.94-1.78-4.52-2.79m-13.32-4.02c.4.43.8.83,1.21,1.26-.03-.53,0-1.06-.1-1.56-.2-1.11-.23-2.39-.8-3.27-1.08-1.68-2.51-3.14-3.82-4.67-.03-.05-.35.03-.4.13-.65,1.01-.1,1.96.38,2.76,1.03,1.81,2.26,3.49,3.54,5.35m-91.09-29.78c-.45-.45-.88-.9-1.36-1.33-.13-.13-.33-.2-.48-.3-.08.23-.2.43-.18.65.05,1.06.15,2.11.25,3.17.1,1.01.95,1.83,1.93,1.68,1.16-.2,2.26-.63,3.37-1.01.18-.05.3-.33.48-.48-.2-.1-.4-.15-.6-.25-1.11-.68-2.19-1.33-3.42-2.14m103.28,51.01c-.13-.45-.13-.98-.38-1.33-.9-1.33-1.91-2.56-2.81-3.87-.83-1.23-1.58-2.51-2.34-3.79-.3-.45-.55-.95-.8-1.43-.15.45-.3.93-.48,1.38-.05.2-.25.38-.23.53.08.55.08,1.21.4,1.58,1.66,1.96,3.44,3.84,5.18,5.75.43.45.88.88,1.46,1.18m5.15-25c-.28.08-.53.18-.78.25-.13.03-.23.08-.33.1.08.05.15.15.25.15,2.86.08,5.7.18,8.57.23.23,0,.45-.25.7-.38-.23-.2-.4-.48-.65-.58-.65-.33-1.33-.63-2.04-.8-.68-.15-1.41-.33-2.06-.2-1.21.25-2.39.73-3.67,1.23m-38.7-16.84c-.38.25-.75.5-1.13.73.43.18.88.48,1.31.5.68.03,1.51.1,2.01-.23,1.56-1.06,2.99-2.26,4.47-3.42.03-.03-.13-.35-.13-.33-.73.18-1.46.3-2.14.6-1.43.63-2.86,1.33-4.4,2.14m38.82,50.38c.15.65.3,1.28.5,1.91.08.2.33.33.5.48.03,0,.23-.15.23-.2,0-1.38.23-2.81-.58-4.02-.98-1.41-2.06-2.76-3.12-4.12-.23-.3-.63-.48-.95-.7.05.45.08.9.13,1.36.03.2.15.35.28.53.98,1.51,2.01,3.02,3.02,4.77m-24.38-41.46c-.9-.45-1.81-.93-2.71-1.38-.13-.05-.3.03-.48.03.1.15.15.33.28.45,1.38,1.48,2.76,2.94,4.17,4.42.15.15.38.25.58.38.05-.23.15-.45.15-.65.08-1.46-1.23-2.09-1.99-3.24m27.01,9.42c-.9-.08-1.78-.18-2.66-.25-.15,0-.3.08-.45.1.08.05.18.1.25.15,2.69,2.09,3.84,1.81,6.61.5.15-.08.25-.23.38-.35-.18-.05-.35-.15-.53-.15-1.16.03-2.31.08-3.59,0m-104.66-78.28c.08.55.23,1.11.23,1.63,0,.75-.08,1.48-.15,2.24.85-.48,1.68-.95,2.51-1.46.1-.05.2-.15.25-.25.05-.08.08-.23.05-.25-.9-.7-1.41-1.96-2.89-1.91m-2.89,51.89c-.75-1.16-1.38-2.44-2.29-3.42-.38-.4-1.41-.15-2.16-.2.08.2.05.48.18.6.78.73,1.56,1.46,2.39,2.11.48.38,1.08.6,1.88.9m101.9,26.76c1.21,2.04,2.29,2.56,4.4,2.14.13-.03.25-.15.38-.23-.13-.15-.2-.4-.35-.48-1.38-.65-2.79-1.31-4.22-1.93-.05-.03-.23.25-.2.5m-94.23-57.8c.5.58.98,1.18,1.51,1.76.1.13.28.2.43.3.03-.2.08-.4.05-.6-.15-1.06-.3-2.11-.5-3.17-.05-.23-.25-.43-.4-.65-.35.7-.73,1.41-1.08,2.36m97.5,65.08c-.43-.73-.8-1.51-1.31-2.19-.1-.15-.68-.03-1.01.08-.13.05-.25.53-.2.55.83.63,1.66,1.21,2.51,1.56"/>
</svg>