<?xml version="1.0" encoding="UTF-8"?>
<svg id="Layer_1" data-name="Layer 1" xmlns="http://www.w3.org/2000/svg" viewBox="0 0 253.89 402.49">
  <defs>
    <style>
      .cls-1 {
        fill: #fff;
        stroke: #fff;
        stroke-miterlimit: 10;
        stroke-width: 2px;
      }
    </style>
  </defs>
  <path class="cls-1" d="m153.27,109.54c.79.03,1.57.07,2.35.13,2.54.18,5.08.26,7.6-.09,1.91-.26,2.08-.5,2.06-2.52.66.01,1.31,0,1.97.03.91.05,1.81.19,2.71.19,1.39,0,2.78-.02,4.16-.17,1.76-.2,3.09-1.02,3.41-2.95.02-.1.15-.18.35-.39.65-.02,1.43-.07,2.2-.07,1.69,0,3.39-.01,5.07.03,1.28.04,2.2-.53,2.9-1.54.24-.34.45-.69.68-1.05.66.06,1.26.1,1.86.17,5.08.59,9.46-1.17,13.61-4.09-.23-.26-.39-.51-.62-.68-1.09-.77-2.17-1.53-3.29-2.25-1.97-1.26-4.13-2.01-6.45-2.24-1.56-.16-3.13-.33-4.7-.37-4.06-.12-8.07-.61-12.1-1.09-2.4-.29-4.81-.54-7.22-.67-3.62-.19-7.25-.28-10.87-.36-3.45-.08-6.89.13-10.28.83-3.08.63-6.16,1.24-9.32,1.35-1.27.04-2.53.17-3.8.24-2.59.13-4.99.97-7.25,2.16-2.69,1.41-5.13,3.2-7.27,5.36-1.66,1.68-3.26,3.41-4.92,5.07s-3.35,3.32-5.09,4.91c-1.51,1.38-3.18,2.6-4.68,4-3.46,3.23-6.35,6.96-9.21,10.71-.23.31-.53.57-.84.91-1.05-1.86-2.11-3.54-3.81-4.72-.26-5.32-.51-10.57-.79-15.82-.15-2.9-.12-5.8.05-8.7.07-1.28.32-2.49.95-3.64,1.46-2.72,2.69-5.55,3.5-8.54.04-.17.17-.31.24-.42.87-.41,1.66-.86,2.51-1.17.91-.33,1.86-.53,2.79-.79.41-.11.82-.21,1.23-.34,2.48-.76,3.08-1.32,4.04-3.78.29-.12.61-.29.95-.41,2.76-.94,5.38-2.19,7.86-3.7,1.02-.62,1.96-1.39,2.93-2.12.42-.32.56-.77.46-1.29-.05-.27-.1-.55-.15-.84,2.97-1.4,5.5-3.25,7.92-5.27.83-.7,1.11-1.37.62-2.34-.04-.08.02-.22.06-.43,1.7-.77,3.46-1.55,5.21-2.36.98-.46,1.98-.91,2.92-1.46.88-.52,1.72-1.13,2.51-1.77.84-.68.87-1.57.13-2.36-.24-.26-.57-.44-.85-.66-.22-.16-.45-.32-.85-.6,2.92-1.87,5.6-3.78,7.48-6.54.32-.36-.21-.35-.3-.37-1.77-.35-3.55,0-5.69.14,1.01-.94,1.77-1.61,2.49-2.32.64-.63,1.36-1.24,1.84-1.99.59-.92,1.38-1.47,2.36-1.87,1.9-.78,3.8-1.57,5.66-2.44,1.04-.48,2-1.11,2.98-1.71.3-.18.55-.47.77-.75.29-.36.11-.95-.33-1.01-.83-.11-1.68-.2-2.51-.18-5.35.19-10.55,1.23-15.66,2.8-.86.26-1.77.39-2.65.59-.44.1-.83.05-1.21-.18-1-.61-2.05-.53-3.15-.31-2.59.51-4.9,1.7-7.22,2.88-.47.24-.96.46-1.45.69-.91-.94-1.89-.89-2.91-.47-.72.3-1.46.59-2.14.99-2.91,1.71-5.81,3.47-8.71,5.2-.2.12-.44.17-.72.27-.34-.22-.69-.45-1.04-.68-.73-.49-1.48-.45-2.23-.05-.32.17-.62.38-.9.6-1.19.95-2.23,2.04-3.12,3.27-1.61,2.23-2.85,4.63-3.66,7.25-.09.28-.04.71-.63.82.21-1.2.45-2.32.57-3.44.13-1.14.11-2.29.23-3.43.11-1.12-.44-2.27.12-3.36,1.27-.33,2.47-.76,3.71-.93,1.32-.18,2.37-.79,3.45-1.48,1.88-1.2,3.7-2.48,5.84-3.26,2.35-.86,4.45-2.21,6.1-4.13,1.43-1.67,3.18-2.95,4.87-4.31,2.07-1.67,4.04-3.46,6.05-5.2.24-.21.4-.45.13-.8-1.35-.11-2.73-.25-4.11-.31-1.87-.08-3.73-.1-5.57.46-.97.3-2.02.36-3.03.54-1.31.23-2.63.4-3.92.71-2.37.56-6.15,2.66-8.12,4.3-.06-.14-.1-.28-.14-.41-.22-.68-.4-1.39-.66-2.06-.1-.26-.35-.62-.56-.64-.7-.07-.87-.58-1.09-1.08-.79-1.83-1.65-3.64-2.34-5.5-.4-1.07-1.02-1.92-1.85-2.63-1.04-.89-1.78-1.95-2.3-3.2-.18-.44-1.31-3.76-1.9-4.26-.05-.06-.09-.12-.15-.18-.63-.72-.85-1.59-1.07-2.46-.44-1.7-.82-3.4-1.27-5.09-.17-.64-.38-1.28-.69-1.87-.19-.36-.39-.5-.65-.65-.41,1.26-.61,2.45-.54,3.62-.39,1.17-2.02,5.58-2.11,6.65-.02.08-.05.16-.06.24-.25,1.17-.2,2.42-1.13,3.36-.08.08-.11.22-.12.34-.04,1.25-.63,2.32-1.06,3.44-.64,1.66-.99,3.35-.61,5.15.08.39.04.86-.1,1.23-.26.69-.13,1.29.17,1.91.42.87.83,1.74,1.22,2.63.3.7.75,1.35.83,2.09-.12.09-.18.16-.22.16-.3-.04-.6-.06-.88-.14-3.03-.87-6.11-1.45-9.27-1.55-1.77-.06-3.46-.52-5.13-1.07-.97-.32-1.91-.73-2.88-1.1-.2-.07-.42-.28-.59,0,.59.91,1.25,1.78,1.75,2.72,1.53,2.88,3.88,4.93,6.64,6.5,1.85,1.05,3.6,2.19,5.29,3.48,1.24.94,2.59,1.79,3.99,2.47,1.79.86,3.7,1.47,5.54,2.24.78.32,1.56.68,2.26,1.15.93.62,1.81,1.33,2.21,2.39.02.17.04.36.07.57.03,3.43-.51,6.85-1.17,10.13-.64-.28-.64-.83-.8-1.25-.47-1.25-1.05-2.44-1.83-3.53-.61-.85-1.38-1.29-2.48-1.17-.83.09-1.69.06-2.53.03-.75-.03-1.4-.33-1.88-.94-.71-.9-1.46-1.77-2.14-2.69-.65-.87-1.22-1.8-1.85-2.68-.31-.43-.63-.91-1.35-.82-.3.44-.62.91-.95,1.41-1.61-1.45-3.12-2.83-4.66-4.16-.78-.66-1.61-1.26-2.47-1.82-.39-.26-.88-.39-1.35-.49-.53-.12-.85.1-1.13.64-.16.31-.32.62-.49.93-.26-.04-.45-.03-.6-.11-1.77-.91-3.53-1.85-5.31-2.74-.86-.42-1.77-.76-2.67-1.09-.47-.17-.96-.14-1.28.35,0,.12-.05.25-.02.36.11.41.22.82.37,1.21,1.09,2.89,1.08,5.82.11,8.69-.43,1.26-.36,2.34.02,3.51.15.46.35.91.44,1.38.08.4.19.89.04,1.23-.4.87-.16,1.64.13,2.45.38,1.04.94,1.96,1.62,2.82.53.66,1.08,1.3,1.6,1.97.43.55.65,1.15.38,1.86-.08.21-.05.47-.08.7.23.25.43.48.65.69,1.14,1.08,2.29,2.15,3.43,3.24.86.82,1.18,1.8.84,2.96-.12.4-.23.81-.32,1.23-.18.82-.1,1.56.63,2.12.19.14.36.33.5.52.63.81,1.19,1.62,1.12,2.77-.05.91.39,1.76.95,2.5.91,1.21,1.92,2.34,3.17,3.21,1.24.86,2.53,1.65,3.73,2.58,1.25.97,2.62,1.71,4.01,2.45,2.68,1.43,5.4,2.71,8.41,3.25.45.08.85.24,1.14.6-.07,3.39.06,7.43.08,10.77.02,3.32-.18,6.65.07,9.96,0,.09-.07.2-.03.84-.65-.61-1.67-1.21-2.22-1.88-.54-.65-1.15-1.3-1.98-1.54-.91-.26-1.6-.8-2.31-1.38-.61-.5-1.24-.96-1.91-1.38-1.58-1-3.16-2.01-4.79-2.94-1.19-.68-2.45-1.25-3.68-1.86-.45,1.06-.49,1.11-.25,1.98.29,1.05.62,2.09.98,3.11.78,2.22,1.58,4.44,2.41,6.65.29.77-.37,1.29.02,2.14,1.02,2.25,2.42,4.17,3.66,6.17.88,1.43,1.41,2.97,1.29,4.64-.12,1.64.57,2.78,1.81,3.71.24.18.5.35.71.55.21.2.44.42.56.69.86,1.89,1.7,3.78,2.9,5.52-.95-.67-1.82-1.4-2.68-2.15-.68-.6-1.31-1.26-2.01-1.83-5.07-4.11-10.29-8.03-15.59-11.83-.68-.49-1.45-.87-2.2-1.26-.64-.34-1.34-.57-1.95-.95-1.27-.8-2.63-.91-4.01-.51-1.31.38-2.61.42-3.95.33-2.83-.19-5.67-.37-8.5-.52-.84-.05-1.69-.02-2.53,0-1.08.03-2.02.41-2.65,1.33-.46.66-1.07.92-1.84.98-1.32.11-2.65.22-3.97.4-2.17.3-4.24.97-6.21,1.92-1.03.5-1.11.99-.56,2.02.08.15.15.32.26.54-.08.13-.15.31-.28.43-.26.25-.53.5-.83.69-2.58,1.63-4.74,3.73-6.73,6.02-1.5,1.73-2.94,3.54-4.84,4.87-.15.1-.28.24-.4.37-.96.99-.93,1.86.11,2.79.4.35.83.68,1.19.98-.03.7-.41,1.12-.78,1.5-.71.74-1.41,1.51-2.22,2.13-2.07,1.59-3.26,3.7-3.85,6.19-.29,1.23-.44,2.49-.62,3.75-.11.78-.13,1.56-.22,2.35-.33,3.13-1.15,6.05-3.58,8.29-.76.7-1.77,2.97-1.37,3.71.01.02.02.05.04.08h0c.56.36,1.23.28,1.88.27,3.7-.06,7.31-.49,10.87-1.68,4.09-1.36,8.04-2.99,11.85-5,2.52-1.32,4.95-2.78,6.98-4.82.72-.72,1.57-1.34,2.44-1.87,4.01-2.48,7.92-5.12,12.16-7.21,1.78-.88,3.64-1.63,5.51-2.33,1.47-.56,2.99-.98,4.5-1.41,3.74-1.06,7.56-1.62,11.46-1.59,3.32.02,6.65,0,9.97,0,3.29.01,6.5-.46,9.63-1.51.25-.08.54-.33.85.04-.4.92-.81,1.86-1.21,2.8-.98,2.29-1.11,4.54.19,6.79.54.94.97,1.96,1.29,2.99.37,1.17.87,2.26,1.6,3.21.65.85,1.04,1.73,1.07,2.8,0,.36.1.72.15,1.07.63,4.85,1.31,9.7,1.89,14.56.32,2.7.34,5.17.81,7.85.08.42.26,1.49.31,2.11-.33-.38-1.03-1.43-1.22-1.65-1.72-2.03-3.41-4.08-5.17-6.07-.8-.9-1.71-1.71-2.62-2.5-1.04-.9-2.18-1.57-3.62-.85-.82-.62-1.56-1.25-2.37-1.78-1.73-1.12-3.53-1.93-5.57-.66-.09.06-.23.03-.46.05-1.41-1-2.89-2.03-4.36-3.09-.88-.64-1.75-1.29-2.88-1.36-.38.35-.73.66-1.12,1.01-.81-.41-1.56-.8-2.31-1.18-2.05-1.05-4.13-2.02-6.39-2.55-.17-.04-.36.02-.55.03-.25.26-.49.52-.79.84-1.25.04-2.48-.31-3.7-.6-1.2-.29-2.23-1.1-3.62-1.29.04.38.01.62.09.82.27.67.53,1.35.89,1.98,1.48,2.56,3.01,5.1,4.5,7.66.38.65,1.01,1.21.64,2.14-.1.25.15.69.33,1,.33.58.66,1.16,1.09,1.66.94,1.1,1.92,2.17,2.94,3.2,1.15,1.15,2.22,2.36,3.19,3.6-.41,1.31-.42,1.32.27,2.2.29.38.6.76.95,1.09,2.46,2.26,5.11,4.25,8.11,5.76.37.19.75.38,1.13.57-.04.45-.07.85-.11,1.29,1.27.43,2.46.84,3.66,1.24,5.54,1.84,11.18,2.52,16.97,1.4.65-.13,1.32-.2,1.98-.26.34-.03.68.01,1.03.03.43,2.3.94,4.48,1.24,6.68.53,3.91,1.7,7.67,2.61,11.49.48,2,1.19,3.94,1.69,5.93.94,3.71,2.32,7.25,3.88,10.73.33.74.56,1.54.88,2.4-.74-.34-1.06-.95-1.45-1.46-1.27-1.69-2.55-3.37-3.78-5.1-1.9-2.68-4.14-5.04-6.61-7.19-1.14-.99-2.29-1.98-3.47-2.93-2.31-1.86-4.74-3.56-7.38-4.93-2.46-1.28-5.01-1.74-7.7-.72-.11.04-.23.07-.34.12-.62.25-1.11.18-1.64-.32-.66-.61-1.43-1.12-2.2-1.58-1.14-.68-2.32-1.31-3.49-1.92-2.86-1.5-5.92-2.44-9.04-3.21-.63-.16-1.33-.18-1.97-.1-.87.11-1.25.6-1.32,1.47-.03.48,0,.97-.02,1.45-.07,1.41-.27,1.67-1.74,1.72-.89.03-1.81-.09-2.69-.26-2.41-.46-4.8-.45-7.2.07-.98.21-1.82.68-2.59,1.27-.55.42-1.32.66-1.56,1.51.34.6.69,1.22,1.08,1.91-.34.32-.6.65-.94.87-1.38.9-2.92,1.42-4.52,1.83-1.94.49-3.79,1.22-5.55,2.2-2.43,1.37-4.37,3.22-5.8,5.61-.4.66-.87,1.32-.7,2.21.23.2.45.4.68.59.75.61,1.11,1.11.41,2.37-.18.31-.38.62-.61.9-1.17,1.39-2.36,2.75-3.98,3.66-1.88,1.05-3.1,2.63-3.77,4.68-.72,2.24-1.56,4.45-2.28,6.7-.55,1.74-1.19,3.42-2.2,4.96-.37.55-.7,1.14-.97,1.74-.49,1.14-1.13,2.12-2.12,2.89-.36.28-.8.57-.77,1.18.11.11.22.28.37.35.38.17.79.31,1.19.43,1.1.34,2.22.6,3.29,1.02,2.46.96,5.01,1.41,7.63,1.34,3.02-.08,6.04-.22,9.05-.44,2.48-.19,4.87-.91,7.22-1.7,2.06-.69,4.06-1.57,6.1-2.33,3.8-1.42,7.6-2.82,11.4-4.23,3.24-1.2,6.58-2.08,9.96-2.75,4.92-.97,9.85-1.93,14.84-2.44,1.87-.19,3.73-.38,5.61-.2,2.71.26,5.42.5,8.03,1.33.69.22,1.42.29,2.12.48,1.81.48,3.63.95,5.42,1.5.8.25,1.51.84,2.31.97.91.14,1.75.45,2.6.74.8.27,1.6.56,2.39.85,2.57.94,5.2,1.58,7.95,1.72.54.03,1.08.11,1.63.13,1.04.04,1.79.48,2.41,1.34.96,1.32,2.02,2.56,3.06,3.82,2.04,2.47,4.09,4.93,6.14,7.4.17.2,2.6,2.63,2.75,2.85-.63-.27-3.62-2.9-4.13-3.4-2.5-2.43-5.41-4.21-8.49-5.83-3.28-1.72-6.76-2.58-10.4-2.94-1.66-.16-3.27.07-4.71.97-1.69,1.05-3.37,2.13-5.02,3.25-1.55,1.05-3.02,2.22-4.59,3.25-.85.56-1.78,1.04-2.74,1.38-2.74.96-5.5,1.85-8.27,2.73-1.66.52-3.06,1.45-4.28,2.64-1.99,1.95-3.8,4.07-5.29,6.43-.55.87-1.02,1.79-1.39,2.75-.68,1.74-1.34,3.51-1.87,5.3-.94,3.19-1.84,6.39-2.66,9.62-.96,3.82-2.15,7.55-3.56,11.24-1.81,4.75-3.51,9.54-5.26,14.3-.35.96-.77,1.9-1.14,2.85-.11.28-.26.57-.27.86-.01,1.06-.41,2.01-.76,2.98-1.03,2.91-2.04,5.82-3.17,8.69-.93,2.38-1.75,4.76-2.1,7.3-.14,1.02-.45,2-.97,2.91-.27.47-.5.97-.7,1.48-.43,1.13-.67,2.3-.52,3.46.69.5,1.26.25,1.74-.13.9-.7,1.76-1.47,2.63-2.22.64-.55,1.23-1.17,1.92-1.66,1.33-.95,2.58-1.98,3.82-3.04,1.63-1.4,3.07-2.89,3.8-4.9.85-.51,1.69-.41,2.53-.24,1.17.24,2.11-.11,2.97-.93.93-.88,1.8-1.8,2.35-2.97,1.38-2.88,3.22-5.55,3.99-8.72.24-1,.91-1.7,1.92-2.01.69-.21,1.39-.47,2.1-.52.99-.08,1.72-.5,2.35-1.2.28-.31.56-.64.81-.98,1.47-2.01,2.64-4.2,3.44-6.56.62-1.83,1.4-3.61,1.67-5.55.1-.73.59-1.17,1.28-1.39.34-.11.71-.23,1.06-.23,1.73.02,2.79-.99,3.66-2.31s1.51-2.75,2.06-4.23c.87-2.32,1.74-4.65,2.68-6.94.61-1.48,1.03-2.96.89-4.57,0-.1.09-.22.15-.34.52-.46,1.17-.62,1.84-.64,1.13-.04,1.92-.63,2.6-1.45.59-.71,1.04-1.49,1.29-2.37.34-1.22.68-2.45.94-3.69.69-3.32,1.48-6.6,2.63-9.81.49-1.36.79-2.79,1.2-4.18.21-.69.47-1.36.73-2.04.48-1.26,1.48-1.65,2.75-1.59,1.18.05,2.26.42,3.29.95,2.75,1.41,5.44,2.91,7.95,4.72.69.5,1.4.96,2.08,1.46,3.87,2.81,7.76,5.57,11.58,8.44,2.75,2.07,5.42,4.25,8.11,6.41.84.68,1.7,1.38,2.4,2.2,2.26,2.6,4.45,5.26,6.66,7.9.16.19.49.53,1,1.35-.5-.28-1.95-1.05-2.48-1.33-1.87-1.01-3.8-1.87-5.85-2.42-.81-.22-1.66-.29-2.49-.37-1.09-.11-2.05.24-2.77,1.07-.49.56-1.06.7-1.76.73-1.69.07-3.39.14-5.06.36-1.97.26-3.7,1.06-4.9,2.76-.19.27-.53.49-.84.61-1.97.75-3.34,2.23-4.34,3.94-.79,1.35-1.68,2.48-2.98,3.32-.56.36-1.07.79-1.62,1.15-1.17.77-2.34,1.5-3.8,1.58-.21.01-.4.19-.8.38.45.27.73.46,1.04.6,1.1.48,2.26.87,3.32,1.44,1.56.83,3.21,1.38,4.88,1.95,4.51,1.54,8.95,1.02,13.36-.35,2.19-.68,4.33-1.53,6.49-2.29,3.66-1.29,7.34-2.38,11.25-2.69,2.44-.19,4.82-.04,7.22.32.78.12,1.34.48,1.78,1.11.45.65.93,1.27,1.4,1.9,1.41,1.89,2.86,3.75,4.22,5.67,1.25,1.78,2.43,3.61,3.61,5.44,2.55,3.97,5.07,7.95,7.14,12.2.93,1.9,1.87,3.8,2.72,5.74,1.16,2.66,2.29,5.33,3.34,8.04,1.5,3.89,2.99,7.79,4.34,11.74,1.12,3.26,2.06,6.58,3.05,9.88.92,3.07,1.84,6.14,2.72,9.22.65,2.27,1.27,4.54,1.87,6.82.54,2.04,1.03,4.1,1.57,6.15.13.5.35.98.52,1.46.53-.04.3-.72.24-1.05-.1-.6-.26-1.18-.39-1.77-.59-2.65-1.16-5.31-1.79-7.96-.41-1.7-.92-3.38-1.4-5.07-1.24-4.36-2.38-8.75-3.75-13.07-1.63-5.12-3.31-10.24-5.29-15.24-1.74-4.38-3.57-8.72-5.58-12.99-1.88-4-4.09-7.81-6.42-11.56-2.42-3.9-4.91-7.77-7.74-11.39-3.5-4.48-6.91-9.03-10.44-13.47-2.82-3.55-5.72-7.04-8.67-10.48-3.46-4.04-6.9-8.11-10.56-11.96-5.37-5.66-10.54-11.49-15.53-17.49-1.35-1.63-2.76-3.21-4.03-4.9-2.5-3.34-4.98-6.7-7.37-10.11-2.22-3.17-4.34-6.43-5.87-10-1.45-3.39-2.72-6.86-4.06-10.29-.09-.22-.49-1.48-.56-1.71-.62-2.08-.76-2.42-1.22-4.17-.87-3.29-1.92-6.49-2.78-9.76-.55-2.1-.95-4.25-1.32-6.39-.58-3.4-1.02-6.81-1.07-10.27-.03-1.99-.16-3.99-.37-5.97-.28-2.58-.71-5.15-1.04-7.72-.91-7.19-1.59-14.42-2.8-21.57-.03-.19.08-.4.15-.72.54.86.95,1.61,1.46,2.27.39.51,1.6,1.75,2.63,2.4.21.36.35.73.37,1.18.06,1.02.2,2.04.31,3.07.41,4.02.8,8.05,1.26,12.07.1.86.03,1.65-.21,2.48-1.13,3.96-1.29,7.97-.43,12.01.06.27,0,.71.55.73-.1-1.23-.2-2.42-.3-3.62-.35-4.19.47-8.18,2.12-12.02.57-1.32,1.4-2.4,2.52-3.29.34,1.02,1.2,1.25,2.11,1.41.4-1.04,1.11-1.81,1.99-2.48.81-.62,1.54-1.33,2.34-1.96.31-.25.71-.38,1.19-.5,1.01-1.68,2.62-2.44,4.39-2.95.43-.12.83-.02,1.18.28.22.2.46.37.73.58l1.53-.55c-.61,1.23-1.24,2.38-1.77,3.59-1.1,2.5-1.59,5.18-2.24,7.82-.23.92-.56,1.63-1.33,2.24-1.33,1.03-2.56,2.19-3.84,3.3-.35.3-.7.61-1.24,1.07-.03-.56-.12-.91-.06-1.23.39-2.26.8-4.51,1.23-6.76.34-1.77.74-3.54,1.08-5.44-.17.13-.36.38-.44.65-.74,2.62-1.55,5.22-2.16,7.87-.39,1.7-.48,3.46-.69,5.2-.05.48-.05.95-.41,1.35-1.44,1.54-2.86,3.1-4.26,4.62-.47-.12-.44-.44-.41-.73.06-.66.11-1.33.23-1.98.83-4.39,1.58-8.8,2.87-13.09.07-.23.09-.47.04-.76-.62,1.36-1.27,2.75-1.64,4.2-.8,3.09-1.51,6.21-2.16,9.34-.23,1.11-.28,2.27-.28,3.41,0,.77-.09,1.43-.67,1.96-.14.13-.22.32-.32.47.04.03.08.06.13.09.52-.39,1.04-.77,1.44-1.07,1.83.23,3.5.53,5.18.64,3.6.22,7.22.51,10.78-.45-.29-.04-.59-.14-.88-.13-4.3.21-8.57-.22-12.83-.7-.24-.03-.48-.07-.71-.13-.11-.03-.21-.11-.32-.17.57-1.09,2.73-3.4,4.4-4.73,2.18.28,4.27.66,6.37.78,3.68.2,7.37.05,11.03-.45.9-.12,1.77-.33,2.88-.93-6.6.49-12.86.96-19.02-.15-.27-.51.04-.7.24-.88,1.49-1.32,3.01-2.61,4.51-3.92.49-.43,1-.59,1.66-.53,4.93.47,9.77-.31,14.6-1.07,1.24-.2,2.44-.7,3.65-1.06.21-.07.43-.12.68-.19-.13,1.09-.7,2.38-1.52,3.44-.75.97-1.65,1.75-2.8,2.12-.25.67-.43,1.3-.7,1.88-.84,1.78-2.44,2.76-4.06,3.68-1.69.96-3.49,1.65-5.4,2.07-.63.14-1.35.14-1.75,1.07.03.62.04.96.05,1.24-1.86,1.2-3.85,1.65-5.85,2.06-2.71.56-5.46.82-8.23.86-.52,0-1.78,0-2.3.08h0c-.11,0-.22,0-.33,0-.12,1.44.21,2.74.49,4.02.78,3.48,1.67,6.93,2.49,10.4.77,3.24,1.71,6.43,2.89,9.54.88,2.32,1.76,4.64,2.68,6.94,1.7,4.28,3.64,8.43,6.29,12.23.55.79.99,1.66,1.47,2.5.6,1.05,1.14,2.14,1.79,3.15,1.42,2.18,2.89,4.32,4.38,6.45.72,1.04,1.5,2.05,2.33,3,.95,1.1,1.97,2.12,2.99,3.17.19.19.46.3.8.51.09-.51.17-.86.2-1.21.1-1.14.16-2.29.28-3.44.57-5.59,2.04-10.93,4.72-15.9.66-1.22,1.42-2.39,2.12-3.6.76-1.31.96-2.74.71-4.21-.27-1.61-.63-3.2-.97-4.79-.17-.83-.44-1.64-.55-2.47-.31-2.33.69-3.8,3.16-4.59.33,1.34.64,2.68,1,4.01.37,1.39,1.29,2.59,1.55,4.03-1.25,1.89-2.14,3.9-3,5.96.25-.07.44-.19.56-.36,1.23-1.71,2.21-3.58,3.45-5.29,1.18-1.63,2.4-3.17,3.97-4.42.23-.18.48-.32.76-.49.23.21.41.36.57.54,2.48,2.73,4.94,5.47,7.44,8.19,2.58,2.81,5.26,5.52,8.34,7.78,1.32.96,2.64,1.92,3.95,2.9.27.2.51.43.77.65-.5.1-.87-.03-1.25-.14-.82-.25-1.67-.48-2.49-.14-1.08.45-2.01.14-2.94-.38-.37-.2-.73-.43-1.08-.66-2.72-1.81-5.42-3.64-8.44-4.94-.48-.21-.86-.64-1.27-1-1.8-1.61-3.59-3.24-5.39-4.84-.23-.2-.48-.47-1.06-.3,1.69,1.57,3.27,3.02,4.78,4.86-.49,0-.77,0-1.05,0-1.57-.06-3.14-.19-4.71-.15-1.92.04-3.49.74-4.5,2.53-1.04,1.85-2,3.73-2.77,5.71-2.56,6.55-3.29,11.9-3.25,19.57,0,.81.78,2.25,1.33,2.87,1.67,1.83,3.21,3.79,4.99,5.5,4.06,3.89,7.84,8.05,11.75,12.09,4.85,5.01,9.28,10.35,13.64,15.77,4.47,5.56,8.47,11.47,12.47,17.38,2.34,3.45,4.53,7,6.69,10.57,1.03,1.7,1.78,3.57,2.73,5.32,1.5,2.77,2.93,5.56,4.15,8.47.68,1.62,1.46,3.19,2.19,4.78.86,1.87,1.79,3.7,2.56,5.61,1.08,2.69,2.05,5.43,3.03,8.16,1.48,4.1,2.98,8.19,4.38,12.31,1.09,3.21,2.1,6.44,3.02,9.7.69,2.44,1.19,4.93,1.74,7.41.45,2.01.85,4.03,1.76,5.89.08.17.13.5.55.28,0-.2.02-.44-.02-.67-.39-1.89-.79-3.79-1.19-5.68-.36-1.71-.66-3.45-1.12-5.14-1.45-5.37-3.05-10.7-5.02-15.91-.88-2.32-1.7-4.66-2.51-7-2.02-5.77-4.11-11.5-6.95-16.94-.33-.64-.66-1.3-.92-1.97-1.91-4.99-4.53-9.63-7.05-14.3-3.02-5.59-6.64-10.81-10.31-15.99-2.13-3.01-4.27-6.01-6.43-9-.4-.56-.67-1.15-.7-1.83-.14-2.66.4-5.17,1.83-7.46.72-1.15,1.65-2.06,2.99-2.52.5-.17,1.05-.4,1.41-.78,1.48-1.52,2.9-3.12,3.4-5.27.25-1.09.8-2.02,1.36-2.95.14-.24.42-.53.65-.55,1.05-.08,1.42-.84,1.73-1.64.29-.73.47-1.5.72-2.24.43-1.25,1.04-2.31,2.49-2.61.55-.11,1-.49,1.25-.99.86-1.73,2.01-3.32,2.46-5.24.33-1.42.84-2.78,1.61-4.02.53-.84.62-1.73.04-2.56-.57-.82-.64-1.67-.47-2.59.13-.71.25-1.43.35-2.15.18-1.31.36-2.63.52-3.95.04-.31,0-.6-.48-.79-.25.23-.59.46-.83.77-.48.62-.87,1.31-1.35,1.93-1.64,2.16-3.66,3.67-6.53,3.69-.72,0-1.29.29-1.51,1.05-.28.96-.97,1.5-1.89,1.78-1.04.32-2.08.65-3.12.93-1.07.29-2.08.67-2.79,1.58-.78,1-1.62,1.97-2.27,3.05-.91,1.51-2.17,2.58-3.65,3.44-1.14.66-1.95,1.61-2.61,2.71-.24.41-.5.81-.75,1.22-.24-.09-.41-.14-.56-.22-.15-.09-.27-.25-.42-.34-.64-.37-1.16-.24-1.51.41-.2.37-.34.77-.47,1.17-.41,1.28-.59,2.59-.61,3.93-.02,2.12-.02,4.23-.04,6.35-.02,1.4.1,2.78.4,4.14.04.19.24.47-.18.56-.13-.1-.29-.19-.41-.32-3.37-3.64-6.7-7.31-10.1-10.91-2.45-2.59-5.01-5.08-7.48-7.65-1.97-2.05-3.85-4.17-5.81-6.23-.8-.84-1.11-1.78-1.12-2.94-.06-6.48.95-12.77,3.26-18.83.82-2.16,1.86-4.2,3.15-6.12.23-.34.52-.65.77-.97,2.59-.31,5.12-.19,7.65-.04.59.04,1.22.17,1.75.43,2.49,1.23,5.03,2.38,7.3,4.03,1.27.92,2.67,1.66,4.03,2.44.88.5,1.86.65,2.8.29,1.06-.4,2.02-.19,2.98.24,1.49.66,2.99,1.33,4.46,2.02,3.17,1.49,6.53,2.13,10.01,2.25,1.18.04,2.27-.1,3.12-1.08.5-.57,1.19-.72,1.99-.59,3.12.5,6.27.38,9.41.23,2.59-.13,5.03-.67,7.03-2.47.05-.04.1-.07.15-.11.78-.63,1.67-.88,2.67-1,4.39-.55,8.8-.64,13.21-.76.86-.02,1.68-.12,2.46-.49.6-.29,1.24-.51,1.79-.87.81-.52,1.64-.68,2.59-.52,2.14.37,4.3.7,6.45,1.03,3.35.52,6.68,1.11,10.04,1.53,1.61.2,3.25.08,4.88.06.41,0,.84-.12,1.22-.27.54-.22.67-.92.26-1.36-.2-.22-.45-.4-.68-.6-.77-.68-1.58-1.32-2.29-2.05-1.23-1.26-2.47-2.49-4.05-3.31-.49-.26-.87-.63-1.06-1.19-.57-1.74-1.75-3.02-3.18-4.09-1.3-.98-2.62-1.95-4-2.83-.78-.49-1.24-1.11-1.42-1.98-.06-.3-.17-.59-.19-.89-.07-.96-.67-1.53-1.46-1.92-.7-.35-1.42-.69-2.17-.91-1.99-.58-3.56-1.75-4.89-3.29-1.21-1.41-2.73-2.35-4.41-3.08-3.94-1.7-7.87-3.44-11.66-5.45-.52-.28-1-.33-1.56-.2-1.27.31-2.48.12-3.72-.31-2.17-.76-4.2-1.84-6.44-2.43-3.09-.83-6.13-1.84-9.2-2.77-.82-.25-1.65-.35-2.5-.11-1.04.3-2.11.54-3.13.9-.88.31-1.75.42-2.67.33-1.02-.1-2.05-.19-3.07-.19-1.76,0-3.49-.22-5.22-.52-1.67-.28-3.36-.43-5.04-.57-.72-.06-1.47-.03-2.16.12-2.2.49-4.29,1.27-6.24,2.41-1.89,1.11-3.55,2.51-5.11,4.04-1.41,1.38-3.06,2.36-4.93,2.96-1.04.34-2.09.63-3.1,1.01-.85.32-1.73.61-2.46,1.12-1.73,1.21-3.4,2.51-5.07,3.81-1.14.88-1.64,2.07-1.52,3.5.05.6.13,1.2.27,1.79.21.88.48,1.75.72,2.62.16.58.34,1.13.19,1.77-.09.38.02.83.09,1.24.06.36.23.7.26,1.05.17,1.58.12,3.06-.97,4.44-1.35,1.71-2.31,3.69-3.17,5.69-1.99,4.67-3.15,9.52-3.17,14.62,0,.49.15.86-.11,1.99-.56-.58-1.41-1.51-1.87-2.13-1.48-1.98-2.98-3.97-4.35-6.03-2.31-3.47-4.52-7.01-6.78-10.5-1.95-3-3.59-6.17-4.94-9.47-1.53-3.75-2.9-7.57-4.26-11.38-.57-1.59-.99-3.24-1.43-4.87-.78-2.92-1.52-5.85-2.29-8.77-.46-1.75-.95-3.5-1.41-5.26-.11-.41-.16-.83-.24-1.24-.04-.19,0-.32.06-.43,3.19.5,6.98.08,10.02-.44,1.95-.33,3.9-.78,5.67-1.8.94-.54,1.56-1.09,1.41-2.24-.01-.08.12-.19.11-.18,1.23-.45,2.36-.88,3.5-1.26,2.21-.73,4.19-1.85,5.89-3.46.52-.5,1.11-.98,1.47-1.59.32-.54.38-1.24.57-1.91,1.94-1.01,3.13-2.72,4.12-4.64,1.32-2.54,2.19-5.24,2.99-7.96.32-1.08.89-2.14.52-3.34-.05-.15.06-.35.11-.52.7-2.12,1.01-4.36,2.04-6.38.14-.28.08-.67.13-1.09-.53-.02-.94-.06-1.35-.05-2.14.05-4.15.68-6.17,1.47-.7-.68-1.55-.75-2.4-.71-.9.04-1.81.09-2.69.26-2.08.38-4.11.99-6.06,1.83-.36.15-.73.43-1.23.13-.05-3.49-.02-6.99-1.19-10.5.98-.88.72-1.99.18-2.95-.75-1.32-.94-2.7-1.01-4.17-.05-.95-.35-1.89-.48-2.85-.23-1.67-2.04-2.33-2.44-3.89-.02-.1-.16-.18-.26-.25-.29-.21-.61-.39-.89-.62-1.53-1.26-3.25-2.02-5.24-2.27-.94-.12-1.87-.48-2.76-.84-.61-.24-1.15-.66-1.7-1.03-1.02-.71-2.12-1.1-3.37-1.18-1.05-.06-2.09-.23-3.14-.37.2-1.06.06-2.53.02-3.41-.08-1.99.18-3.99-.32-5.96-.15-.59.16-1.05.43-1.52,2-3.62,4.41-6.94,7.17-10,1.54-1.71,3.26-3.22,5.11-4.61,2.11-1.59,4.38-2.78,7.02-3.19,2.27-.36,4.55-.78,6.84-.36,2.26.42,4.5.93,6.74,1.41,2.78.6,5.55,1.2,8.33,1.79,1.58.34,2.93.18,3.42-1.69,1.1-.14,2.11.03,3.13.12,1.57.14,3.13.27,4.7.36.47.03.97-.05,1.42-.21.75-.26,1-1.03.63-1.76-.16-.31-.47-.56-.29-1.06.16-.06.38-.15.61-.14h0Zm9.31,200.79c.51.73,1.1,1.41,1.79,2.27-.4.01-.61.05-.82.02-2.04-.28-3.99-.84-5.91-1.61-2.86-1.13-5.77-2.13-8.66-3.18.66.99,1.94,1.38,3.14,1.91,1.48.66,3,1.24,4.5,1.87.31.13.58.33,1.01.58-2.54.45-4.89.87-7.45,1.33-2.67-.88-5.57-1.84-8.48-2.79-.46-.15-.93-.23-1.4-.34-.14.13-.02.31.13.37,2.31.88,4.47,2.13,6.88,2.76.39.1.76.32,1.31.55-.32.23-.47.4-.67.47-.79.3-1.59.58-2.38.87-1.04.38-2.1.45-3.2.42-2.97-.08-5.88-.5-8.77-1.27-.14.5.25.49.47.57,1.93.74,3.95,1.09,5.97,1.46.22.04.46.05.68.08-.02.16,0,.25-.03.27-1.4.91-2.9,1.49-4.59,1.27-1.61-.21-3.21-.55-4.82-.81-.38-.06-.79-.37-1.24.06,1.16.69,2.54.67,3.8,1.29-1.85.36-3.88.3-5.84-.16-2.74-.63-6.13-1.63-7.41-2.59.27-.1,2.09.09,2.27.09,1.14.05,2.28-.03,3.42,0,1.28.04,2.63-.23,3.84-.85.57-.29,1.02-.72,1.12-1.34.09-.57.42-.85.86-1.07.59-.29,1.21-.54,1.82-.79,1.39-.57,2.89-.88,4.16-1.76.46-.32.93-.03,1.4.02-.06-.2-.38-.36-.69-.52l-.75-2.08c.7-.34,1.41-.42,2.11-.45,1.92-.08,3.83-.13,5.75-.22.81-.04,1.52.28,2.26.53.57-.52.88-1.07,1.19-1.63.89-.5,1.84-.48,2.81-.31,2.58.45,4.97,1.46,7.35,2.49.39.17.75.39,1.13.57.77.37,1.43.85,1.94,1.57h0Zm-2.18-2.57c-1.83-.78-3.36-1.49-4.93-2.09-1.01-.39-2.08-.63-3.13-.9-.4-.1-.84-.14-1.26-.14-1.52-.03-2.24.38-3.02,1.62-2.47.06-4.88.08-7.29.2-1.08.05-2.16.25-3.22.45-.67.13-.85.6-.57,1.24.17.38.38.74.56,1.07-.23.73-.81.93-1.38,1.14-1.24.47-2.49.92-3.73,1.42-.5.2-.99.46-1.43.77-.28.19-.61.49-.68.8-.27,1.17-1.15,1.44-2.14,1.63-.06,0-.12.02-.18.02-1.99.07-3.97.15-5.96.21-.29,0-.9.13-1.2.08-1.54-.09.64-.85.89-1.03,1.02-.75,2.04-1.51,3.08-2.23.82-.57,1.44-1.28,1.81-2.2.63-1.58,1.84-2.69,3.11-3.69.63-.49,1.52-.67,2.36-1.02.7-1.93,2.41-2.66,4.3-2.96,1.6-.26,3.24-.31,4.87-.37,1-.03,1.9-.11,2.59-.99.43-.55,1.08-.76,1.79-.67.89.11,1.81.17,2.67.41,2.51.71,4.87,1.78,7.2,2.93.86.48,1.49.83,2.11,1.21,1.15.71,1.83,1.83,2.77,3.11Zm-24.38-28.21c2.52,2.69,5.03,5.39,7.54,8.09.15.17.27.37.28.72-.22-.12-.46-.21-.66-.36-.39-.28-.77-.58-1.14-.9-2.37-2.07-4.85-4-7.43-5.8-2.97-2.08-5.9-4.22-8.84-6.34-2.61-1.88-5.39-3.47-8.26-4.91-1.65-.83-3.36-1.32-5.25-.97-.78.15-1.36.48-1.78,1.11-.56.86-1,1.78-1.29,2.79-.57,2.03-1.26,4.04-1.81,6.08-.73,2.68-1.38,5.38-2.06,8.08-.3,1.17-.51,2.37-.88,3.51-.24.73-.64,1.43-1.05,2.09-.47.75-1.22,1.12-2.11,1.25-.65.09-1.31.23-1.91.48-.77.34-1.24.96-1.11,1.88.18,1.19-.18,2.26-.6,3.35-1,2.53-1.97,5.07-2.95,7.61-.55,1.41-1.16,2.79-2.03,4.04-.65.94-1.43,1.62-2.67,1.59-.3,0-.6.07-.9.13-1.32.28-2.09,1.08-2.45,2.37-.47,1.69-.99,3.36-1.5,5.03-.61,1.98-1.61,3.78-2.65,5.55-.37.62-.84,1.18-1.29,1.75-.5.64-1.13,1-1.99,1.08-.82.08-1.63.4-2.44.65-1.26.4-2.09,1.3-2.39,2.53-.72,2.99-2.44,5.52-3.72,8.24-.58,1.22-1.42,2.23-2.44,3.12-.54.47-1.11.65-1.83.57-.71-.09-1.45-.13-2.16-.04-.81.09-1.47.5-1.74,1.37-.47,1.51-1.57,2.57-2.7,3.57-1.44,1.27-2.85,2.6-4.5,3.64-.66.41-1.17,1.04-1.76,1.56-.76.68-1.52,1.36-2.25,2.02-.51-.19-.39-.55-.32-.79.2-.69.4-1.4.72-2.03.75-1.47,1.24-3.01,1.45-4.65.22-1.75.74-3.43,1.42-5.05,1.88-4.46,3.38-9.06,4.88-13.66.26-.8.62-1.57,1.02-2.31,1.34-2.51,2.71-4.99,4.37-7.31-.74.04-1.05.74-1.5,1.3-.45.54-.85,1.12-1.29,1.71-.41-.43-.12-.75,0-1.05.98-2.6,1.98-5.19,2.97-7.79.19-.51.43-1,.59-1.52,1-3.38,3.06-6.13,5.25-8.8.25-.31.5-.63.67-1.01-1.38.67-2.11,2.04-3.23,3.18-.05-.28-.13-.45-.1-.59,1.32-4.77,2.67-9.54,3.97-14.32.32-1.18.94-2,1.95-2.68,1.75-1.17,3.42-2.47,5.13-3.71,1.13-.83,2.39-1.42,3.71-1.85.26-.08.56-.07,1.11-.13-.38.42-.56.64-.76.85-.72.73-1.44,1.46-2.16,2.19-1.34,1.35-2.31,2.94-2.96,4.72-.73,1.98-1.45,3.97-2.17,5.96-.5,1.36-.92,2.73-1.73,3.97-.46.69-.68,1.54-.99,2.32-.56,1.4-1.16,2.79-1.64,4.22-1.04,3.04-2.08,6.11-3.77,8.83-.29.46-.48.75-.66,1.15,0,0,0,.02,0,.02-.06.14-.13.29-.19.43-.19.43-.25.53-.44.97-.02.03-.16.35-.17.38-.06.18-.1.35-.17.5-2,4.11-3.16,8.49-4.34,12.88-.69,2.57-1.27,5.17-1.89,7.76-.13.56-.21,1.13-.08,1.75.17-.49.34-.97.49-1.46,1.39-4.63,2.71-9.29,4.19-13.9.78-2.41,1.84-4.73,2.77-7.09.02-.06.04-.12.08-.16,1.1-1.19,1.41-2.76,2.02-4.18.59-1.39,1.13-2.8,1.7-4.2,1.14-2.8,2.28-5.6,3.43-8.4.16-.39.35-.77.58-1.13.05-.07.19-.08.33-.1.02.63.24,2.04.3,2.49.32,2.21.66,4.41,1.02,6.62.57,3.52,1.33,7,2.7,10.31.18.44.38.89.63,1.29.09.15.36.19.81.41-.26-1.43-.63-2.56-1.05-3.68-.3-.79-.65-1.57-.85-2.38-1.11-4.3-2.38-11.45-3.09-16.02.78-3.4,2.04-6.64,3.29-9.88.46-1.19,1.11-2.28,2.01-3.19,1.18-1.2,2.42-2.34,3.61-3.53.5-.5,1.23-.54,1.72-1.15.43-.54,1.18-.81,1.77-1.23.54-.38,1.04-.81,1.57-1.22.57-.44,1.11-.93,1.72-1.32,1.06-.69,2.14-1.35,3.23-1.97.04-.02.07-.03.1-.04.39-.27.8-.5,1.23-.7.09-.06.13-.09.19-.12,2.34-1.3,4.23-3.16,6.4-4.69.09-.06.23-.05.41-.08.03.15.11.3.09.45-.52,4.26-.66,8.55-.74,12.84-.02.76-.17,1.59.52,2.35.16-.28.38-.49.4-.73.05-.66.03-1.33.04-1.99.02-3.5.04-7.01.08-10.51,0-.66.08-1.33.13-1.99.06-.77.39-1.37,1.11-1.75.85-.46,1.67-.97,2.5-1.46.19-.11.39-.23.53-.45-.94,0-1.71.44-2.49.83-1.85.92-3.47,2.17-5.11,3.4-1.21.9-2.44,1.78-3.69,2.62-.01,0-.03.02-.04.03-.1.05-.16.08-.21.11-.79.45-1.49.86-2.32,1.25-.14.1-.27.19-.41.28-1.72,1.01-3.34,2.16-4.87,3.44-.51.42-1.08.77-1.61,1.17-1.18.88-2.43,1.48-3.95,1.59-1.2.09-2.35.56-3.36,1.25-1.25.85-2.46,1.74-3.68,2.62-.82.59-1.59,1.27-2.7,1.75.09-.42.11-.71.21-.97.66-1.69,1.52-3.28,2.66-4.7.3-.37.63-.73.9-1.13,1.21-1.75,2.87-2.81,4.85-3.59,2.83-1.12,5.68-2,8.73-2.15.36-.02.71-.13,1.06-.2-2.62-.48-5.45.03-8.22,1-.51.18-1.01.39-1.52.58-.05.02-.12,0-.34-.02.21-.25.33-.49.53-.61.41-.25.84-.49,1.29-.66,2.72-1,5.43-2.05,8.27-2.7,1.31-.31,2.5-.86,3.63-1.6,1.06-.7,2.01-1.56,3.27-1.91.16-.05.36-.17.43-.31.57-1.07,1.64-1.58,2.55-2.25.87-.65,1.8-1.22,2.74-1.77,1.72-1,3.52-1.35,5.56-1.07,6.59.9,12.09,3.95,17.07,8.19,2.57,2.19,5.27,4.24,7.91,6.35.33.25.69.49.97.79h0Zm-53.85-29.27c-3.98.35-7.93.88-11.83,1.78-.77.18-1.35.07-2.01-.41-4.25-3.12-8.79-5.78-13.48-8.18-3.66-1.87-7.4-3.61-11.37-4.74-.35-.1-.71-.16-1.06-.23.25.28.74.63,1.29.85,8.08,3.31,15.7,7.45,22.87,12.44.23.16.45.35.88.69-.75.19-1.25.32-1.74.45-3.34.87-6.73,1.37-10.18,1.54-4.43.21-8.81-.3-13.13-1.2-4.79-1-9.57-2.06-14.35-3.08-.65-.14-1.3-.23-1.96-.34.11.28.45.54.84.64,5.46,1.36,10.9,2.77,16.38,4.02,3.3.76,6.68,1.09,10.07,1.14.35,0,.7.06,1.04.08.03.42-.27.43-.47.5-2.05.75-4.09,1.48-6.14,2.23-1.32.49-2.7.66-4.09.73-7.81.4-15.59.24-23.26-1.51.18.57.87.64,1.5.81,4.09,1.09,8.23,1.89,12.48,1.94,2.11.02,4.22.02,6.33.03.34,0,.69.03,1.07.25-.75.3-1.5.6-2.25.91-2.68,1.12-5.47,1.91-8.3,2.52-.76.17-1.55.25-2.33.3-2.1.14-4.21.26-6.32.37-3.29.17-6.51-.19-9.58-1.48-.55-.23-1.13-.42-1.69-.63-.05-.02-.08-.08-.12-.13-.08-.33.2-.39.4-.49,1.09-.51,2.17-1.05,3.28-1.52,1.34-.57,2.59-1.28,3.71-2.22.31-.27.71-.44,1.06-.65.38-.4.41-.73.59-.91.85-.8.98-1.75.73-2.83-.21-.88-.37-1.77-.57-2.73.71-1.08,1.74-1.74,3.01-2.06,1.56-1.29,3.15-2.11,4.8-2.82.44-.19.89-.33,1.24-.45.49-.69.48-1.36.48-2.02-.02-1.72.85-2.84,2.37-3.49.88-.38,1.78-.75,2.71-.99,1.69-.44,3.4-.79,5.11-1.15.35-.07.72-.01,1.08-.02.37-.4.66-.49.95-.57,1.13-.31,1.64-1.14,1.88-2.22.24-1.07.36-2.14.28-3.24-.09-1.27.19-1.64,1.37-1.94,1.36-.35,2.73-.49,4.13-.3,1.26.17,2.53.24,3.78.43.65.1,1.31.28,1.9.57,3.04,1.48,6.04,3.04,8.89,4.9,3.55,2.31,7.12,4.58,10.42,7.24,1.18.95,2.3,1.96,3.45,2.94,1.24,1.07,2.46,2.14,3.68,3.22.22.19.41.42.66.68-.21.14-.34.3-.49.31h0Zm33.03,4.02c1.06,1.16,1.91,2.44,2.85,3.91-.4.02-.61.06-.83.04-3.14-.3-6.19-.98-9.16-2.1-1.58-.6-3.18-1.15-4.78-1.69-.72-.24-1.25-.63-1.74-1.22-3.76-4.49-7.48-9.01-11.52-13.26-.5-.53-.95-1.1-1.5-1.57-3.13-2.66-6.22-5.36-9.76-7.48-1.66-.99-3.32-1.97-4.99-2.95,1.43,1.25,3.14,2.49,4.84,3.74,1.26.93,2.51,1.89,3.76,2.84.19.15.36.33.55.47,5.27,3.87,9.25,9.01,13.46,13.91.83.96,1.65,1.93,2.46,2.9.26.31.49.64.71.94-.31.43-.61.24-.87.18-2.53-.6-5.04-1.28-7.59-1.81-1.65-.34-3.34-.52-5.03-.68-1.01-.1-1.75-.5-2.51-1.21-4.95-4.72-10.15-9.16-16.07-12.65-1.3-.77-2.57-1.6-3.89-2.34-1.48-.82-2.99-1.57-4.49-2.35-.35-.19-.7-.38-1.15-.61,1.38-.42,1.6-.64,1.76-1.82.08-.6.06-1.2.11-1.81.07-1.04.4-1.4,1.43-1.5,1.22-.12,2.41.09,3.59.36,2.24.53,4.47,1.08,6.7,1.61.58.14,1.16.4,1.76.06.44-.53.65-.9.94-1.2.77-.8,1.65-1.12,2.78-.75,1.84.61,3.65,1.3,5.28,2.35,5.84,3.76,11.78,7.36,17.16,11.79,2.84,2.34,5.69,4.68,8.62,6.91,2.68,2.03,4.84,4.54,7.09,6.98h0Zm-4.57-6.47c-.38-.25-.78-.48-1.13-.76-3.26-2.6-6.54-5.18-9.75-7.84-3.51-2.9-7.3-5.38-11.1-7.86-1.42-.93-2.83-1.86-4.25-2.78-2.15-1.38-4.43-2.46-6.84-3.3-1.73-.61-3.06-.19-4.27,1.03-.25.26-.48.54-.79.89-1.22-.28-2.44-.56-3.67-.85-1.18-.28-2.35-.56-3.52-.85-1.15-.21-2.04-.4-2.94-.48-.65-.05-1.34-.01-1.98.12-1.04.22-1.63.98-1.73,2.06-.07.83.04,1.68-.3,2.43-.2.06-.32.14-.42.12-1.47-.38-2.97-.52-4.48-.61-1.15-.07-2.29-.23-3.42-.39-1.4-.19-2.78-.11-4.15.18-.47.1-.95.22-1.38.43-.93.46-1.53,1.15-1.38,2.3.15,1.15.04,2.29-.23,3.42-.18.78-.59,1.29-1.4,1.47-1.59.36-3.17.78-4.76,1.12-1.66.36-3.28.82-4.84,1.5-2.03.89-3.18,2.34-3.17,4.61,0,.24-.06.47-.1.71-.01.06-.05.11-.07.15-2.22,1.23-4.44,2.45-6.64,3.71-.63.36-1.2.81-1.78,1.25-.8.62-1.08,1.4-.74,2.4.23.68.36,1.4.51,2.11.17.78-.08,1.38-.65,1.96-1.82,1.85-3.99,3.1-6.42,3.91-.37-.28-.16-.57-.03-.8.33-.64.68-1.28,1.06-1.9.84-1.35,1.42-2.79,1.91-4.29.8-2.47,1.68-4.92,2.49-7.39.55-1.69,1.55-2.98,3.1-3.86,1.66-.94,2.94-2.31,4.12-3.77.38-.47.72-.98,1-1.51.55-1,.48-1.97-.24-2.88-.22-.28-.46-.55-.75-.9.15-.36.28-.76.48-1.11,2.05-3.45,5.2-5.48,8.89-6.79,1.42-.5,2.91-.82,4.32-1.37,1-.39,1.95-.96,2.83-1.58.9-.63.95-1.03.58-2.02-.12-.33-.31-.65-.45-.94.87-1.15,1.77-1.73,3.1-2.04,2.03-.46,4.07-.53,6.12-.19.71.12,1.43.32,2.15.34.78.03,1.58.01,2.33-.16,1.26-.28,1.59-.73,1.7-2,.04-.48.01-.97.04-1.45.02-.29.1-.58.15-.82.76-.5,1.49-.3,2.18-.12,3.12.78,6.16,1.75,9,3.29.9.49,1.83.95,2.7,1.5.86.55,1.72,1.12,2.47,1.81.67.61,1.32.79,2.14.48.23-.08.46-.15.68-.24,2.04-.8,4.04-.62,5.99.25.99.44,1.95.97,2.87,1.55,4.32,2.72,8.2,5.98,11.84,9.54,1.33,1.3,2.46,2.82,3.63,4.28,2.46,3.06,4.87,6.16,7.32,9.23.86,1.1,1.41,2.37,2.03,3.67h0Zm-41.05-73.7c.42-.22.59.1.82.25,1.3.88,2.59,1.78,3.9,2.63.77.5,1.01.51,1.73-.17.57-.53,1.14-.6,1.82-.41.88.24,1.72.57,2.44,1.15.75.61,1.49,1.23,2.24,1.84.64.37,1.02.27,1.38-.03.39-.33.79-.26,1.17-.02.45.29.94.56,1.32.94.98.98,1.89,2.03,2.85,3.03.62.65.89,1.43.92,2.3.09,3.43.17,6.87.24,10.3,0,.24-.05.48-.09.86-.3-.13-.59-.18-.78-.34-1.6-1.46-3.18-2.95-4.78-4.42-.34-.31-.43-.7-.45-1.13-.07-1.39-.16-2.77-.23-4.15-.12-2.36-.56-4.66-1.23-6.92-.38.63-.08,1.58.08,2.51.45,2.57.5,5.16.62,7.75,0,.17-.04.35-.09.66-.4-.28-.76-.48-1.05-.74-.9-.81-1.74-1.67-2.66-2.45-.5-.43-.67-.99-.85-1.56-.68-2.19-1.36-4.38-2.04-6.57-.14-.45-.32-.9-.58-1.32.06,1.35.39,2.63.76,3.92.36,1.29,1.07,2.51,1,4.11-2.04-1.39-3.92-2.68-5.89-4.03-.35-2.75-1.62-5.3-2.55-7.96h0Zm-6.8-2.13c.86.44,1.7.92,2.56,1.36.53.27,1.04.63,1.76.52.23-.35.48-.74.8-1.23.33.29.71.46.82.74.94,2.41,1.87,4.83,2.23,7.42,0,.05-.06.1-.12.2-.14-.01-.33.03-.45-.04-1.77-1.04-3.53-2.08-5.29-3.14-.15-.09-.25-.26-.37-.39-.47-1.18-.78-2.1-1.21-2.96-.43-.86-.97-1.66-1.47-2.5.25-.36.53-.11.75,0Zm-11.08-2.16c1.41.56,2.9.75,4.39.97.76.11,1.26-.18,1.71-.7,3.53.91,3.03.95,4.5,3.45.57.97.89,2.09,1.3,3.1-.4.37-.66.15-.91.02-.74-.4-1.47-.83-2.22-1.22-2.08-1.08-4.17-2.15-6.26-3.23-1.18-.61-2.17-1.47-3.18-2.29.25-.39.48-.17.66-.1h0Zm10.1,18.07c-.9-.97-1.77-1.97-2.75-2.86-1.3-1.18-2.4-2.55-3.14-4.15.17-.54.22-1.1.76-1.41-.63-.3-1.22-.74-1.67-1.57-1.07-1.95-2.27-3.84-3.4-5.75-.18-.31-.3-.65-.45-.97.4-.28.58.03.75.21.9.92,2.01,1.53,3.12,2.12,2.24,1.18,4.47,2.37,6.7,3.56.3.16.58.38.92.61-.32.49-.77.44-1.15.52-1.47.32-2.93.65-4.4.97.32.53.94.27,1.51.21,1.62-.17,3.24-.38,4.85-.67.82-.15,1.54-.03,2.26.36,1.7.92,3.3,1.99,4.85,2.99.02.71-.46.81-.82.97-1.83.82-3.76,1.3-5.74,1.63-1.07.18-2.13.42-3.19.63-.05,0-.08.09-.12.13,2.7.44,6.82-.48,10.99-2.47.79.21,1.44.77,2.15,1.22.76.49,1.51,1,2.22,1.57.64.51,1.46.84,1.87,1.71-.87.46-1.75.66-2.65.79-3.53.49-7.07.94-10.6,1.47-.76.11-1.3-.07-1.78-.6-.36-.39-.71-.81-1.07-1.21h0Zm12.26,12.68c.03-.38.06-.77.1-1.23-1.83-.66-3.51-1.62-5.06-2.77-1.93-1.44-3.96-2.77-5.52-4.66-.5-.68-.12-.97.12-1.31.27-.38.62-.53,1.08-.56,1.75-.09,3.5-.21,5.24-.32,2.78-.18,5.55-.44,8.21-1.33.28-.09.59-.09.92-.14.93.49,1.56,1.33,2.29,2.03.68.66,1.51,1.18,2.08,2.07-1.51.78-3.06.73-4.52,1.06-1.41.32-2.85.54-4.28.78-1.47.25-2.96.39-4.7.81,1.42.2,5.97-.03,7.45-.33,2.36-.49,4.73-.99,7.15-1.5,1.45,1.33,2.87,2.63,4.24,3.89-.09.59-.52.57-.83.63-.83.17-1.66.31-2.5.42-2.76.33-5.52.63-8.28.96-.28.03-.56.12-.84.4.25.04.51.13.76.11,3.98-.24,7.98-.3,11.87-1.28.77-.19,1.4-.12,2.02.41,1.47,1.25,3,2.42,4.47,3.89-7.43,1.58-14.5.91-21.47-2.02h0Zm22.18-7.14c.25,2.99.25,5.69.25,8.82-.39-.34-.57-.51-.76-.67-1.53-1.27-3.06-2.55-4.63-3.85.4-4.17-.15-8.24-.38-12.42-.15-.98.37-.08.45.01,1.5,1.81,3.07,3.7,4.29,5.73.45.75.73,1.51.78,2.37h0Zm71.48,112.41c-.1.47-.3.68-.48.38-.39-.66-.25-1.31.32-2.2.06.8.11,1.31.15,1.82Zm21.04-39.31c.08.53.27,1.05.44,1.56.14.45.32.9.5,1.4-.99,1.66-1.61,3.47-2.2,5.32-.49,1.54-1.36,2.96-2.1,4.41-.25.49-.68.83-1.26.96-1.18.28-1.83,1.13-2.26,2.17-.32.78-.54,1.6-.8,2.41-.27.83-.57,1.58-1.6,1.75-.3.05-.62.37-.82.66-.67,1-1.31,2.02-1.59,3.24-.47,2.03-1.85,3.5-3.17,5-.19.21-.5.36-.77.45-1.45.45-2.56,1.33-3.45,2.53-.06.08-.19.12-.3.19-.32-.26-.09-.55,0-.79.7-2.01,1.57-3.94,2.82-5.67,1.81-2.49,3.64-4.98,5.53-7.41,1.94-2.49,3.81-5.02,5.29-7.79,1.26-2.34,2.35-4.77,3.52-7.16.84-1.67,2.16-5.54,2.93-7.17-.01.46-.78,3.49-.72,3.94h0Zm-28.22,30.83c-.17-1.31-.4-2.63-.42-3.95-.03-2.53.06-5.07.11-7.6.02-1.33.19-2.65.59-3.93.09-.29.13-.59.22-1.04.51.33.75.48.98.63.85.54,1.72.4,2.09-.5.72-1.76,2.21-2.65,3.7-3.56.2-.12.45-.14.68-.21.14-.05.29.37.39.02.36-1.25,1.35-2.1,2-3.17.63-1.02,1.36-2.01,2.17-2.89.63-.69,1.35-1.44,2.49-1.02.43-.31.88-.47,1.35-.62.68-.23,1.36-.5,2.04-.74.84-.3,1.45-.85,1.8-1.68.07-.17.11-.39.24-.48.21-.16.47-.34.72-.35,0,0,.02,0,.03,0,0,0,0,0,.01,0,0,0,.01,0,.02,0,.01,0,.03,0,.04,0,.06.01.12.02.19.03.03,0,.06,0,.09,0-.03,0,.04,0,.05,0,.12,0,.23,0,.35,0,.12,0,.25-.02.37-.04.87-.35,1.78-.66,2.61-1.12.87-.49,2.84-2.52,3.88-4.01-1.89,4.76-4.52,10.4-6.71,14.16-.49-.1-.41-.45-.4-.7.05-2.4.12-4.8.18-7.2-.54.14-.49.73-.57,1.24-.35,2.39-.62,4.8-.46,7.22.08,1.16-.16,2.13-.84,3.04-.78,1.07-1.51,2.18-2.27,3.27-.16.24-.38.44-.59.69-.78-1.7-1.35-5.57-1.84-12.32-.15.5-.32,1.27-.32,2.03.02,3.33.37,6.63.91,9.9.08.47.24.93.39,1.52-.49.66-1.03,1.38-1.55,2.11-1.25,1.77-2.5,3.55-3.73,5.33-1.17,1.71-2.06,3.56-2.66,5.53-.75,2.48-1.4,5-2.11,7.49-.05.17-.12.34-.23.64-.26-.19-.51-.31-.67-.5-1.4-1.66-2.78-3.34-4.2-4.99-.56-.66-1-1.37-1.11-2.23h0Zm31.76-45.11c-1.32-.07-2.67-.08-3.97-.34-1.18-.23-2.14-.02-3.06.68-.24.18-.48.36-.65.48-2.64.24-5.15-.07-7.65-.58-1.02-.21-1.98-.53-2.84-1.12-4.14-2.83-8.33-5.6-12.15-8.86-1.56-1.33-2.97-2.84-4.42-4.29-2.77-2.78-5.53-5.57-8.29-8.36-.29-.3-.56-.61-.91-1,.27-.29.5-.55.73-.8,3.3-2.49,6.85-3.26,10.63-3.5.22.22.43.42.63.64,1.66,1.84,3.25,3.74,4.98,5.51,1.13,1.16,2.39,2.22,3.68,3.21,2.84,2.16,5.8,4.14,8.93,5.88.74.41,1.47.85,2.24,1.19,2.51,1.13,4.78,2.62,6.74,4.52,2.18,2.12,4.59,3.92,6.98,5.76.27.2.51.44.85.73-.9.31-1.69.28-2.45.24h0Zm16.09-4.04c-2.28,0-4.23.8-5.91,2.32-.88.79-1.97,1.17-3.13,1.32-1.13.14-2.28.23-3.43.35-.36-.55-.45-1.18-1.05-1.46-.37-.18-.66-.52-1.01-.77-2.19-1.61-4.3-3.31-6.29-5.17s-4.26-3.35-6.73-4.55c-4.25-2.06-8.2-4.65-11.99-7.45-1.36-1.01-2.59-2.16-3.73-3.43-1.16-1.3-2.45-2.49-3.68-3.74-.28-.29-.5-.62-.86-1.09,1.31-.26,2.43-.11,3.55,0,1.5.15,2.99.47,4.49.47,1.88,0,3.72.28,5.59.37,1.48.11,2.68.21,3.89.27.65.03,1.09.33,1.55.79,1.77,1.81,3.6,3.57,5.41,5.34,1.19,1.17,2.71,1.82,4.12,2.62,4.32,2.43,8.48,5.12,12.5,8.02,2.44,1.76,4.85,3.58,7.44,5.5-.37.15-.55.3-.73.3h0Zm36.37.23c-3.08-.19-6.12-.68-8.87-1.12-1.17-1.12-2.09-2.08-3.1-2.93-2.14-1.78-4.26-3.57-6.12-5.65-.12-.13-.28-.22-.68-.51.24.47.31.72.46.91,1.39,1.76,3.01,3.31,4.7,4.77.78.67,1.54,1.36,2.3,2.06.2.18.33.44.66.89-.62-.05-.96-.06-1.28-.11-1.79-.28-3.58-.56-5.37-.86-1.23-.21-2.37-.16-3.47.58-.69.46-1.52.73-2.31,1.04-.48.19-.93.08-1.31-.33-2.01-2.17-4.09-4.27-5.96-6.58-1.9-2.34-3.89-4.63-5.97-6.81-1.24-1.3-2.73-2.38-4.1-3.55.15.43.53.9.97,1.31,1.87,1.72,3.61,3.57,5.21,5.54,1.33,1.64,2.64,3.31,4.02,4.91,1.26,1.47,2.59,2.87,3.89,4.3.32.35.67.68,1.12,1.15-1.66.57-3.22.28-4.74.41-1.51.12-3.02.15-4.56.22-.97-1.18-2.21-2.04-3.42-2.93-3.27-2.39-6.51-4.83-9.88-7.08-2.97-1.97-6.1-3.7-9.14-5.56-.87-.53-1.71-1.13-2.51-1.77-1.04-.83-2.04-1.71-3.04-2.59-.67-.59-1.32-1.21-1.94-1.78.22-.6.63-.51.96-.49,1.93.11,3.87.13,5.78.4,4.25.59,8.49,1.29,12.72,1.98,1.25.2,2.52.42,3.5,1.34.21-.07.2-.24.18-.53.4.04.75.04,1.09.1,2.86.51,5.73.94,8.56,1.58,3.37.77,6.52,2.14,9.61,3.72,3.58,1.84,6.73,4.28,9.91,6.66,3.96,2.97,8.28,4.91,12.86,6.69.11.04.4.2.79.27.04,0,1.19.21,1.82.41-.43.02-2.95-.03-3.35-.05h0Zm-37.85-31.17c.54-.18,1.02-.1,1.56.16,4.08,1.97,8.15,3.98,12.39,5.59.81.31,1.58.72,2.05,1.43.71,1.08,1.79,1.74,2.62,2.68.74.82,1.76,1.27,2.77,1.67.79.31,1.57.64,2.36.94.6.23,1.06.6,1.14,1.27.12.89.71,1.67.59,2.62.3.42.82.5,1.19.77,1.82,1.29,3.65,2.57,5.35,4,.7.59,1.19,1.52,1.58,2.38.42.93,1,1.63,1.89,2.1,1.57.83,2.79,2.1,3.98,3.38.11.11,1.14.83,1.62,1.34-.33-.04-1.92-.78-2.12-.86-.68-.25-1.35-.51-2.01-.82-1.75-.82-3.5-1.64-5.21-2.52-1.02-.52-2.01-1.11-2.94-1.77-3.61-2.52-7.19-5.08-10.77-7.63-.04-.03-.06-.1-.09-.16.12-.41.45-.26.72-.25,1.44.01,2.89.03,4.33.05-.18-.15-.64-.27-1.12-.31-1.92-.18-3.85-.32-5.76-.51-.35-.03-.71-.17-1.02-.33-5-2.46-10.35-3.65-15.81-4.48-.54-.08-1.07-.19-1.6-.3-.04,0-.07-.08-.1-.13.94-.67,2.65-1.32,4.78-1.84,1.71-.42,3.44-.61,5.2-.68,1.72-.06,3.45.1,5.18-.31-.22-.06-.44-.17-.66-.19-3.32-.23-6.65-.42-9.91.47-1.86.5-3.68,1.18-5.48,1.88-.76.3-1.44.43-2.27.28-3.33-.59-6.67-1.11-10.01-1.65-2.68-.43-5.38-.72-8.1-.8-.17,0-.35-.06-.51-.09-.22-.41.1-.55.31-.72,1.86-1.5,4.01-2.46,6.22-3.3,2.6-1,5.27-1.75,7.97-2.44,1.11-.29,2.22-.58,3.3-.95,1.07-.37,2.1-.49,3.18-.08,1.06.39,2.13.47,3.21.11h0Zm-52.55-.49c2.43-2.25,5.2-3.89,8.39-4.84,2.2-.66,4.37-.45,6.82.05-1.52,1.06-2.85,1.95-4.13,2.91-1.36,1.01-2.59,2.19-3.55,3.59-.92,1.35-1.71,2.77-2.56,4.15.64.02.91-.56,1.21-1.05,2.34-3.75,5.67-6.39,9.42-8.58.85-.5,1.7-.78,2.75-.57,2.45.49,4.94.25,7.41.22.65,0,1.31-.21,1.96-.36.53-.12,1.04-.3,1.57-.44,1.6-.43,3.17-.5,4.79.07,3.25,1.13,6.56,2.1,9.83,3.18.96.32,1.86.81,2.74,1.21-.03.56-.4.55-.66.61-1.24.28-2.48.52-3.72.79-3.97.86-7.83,2.09-11.47,3.91-1.18.59-2.31,1.33-3.35,2.14-.93.73-1.86.96-3.02.87-4.58-.36-9.17-.55-13.72-1.17-1.55-.21-3.13-.13-4.7-.21-.28-.02-.56-.14-.83-.22-.57.35-1.13.48-1.76.55-2.11.23-4.19.63-6.09,1.6-1.07.54-2.07,1.23-3.1,1.85-.29.17-.6.32-1.03.54-.02-.96.14-1.73.38-2.46.82-2.44,2.06-4.61,4.13-6.24.8-.64,1.52-1.38,2.28-2.07Zm-14.47,8.52c.9-1.2,2.18-2.03,3.51-2.68,1.72-.84,3.6-1.28,5.58-1.93-.05.91-.61,1.42-.84,2.06-.25.68-.48,1.36-.72,2.05-.14,1.04-.18,1.82-.31,2.59-.07.39-.18.86-.44,1.14-1.22,1.32-2.5,2.59-3.84,3.96-.1-.09-.33-.19-.43-.36-1.15-2.12-2.09-4.33-2.51-6.81h0Zm29.05-134.61c3.75.18,7.46.62,11.17,1.14.49.14.71.3.93.31,3.01.15,6.02.24,9.03.43,1.74.11,3.47.3,5.19.56,2.44.38,4.53,1.58,6.52,3.04-.16.11-.27.24-.35.23-3.39-.49-6.78-1-10.12-1.49-.15-.56.24-.59.46-.75.18-.14.49-.13.5-.51-.58.21-1.19.33-1.68.64-.51.31-.99.4-1.54.28-2.97-.6-5.97-.87-9-.93-.22,0-.44-.07-.69-.12.15-.27.25-.45.39-.69-.24.03-.43,0-.57.07-1.28.67-2.65.68-4.05.69-3.8.05-7.61.17-11.41.25-.65.01-1.3-.02-2.03-.03.34-.88,1.06-1.12,1.63-1.49,1.71-1.12,3.53-1.74,5.63-1.64h0Zm-73.23,35.48c-.25.53-.59,1.01-.92,1.49-.02.03-.12,0-.22-.04.24-.76.47-1.74.77-2.06.4.03.48.37.37.6h0Zm-2.3-4.35c.13.12.22.29.31.44,1.38,2.21,1.23,1.8.76,4.01-.06.28-.34,1.33-.49,1.93-.18.42-.27.93-.78,1.29-.29-2.78-.64-5.38-.6-8.21.36.25.59.37.78.54Zm57.64-86.72c-1.94.85-3.87,1.72-5.82,2.54-1.35.57-2.59,1.25-3.4,2.57-.34.55-.9.97-1.39,1.41-.94.85-1.92,1.66-2.86,2.51-.3.27-.57.62-.76.98-.21.39.14.91.59.88.48-.03.96-.09,1.42-.22,1.17-.33,3.13-.65,4.36-.62-1.05,1.6-2.54,2.75-4.11,2.83-3.46.17-6.87-.38-10.3-.66-.48-.04-.96-.07-1.44-.11.35.6,1.1.58,1.81.68,3.05.43,6.11.83,9.2.74.11,0,.34,0,.46,0,1.02.03-.25.6-.49.75-.61.39-1.23.76-1.84,1.16-.44.28-.86.6-1.24.86-.6.4.44.5.73.55.88.16,1.58.63,2.06,1.36.17.25.12.65.18,1.06-.53.08-.93.16-1.34.2-4.34.39-8.68.35-13.01-.26-1.79-.25-3.6-.4-5.49-.61.14.57.59.48.85.53,5.18.96,10.4,1.53,15.67,1.05.42-.04.84-.06,1.26-.08.11,0,.23.03.5.07-.2.25-.32.49-.52.63-.39.28-.81.54-1.25.73-2.48,1.1-4.97,2.19-7.47,3.26-.32.14-.7.22-1.05.23-3.32.1-6.64.25-9.95.24-2.41-.01-4.82-.26-7.23-.4.09.53.62.46,1.08.53,3.17.49,6.36.77,9.57.64,1.81-.07,3.62-.2,5.43-.28.36-.02.72.01,1.15.03.22.42.44.83.63,1.17-.07.22-.08.36-.16.43-2.13,1.9-4.44,3.53-6.99,4.82-.59.3-1.23.5-1.68,1.16.06.42.13.89.2,1.35-.11.17-.17.35-.29.48-.9.92-2,1.55-3.11,2.17-2.37,1.33-4.83,2.5-7.38,3.45-.56.21-1.1.49-1.57.7-.11.2-.22.3-.21.41.04,1.43-.76,2.22-2,2.69-.45.17-.91.34-1.36.49-1.84.59-3.68,1.17-5.62,1.79-.02-.22-.09-.49-.06-.74.11-.9.21-1.8.38-2.69.52-2.59.54-5.16-.13-7.72-.03-.11,0-.24.02-.35.22-.3,1.84-1.98,2.66-2.86.02-.01.03-.03.05-.05.36-.31.7-.64.99-1.01.57-.73,1.31-.97,2.19-.88.23-.05.26-.05.26-.05-.2-.2-.38-.41-.61-.68.2-.27.35-.53.55-.73,1.21-1.14,2.46-2.24,3.64-3.41.57-.56,1.21-.7,1.95-.65.11-.25-.05-.43-.29-.69.87-.68,1.7-1.38,2.58-2,1.77-1.25,3.6-2.44,5.37-3.69.63-.45,1.15-1.06,1.79-1.51,2.13-1.48,4.31-2.91,6.45-4.37.68-.47,1.41-.67,2.22-.5.14-.22-.01-.4-.17-.58,3.45-3.51,21.65-11.67,26.19-13.02-.32.51-1.66,1.23-1.85,1.31h0Zm-54.78,18.09c1.26-2.84,2.91-5.42,5.3-7.47.67-.57,1.36-.99,2.34-.98.15.08.39.16.56.32.81.71,1.56.67,2.44.04,1.03-.73,2.16-1.32,3.26-1.95.25-.14.56-.18.85-.27.53-.19.74-.61,1.08-.8,1.52-.87,3.06-1.69,4.61-2.5.37-.19.78-.33,1.18-.44.48-.14.97-.16,1.33.28.54.68,1.18.49,1.79.18,1.18-.61,2.31-1.32,3.5-1.88,1.03-.49,2.13-.84,3.21-1.22.21-.08.47,0,.71,0,1-.73,1.99-.65,2.86-.19.82.43,1.58.49,2.42.27.99-.25,1.99-.48,2.97-.74.39-.1.71-.1.89.33.34-.35.72-.81,1.46-.99,3.57-.91,7.17-1.6,10.86-1.78.3-.01,2.23-.18,2.65-.16-1.23.45-3.36,1.2-4.06,1.51-.83.36-1.7.62-2.55.92-.79.29-1.67.61-2.46.91s-1.57.63-2.34.97c-.83.36-1.59.62-2.4,1.01-.76.36-1.27.56-2.19,1.02.07-.41.07-.67.16-.91.25-.68.54-1.34.81-2.01-.21.23-.62.67-.95,1.16-.34.5-.63,1.03-.9,1.57-.42.84-1.1,1.39-1.9,1.86-2.23,1.32-4.43,2.69-6.65,4.04-.25.15-.54.23-.83.36-.26-.7.08-1.24.24-1.81.39-1.46.81-2.9,1.22-4.35-1.03,1.46-1.55,3.4-2.19,5.28-.66,1.93-.62,1.94-2.28,3.05-1.81,1.21-3.62,2.41-5.43,3.62-.19.12-.39.23-.85.49.83-3.18,1.92-5.97,2.67-8.87-.45-.17-.42.19-.52.35-.13.2-.19.44-.28.67-1.01,2.72-2.03,5.44-3.01,8.17-.21.6-.52,1.06-1.03,1.43-2.09,1.53-4.17,3.09-6.26,4.64-.09.06-.22.06-.34.09-.36-.19-.21-.52-.19-.79.14-2.05.48-4.08,1-6.07.5-1.93.94-3.87,1.41-5.81-.14-.05-.37.18-.46.46-.94,2.93-2.03,5.82-2.58,8.86-.23,1.24-.33,2.51-.47,3.77-.05.49-.09.96-.48,1.32-1.24,1.14-2.47,2.29-3.68,3.42-.41-.19-.38-.5-.4-.8-.28-3.57.05-7.11.29-10.67.04-.58.19-1.17-.13-2.11-.16.69-.29,1.05-.33,1.42-.53,4.25-1.12,8.5-.8,12.81.04.59-.17,1.03-.56,1.46-.79.85-1.57,1.72-2.35,2.59-.73.69-1.45,1.44-1.61,1.56-1.21-1.88-2.37-3.68-3.6-5.6,0,.03-.02-.1,0-.21.74-3.67,1.46-7.35,2.98-10.8h0Zm24.25-24.05c-.3.02-.6.01-.9.02-.02.28.25.49.61.76-.74.87-1.53,1.51-2.78,1.22.05.36.08.58.12.91-.37.29-.79.62-1.21.94-.84.65-1.69,1.26-2.33,2.17-.8,1.16-.94,1.11-2.79,1.18.32.21.53.34.74.47-.79,1.47-2.79,2.5-5.12,2.63-.08.2-.1.49-.25.59-.85.57-1.73,1.09-2.61,1.61-.15.09-.34.16-.51.16-.53-.01-.96.08-.98.74-1.01.63-1.87,1.48-3.13,1.72-1.41.27-2.79.72-4.09,1.06-.52-.37-.34-.73-.19-1.03.18-.38.41-.74.68-1.06,1.17-1.34,2.24-2.12,3.9-3.06,1-.56,1.95-1.19,2.91-1.81,1.31-.85,2.58-1.77,3.92-2.58,2.37-1.43,4.77-2.81,7.2-4.16,1.1-.61,2.27-1.07,3.32-1.77.62-.41,1.33-.56,2.06-.55.37-.54.69-.79,1.09-.98.28-.12.54-.27.83-.38.56-.22,1.13-.41,1.74-.63-.56,1.2-1.21,1.71-2.23,1.8h0Zm-19.86,3.09c.88-.54,2.9-2.2,3.75-2.71,2.26-1.35,4.74-2.09,7.36-2.32.1,0,.21.11.4.27.36-.09.62-.4.93-.47,1.02-.25,2.07-.43,3.23-.58.56-.34,1.1-.42,1.64-.44,1.73-.08,3.46-.06,5.22.32-.49.43-2.3,1.3-3.12,1.47-.19.04-.43-.1-.67-.17-1.09,1.23-2.52,1.85-4.26,2.35.14-.51.24-.84.41-1.31-.66.36-1.06,1.08-1.35,1.97-.94.51-1.83,1.23-3.08,1.61,0-.36-.06-.63,0-.88.18-.76.41-1.5.62-2.39-.34.49-.72,1.1-1,1.76-.28.67-.46,1.37-.71,2.16-.72.48-1.42,1.15-2.52,1.37.04-.71.08-1.33.13-2.27-.75,1.05-.71,2.03-1.03,3.04-1.21.78-2.51,1.62-3.9,2.52-.33-.96.23-1.75.12-2.57-.38-.12-.35.24-.41.41-.15.46-.33.92-.37,1.4-.18,2.02-1.66,2.74-3.2,3.44-.37-.47-.03-.76.15-1.01,1.2-1.64,1.64-3.47,1.47-5.47-.04-.49.04-.95.21-1.5h0Zm-18.01,11.21c.32-.23,1.61-.87,1.76-1.05-.04-.03-1.16.42-1.19.43-.97.37-1.91.26-2.78-.26-1.09-.65-2.18-1.29-3.22-2.01-.94-.65-1.82-1.39-2.73-2.09-2.38-1-4.3-2.34-6.08-3.89-1.36-1.18-2.48-2.55-3.29-4.27,4.11,1.17,8.94,2.73,12.92,3.86-.56.31-1.54.65-1.48.92,1.98-.49,2.59-.3,4.2.61-1.17.81-2.89,1.33-4.26,1.56-.72.12-1.43.22-1.98.77.39.07.96-.21,1.54-.23,1.29-.06,2.51-.32,3.65-.92.11-.05.23-.08.34-.13.96-.5,1.83-.43,2.64.34.51.49,1.16.84,1.63,1.57-.75.41-1.41.77-2.07,1.13.02.04-.91.45-.89.5.86-.24,2.76-1,3.52-1.21.73.49,1.05,1.06,1.37,1.62.99,1.76,2.14,3.44,3,5.63-2.27-1.19-4.46-1.8-6.6-2.87h0Zm7.81,17.83c.36-1.96.64-3.94.93-5.91.21-1.4.03-4.97-.26-6.41,0-1.24-.4-2.31-1.12-3.3-.53-.73-.93-1.55-1.38-2.33-1-1.72-1.9-3.51-3.37-4.91-1.98-1.88-4.18-3.49-6.65-4.67-1.02-.49-2.14-.8-3.23-1.15-.86-.28-1.74-.5-2.61-.77-.19-.06-6.12-1.3-3.73-1.05,3.39.2,10.02,1.42,13.21,2.58,1.04.38,1.92.99,2.63,1.86.68.84,1.31,1.76,2.14,2.46,1.34,1.13,2.12,2.61,2.97,4.06.49.83,1,1.65,1.54,2.45.14.21.44.31.79.54-.01-.36.05-.56-.02-.69-1.05-1.9-2.18-3.76-3.63-5.4-.32-.36-.7-.7-.89-1.13-.7-1.53-1.83-2.68-3.13-3.69-.73-.57-1.31-1.25-1.71-2.08-.64-1.3-1.27-2.6-1.87-3.92-.34-.75-.85-1.49-.27-2.38.13-.2.03-.59-.04-.88-.51-2.18,0-4.22.94-6.15.63-1.29.54-2.83,1.47-4.01.19-.24.11-.7.17-1.06.18-1.01.38-2.02.55-3.02.01-.08.02-.16.03-.25.08-.27.15-.57.21-.89.12-.39.2-.61.3-.81.04-.08.56-1.39.83-2.4,0,.02,0,.05.01.07.14.73.13,1.43.11,2.15-.11,4.11-.3,8.21.25,12.3.03.19.08.72.32,1.38-.73-.83-1.84-2.13-2.44-2.82.4,1.1,1.08,2.01,1.77,2.91.37.48.71.95.89,1.55.51,1.68,1.1,3.33,1.63,5,.08.24.37.51-.01.85-.29-.18-.6-.37-.89-.57-.3-.21-.59-.43-.88-.64-.34-.25-.67-.52-1.04-.73-.27-.16-.47-.54-1.03-.27,1.38,1.11,2.67,2.18,4,3.2.49.38.9.78,1.14,1.37.38.95.81,1.89,1.18,2.84.1.24.05.54.09,1.03-.72-.38-1.24-.65-1.78-.92-.14-.07-.29-.14-.43-.2,0,0,0,0-.01-.01-.43-.36-1.18-1.1-1.77-1.34.34.53,1.95,2.05,2.76,2.46.14.09.29.18.44.25.98.45,1.51,1.16,1.8,2.12.55,1.79,1.08,3.58,1.63,5.37.1.31,0,.76.51.81.08-.09.22-.18.21-.26-.19-2.5-1.23-4.78-1.94-7.15.58-1,1.19-1.98,1.72-2.99.45-.85.82-1.75,1.22-2.63.02-.05.02-.13,0-.17-.03-.03-.1-.04-.18-.06-.98,1.47-1.6,3.19-3,4.58-.67-1.1-1.08-2.17-1.48-3.23-.69-1.84-.71-1.49.26-3.18.36-.63.7-1.27,1.04-1.91.1-.19.28-.39-.02-.71-.33.51-.64,1-.96,1.48-.36.54-.59,1.19-1.16,1.59-1.04-1.56-2.16-4.52-2.31-6.07-.05-.56.06-1.06.42-1.52.59-.77,1.14-1.56,1.64-2.39.33-.57.54-1.21.78-1.83.05-.14.01-.31.03-.74-.55.96-.93,1.69-1.37,2.39-.48.76-.95,1.53-1.72,2.18-.54-.88-.44-1.81-.51-2.67-.41-4.94-.24-9.89-.04-14.84,0-.05-.06-1.95.4-.18.42,1.58.89,3.13,1.23,4.71.39,1.78.9,3.03,1.91,4.29.31.99.73,2.26.77,2.33.23.42.59.78.76,1.22.53,1.4,1.41,2.52,2.52,3.48.56.48,1.02,1.02,1.31,1.71.83,2.01,1.67,4.01,2.51,6.02.25.62.51,1.22,1.13,1.6.23.14.45.43.53.69.91,3.01.89,5.99-.7,8.78-.56.98-1.32,1.9-2.15,2.68-1.68,1.57-2.29,3.43-2.21,5.69.06,1.92-.08,3.87-.34,5.78-.47,3.47-1.11,6.92-1.22,10.44,0,.29-.1.59-.21.86-.12.31-.77.42-.94.14-.54-.92-1.16-1.81-.93-3h0Zm-11.3,29.03c-.72-.44-1.51-.76-2.27-1.14-.54-.28-1.1-.52-1.59-.87-1.78-1.25-3.54-2.53-5.31-3.79-1.15-.82-2.04-1.88-2.91-2.96-.43-.53-.81-1.15-.74-1.81.17-1.5-.7-2.5-1.51-3.55-.22-.29-.49-.53-.73-.77-.22-.65-.04-1.24.19-1.79.36-.86.25-1.62-.17-2.42-.34-.64-.59-1.32-.89-1.97-1.4-.96-2.66-2.05-3.8-3.29.15-1.88.13-1.86-1.1-3.43-.81-1.04-1.57-2.14-2.3-3.24-.14-.21-.08-.55-.1-.83-.24-.51-.68-.87-.33-1.51.32-.59.15-1.15,0-1.75-.25-1.04-.75-2.03-.67-3.14-.02-.55.05-.91.21-1.24.53-1.06.61-2.19.6-3.36-.01-1.69.04-3.39-.49-5.03-.06-.2.01-.44.04-.78.94.61,1.5,1.41,2.09,2.16,1.37,1.76,2.71,3.55,4.07,5.33,1.62,2.11,3.24,4.21,4.86,6.32.17.23.33.47.54.77-1.51,0-2.74-.22-3.94-.8-1.36-.65-2.69-1.37-4.05-2.03-.92-.45-1.87-.84-2.8-1.26-.11.15,0,.4.19.51,1.71,1.02,3.44,2.01,5.15,3.03,1.97,1.17,4.13,1.63,6.39,1.79.76.69,4.52,5.78,5.17,7.03-1.99-.27-3.74-1.03-5.53-1.66-1.77-.62-3.51-1.29-5.24-2-1.79-.73-3.55-1.52-5.32-2.28.34.39.89.86,1.51,1.21.99.57,2,1.15,3.06,1.56,3.26,1.27,6.42,2.8,9.83,3.66.88.22,1.76.39,2.8.62,1.61,1.8,3.29,3.76,4.4,6.35-.64,0-1.11.04-1.56-.02-3-.41-5.93-1.11-8.84-1.91-1.16-.32-2.34-.58-3.51-.87-.05.21.13.38.35.45,4.52,1.55,9.08,2.97,13.87,3.4.28.02.65.13.79.33.78,1.05,1.6,2.09,2.02,3.49-2.05.07-3.96-.03-5.83-.57-1.68-.48-3.38-.94-5.07-1.4-.27-.07-.55-.11-.83-.16-.01.16-.03.22-.01.25.03.05.08.1.13.12,2.07.67,4.14,1.34,6.21,2,.34.11.7.19,1.06.26.35.07.71.12,1.08.15,1.2.11,2.4.2,3.57.3.93,1.19,2.84,5.29,3.64,7.83-.45-.04-.85-.03-1.23-.13-4.63-1.2-9.15-2.72-13.48-4.79-.27-.12-.54-.24-.8-.36-.06.13-.11.19-.11.23.01.05.07.1.12.13.69.37,1.37.76,2.08,1.11.87.43,1.74.84,2.63,1.23.72.32,1.45.61,2.18.88,1.19.43,2.39.86,3.6,1.24,1.79.56,3.59,1.07,5.39,1.61.05.02.09.08.28.23.66,1.76,1.44,3.64,1.95,5.58-.51.46-1.01.33-1.47.23-2.59-.58-5.21-1.06-7.53-2.49h0Zm8.7,26.9c-.06-.64-.02-1.35-.03-1.89-.05-2.29-.14-4.59-.1-6.88.06-4.29-.02-8.57-.43-12.85-.02-.18-.02-.9-.08-1.43.12-.07.24-.13.36-.17.28-.08.58-.1.94-.15.33.72.64,1.42,1.01,2.21.45-.4.39-.8.28-1.16-.42-1.38-.87-2.76-1.33-4.12-.36-1.08-.74-2.16-1.15-3.23-.16-.43-.14-.82.04-1.22,1.92-4.31,3-8.89,4.29-13.4.48-1.68.83-3.4.57-5.37-.12.21-.29.6-.35,1.02-.41,2.77-1.33,5.4-2.14,8.06-.72,2.37-1.44,4.74-2.19,7.11-.18.55-.28,1.17-.75,1.55-.12-.01-.19,0-.24-.03-.05-.02-.1-.07-.12-.12-1.25-2.82-2.5-5.63-3.77-8.5,1.33-2.92,1.98-6.05,2.5-9.22.27-1.67.76-3.3,1.12-4.95.14-.65.19-1.31.27-1.96,0-.03-.09-.07-.14-.1-.08.08-.19.15-.22.24-.71,2.63-1.47,5.24-2.1,7.88-.53,2.23-1.07,4.45-1.86,6.81-.32-.32-.55-.48-.7-.69-.48-.69-.89-1.44-1.42-2.1-.47-.59-.51-1.14-.34-1.85.73-2.95,1.05-5.95.98-8.98,0-.22-.06-.44-.32-.66-.15,1.59-.24,3.18-.46,4.76-.22,1.54-.37,3.1-.9,4.74-.81-.59-1.07-1.41-1.56-2.05-.51-.67-1.04-1.34-1.56-2-.52-.66-1.05-1.32-1.57-1.96,1.09-4.25,1.29-8.47.13-12.7.02,1.9.11,3.81.03,5.7-.07,1.92-.25,3.84-.8,5.72-.18-.04-.33-.03-.38-.09-1.17-1.54-2.35-3.07-3.46-4.65-.26-.37-.37-.89-.41-1.36-.16-1.74-.28-3.5-.38-5.24-.11-1.82-.54-3.56-1.44-5.18.24,1.56.57,3.12.68,4.69.11,1.61.26,3.23.15,5.06-.43-.43-.74-.69-.99-1-1.36-1.7-2.71-3.4-4.05-5.12-1.63-2.1-3.23-4.22-4.84-6.34-.99-1.3-2.11-2.46-3.6-3.49.63-.24.99,0,1.33.17,1.95.96,3.89,1.95,5.83,2.93.16.08.31.18.47.27,1.22.63,1.47.56,2.2-.58.12-.19.24-.39.35-.57.63.13.97.2,1.26.39l1.06.66s.01,0,.02.01c1.08.79,1.54,1.3,2.28,1.88.85.67,1.68,1.39,2.45,2.15.74.73,1.38,1.56,2.03,2.3-.34-.97.63-1.36,1.03-2.24.43.55.75.96,1.06,1.37,1.1,1.44,2.2,2.87,3.28,4.33.67.9,1.58,1.28,2.66,1.31.79.03,1.57.05,2.35-.02.9-.08,1.47.31,1.94,1.04,1,1.53,1.63,3.23,2.35,4.9.41.94.79,1.9,1.21,2.83.35.78.71,1.53,1.65,1.8.16.04.23.39.32.75.13-.21.27-.59.45-1.08.78.45,1.11,1.1,1.51,1.67,1.29,1.85,2.3,3.84,2.51,6.13.08.9.15,1.82.05,2.71-.42,3.98-1.17,7.89-2.64,11.63-.6,1.52-1.31,2.99-1.96,4.48-.22.5-.43,1-.63,1.51-.22.56-.45,1.09-.25,1.74.1.32-.03.71-.07,1.07-.26,2.34-.39,4.69-.37,7.05.04,4.9.32,9.78.62,14.66.22,3.5.28,7,.73,10.48.44,3.47.86,6.95,1.27,10.43.11.96.19,1.91.28,2.86-.84.81-1.62,1.56-2.38,2.29-.61.03-.69-.41-.76-.83-.94-5.72-1.87-11.44-2.24-17.24-.2-2.97-.08-5.19-.42-8.61h0Zm-.73,6.72c.31,1.4.44,2.63.37,4-1.04-1.44-1.07-1.87-.37-4Zm-13.68-16.74c1.76,1.06,3.53,2.11,5.24,3.25,1.15.77,2.21,1.68,3.31,2.52.4.14.66,0,.83.07.32.14.62.37.87.63.75.78,1.59,1.42,2.45,2.11.19.15.24.14.58.37.13.08.19.14.3.23.12,3.41-.07,5.3-1.1,8.66-.37-.44-.62-.68-.79-.96-.8-1.28-1.55-2.59-2.38-3.84-.35-.53-.5-1.04-.48-1.68.05-1.44,0-2.89-.02-4.33-.19.65-.33,1.6-.47,2.55-.06.4-.11.81-.2,1.45-3.49-4.02-6.82-7.86-10.31-11.89.96.16,1.58.5,2.18.86ZM1.87,171.65c.37-.91.87-2,1.43-2.46,2.28-1.89,3.22-4.48,3.68-7.28.21-1.25.29-2.52.42-3.78.17-1.63.47-3.23,1.04-4.77.58-1.57,1.49-2.89,2.75-3.99.87-.75,1.74-1.51,2.5-2.37.51-.57.87-1.29,1.22-1.99.2-.4.06-.84-.33-1.12-.44-.32-.91-.6-1.33-.95-.49-.41-.48-.93-.02-1.41.13-.13.25-.26.4-.37,1.99-1.43,3.48-3.34,5.08-5.16,1.88-2.15,3.92-4.11,6.36-5.62.3-.19.61-.39.88-.64.73-.69.8-1.19.38-2.25-.06-.16-.08-.33-.13-.56.33-.19.62-.4.94-.53,2.08-.84,4.2-1.55,6.46-1.69.9-.06,1.81-.16,2.71-.24,1-.09,1.89-.34,2.48-1.26.42-.64,1.09-.94,1.84-1.03.36-.04.72-.12,1.08-.11,2.35.12,4.71.26,7.06.4,1.51.09,3.02.26,4.52.26.89,0,1.8-.17,2.68-.38,1.3-.31,2.49-.18,3.66.52,1.09.65,2.32,1.07,3.38,1.75,1.88,1.21,3.71,2.49,5.49,3.84,3.47,2.63,6.9,5.31,10.32,8.01.99.78,1.87,1.72,2.79,2.59.12.11.18.27.43.66-.56-.29-.87-.44-1.17-.6-4.04-2.19-8.04-4.45-12.13-6.56-2.31-1.19-4.72-2.19-7.11-3.21-1.79-.77-3.67-1.2-5.64-1.18-.66,0-1.33-.06-1.99-.14-1.38-.15-2.64.16-3.8.91-.25.16-.52.31-.79.45-1.1.59-2.2.85-3.48.45-1.77-.55-3.6-.32-5.4-.08-1.28.17-1.7.75-1.82,2.07-.04.48-.1.96-.12,1.45-.04,1.07-.63,1.68-1.63,1.88-.77.15-1.56.25-2.34.26-1.96.04-3.84.46-5.68,1.06-1.35.44-1.59.77-1.62,2.24-.02.8-.16,1.55-.51,2.28-.33.67-.79,1.19-1.5,1.49-1.22.52-2.44,1.07-3.63,1.64-.76.36-1.51.77-2.22,1.21-1.85,1.15-2.66,2.9-2.77,5.03-.03.54-.02,1.08-.03,1.67-.74.57-1.47,1.09-2.16,1.67-1.02.85-2.05,1.7-2.99,2.64-.54.54-.95,1.24-1.31,1.93-.34.65-.45,1.38-.09,2.1.49,1,.22,1.9-.39,2.72-1,1.36-1.98,2.75-3.08,4.03-1.22,1.42-2.57,2.72-3.89,4.06-.2.18-.48.28-.9.47h0Zm35.2-14.18c-1.68.97-3.29,2.03-4.72,3.34-.61.55-1.29.85-2.08,1.01-1.3.27-2.59.58-3.89.88-.41.1-.83.19-1.21.36-2.58,1.14-5.31,1.57-8.08,1.81-2.28.21-4.57.29-6.86.42.49.18,1.26.37,2.03.38,3.38.04,6.76.1,10.07-.73,1.22-.31,2.43-.7,3.63-1.08.91-.29,1.81-.67,2.99-.56-1.14.95-2.29,1.55-3.42,2.14-4.39,2.29-8.91,4.29-13.69,5.66-2.1.6-4.25.87-6.41,1.07-.69.06-1.38.29-2.25.07.39-.46.69-.82,1.01-1.17,1.32-1.47,2.65-2.94,3.99-4.39.56-.72.97-1.23,1.54-1.95.03-.03.2-.29.23-.3.31-.49.63-1,.93-1.51.41-.71.6-1.48.23-2.25-.63-1.3-.08-2.33.66-3.35.07-.1.16-.18.23-.28.79-.98,1.74-1.35,3.02-1.03,2.82.71,5.7,1.01,8.58,1.35,1.87.22,3.72.19,5.59-.05,2.45-.31,4.92-.51,7.38-.75.46-.04.94,0,1.69-.01-.55.43-.86.71-1.21.91h0Zm8.03-4.84c-.67.41-1.36.78-2.04,1.17-1.72,1.27-3.36,1.63-5.17,1.75-3.19.2-6.37.6-9.55.88-1.08.1-2.18.24-3.25.13-3.54-.33-7.07-.77-10.61-1.17-.05,0-.09-.07-.13-.11-.02-.05-.07-.1-.07-.15,0-.06.05-.11.1-.15.66-.52,1.28-1.14,2.01-1.53,1-.54,1.34-1.31,1.27-2.37-.03-.36-.03-.73,0-1.09.19-1.71.88-3.13,2.42-4.03.42-.24.81-.53,1.24-.75,1.38-.71,2.76-1.03,4.34-.44,1.18.44,2.47.56,3.7.86,1.58.38,3.17.73,4.74,1.18,1.39.4,2.75.92,4.12,1.38,2.48.83,4.76,2.07,6.98,3.42.15.09.27.23.5.44-.21.21-.38.44-.6.58h0Zm10.86-4.46c-1.43.47-2.89.88-4.31,1.38-1.02.37-2,.85-2.99,1.28-.55.24-1.09.49-1.58.71-1.54-.92-2.95-1.84-4.44-2.63-1.22-.65-2.51-1.18-3.81-1.67-1.3-.49-2.64-.87-3.96-1.3-1.79-.58-3.6-.99-5.48-1.17-1.2-.12-2.39-.34-3.58-.54-.28-.04-.54-.17-.98-.31.39-.28.6-.51.86-.62,1.6-.66,2.12-2.04,2.45-3.56.04-.17.04-.36.05-.54.13-1.66.12-1.68,1.63-2.11,1.69-.47,3.39-.9,5.17-.85.18,0,.36,0,.54-.04,1.98-.44,3.67.36,5.32,1.28,2.27,1.26,4.53,2.55,6.8,3.81.95.53,1.91,1.03,2.87,1.55,2.47,1.44,4.55,2.97,6.61,4.49.49.51-.73.71-1.17.86h0Zm30.35-3.14c-1.71.39-3.43.71-5.19.77-1.81.05-3.62.1-5.43.19-.77.04-1.43-.16-2-.68-.97-.9-2.04-1.72-2.89-2.73-4.66-5.47-10.44-9.28-17.09-11.86-.24.04-.24.04-.24.04.33.67,1.04.81,1.61,1.09,3.27,1.61,6.27,3.64,9.13,5.87,1.38,1.07,2.69,2.24,3.95,3.46,1.47,1.43,2.85,2.95,4.29,4.44-.12.48-.54.32-.86.31-2.97-.1-5.92.03-8.85.54-1.37.24-2.73.52-4.21.81-.75-.57-1.55-1.19-2.38-1.79-2.7-1.95-5.51-3.72-8.5-5.18-1.03-.5-2.04-1.06-3.04-1.61s-1.98-1.17-3.01-1.67c-.97-.47-1.99-.84-3.1-1.31.25-.41.53-.78.69-1.19.15-.38.2-.82.25-1.23.06-.48.07-.96.11-1.44.09-.91.33-1.26,1.16-1.35,1.68-.19,3.4-.49,5.04.04,1.88.61,3.48.05,4.98-.89,1.04-.65,2.07-.91,3.25-.82.96.07,1.93.13,2.89.17,1.47.06,2.89.37,4.22.96,2.88,1.26,5.77,2.49,8.58,3.9,3.34,1.68,6.61,3.53,9.89,5.34,1.32.73,2.57,1.58,3.88,2.34,1.36.79,2.75,1.52,4.12,2.29.19.11.37.23.7.44-.7.45-1.33.61-1.95.76h0Zm-2.03-6.09c-.26-.24-.47-.56-.63-.88-.71-1.46-1.39-2.93-2.09-4.39-2.03-1.09-2.81-2.47-2.73-4.57.06-1.63-.51-3.19-1.39-4.61-1.02-1.64-1.98-3.32-2.98-4.97-.23-.38-.65-1.01-.5-1.47.17-.54.17-.61.53-1.03-.2-.33-.64-.5-.82-1.03-.96-2.8-1.95-5.6-2.91-8.4-.07-.21-.04-.47-.07-.93,1.48,1.16,2.23,2.67,3.3,3.91,1.11,1.28,2.19,2.58,3.29,3.87,1.1,1.28,2.28,2.48,3.36,3.96-.64.17-1.01-.16-1.41-.3-.4-.14-.79-.32-1.19-.44-.46-.13-.94-.22-1.41-.33-.11.23,0,.4.14.46,1.43.65,2.87,1.27,4.29,1.93.32.15.67.34.86.61,1.22,1.65,2.31,3.39,3.2,5.25.05.1.02.23.04.45-1.48.55-3.01.1-4.53.12,1.6,1.06,3.39.79,5.12.77,1.85,2.53,2.24,3.62,2.33,6.62-.31.08-.64.23-.97.23-1.2,0-2.41-.04-3.61-.07.47.62,1.37.72,2.28.77.78.04,1.56.04,2.44.06.48,1.69.61,3.41.89,5.12-.47.14-.81.23-1.39.4.6.24,1,.4,1.46.59.26.75.44,1.54.36,2.36-.15.03-.22.07-.25.05-1.84-1.16-3.43-2.63-5.02-4.1h0Zm12.03,26.74c-.32-.35-.7-.66-1.01-1.02-.9-1.03-1.42-2.14-1.14-3.6.48-2.5.71-5.05,1.34-7.64.3-.75.96-2.49.87-3.14-.03.03-.47.92-.5,1-.25.59-.75,1.98-.86,2.51,0,0,0,0,0,0-.45,1.11-.59,2.3-.79,3.47-.23,1.35-.45,2.71-.66,4.03-.79,1.27-1.29.32-1.84-.54-.91-1.43-1.22-2.91-.92-4.63.49-2.79,1.01-5.55,2.16-8.16.26-.6.46-1.24.72-1.98-.22.21-.51.52-.71.89-1.27,2.36-2.17,4.85-2.56,7.51-.08.53-.23,1.25-.3,1.89,0,.03-.03.55-.35-.23-.39-.85-.84-1.68-1.16-2.57-.5-1.37-.24-2.75.21-4.09.35-1.03.78-2.03,1.21-3.03.34-.79.96-1.37,1.64-1.87h.01c.27.2,1.33.49,2.03.98.52.15,1.1.56,1.42.76.51.32.64.38,1.1.76,1.72,1.42,3.66,2.52,5.46,3.83.98.71,1.91,1.48,2.86,2.22.52.41.69.94.62,1.6-.37,3.52.15,6.99.57,10.46.04.32.22.63.47,1.32.27-1.71-.1-3-.16-4.3-.07-1.33-.27-2.64-.34-3.97-.08-1.31-.17-2.62-.14-4.15,1.23.76,2.12,1.57,2.95,2.43.92.96,1.76,1.99,2.69,2.94.59.61.83,1.28.75,2.12-.21,2.1.33,4.08,1.04,6.02.11.31.32.59.69,1.25-.2-2.75-1.36-4.93-1.15-7.46,1.09.74,1.65,1.81,2.38,2.71.76.94,1.46,1.92,2.14,2.92.68.98,1.45,1.9,2.01,3.19-.53-.03-.86-.04-1.2-.08-1.68-.18-3.35-.41-5.04-.55-2.77-.22-5.54-.38-8.31-.58-.34-.02-.87-.1-.98-.31-.46-.9-1.35-.65-2.16-.91-1.11-4.9-.99-9.88-.62-14.94-.44.18-.38.5-.42.74-.59,4.09-.6,8.18.08,12.27.09.53.11,1.07.18,1.68-1.07.16-1.93-.26-2.79-.64-.6-.44-1.39-1-1.51-1.13h0Zm21.41,7.14c-.29-.17-.58-.35-.88-.52-.57-.31-1.19-.32-1.76-.13-.68.22-1.37.49-1.97.88-1.11.73-2.19,1.51-3.2,2.37-1.62,1.36-3.18,2.79-4.76,4.19-.91.19-.87-.45-1.11-.82-.33-.51-.78-.59-1.17-.11-.73.89-1.41,1.81-2.1,2.73-.21.28-.38.59-.56.87-.36.77-.35.45-.36.3-.02-.29-.05-.65-.06-.7-.14-1.08-.21-1.98-.32-3.06-.37-3.6-.71-7.2-1.07-10.87.75-.24,1.36.1,1.97.24.35.08.7.36,1.01.31.73-.12,1.28.02,1.8.56.22.23.63.31.97.41.23.07.48.04.72.06,3.25.24,6.51.44,9.76.74,1.5.14,2.98.47,4.47.73.21.04.4.19.75.37-.77.53-1.4.96-2.13,1.46h0Zm20.69-.66c-.13.59-.31,1.17-.5,1.74-.22.62-.47,1.22-.76,1.94.08.29.32.73.29,1.16-.03.46-.3.9-.46,1.35-.5,1.83-1.01,3.43-1.49,5.05-.28.95-.8,1.56-1.84,1.73-1.42.25-2.82.68-4.25.86-2.87.37-5.75.67-8.63.92-1.54.13-3.1.08-4.75-.07.15-.56.54-.75.85-.96,2.65-1.78,5.32-3.53,7.98-5.3.52-.35,1.08-.47,1.71-.49,1.56-.04,3.13-.19,4.69-.19,1.91-.01,3.7-.42,5.43-1.19-.26-.08-.85-.05-1.45.03-.78.1-1.54.31-2.32.35-1.51.07-3.02.07-4.52.08-.23,0-.47-.06-.87-.13.23-.26.34-.46.51-.56,2.72-1.71,5.06-3.91,7.48-5.99.82-.7,1.69-1.36,2.55-2.02.13-.1.32-.13.6-.22.18.71-.14,1.3-.27,1.9h0Zm-16.64-.5c1.55-.51,3.08-1.08,4.62-1.61.45-.15.92-.31,1.4-.06.51-.3,1.04-.5,1.69-.54,1.36-.08,2.14.05,3.55.69,1.55-.6,3.14-1.28,4.99-1.25-.14.23-.18.35-.26.43-2.61,2.14-5.23,4.27-7.84,6.4-1.07.87-2.24,1.59-3.62,2.37.04-.57.02-.98.11-1.35.38-1.52.81-3.03,1.2-4.54.15-.58.27-1.17.4-1.75-1.4,2.48-2.27,5.36-2.83,8.45-2.91,1.96-5.86,3.95-8.81,5.93-.07.04-.21-.02-.32-.03-.02-.06-.08-.12-.07-.16.91-3.7,1.72-7.42,3.49-10.84.53-1.03,1.19-1.77,2.31-2.13h0Zm-2.1-2.53c-1.29-1.34-2.01-2.85-3-4.14-1.03-1.33-2.08-2.65-3.11-3.97,0-.35.11-.56.2-.55,1.85.29,3.59.92,5.42,1.44.66,2.35.79,4.65.5,7.22h0Zm-18.76-27.93c-1.65.34-3.03.87-4.37,1.95.73.06,1.17-.23,1.62-.42,1.29-.55,2.64-.84,4.02-1.05,1-.16,1.91.02,2.75.61.63.44,1.3.83,2.05,1.3-.44.52-1.01.52-1.48.69-.46.16-.93.26-1.39.42-.52.17-1.03.37-1.53.57-.43.18-.85.38-1.19.8.33-.09.66-.18.99-.26,1.87-.49,3.75-.93,5.6-1.48,1.99-.58,3.7.03,5.31,1.09.53.35,1.08.74,1.49,1.37-.92.55-1.86.27-2.73.39-.9.13-1.8.19-2.69.34-.83.15-1.66.34-2.47.6-.83.26-1.71.42-2.38,1.11.63-.16,1.27-.34,1.9-.48.65-.15,1.31-.24,1.95-.4,2.14-.54,4.31-.47,6.49-.49.88,0,1.47.48,1.93,1.16.69,1.03,1.01,2.19,1.1,3.41.04.54.04,1.09.06,1.63.04,1.1.16,2.14.84,3.09.5.7.73,1.48.16,2.36-.23.35-.15.91-.22,1.5-.58-.13-1.14-.24-1.71-.4-1.17-.32-2.32-.68-3.55-.65-.58.01-1.05-.2-1.42-.66-.38-.46-.81-.9-1.22-1.34-1.29-1.34-2.59-2.68-3.91-4.04.04-.41.41-.33.67-.34.96-.04,1.93-.12,2.89-.04,1.86.14,3.73.37,5.59.56.23.02.47.01.68.02.23-.34.04-.5-.19-.57-.29-.09-.59-.13-.89-.17-3.18-.41-6.35-.84-9.48-.06-.24-.12-.42-.17-.55-.28-2.13-1.8-4.33-3.48-6.75-4.87-.43-.24-.64-.6-.83-1.01-.61.1-1.01-.3-1.47-.58-.41-.25-.85-.47-1.25-.73-.77-.51-1.91-1.39-2.96-1.74.02-.17.07-.32.23-.45,1.21-1.01,2.48-1.94,3.92-2.57,1.15-.51,2.87-.43,4.38.12h0Zm-3.02-1.46l-2.52.91c-.1-.14-.15-.18-.17-.23-.02-.05-.04-.12-.01-.16.72-1.27,1.45-2.54,2.28-3.98.3.92.26,2.51.42,3.47h0Zm-.43-7.74c-.03.77.04,1.59-.17,2.31-.5,1.74-1.31,3.37-2.28,4.91-.09.13-.25.21-.42.35-.52-1.05-.39-2.02.08-2.99.62-1.31,1.24-2.62,1.86-3.93.25-.49.4-.74.6-1.09.16.21.34.33.34.44h0Zm54.8-20.63c-.1.48-.51.5-.85.48-1.57-.1-3.13-.23-4.7-.36-1.14-.09-2.29-.2-3.43-.29-.23-.02-.47.03-.75.06-.24.58-.47,1.13-.73,1.76-.4.04-.82.15-1.22.1-1.08-.14-2.16-.31-3.22-.54-2.19-.48-4.35-1.04-6.54-1.52-2.07-.45-4.13-.94-6.22-1.25-2.92-.43-5.77.07-8.6.81-3.4.9-6.04,3-8.54,5.28-3.18,2.91-5.87,6.25-8.18,9.9-1.62,2.56-2.99,5.26-4.08,8.08-.28.72-.59,1.43-.89,2.14-.49-.12-.41-.46-.45-.72-.07-.48-.11-.96-.16-1.44-.22-2.17-.26-2.19.86-4.11,1.4-2.4,2.86-4.77,4.61-6.95,2.49-3.12,4.97-6.26,7.91-8.98,1.64-1.52,3.4-2.9,5.07-4.38,1.44-1.29,2.87-2.6,4.24-3.96,1.59-1.57,3.09-3.24,4.66-4.83,1.91-1.93,3.93-3.71,6.38-4.99.95-.49,1.82-1.15,2.83-1.58,2.09-.89,4.26-1.33,6.52-1.43,2.11-.09,4.23-.17,6.33-.38,1.25-.12,2.49-.47,3.72-.76,3.91-.92,7.87-1.25,11.88-1.14,1.87.05,3.75.14,5.62.22.29.01.62-.07.82.39-.17.11-.34.26-.54.33-1.23.4-2.32,1.04-3.3,1.86-.7.59-1.46.75-2.34.72-3.39-.11-6.77-.2-10.15-.28-2.35-.06-4.71-.19-7.06-.11-1.18.04-2.38.41-3.53.74-1.5.44-3,.95-4.45,1.54-1.74.7-3.43,1.5-5.14,2.28-.43.2-.77.16-1.18-.14-.04.63-.4.97-.9,1.26-3.7,2.11-6.82,4.99-10.07,7.7-.18.15-.31.36-.75.88.59-.33.82-.43,1.02-.57,2.56-1.92,5.1-3.88,7.68-5.77.83-.61,1.75-1.08,2.62-1.62.54-.34,1.1-.45,1.73-.32,1.83.39,3.67.76,5.5,1.15,3.55,1.29,6.73,2.75,9.64,4.76,1.44,1,2.89,2,4.34,2.97.9.61,1.82,1.2,2.75,1.76.53.31,1.07.58,1.24,1.23h0Zm-1-1.89c-.76-.49-1.47-.94-2.16-1.4-2.31-1.55-4.59-3.14-6.92-4.64-2.04-1.32-4.29-2.26-6.58-3.01-1.71-.56-3.54-.75-5.31-1.12-.4-.08-.84-.06-1.22-.39.42-.55.98-.78,1.52-1.02,1.88-.82,3.74-1.72,5.67-2.39,1.41-.49,2.93-.7,4.41-.96.45-.08.95.07,1.42.16.47.1.93.26,1.39.39.1-.22-.07-.38-.35-.66.43-.08.71-.18.99-.17,1.33.01,2.66.03,3.98.09,4.34.17,8.68.44,13.03.53,3.01.06,6.03-.13,9.05-.19,1.45-.03,2.9-.02,4.35-.06,1.57-.04,3.13,0,4.67.35.61-.1.95-.25,1.28-.25,2.78.02,5.53.28,8.25.83.76.15,1.48.46,2.23.71.34-.22.59-.33.93-.3.78.07,1.57.08,2.34.2,2.5.38,4.99.79,7.48,1.2.1.02.17.15.36.31-.55.36-1.06.76-1.62,1.03-.29.14-.7.11-1.04.08-.47-.05-.94-.18-1.41-.28-.03.33.2.57.49.88-1.41.79-2.91.91-4.37,1.1-1.95.24-3.82-.02-5.57-1.02-1.3-.74-2.64-1.43-3.96-2.15-1.16-.63-2.25-1.39-3.58-1.64-.06.19.14.42.4.57,2.02,1.21,4.06,2.4,6.08,3.59.1.06.18.16.3.27-.06.21-.14.43-.2.66-.41,1.61-.82,1.97-2.48,2-1.39.03-2.78-.02-4.17-.02-.63,0-1.16-.21-1.71-.48-.86-.42-1.76-.83-2.68-1.08-3.62-.98-7.14-2.29-10.63-3.64-.38-.15-.78-.25-1.33-.43.21.62.65.71.99.86,3.21,1.42,6.45,2.75,9.84,3.7.75.21,1.52.35,2.35.86-.36.25-.7.37-.86.62-.18.29-.23.67-.27,1.02-.14,1.12-.79,1.69-1.87,1.9-1.74.34-3.48.4-5.23.23-.84-.12-1.44-.13-2.04-.16-.54-.02-1.09-.08-1.63-.08-1.58,0-1.81.31-1.54,1.96,0,.05-.03.11-.05.2-.32.44-.83.4-1.29.46-2.47.28-4.95.22-7.42.03-.66-.05-1.32-.12-1.99-.14-.87-.05-1.7.06-2.32.9h0Zm-58.35-55.81c-.26-.52-.41-.69-.42-.86-.04-.48-.03-.97-.03-1.58,0-1.2-.01-2.26.36-3.28.1,1.77.4,3.54.09,5.72h0Zm-7.43,235.08c-.03-.71.04-1.43.3-2.18.06.22.17.45.18.68.13,3.76.76,7.45,1.72,11.07.32,1.21.92,2.36,1.45,3.69.44,1.24.82,2.32,1.19,3.41.03.1-.03.22-.05.34-.25.21-.46.09-.6-.12-.24-.34-.51-.69-.65-1.08-.9-2.56-2.04-5.04-2.56-7.73-.51-2.67-.87-5.36-.98-8.08h0Zm10.14-9.14s.06.01.1,0c.1.61.25,1.22.27,1.83.09,3.81.51,7.59.95,11.37.08.66.24,1.3.32,1.96.02.12-.15.35-.27.38-.13.03-.34-.07-.46-.18-.12-.12-.21-.3-.25-.47-.09-.41-.18-.83-.21-1.25-.35-4.33-.71-8.66-.57-13.02,0-.18.03-.35.13-.63h0Zm-26.42,42.98c-.2-1.23-.27-2.47-.21-3.75.12.39.27.77.34,1.17.86,4.54,1.72,9.09,2.57,13.64.01.07-.13.17-.21.26-.54-.51-.54-.51-.8-1.38-.59-3.41-1.17-6.67-1.69-9.93h0Zm72.04-212.33c-.48.28-.94.12-1.38,0-.7-.19-1.38-.45-2.06-.68-4.8-1.65-9.66-3.08-14.73-3.68-.27-.03-.54-.13-.8-.3.88-.29,1.76-.12,2.78-.05,5.48.73,13.8,3.16,16.2,4.72Zm-36.06-44.51c3.41.57,6.83.73,10.28.5.96-.06,1.93.03,2.89.08.21,0,.41.15.73.28-3.51.93-10.86.53-15.77-.88-.03-.04-.05-.05-.07-.06.64.03,1.3-.02,1.93.09Zm-1.93-.09s-.02,0-.03,0c0,0,0-.01.03,0Zm-1.28,5.19c2.44.27,4.87.57,7.57.89-.42.19-.63.37-.86.39-.54.04-1.09.06-1.62-.02-1.78-.27-3.55-.59-5.42-.96.05-.15.2-.32.33-.3h0Zm44.41,25.54c-.78-.31-1.52-.71-2.34-1.19,3.08.77,6.13,1.86,8.89,3.67,2.65,1.74,5.54,2.88,8.58,3.75,2.14.61,4.25,1.35,6.36,2.06.51.17.99.43,1.44.73.13.08.08.42.04.74-.78-.24-1.46-.65-2.19-.9-1.77-.61-3.55-1.22-5.35-1.71-3.41-.93-6.63-2.26-9.56-4.27-1.81-1.25-3.83-2.05-5.85-2.87h0Zm19.97,199.15c-1.35-2.92-1.85-5.88-2.26-8.87-.11-.81-.36-1.64-.01-2.82.27,1.31.49,2.28.67,3.27.47,2.61,1.09,5.17,2.16,7.61.35.8.7,1.62.8,2.64-1.04-.26-1-1.11-1.36-1.85h0Zm5.62-6.14c-.94-1.25-1.08-2.77-1.58-4.33-.43-1.87-.83-3.56-1.22-5.27-.05-.21-.05-.43.08-.68.34.95.73,1.9,1.03,2.86.64,2.07,1.25,4.15,1.87,6.23.11.39.34.8-.18,1.19h0ZM75.81,35.13c-1.41.35-2.84.45-4.28.15,1.49-.31,2.99-.54,4.59-.58-.05.21-.16.38-.31.42Z"/>
</svg>