<?xml version="1.0" encoding="UTF-8"?>
<svg id="Layer_1" data-name="Layer 1" xmlns="http://www.w3.org/2000/svg" xmlns:xlink="http://www.w3.org/1999/xlink" viewBox="0 0 118.59 107.05">
  <defs>
    <style>
      .cls-1 {
        clip-path: url(#clippath);
      }

      .cls-2 {
        fill: none;
        stroke-width: 0px;
      }

      .cls-3 {
        fill: #fff;
        stroke: #fff;
        stroke-miterlimit: 10;
      }
    </style>
    <clipPath id="clippath">
      <rect class="cls-2" x="0" y=".03" width="118.35" height="107"/>
    </clipPath>
  </defs>
  <g class="cls-1">
    <path class="cls-3" d="m63.94,70.57s.07.03.1.04c-.13-1.24-.35-2.44-.57-3.67-.05-.26-.06-.47-.06-.73,0-.29-.12-.44-.25-.7-.26-.5-.45-1.03-.6-1.57-.29-1.05-.31-2.21-.75-3.21-.48-1.08-1.05-2.12-1.56-3.18.24-.02.47-.03.7-.05-.19-.32-.35-.67-.59-.96-.2-.24-.52-.44-.63-.76-.11-.32-.13-.56-.35-.84-.18-.23-.41-.43-.55-.7-.39.92-.77,1.83-1.16,2.75-.13.31-.37.67-.36,1.01,0,.22.12.29.21.47.11.21.09.38.11.62.05.99.15,1.98.38,2.95.24,1.02.65,2,1.01,2.98.36.97.72,1.93,1.08,2.9.17.45.34.91.51,1.37.08.23.17.45.25.68.05.13.22.61.12.74-.21.26-.34-.15-.39-.28-.08-.23-.17-.46-.25-.69l-.57-1.55c-.36-.97-.72-1.94-1.09-2.91-.81-2.06-1.48-4.17-1.55-6.41-.68,1.41-1.35,2.84-1.84,4.32-.25.75-.1,1.32.09,2.06s.4,1.48.62,2.22c.44,1.44.97,2.86,1.66,4.19.1.19.5.74.33.97-.2.28-.54-.56-.61-.7-.35-.68-.65-1.38-.93-2.09-.62-1.61-1.09-3.28-1.64-4.92-.33,1.01-.58,2.04-.8,3.08-.21,1.04.15,1.95.48,2.94.33.97.7,1.93,1.12,2.86.21.47.43.93.66,1.39.24.49.51.9.57,1.43-.24-.15-.35-.19-.49-.45-.14-.27-.25-.56-.37-.84-.23-.53-.47-1.07-.7-1.6-.47-1.1-.93-2.19-1.37-3.31-.28.28-.15.88-.15,1.24,0,.49,0,.99,0,1.48,0,.99,0,1.97,0,2.96,0,.94,0,1.88.1,2.82.08.72.02,1.33-.59,1.81-.1-.35-.18-.57-.12-.94.07-.4.13-.77.14-1.17.02-.88.04-1.77.05-2.65.03-1.73.01-3.45-.06-5.18-1.42,2.29-2.62,4.72-3.44,7.3-.33-.48.12-1.29.29-1.77.23-.65.5-1.29.8-1.91.56-1.2,1.17-2.38,1.82-3.53.29-.52.52-1.03.58-1.63.07-.69.11-1.38.21-2.07.2-1.35.63-2.63,1-3.94-2.63,3.31-5.54,6.61-6.47,10.86-.27-.34-.16-.55-.04-.93.13-.43.25-.86.4-1.28.26-.78.62-1.5,1.02-2.21.8-1.47,1.72-2.87,2.7-4.22.5-.69,1.02-1.36,1.56-2.02.39-.48.98-.89,1.29-1.43.19-.34.23-.75.34-1.12.06-.2.13-.4.2-.59.06-.18.24-.49.23-.68-.03-.45-.53.13-.7.28-.31.27-.63.54-.94.81-1.22,1.06-2.2,2.33-3.27,3.54-1.02,1.15-2.03,2.3-2.83,3.61-.15.25-.29.75-.61.78-.47.04-.07-.54.05-.74.46-.73.98-1.39,1.53-2.04,1.1-1.3,2.2-2.61,3.31-3.91.56-.66,1.14-1.3,1.8-1.86.6-.52,1.51-.88,1.95-1.56.25-.38.39-.86.56-1.28.2-.48.39-.97.58-1.45.35-.9.75-1.78.94-2.72-1.36.71-2.72,1.41-4.08,2.12.31.12.46.28.71.51-.52.44-1.11.64-1.71.96-.62.33-1.19.76-1.77,1.15.4.22.65.43.22.75-.42.32-.91.51-1.29.88-.35.34-.64.57-1.06.83-.17.1-.32.22-.44.38-.06.08-.11.16-.15.25-.1.21-.1.17.04.34.33.39.26.44-.16.73-.47.33-.85.84-1.24,1.26-.71.77-1.67,1.64-1.89,2.71.43,0,1.33-.07,1.01.59-.18.37-.48.69-.73,1-.31.38-.57.78-.83,1.19.37.04.79-.1,1.17-.13-.08.35-.12.55-.32.86-.18.27-.35.55-.49.84-.3.62-.47,1.28-.43,1.97.23-.07.46-.16.69-.24.15.87-.08,1.76-.13,2.64-.05.87.03,1.73.25,2.57.2-.23.38-.48.6-.68.19-.18.41-.24.64-.35.17.79,0,1.54-.03,2.35,0,.36-.01.9.15,1.23-.03.16.03.23.19.19.05-.09.11-.17.16-.26.08-.13.17-.31.29-.4.66-.47.58.97.64,1.28.14.76.4,1.48.72,2.18.16-.18.33-.45.52-.6.25-.19.31-.07.38.22.11.49.21.98.33,1.47.23.97.56,1.94,1.23,2.71.16-.24.34-.64.71-.49.3.12.3.53.34.8.04.3.11.6.36.79.09.07.37.24.48.18.12-.05.21-.59.24-.68.14-.46.27-.93.42-1.39.08-.26.19-.88.44-1.05.18-.13.38,0,.52.15.18.2.08.33.02.59-.06.24-.12.47-.18.71.51-.37.66-1.34.87-1.9.12-.33.24-.68.4-1,.16-.33.43-.57.66-.86.11.29.21.58.31.87.36-.77.75-1.53,1.15-2.28.13-.25.3-.75.65-.73.14,0,.36.26.49.23.09-.02.29-.51.34-.6.22-.4.45-.8.67-1.2.19-.35.38-.8.67-1.08.17-.17.57-.39.78-.15.16.19.01.69.02.92.33-.65.7-1.29.91-1.98.19-.61.1-1.21.22-1.82.06-.32.28-.42.44-.66.17-.27.16-.7.2-1.02.12-.83.29-1.59.53-2.39.03.01-.11.37,0,0h0Zm-4.03-37.35c.3.09.74-.6.95-.83.33-.36.66-.71.99-1.07.64-.68,1.26-1.38,1.93-2.02.58-.56,1.21-1.2,1.9-1.63.19-.12.55-.18.56.17,0,.25-.24.2-.42.27-.29.11-.56.38-.81.57-.33.25-.66.52-.97.8-.61.53-1.18,1.1-1.71,1.72-.54.63-1.02,1.3-1.44,2.01-.21.35-.41.71-.64,1.05-.21.31-.47.6-.59.96-.15.45-.15.99-.22,1.46-.07.51-.14,1.03-.21,1.54-.14,1.02-.23,2.03-.3,3.05,1.18-1.47,2.34-2.96,3.54-4.41.56-.67,1.13-1.32,1.76-1.92.59-.57,1.26-1.21,2-1.56.1-.05.34-.18.38.04.01.09-.23.34-.29.41-.3.29-.71.5-1.05.73-.73.49-1.29,1.11-1.88,1.76-1.24,1.4-2.47,2.82-3.6,4.31-.51.67-.96,1.41-1.03,2.27-.08.98,0,2,0,2.99.31-.25.47-.61.69-.94.27-.4.56-.79.86-1.16.6-.73,1.26-1.41,1.95-2.06.73-.69,1.46-1.36,2.18-2.05.38-.37.76-.74,1.14-1.11.17-.16.33-.33.51-.48.22-.19.34-.15.61-.18-.15.33-.23.5-.51.72-.26.2-.51.43-.75.65-.6.54-1.2,1.08-1.8,1.62-1.04.94-2.09,1.87-2.99,2.94-.79.94-1.73,2.15-1.9,3.41-.1.7.1,1.44.17,2.14.07.76.13,1.52.2,2.27.71-.4,1.42-.8,2.13-1.21-.18-.16-.1-.17.02-.35.06-.1.12-.2.2-.28.17-.17.41-.29.6-.44.4-.32.75-.69,1.17-.98.19-.13.47-.21.64-.35.09-.08.09-.26.19-.31.14-.08.34.11.31-.19-.02-.19-.24-.27-.4-.31-.15-.04-.32.01-.45-.1-.15-.13-.19-.41-.07-.57.22-.3.91-.43,1.23-.59.45-.23.89-.5,1.28-.82.19-.16.48-.36.6-.57.11-.2.06-.16-.12-.32-.11-.1-.22-.21-.34-.31.69-.46,1.41-.87,2.07-1.38.34-.26.66-.54.94-.86.08-.08.39-.37.38-.48,0-.14-.28-.26-.28-.45,0-.3.4-.44.58-.64.31-.34.55-.78.81-1.16.23-.35.48-.72.64-1.11.16-.43.22-.89.35-1.33-.43.29-.65.48-1.18.5.09-.74.62-1.28.85-1.99.24-.72.25-1.49.19-2.24-.25.06-.49.11-.74.17.33-1.35-.15-2.62-.46-3.92-.15.09-.35.33-.54.32-.16-.01-.38-.24-.45-.37-.25-.44-.32-1.16-.42-1.65-.09-.44-.08-.94-.21-1.37-.07-.23-.13-.27-.36-.27-.12,0-.33.11-.43.04-.12-.09.04-.46.05-.6.02-.24-.08-.4-.13-.62-.05-.2-.04-.4-.04-.61,0-.22.02-.45-.04-.67-.05-.2-.16-.36-.19-.53-.11-.55-.15-1.15-.24-1.71-.12.14-.46.73-.65.78-.36.09-.23-.83-.23-1.01v-2.58c-.79.5-1.57,1-2.36,1.51-.33.21-.7.56-1.06.7-.34.14-.37-.12-.54-.36-.82.61-1.76,1.18-2.49,1.89-.19.19-.23.28-.48.33-.15.03-.38.11-.53.07-.16-.04-.22-.18-.42-.14-.16.04-.29.22-.39.33-.27.3-.61.44-.91.71-.32.29-.36.6-.56.95-.16.29-.48.52-.68.79-.22.29-.54.47-.9.46-.33,0-.35-.16-.51.17-.12.24-.25.49-.37.73-.24.48-.49.97-.73,1.45-.21.42-.4,1.05-.71,1.4-.13.14-.36.17-.49.32-.18.19-.27.5-.38.73-.42.88-.97,1.89-1.03,2.88-.02.24,0,.47.07.7.05.19.2.37.18.57-.02.17-.12.24-.22.36-.14.18-.18.37-.19.6-.05,1.06-.08,2.11-.08,3.17,0,.57.1.97.43,1.43.13.19.22.38.29.6.08.29.01.42-.06.71-.19-.08-.37-.14-.53-.28-.05-.05-.2-.3-.28-.31-.35-.04.09.76.16.88.4.73.79,1.47,1.28,2.14.44.61.98.99,1.53,1.47.25.22.28.32.23.62-.03.06-.06.12-.11.17.07.09.15.19.22.28.14.18.29.36.43.54-.15.08-.31.15-.46.23.49.6,1.04,1.13,1.66,1.6.28.21.62.38.87.62.25.24.38.59.58.87-.33.08-.66.12-.92.33.69.43,1.39.85,2.08,1.28,0-1.41-.04-2.83-.08-4.24-.02-.73-.04-1.46-.04-2.19,0-.69-.04-1.11-.46-1.67-.78-1.03-1.49-2.12-2.07-3.27-.28-.57-.53-1.15-.74-1.75-.1-.3-.2-.61-.28-.92-.12-.44-.1-.56.04-.98.19.27.31.44.38.77.07.33.13.66.21.99.16.65.45,1.25.76,1.84.32.61.66,1.21,1,1.81.33.57.74,1.03,1.15,1.55.15-1.48.31-2.95.46-4.43.03-.28.08-.58.02-.86-.07-.31-.27-.57-.44-.83-.38-.62-.72-1.26-1.04-1.91-.6-1.22-1.25-2.56-1.58-3.88-.06-.25,0-.7.35-.39.19.16.23.58.28.81.05.18.12.95.26,1.04.16.1.46-.87.51-1,.2.36-.24.99-.27,1.39-.05.56.25.98.5,1.45.51.94.97,1.9,1.5,2.82.21-.33.19-.82.24-1.21.06-.47.13-.93.2-1.39.15-.93.32-1.85.59-2.75.11-.39.33-.8.33-1.21,0-.34-.15-.64-.28-.95-.36-.84-.66-1.71-.89-2.59-.23-.88-.41-1.79-.5-2.7-.01-.14-.1-.91.24-.77.09.04.21.44.22.53.05.23.01.47.02.71.08,1.81.72,3.47,1.35,5.14.42-1.38,1.04-2.69,1.71-3.96.33-.63.67-1.25,1.01-1.88.09-.18.27-.66.5-.73.45-.12.03.56-.05.72-.68,1.33-1.39,2.65-1.91,4.05-.52,1.42-.86,2.89-1.29,4.33.05.01.46-1.56,0,0h0Zm12.3,51.8c.09-.62.14-1.25.27-1.87.13-.62.26-1.23.23-1.87-.03-.58-.28-1.12-.28-1.69,0-.59-.09-1.11-.34-1.65-.48-1.05-1.21-1.97-1.69-3.02-.22-.48-.4-.93-.73-1.35-.34-.43-.73-.81-1.07-1.24-.11.19-.21.37-.32.56-.22-.15-.43-.27-.61-.48-.18-.21-.32-.45-.5-.66-.39-.44-.82-.82-1.18-1.29-.33-.44-.63-.91-.87-1.41-.25-.51-.4-1.09-.7-1.57-.22.27.01.85.07,1.16.07.43.14.86.21,1.29.07.43.13.86.19,1.29.07.48-.04.72-.17,1.16-.21-.08-.42-.16-.63-.24-.2,1.07-.09,2.21-.1,3.3,0,.35.12,1.16-.16,1.42-.34.32-.56-.27-.64-.51-.26.71-.55,1.4-.83,2.1-.15.36-.3.72-.45,1.08-.17.41-.26.54-.61.8-.22-.41-.31-.72-.35-1.19,0-.08-.03-.57-.25-.34-.09.1.02.57.04.69.15.87.28,1.74.43,2.61.14.85.32,1.69.6,2.5.14.41.31.81.51,1.19.09.17.28.39.33.58.04.16-.01.28-.03.44-.7-.63-1.02-1.7-1.26-2.6-.28-1.05-.44-2.13-.59-3.2-.03-.22-.1-1.54-.28-1.58-.19-.04-.69,1.16-.78,1.36-.21.48-.41.96-.61,1.44-.1.24-.2.58-.35.79-.13.17-.33.22-.5.33-.02-.22-.05-.44-.04-.66,0-.1.11-.54.06-.6-.16-.19-.28.22-.31.3-.09.21-.19.43-.28.64-.3.68-.76,1.43-.81,2.18-.06.76.11,1.63.27,2.37.15.73.39,1.45.73,2.12.14.27.47.64.46.97-.03.48-.39-.09-.52-.29-.42-.69-.67-1.55-.85-2.33-.16-.69-.25-1.38-.3-2.08-.02-.29-.08-.35-.29-.51-.16-.12-.21-.05-.27-.3-.04-.19,0-.34.02-.53-.33.23-.41.75-.53,1.1-.14.42-.29.84-.44,1.26-.06.18-.11.43-.21.58-.05.07-.29.33-.39.31-.27-.05-.35-.7-.39-.89-.42.72-.47,1.66-.61,2.46-.16.95-.25,1.82-.12,2.78.13.92.27,1.84.4,2.75.07.46.14.92.2,1.38.03.23.12.51.1.74-.01.17-.1.29-.16.45-.27-.26-.39-.4-.51-.77-.1-.31-.19-.62-.28-.93-.22-.72-.42-1.45-.57-2.2-.14-.74-.23-1.48-.21-2.23,0-.35.04-.7.1-1.05.06-.38.21-.72.08-1.09-.12-.34-.27-.67-.41-1-.05-.12-.09-.31-.17-.41-.13-.16-.12-.12-.35-.12h-.45c-.23,0-.27,0-.43.12-.23.18-.38.51-.49.77-.29.71-.54,1.44-.79,2.16-.19.55-.3,1.17-.88,1.45.36-.99.61-2,.97-2.99.19-.52.42-1.04.73-1.5.14-.2.42-.43.42-.69,0-.26-.22-.56-.32-.78-.26-.54-.5-1.25-.88-1.71-.28-.34-.74-.07-.94-.46-.29-.56-.42-1.27-.62-1.87-.19-.57-.39-1.12-.63-1.67-.1.21-.25.69-.52.75-.46.1-.45-.71-.47-.96-.05-.49-.1-.98-.14-1.47-.04-.45-.03-.96-.18-1.39-.23.31-.46.51-.78.74-.19-.31-.31-.43-.34-.81-.04-.39-.07-.79-.1-1.18-.06-.71-.06-1.44-.21-2.14-2.11,2.09-3.03,4.94-4.15,7.62.25-1.61.96-3.14,1.67-4.6.34-.71.72-1.41,1.16-2.08.28-.43.77-1.46,1.42-1.19v-.63c-.18.09-.49.28-.66.09-.18-.19-.04-.78-.02-1,.04-.45.09-.9.19-1.33.06-.23.13-.46.22-.68.08-.2.24-.36.18-.57-.21.1-.7.4-.92.16-.24-.25.14-.74.27-.94.5-.76.98-1.53,1.46-2.3-.56,0-.92.04-1.16-.5-.6.36-1.22.7-1.79,1.1-.5.35-.76.92-1.25,1.29-.46.35-.99.58-1.42.97-.44.4-.76.91-1.03,1.43.33,0,.85-.27,1.13.06.3.35-.48.77-.69,1-.64.7-1.04,1.59-1.58,2.37.31-.14,1.37-.86,1.26-.05-.05.33-.29.62-.46.9-.22.36-.34.76-.48,1.16-.28.83-.6,1.67-.76,2.53-.02.1-.16.56.06.51.09-.02.18-.29.25-.36.15-.15.56-.3.72-.07.16.22-.07.73-.13.95-.11.41-.21.83-.31,1.25-.22.86-.29,1.67-.19,2.56.1.86.3,1.71.45,2.56.02.11.08.42.29.36.09-.03.26-.34.33-.42.19-.23.5-.55.77-.22.21.26.03.87.05,1.19.03.48.14.95.26,1.42.21.87.49,1.69.77,2.54.18-.35.36-.69.54-1.04.36.31.57.54.79.97.23.44.45.89.66,1.34.43.9.85,1.81,1.27,2.71.08-.37.02-.7.43-.86.44-.17.68,0,.9.37.64,1.05,1.19,2.15,1.76,3.25.16-.16.45-.54.72-.48.32.08.6.68.75.93.55.85,1,1.75,1.59,2.57.11-.33.29-.55.5-.83.37.36.55.69.78,1.16.23.48.46.97.69,1.45.13.27.25.54.38.81.06.13.17.51.32.56.32.12.79-.68.96-.88.68-.82,1.39-1.58,2.19-2.29.23-.21.73-.85,1.07-.85.42,0,.43.61.44.89.55-.69,1.1-1.39,1.65-2.08.29-.37.59-.74.89-1.11.3-.37.49-.54.9-.75.14.33.25.62.31.97.4-.53.85-1.03,1.21-1.59.35-.54.7-1.07,1.13-1.56.37-.42.86-.98,1.37-1.24.66-.33.65.37.53.82.87-.9,1.48-2.11,2.18-3.15.17-.25.33-.5.5-.74.14-.2.33-.62.56-.73.34-.16.7.61.87.83.48-1.23.97-2.45,1.43-3.68.22-.58.35-1.17.53-1.75.05-.17.09-.41.29-.45.16-.04.46.19.6.26.11-.73-.14-.06,0,0h0Zm2.45-42.51c1.54-.12,2.51-1.37,3.54-2.37-.29-.09-.66-.14-.8-.45-.04-.09-.11-.44-.06-.52.08-.13.68-.32.83-.41.96-.62,1.61-1.59,2.32-2.47-.3.04-.97.39-1.1-.09-.07-.25.1-.4.28-.54.25-.2.45-.38.63-.66.73-1.08,1.31-2.32,1.86-3.5-.29.14-.93.5-1.13.03-.11-.25.06-.32.23-.46.22-.18.34-.41.47-.66.68-1.22,1.29-2.43,1.81-3.73-.29.08-.8.57-1.09.28-.3-.29.16-1.25.25-1.57.31-1.13.69-2.25.79-3.42-.22.13-.39.45-.64.51-.38.1-.55-.26-.45-.57.27-.85.51-1.72.66-2.59.16-.9.13-1.85.08-2.77-.01-.22-.03-.44-.05-.66,0-.12.03-.23-.1-.26-.14-.04-.1.08-.16.17-.1.16-.14.33-.28.47-.16.16-.38.26-.57.39-.07-.23-.19-.42-.2-.66,0-.3.06-.62.1-.91.08-.64.17-1.27.23-1.91.1-1.19-.05-2.35-.14-3.53-.23.09-.59.4-.84.37-.31-.04-.31-.46-.32-.69-.03-.55.06-1.1.07-1.65.01-.58,0-1.17,0-1.75-.37.28-.86,1.38-1.24.46-.15-.37-.11-.85-.11-1.24,0-.43,0-.85,0-1.28,0-.43,0-.85,0-1.28,0-.3.04-.48-.26-.27-.16.11-.28.32-.43.45-.61.54-1.32.99-1.98,1.46-.34.24-.67.48-1.01.72-.22.16-.61.52-.92.43-.14-.04-.21-.19-.29-.3-.16-.22-.13-.22-.37-.07-.37.24-.75.48-1.12.73-.35.23-.71.45-1.06.68-.33.21-.71.53-1.07.68-.94.37-.45-.79-.27-1.18-1.29.63-2.59,1.25-3.88,1.88-.63.31-1.24.63-1.87.94-.2.1-.5.34-.75.26-.3-.1-.25-.45-.19-.67l-3.54,2.26c-.28.18-.56.36-.84.54-.18.11-.19.15-.36.06-.1-.05-.19-.17-.24-.27-.18-.4.19-.85.24-1.24-.66.41-1.3.74-1.87,1.28-.49.47-.99.92-1.45,1.41-.5.52-.85,1.1-1.28,1.67-.09.12-.15.16-.29.22-.19.09-.16.08-.27-.04-.24-.25-.16-.78-.16-1.09,0-.17.09-.42-.16-.39-.11.01-.39.43-.47.51-.24.26-.47.51-.7.77-.45.5-.84,1.03-1.2,1.59-.14.22-.28.45-.36.7-.05.17-.08.35-.08.53,0,.1.06.27.02.36-.07.16-.42.38-.6.32-.23-.08-.33-.54-.42-.74-.21.57-.5,1.11-.65,1.7-.15.6-.23,1.22-.33,1.82-.1.62-.19,1.23-.29,1.85-.05.29-.09.59-.14.88-.06.3-.19.5-.32.77-.2-.23-.38-.39-.5-.67-.13-.29-.22-.6-.33-.9-.32.67-.25,1.47-.29,2.21-.04.81-.08,1.62-.07,2.43.01.8.33,1.55.37,2.34.04.74-.62.4-.98.16.22,1.55.54,3.35,1.5,4.61.51.66,1.03,1.32,1.55,1.98.06.08.36.57.45.58.28.02.11-.47.09-.62-.05-.43-.11-.87-.16-1.3-.04-.34-.19-.8-.08-1.13.09-.26.37-.42.52-.65.19-.29.23-.65.33-.98.12-.37.27-.74.41-1.1.3-.74.73-1.58.8-2.39.03-.35.07-.49.24-.79.11-.19.08-.24.28-.24.17,0,.4.13.56.18,0-.69-.33-1.3-.49-1.97-.17-.72-.18-1.49-.2-2.23-.02-.76-.04-1.52.01-2.28.02-.34.06-.69.1-1.03.05-.41.06-.53.33-.83.13.37.09.53.02.92-.06.35-.11.71-.14,1.06-.06.68-.07,1.36-.05,2.04.02.68.06,1.37.14,2.04.07.66.28,1.29.42,1.93.58-.71.92-1.69,1.33-2.51.19-.37.36-.98.67-1.25.35-.3.57.21.57.5.73-.7,1.53-1.29,2.32-1.92.35-.28.7-.56,1.04-.86.35-.31.46-.59.45-1.06,0-1.06-.07-2.13.05-3.18.06-.52.15-1.04.24-1.55.05-.26.08-.52.15-.77.07-.27.17-.3.37-.48.08.38.02.51-.11.89-.11.32-.2.65-.27.98-.14.68-.2,1.38-.22,2.07-.02.64-.02,1.29,0,1.93,0,.23.02.4.18.58.08.09.17.12.24.22.07.11.07.27.11.4.79-.57,1.38-1.34,2.03-2.07.14-.16.52-.74.8-.69.41.08.3.94.3,1.2,1.64-.8,2.75-2.23,3.73-3.72.22.69-.12,1.4-.14,2.1-.02.78-.08,1.55-.12,2.33.15-.11.28-.29.44-.38.14-.07.28-.04.41-.1.27-.12.38-.55.5-.79.42-.85.83-1.7,1.28-2.54.88-1.63,2-3.09,3.1-4.58.25-.34.51-.66.78-.98.19-.22.21-.28.49-.13.15.08.3.19.3.39.01.32-.45.75-.64,1-.28.38-.56.76-.84,1.14-1.13,1.53-2.19,3.1-3.21,4.7-.5.77-1.3,1.7-1.43,2.64-.14,1,.25,2.07.41,3.05,1.85-1.96,3.81-3.92,6.38-4.89-.05.57-.95.72-1.38.96-.54.3-1.05.64-1.54,1.01-1.08.82-2.01,1.78-2.98,2.72.7.2.36,1.33.35,1.86-.01.73.17,1.43.46,2.09.29-.41.52-.74.92-1.04.07.15.21.29.25.45.04.19-.05.42-.06.6-.02.38,0,.77.07,1.15.14.83.41,1.64.55,2.47.24-.26.43-.39.76-.55.06.17.16.31.18.49.01.17-.04.39-.05.55-.04.43-.08.85-.13,1.28-.08.83-.17,1.66-.26,2.48.44,0,.74-.02.6.5-.12.44-.26.89-.39,1.33-.13.44-.27.89-.45,1.31-.1.24-.21.47-.35.69-.11.18-.31.38-.38.57-.13.39.28.63-.02,1.01-.29.37-.76.67-1.1,1.01-.72.71-1.45,1.39-2.21,2.05.49.04,1.07-.2,1.25.45,1.92-.7,3.85-1.39,5.47-2.68.11.31.23.61.34.92,1.57-.13-.1-.26,0,0h0Zm24.55,33.8c-.26-.18-1.02-.53-.85-.93.18-.43,1.15-.51,1.53-.62,1.15-.32,2.28-.66,3.45-.86-.21-.12-.42-.22-.62-.35-.09-.07-.29-.17-.33-.27-.05-.12,0-.15.11-.27.36-.42,1.21-.38,1.74-.45,1.36-.18,2.72-.22,4.08-.29-.19-.3-.59-.52-.85-.77.18-.17.35-.39.6-.45.25-.06.59,0,.84-.01.61-.02,1.23-.04,1.84-.05.59-.02,1.27.06,1.84-.05.49-.1-.03-.3-.25-.43-.3-.16-.59-.33-.89-.49-.24-.13-.61-.33-.24-.56.2-.12.65-.1.88-.12.59-.05,1.18-.04,1.77,0,1.21.07,2.42.26,3.64.29-.43-.5-1.05-.84-1.54-1.27-.5-.45-.94-.97-1.4-1.46-.25-.27-.5-.54-.75-.8-.22-.22-.53-.44-.67-.72-.09-.16-.15-.58.09-.68.17-.07.85.48.7-.04-.08-.28-.56-.7-.74-.93-.23-.29-.45-.58-.68-.86-.39-.48-.85-.96-1.15-1.51-.07-.12-.13-.25-.17-.38-.06-.2-.14-.29.03-.4.16-.1.46.01.62.08.43.17.79.54,1.29.44-.67-.8-1.65-1.36-2.41-2.08-.37-.35-.73-.72-1.06-1.12-.17-.21-.36-.42-.5-.65-.16-.24-.18-.48-.26-.75.06,0,.62.05.64,0,0,0-.75-.81-.85-.94-.29-.34-.58-.69-.87-1.03-.55-.65-1.17-1.28-1.57-2.04.33-.09.61-.15.95-.18-.65-.5-1.27-1.05-1.89-1.58-.38-.32-.75-.65-1.13-.98-.2-.17-.48-.34-.66-.54-.21-.24-.05-.47-.19-.69-.19-.28-.73-.5-1-.68-.77-.52-1.53-1.06-2.32-1.54-.18-.11-.44-.2-.54-.41-.06-.13.03-.28-.03-.4-.06-.13-.24-.2-.35-.26-.65-.37-1.3-.76-1.99-1.05-.32-.14-.65-.26-.99-.34-.37-.09-.8-.03-1.15-.14-.28-.09-.38-.29-.21-.54.22-.32.63-.38.97-.5-1.61-.18-3.21-.36-4.82-.56-.41-.05-.83-.09-1.24-.18-.38-.09-.71-.19-1.11-.16-.87.06-1.75.08-2.62.1-.43,0-.85.02-1.28.02-.33,0-.86.11-1.16-.04-.25-.12-.28-.43-.53-.56-.28-.15-.61.02-.89.11-.79.25-1.56.53-2.3.91-.37.19-.73.38-1.1.57-.17.09-.37.23-.55.27-.19.04-.35-.02-.53-.03.06-.19.07-.41.18-.57.11-.17.26-.22.43-.32-1.19.26-2.3.7-3.43,1.13-.53.2-1.07.42-1.61.59-.52.16-1.01.04-1.52.15-1.18.26-2.32.75-3.45,1.15-1.08.38-2.1.62-3.05,1.3.28.07.86-.06.94.3.09.39-.57.84-.83,1.04-.75.61-1.63,1.08-2.44,1.61.34.12.57.28.86.5-.33.33-.58.49-1.01.68-.49.21-.98.42-1.47.63-.7.3-1.52.57-1.85,1.32.48-.04.94-.16,1.39-.31.38-.13.79.02,1.2,0,.94-.06,1.39-.69,2-1.33.69-.72,1.44-1.37,2.15-2.07.67-.66,1.4-1.26,2.17-1.8.77-.53,1.57-1,2.41-1.41.42-.21.85-.4,1.29-.58.21-.08,1.25-.56,1.29-.2.03.3-.88.57-1.11.66-.5.19-1,.36-1.48.59-.88.42-1.7.93-2.48,1.5-.84.62-1.61,1.31-2.36,2.03-.37.36-.74.74-1.1,1.11-.39.41-.82.75-.97,1.3.79-.1,1.58-.22,2.37-.35.76-.13,1.63-.17,2.34-.45.33-.13.6-.36.87-.58.32-.26.67-.48,1.02-.7.72-.45,1.44-.9,2.18-1.33,1.36-.8,2.84-1.33,4.3-1.92,1.53-.62,3.13-1.1,4.73-1.49.87-.21,1.75-.4,2.64-.58.46-.09.91-.18,1.37-.27.23-.04.46-.09.69-.13.28-.05.39,0,.64.09-.29.24-.49.3-.86.36-.4.08-.81.14-1.22.22-.83.15-1.64.35-2.46.55-1.61.4-3.25.79-4.8,1.38-1.43.55-2.92,1.06-4.3,1.76-.68.35-1.34.74-1.99,1.16-.6.39-1.26.78-1.75,1.31,2.89.1,5.77.19,8.66.29.34.01.67.02,1.01.03.25,0,.68.1.86-.04.07-.05.1-.2.16-.26.1-.1.25-.16.38-.22.29-.16.59-.33.88-.49,1.15-.64,2.3-1.18,3.56-1.57,2.68-.84,5.48-1.16,8.26-1.5.1-.01,1.82-.21,1.55.18-.11.16-.77.14-.93.16-.36.04-.72.07-1.08.11-1.36.13-2.71.29-4.06.52-1.45.25-2.88.59-4.26,1.1-1.46.54-2.78,1.34-4.14,2.1.39.23.83.27,1.27.36.64.13,1.29.26,1.93.39,1.16.24,2.33.47,3.49.7.47.09,1,.28,1.49.24.55-.04,1.13-.3,1.66-.45,1.13-.33,2.3-.52,3.46-.68,2.29-.31,4.61-.34,6.92-.39.26,0,.54-.03.8,0,.25.03.73.1.36.34-.18.11-.44.08-.64.08-.36.01-.72.02-1.08.02-1.14,0-2.28-.03-3.43.02-2.55.11-5.1.44-7.49,1.35.67.3,1.36.55,2.04.83.81.34,1.57.78,2.35,1.2.8.43,1.59.86,2.38,1.29.42.23.85.46,1.27.69.34.18.66.43,1.06.42.81-.01,1.63-.42,2.44-.52.88-.11,1.77-.15,2.66-.18.9-.03,1.8-.02,2.71.02.46.02.91.05,1.37.08.19.01.55-.03.73.05.13.06.18.18.28.28-.12.06-.21.16-.35.17-.16.02-.41-.08-.59-.08-.39,0-.68-.02-1.05-.14-.72-.24-1.69-.04-2.44,0-.93.04-1.86.09-2.8.16-.87.07-1.7.26-2.56.42,3.62,1.99,7.12,4.21,10.38,6.76.2.16.4.32.6.48.09.07.52.33.53.43.01.14-.2.3-.32.31-.22.01-.47-.27-.62-.39-.81-.67-1.62-1.34-2.47-1.97-.82-.6-1.69-1.13-2.52-1.71-.86-.59-1.73-1.12-2.67-1.58-1.06-.52-2.14-.98-3.18-1.54-1.02-.54-1.98-1.25-3.1-1.54.33.54.89.98,1.35,1.41.53.52,1.07,1.03,1.58,1.57.96,1.02,1.8,2.15,2.71,3.22.85,1,1.5,2.13,2.12,3.27.3.55.7,1.11.93,1.69.09.22.29.77-.09.55-.25-.14-.43-.71-.56-.96-.66-1.24-1.29-2.52-2.12-3.66-.81-1.11-1.77-2.12-2.67-3.16-1.71-1.99-3.51-3.94-5.85-5.2-1.32-.71-2.75-1.08-4.16-1.54-1.61-.52-3.19-1.02-4.83-1.42,1.36.98,2.68,2.02,3.82,3.26,1.15,1.26,2.3,2.53,3.36,3.88,1.05,1.35,1.92,2.81,2.79,4.28.89,1.49,1.76,2.99,2.47,4.57.18.39.37.79.47,1.21.04.15.14.38-.09.4-.12,0-.22-.25-.28-.37-.36-.74-.59-1.54-.96-2.28-.78-1.58-1.74-3.1-2.63-4.62-.84-1.43-1.83-2.78-2.93-4.03-1.03-1.18-2.08-2.38-3.18-3.5-.62-.63-1.28-1.2-2.03-1.68-.73-.47-1.5-1.09-2.37-1.28-.95-.2-1.98-.2-2.95-.23-.52-.02-1.03-.03-1.55-.04-.34,0-1.11-.17-1.37.04,4.65,3.82,8.6,8.4,11.83,13.48.46.72.91,1.46,1.34,2.2.34.57,1.02,1.42.84,2.09-.38-.23-.48-.65-.69-1.03-.25-.45-.5-.89-.75-1.34-.49-.87-.99-1.73-1.51-2.57-1.09-1.75-2.39-3.31-3.7-4.89-1.33-1.61-2.68-3.21-4.21-4.64-.75-.7-1.53-1.38-2.31-2.06-.36-.32-.72-.66-1.1-.96-.43-.34-.84-.44-1.38-.49-1.18-.11-2.36-.07-3.54-.04-1.14.03-2.29,0-3.44,0,1.26.93,2.57,1.8,3.8,2.77,1.24.98,2.26,2.16,3.3,3.34,1.03,1.17,2.05,2.36,2.94,3.65.96,1.38,1.74,2.88,2.55,4.35.46.83.91,1.67,1.37,2.5.23.43.47.86.7,1.29.11.21.26.43.35.65.08.21.05.35.04.57-.67-.66-1.02-1.66-1.44-2.5-.47-.93-.93-1.85-1.43-2.77-.94-1.72-1.98-3.4-3.17-4.95-1.15-1.49-2.43-2.95-3.74-4.31-1.41-1.46-3.18-2.59-4.82-3.77-.39-.28-.78-.62-1.23-.79-.46-.17-.92-.07-1.39-.02-1.12.13-2.24.25-3.36.38.84.9,1.86,1.62,2.65,2.57.93,1.12,1.72,2.35,2.55,3.54.8,1.14,1.66,2.24,2.32,3.47.63,1.18,1.1,2.42,1.54,3.69.24.69.48,1.39.71,2.09.11.33.29.7.35,1.05.04.26,0,.81-.27.43-.18-.24-.25-.63-.34-.91-.12-.35-.24-.69-.36-1.04-.26-.75-.51-1.5-.77-2.24-.91-2.63-2.39-4.93-4.07-7.13-.96-1.25-1.88-2.58-3-3.7-.28-.28-.57-.55-.86-.82-.25-.23-.54-.61-.85-.76-.3-.14-.74.05-1.05.12-.4.09-.81.19-1.21.28.62.97,1.23,1.93,1.84,2.9.32.51.64,1.02.95,1.53.32.52-.05.76-.51.92.47.86.9,1.74,1.46,2.55.21.31.6.69.69,1.06.01.06.02.19,0,.25-.06.17-.06.13-.27.13-.22,0-.32-.03-.52-.11.13.73.33,1.46.67,2.13.32.65.79,1.14,1.22,1.72.49.65.79,1.48,1.16,2.21.18.35.34.74.57,1.06.23.33.57.57.84.85.02-.3,0-.55-.04-.85.47.03.64.11.91.5.29.41.54.83.85,1.22.63.79,1.29,1.54,1.95,2.3.08-.16.07-.33.12-.49.07-.22.22-.41.33-.61.78.67,1.24,1.64,1.97,2.38.75.77,1.64,1.27,2.56,1.81-.13-.58-.22-1.06-.18-1.66.53.11.87.27,1.34.57.47.3.94.61,1.42.9.44.27.89.55,1.37.73.5.19,1.02.3,1.53.47,0-.45-.12-1.22.58-.86.58.3,1.13.67,1.72.95,1.11.52,2.34.75,3.55.65.38-.03.28-.31.42-.6.11-.22.23-.27.47-.26.61.01,1.22.31,1.82.42,1.32.23,2.68.16,4.02.1-.26-.2-1.19-.74-.74-1.12.2-.17.53-.13.77-.14.33-.02.64-.1.96-.2,1.31-.39,2.66-.56,4.01-.78-.21-.14-1.03.17,0,0h0Zm-57.07-27.03c-.08-.26-.84-.24-1.11-.27-.46-.05-.92-.09-1.38-.14-.92-.09-1.84-.19-2.76-.27-1.83-.17-3.67-.32-5.51-.31-.81,0-1.61.07-2.42.06-.86-.01-1.35.52-2,1.02-1.41,1.1-2.77,2.2-4.03,3.47-.7.7-1.38,1.42-2.06,2.14-.66.7-1.29,1.59-2.17,2,.06-.17.07-.36.16-.52.12-.19.31-.35.46-.51.37-.4.74-.8,1.12-1.18.75-.76,1.52-1.49,2.29-2.22.75-.71,1.51-1.42,2.27-2.12.77-.7,1.61-1.31,2.43-1.95-.6-.06-1.33.26-1.91.42-.66.18-1.32.36-1.97.55-.55.16-1.38.24-1.83.59-.51.38-.9.99-1.37,1.42-1.02.95-2.06,1.88-3.07,2.84-.5.48-1,.95-1.42,1.49-.39.5-.7,1.06-1.24,1.41.02-.17-.02-.33.05-.49.06-.14.21-.27.3-.39.23-.31.46-.61.72-.9.56-.64,1.21-1.19,1.84-1.76,1.23-1.12,2.48-2.22,3.7-3.36-.85,0-1.56.43-2.31.78-.79.37-1.58.74-2.37,1.11-.75.35-1.5.79-2.31.98-.15.04-.39.13-.49.05-.18-.15-.05-.26.06-.4.25-.32.58-.5.95-.68,1.55-.74,3.13-1.43,4.71-2.09.22-.09.43-.18.65-.27.08-.03.45-.13.49-.2.1-.23-.43-.21-.55-.22-.24-.03-.48-.06-.72-.09-.87-.11-1.73-.21-2.6-.28-2.02-.17-4.07-.17-6.07.2.61-.56,1.66-.56,2.44-.59.84-.04,1.68,0,2.52.06,1.7.12,3.39.31,5.09.43.9.06,1.57-.04,2.41-.33.77-.27,1.55-.5,2.34-.68,1.59-.36,3.2-.41,4.82-.53-.48-.34-.92-.67-1.45-.93-.53-.26-1.04-.54-1.56-.82-1.04-.55-2.09-1.09-3.22-1.44-1.19-.36-2.4-.71-3.6-1-.58-.14-1.17-.25-1.77-.3-.31-.02-.61-.02-.91-.08-.11-.02-.21-.05-.31-.08-.19-.05-.48-.03-.45-.25.04-.23.52-.06.72-.03.29.04.58.04.87.05.68.03,1.35.14,2.02.29,1.21.27,2.38.69,3.56,1.09,1.19.41,2.33.86,3.44,1.46,1.02.55,1.97,1.25,3.05,1.69,1.3.53,2.56.36,3.93.42,1.39.06,2.77.26,4.16.26-.43-.39-.83-.82-1.28-1.18-.56-.44-1.16-.84-1.74-1.26-1.13-.82-2.27-1.63-3.43-2.41-1-.67-2.01-1.34-3.08-1.89-1.14-.59-2.29-.87-3.51-1.2-.2-.05-.87-.13-.59-.39.21-.2.61-.04.84.02.64.16,1.26.36,1.87.6,1.11.44,2.17,1.01,3.2,1.62,2.33,1.4,4.53,3.01,6.65,4.7.45.36.9.74,1.37,1.07.57.4,1.11.45,1.78.5,1.52.1,3.03.34,4.55.34-2.05-2.28-4.41-4.42-6.9-6.21-1.34-.96-2.78-1.75-4.23-2.53-1.51-.81-3.03-1.7-4.64-2.32-.34-.13-1.55-.37-1.57-.86,0-.17.12-.29.22-.29.11,0,.32.23.42.29.37.22.78.38,1.17.56,1.53.71,3.06,1.41,4.53,2.23,2.88,1.61,5.61,3.47,8.06,5.68,1.2,1.08,2.27,2.27,3.44,3.37.54.5,1.53.54,2.23.69.86.19,1.72.36,2.56.59.21.06.41.12.62.18.1.03.54.22.62.18.24-.12-.28-.79-.4-.95-.5-.69-1.05-1.34-1.59-2-1.06-1.3-2.15-2.57-3.29-3.79-2.11-2.26-4.37-4.28-7.13-5.7-.68-.35-1.36-.71-2.07-.99-.35-.14-.72-.27-1.09-.36-.26-.07-.84-.06-.99-.34-.19-.33.46-.21.65-.15.41.11.81.28,1.22.42.77.27,1.51.6,2.24.96,1.4.7,2.73,1.49,3.9,2.54,1.27,1.14,2.5,2.33,3.67,3.57,1.16,1.23,2.32,2.47,3.37,3.79.5.62,1.01,1.23,1.52,1.84.2.24.39.5.49.81.03.1.03.43.07.49.09.11.57.19.7.23.8.26,1.6.53,2.4.79-.31-.34-.8-.55-1.01-.96-.03-.06-.09-.18-.09-.25,0-.22-.03-.09.15-.2.18-.12.45-.18.65-.26-.81-.64-1.72-1.14-2.43-1.92-.38-.42-1.6-1.78-.72-2.2-.66-1.12-1.36-2.23-1.97-3.38-.28-.54-.63-1.12-.82-1.7-.18-.53.22-.69.71-.55,0-.58.17-1.52-.11-2.02-.33-.58-.82-1.12-1.22-1.65-.86-1.15-1.8-2.21-2.8-3.24-.09-.1-.69-.85-.79-.83-.23.03-.05.58-.09.76-.15.73-1.01-.14-1.28-.35-1.1-.85-2.27-1.61-3.42-2.39.11.28.59,1.14.02,1.2-.26.03-.48-.24-.67-.36-.29-.17-.63-.3-.93-.44-1.34-.63-2.7-1.1-4.1-1.58.11.26.72,1.27.14,1.3-.28.01-.72-.22-.98-.31-.34-.12-.67-.27-1-.4-1.41-.57-2.74-.71-4.24-.51.34.41.57.69.71,1.21-.19.04-.37.11-.57.09-.18-.02-.33-.12-.51-.17-.37-.1-.81-.09-1.19-.12-.41-.04-.83-.07-1.24-.11-.29-.03-.73-.16-1.01,0-.23.13-.19.38-.3.58-.17.32-.47.38-.79.41-.84.08-1.67.07-2.5.25-.37.08-.73.18-1.07.33-.2.09-.39.19-.58.3-.15.09-.42.17-.54.29-.16.15-.17.13.05.25.18.1.37.08.54.23.27.23.24.45-.03.64-.36.26-.86.41-1.27.6-.39.18-.79.36-1.18.54-.79.36-1.55.76-2.32,1.16.28.17.55.35.83.54-.34.38-.62.58-1.07.84-.46.26-.93.51-1.4.76-.91.5-1.79,1.03-2.68,1.58.33.05.67.1,1,.16-.26.74-.93,1.03-1.55,1.4-.81.48-1.61.97-2.43,1.45.39.06.88-.02,1.24.18.19.11.35.29.28.47-.1.24-.52.53-.7.72-.93.94-1.85,1.88-2.78,2.83.32.17.82-.14.98.32.18.51-.51,1.04-.81,1.35-.9.9-1.73,1.84-2.55,2.81.34.08.86-.14,1.08.26.21.38-.31.93-.51,1.22-.67.98-1.52,1.83-2.3,2.73.42.25.94.36,1.39.53.5.19.98.4,1.45.65.45.24.88.51,1.28.82.12.09.37.22.4.38.04.19-.2.38-.3.52.62.35,1.24.69,1.86,1.04.31.17.61.35.92.52.31.18.41.34.62.6-.28.14-.46.26-.79.26-.05,0-.45-.08-.33.12.03.05.39.13.44.15.65.21,1.18.54,1.75.92.57.38,1.16.75,1.72,1.14.45.32.48.63.07,1.04.7.33,1.41.65,2.11.98.65.31,1.22.56,1.76,1.04-.38.27-.69.46-1.14.59.97.3,1.95.55,2.94.8.46.11.98.18,1.42.36.13.05.3.14.38.27.08.13.03.3.13.42.18.21.69.17.93.2.5.06.99.13,1.48.18.61.07,1.53-.07,1.4.8,1.02,0,2.05,0,3.07,0,.55,0,1.71-.29,1.66.55.83-.21,1.66-.39,2.48-.63.22-.06.52-.19.75-.09.1.04.15.11.2.19.13.21,0,.27.33.28.77.02,1.53-.12,2.25-.38.34-.13.68-.28,1-.45.22-.12.59-.44.85-.44.18,0,.24.14.31.29.09.19.05.22.27.19.21-.03.45-.18.65-.26.79-.32,1.57-.65,2.36-.95,1.55-.6,3.08-1.05,4.49-1.96.78-.5,1.39-1.02,1.95-1.77.52-.71,1.09-1.34,1.69-1.99-.46,0-.77-.04-1.22-.19.42-.63,1.04-1.01,1.64-1.46.64-.48,1.29-.95,1.94-1.43-.78-.55.44-1.21.86-1.5.74-.51,1.55-.92,2.33-1.36-.27-.31-.65-.58-.21-.93.41-.32,1.01-.52,1.48-.76.93-.46,1.84-.96,2.74-1.46-.56-.2-1.12-.39-1.68-.59-.36-.13-.38-.17-.67.08-.24.21-.48.29-.77.41-1.14.47-2.11,1.18-3.01,2.02-2.02,1.91-4.04,3.81-5.96,5.83-.44-.35.11-.7.37-.96.43-.42.85-.84,1.28-1.26.87-.86,1.74-1.72,2.64-2.56.78-.73,1.55-1.5,2.39-2.17.88-.71,1.85-1.16,2.88-1.61-.44-.35-1.09-.44-1.62-.61-.71-.23-1.41-.45-2.12-.67-.53-.17-1.18-.54-1.74-.32-.57.22-1.12.56-1.64.87-1.01.6-1.98,1.28-2.83,2.1-.95.91-1.74,1.99-2.57,3-.89,1.09-1.77,2.18-2.65,3.27-.42.52-.85,1.04-1.27,1.56-.18.22-.35.44-.52.67-.07.09-.22.42-.38.23-.11-.13.09-.45.15-.55.68-1.09,1.58-2.07,2.4-3.05.91-1.09,1.81-2.18,2.72-3.27.87-1.04,1.79-2.04,2.82-2.92,1.05-.88,2.22-1.54,3.41-2.2-.54-.14-1.02-.15-1.57-.22-.29-.04-.49-.17-.76-.28-.32-.13-.66-.17-1-.21-.59-.07-1.19-.26-1.79-.21-.62.05-1.16.43-1.68.73-2.18,1.25-4.08,2.74-5.73,4.64-.91,1.05-1.82,2.12-2.72,3.18-.43.51-.86,1.02-1.3,1.53-.19.22-.43.45-.59.69-.09.13-.15.4-.33.44-.49.1.03-.73.12-.85.45-.57.94-1.12,1.41-1.67.86-1.01,1.69-2.06,2.58-3.05.93-1.04,1.92-2.01,3-2.89,1.16-.94,2.42-1.76,3.64-2.61-.01-.04-.65.45,0,0h0Zm68.13,8.6c1,.83,2.05,1.62,3,2.51.26.24.81.73.39,1.09-.36.3-1.09.04-1.5-.01.4.55.8,1.11,1.21,1.66.45.6,1.04,1.06,1.62,1.53.26.21,1.31.74,1.24,1.15-.1.59-1.33.25-1.67.21.24.34,0,.2.28.52.25.29.25.29.93.91.7.55-.13-.07.58.48.18.14.58.42.75.57.06.05.55.58.58.65.12.38.39.99.17.98-.86-.04.17.14-.68,0-.44-.07-2.38-.08-2.82-.11-.18-.01-1.08-.17-1.21-.07-.22.17.15.38.27.51.15.16.29.33.41.51.03.04.06.09.08.14.13.1.12.18-.04.22-.1.14-.35.23-.51.27-.38.09-.84.04-1.23.04-.47,0-.94.01-1.41.02-.39.01-.94-.05-1.3.06-.26.08-.21.06-.13.32.06.2.18.4.26.59-.5.18-.89.28-1.43.32-.56.04-1.12.08-1.68.12-.92.06-1.94,0-2.83.26.24.14.52.24.74.41.24.18.35.42.51.66-.47.17-.8.23-1.3.26-.5.03-1,.06-1.5.13-.95.13-1.85.39-2.68.87.25.16.52.29.74.48.23.19.33.44.48.7-.28.12-.43.22-.74.23-.28,0-.57,0-.85,0-.53.02-1.06.06-1.59.15-1.01.17-1.93.58-2.93.77.23.15.5.26.69.46.19.18.25.42.36.64-.28.11-.45.2-.75.21-.31,0-.62,0-.93-.01-.65,0-1.29-.02-1.94-.04-.6-.01-1.22,0-1.82-.08-.06,0-.37-.11-.42-.07-.04.04-.05.29-.06.34-.05.19-.09.3-.3.32-.18.02-.44-.06-.63-.08-.28-.03-.55-.06-.83-.08-.54-.04-1.08.01-1.62-.04-1.12-.11-2.18-.51-3.15-1.06-.18.59-.39.72-1,.56-.65-.18-1.29-.35-1.93-.56-1.22-.41-2.25-1.16-3.41-1.68.16.32.37.64.48.98.09.27.18.49-.14.54-.35.06-.54-.14-.84-.33-.33-.21-.67-.42-1-.63-.62-.4-1.33-.78-1.86-1.29-.43-.41-.78-.95-1.17-1.41-.03.46.12,1-.5,1.1.47,1.09,1.1,2.11,1.67,3.15.24.45.6.94.74,1.43.2.69-.45.3-.64.62-.11.18-.08.57-.11.79-.04.3-.08.6-.12.9-.08.61-.16,1.22-.24,1.83-.08.58-.15,1.17-.24,1.76-.04.25-.06.5-.13.74-.07.26-.22.41-.37.63-.23-.29-.44-.52-.56-.87-.44,1.02-.89,2.04-1.35,3.05-.24.53-.48,1.06-.72,1.59-.11.23-.2.56-.38.75-.14.15-.36.21-.53.32-.19-.34-.35-.62-.44-.99-1,.96-1.66,2.17-2.39,3.34-.18.28-.36.56-.55.83-.13.18-.28.5-.53.53-.55.06-.41-.92-.41-1.23-.36.22-.54.32-.79.67-.22.3-.44.6-.65.9-.47.65-.94,1.31-1.41,1.96-.22.3-.43.6-.65.9-.17.23-.4.71-.76.67-.23-.02-.28-.2-.27-.4.02-.32.1-.67.14-1-.51.6-1.04,1.18-1.52,1.79-.51.65-.87,1.36-1.3,2.07-.13.21-.83,1.35-1.14.77-.11-.19.05-.47.09-.66.09-.38.13-.78.19-1.17-1.44.88-2.41,2.24-3,3.79-.16.42-.27.52-.42.94-.02.05-.2.29-.25.31-.07.03-.22-.03-.26-.08-.21-.25-.12-.35-.16-.65-.05-.41-.14-.82-.28-1.21-.26-.79-.66-1.53-1.06-2.25-.13-.24-.18-.39-.3-.09-.06.14,0,.33-.05.47-.07.18-.14.3-.38.24-.14-.03-.23-.15-.31-.26-.52-.72-.84-1.64-1.28-2.42-.12-.21-.24-.41-.36-.62-.08-.14-.19-.47-.33-.55-.18-.1-.18,0-.34.17-.16.16-.31.32-.47.48-.25-.33-.52-.61-.71-.98-.2-.39-.39-.78-.57-1.17-.4-.82-.79-1.65-1.18-2.47-.11.38-.2,1.21-.63,1.39-.48.2-.81-.93-.94-1.22-.59-1.27-1.15-2.51-1.87-3.71-.1.28-.29,1.18-.73,1.1-.39-.07-.6-1.23-.69-1.55-.36-1.28-.64-2.58-.95-3.88-.25.22-.49.44-.74.66-1.2-2.44-1.54-5.13-.76-7.75-.16.15-.3.3-.5.39-.28.11-.39.12-.47-.18-.13-.5.23-1.25.37-1.74.31-1.13.63-2.25.95-3.37-.24.09-.58.26-.85.17-.16-.05-.16-.06-.15-.27.01-.22.11-.37.21-.56.2-.36.41-.73.62-1.09.2-.35.49-.71.63-1.09.08-.23.09-.13-.08-.29-.08-.08-.19-.13-.25-.24-.13-.25,0-.51.12-.74.28-.61.63-1.2,1.07-1.71.2-.24.43-.45.68-.65.14-.11.87-.64.38-.69-.29-.02-.86.27-1.13.37-.39.14-.76.31-1.14.48-.75.35-1.5.86-2.29,1.11-.2.06-.34.07-.52-.04-.16-.11-.16-.15-.37-.14-.22,0-.46.09-.68.13-.81.16-1.65.13-2.44.37-.39.12-.76.28-1.11.48-.4.21-.67.33-1.1.42.06-.38.13-.74.25-1.11-1.12.26-2.25.58-3.39.77-.25.04-.77.19-.87-.13-.12-.39.48-.62.65-.88-.86,0-1.73,0-2.59,0-.79,0-1.62.22-2.39.08.06-.2.07-.46.2-.64.12-.17.32-.24.44-.42-1.07-.02-2.14-.04-3.21-.07-.24,0-.49,0-.73-.02-.14-.01-.26-.02-.38-.1-.16-.1-.1-.03-.1-.2.02-.4.52-.65.79-.86-.82-.16-1.63-.32-2.45-.51-.42-.1-.84-.21-1.26-.32-.19-.05-.44-.08-.61-.2-.15-.1-.24-.28-.37-.4.44-.32.84-.47,1.35-.66-1.11-.55-2.21-1.09-3.32-1.64-.48-.24-1.14-.45-1.56-.79-.07-.06-.16-.16-.19-.25-.04-.16-.06-.09.1-.22.25-.2.46-.11.73-.2.15-.04.22,0,.14-.18-.03-.08-.19-.17-.27-.23-.2-.16-.42-.27-.66-.38-.56-.26-1.12-.51-1.68-.76-.41-.19-1.16-.35-1.35-.81-.19-.47.46-.54.79-.61-.83-.56-1.7-1.2-2.64-1.57-.44-.17-.85-.2-1.21-.56-.4-.4-.03-.61.36-.77-.22-.29-.53-.33-.88-.45-.47-.15-.95-.3-1.42-.45-.27-.09-1.24-.11-.79-.72.14-.19.66-1,.84-1.11.28-.52.27-.41.56-.73.29-.31.61-.63.9-.94.19-.21.51-.37.13-.56-.27-.13-.64.09-.9-.08-.24-.16-.1-.42.02-.61.41-.7.95-1.35,1.5-1.95.27-.29.56-.57.85-.85.25-.24.69-.55.8-.9.1-.31-.08-.21-.34-.13-.19.06-.4.14-.6.17-.29.03-.64-.11-.47-.46.17-.37.71-.72,1.01-1,.36-.35.72-.69,1.08-1.04.66-.64,1.29-1.32,1.93-1.98-.33-.03-.67-.05-1-.09-.21-.02-.54-.01-.72-.14-.55-.39.51-.89.78-1.05.63-.35,1.26-.7,1.89-1.06.14-.08.95-.42.97-.55.04-.19-.59-.62-.7-.72.69-.65,1.48-1.07,2.31-1.55.89-.51,1.78-1.02,2.68-1.53-.26-.09-1.08-.28-.98-.71.06-.23.48-.38.67-.47.29-.14.58-.28.86-.42,1.21-.58,2.41-1.16,3.62-1.74-.36-.17-.95-.43-.73-.93.19-.45,1.02-.71,1.44-.87,1.3-.5,2.7-.77,4.04-1.12-.26-.13-.65-.48-.39-.79.24-.28.96-.15,1.26-.15,1.03,0,2.05,0,3.08,0-.21-.17-.54-.36-.56-.67-.02-.31.23-.36.49-.35.77.02,1.55.04,2.32.06.77.02,1.55.06,2.3.23.69.15,1.34.44,2,.69-.23-.28-.66-.98-.02-1.06.28-.03.6.13.86.22.37.12.73.23,1.1.35,1.35.44,2.63.95,3.92,1.53-.13-.31-.64-1.25-.26-1.46.4-.21,1.38.74,1.66.94.55.39,1.09.78,1.63,1.17.54.39,1.08.86,1.67,1.16.11-.25-.32-1.32.43-1.02.64.26,1.22.96,1.72,1.4-.23-1.05-.49-2.09-.7-3.14-.05-.25-.25-.97.16-1.06.3-.07.61.37.77.55-.07-.81-.15-1.58-.12-2.39.03-.87.07-1.73.13-2.6.05-.8.07-1.73.35-2.5.34-.92.85.31,1.14.6.12-.64.16-1.28.29-1.92.14-.68.35-1.35.59-2,.22-.6.42-1.23.69-1.81.24-.51.52-.41.92-.09.77-1.04,1.56-2.04,2.38-3.04.21-.26.76-1.19,1.16-1.2.44,0,.46.75.49,1.03,1.04-.98,2.06-2.01,3.24-2.82.54-.38,1.28-.9,1.93-1.06.11-.03.3-.05.4-.02.12-.05.16-.02.14.08,0,.08,0,.17.01.25.01.35-.06.52-.18.84.61-.34,1.22-.63,1.79-1.04.62-.45,1.23-.91,1.84-1.37.43-.32,1.09-1.05,1.67-1.05.31,0,.4.15.34.44-.03.19-.51.73-.48.86.06.28.74-.19.91-.27.38-.19.76-.38,1.15-.56.69-.33,1.4-.61,2.06-.99.29-.16.56-.34.83-.52.29-.2.58-.5.9-.64.1-.04.27-.09.36-.08.19.03.15.05.21.28.08.35.02.52-.05.87.44-.23.9-.42,1.3-.71.47-.34.92-.7,1.38-1.05.38-.3.82-.76,1.27-.95.32-.13.43-.1.49.24.05.26-.02.49-.05.75.75-.55,1.58-1.01,2.25-1.66.37-.36.65-.76.87-1.22.14-.29.32-.38.63-.54.27-.14.31.03.35.3.06.42.06.48,0,.9-.18,1.1-.1,2.23.05,3.33.17-.18.33-.35.5-.53.18-.19.21-.2.43-.02.3.24.39.57.39.94.03,1.14,0,2.3,0,3.44.32-.15.81-.53,1.05-.11.24.4.08,1.16.08,1.62v3.85c.28-.13.73-.46.94-.09.12.2.08.57.1.79.03.36.06.71.08,1.07.05.68.08,1.36.06,2.05,0,.33-.03.65-.06.98-.04.35-.17.72-.17,1.06,0,.22-.05.17.18.27.07.03.15.06.22.1.1.05.21.11.28.21.17.3-.03.86-.09,1.15-.24,1.25-.56,2.49-.7,3.76.27-.13.9-.6,1.11-.27.23.35-.3,1.08-.44,1.39-.5,1.12-.98,2.25-1.48,3.37.31.13.57.25.48.62-.13.52-.52,1.07-.77,1.54-.27.54-.55,1.07-.83,1.6-.24.47-.61.98-.7,1.51.28,0,.96-.07,1.06.29.1.36-.65.92-.85,1.13-.77.81-1.53,1.64-2.38,2.37.23,0,.42,0,.65.05.24.04.22,0,.26.19.03.13-.04.33-.09.44-.13.25-.48.49-.68.68-.26.25-.52.5-.76.78.56-.32,1.05-.6,1.67-.79,0,.22-.04.47-.01.68.03.19-.07.15.12.19.13.02.5-.21.63-.25.16-.06.32-.12.48-.17.75-.25,1.51-.45,2.29-.61.39-.08.78-.15,1.17-.21.18-.03.62-.18.81-.08.2.1.22.46.08.62-.12.14-.54.06-.59.19-.07.16.78.15.89.15.4.03.81.06,1.21.08.81.03,1.62.02,2.42-.16.41-.09.81-.23,1.21-.37.35-.12.76-.32,1.13-.34.82-.04.15.86-.09,1.13,1.05.16,2.08.34,3.14.44.52.05,1.05.1,1.57.15.26.03.57.02.83.09.22.06.37.21.56.33-.37.38-.63.55-1.12.76,1.14.54,2.28,1.08,3.44,1.59.53.23,1.19.43,1.66.77.48.36.08.64-.17,1.01,1.02.59,2.05,1.19,3.07,1.78.41.24.91.39,1.24.74.37.4-.15.61-.42.88.96.73,1.89,1.57,2.91,2.21.24.15.71.44.4.78-.27.3-1.01.04-1.33-.01.11.54.56.96.92,1.37.37.43.77.84,1.22,1.2.46.37.96.65,1.48.93.3.16.59.34.85.55.23.18.27.34.4.59-.37.13-.59.19-.99.15-.18-.02-.36-.04-.54-.06-.25-.03-.26-.05-.36.18.82.68.03-.07,0,0"/>
  </g>
  <path class="cls-3" d="m34.75,48.69c-.31.21-.6.45-.93.64-1.69.99-3.05,2.34-4.31,3.82-1.1,1.29-2.24,2.56-3.29,3.9-.84,1.08-1.57,2.25-2.36,3.36-.09.13-.28.18-.42.27.02-.17,0-.37.08-.49,1.03-1.44,2.01-2.93,3.14-4.3,1.83-2.21,3.65-4.43,5.94-6.2.61-.48,1.31-.85,1.97-1.27.06.09.12.18.19.27"/>
  <path class="cls-3" d="m76.2,24.09c-1.79,1.15-3.78,2.06-4.8,4.09-.05-.03-.1-.05-.15-.08.14-.28.25-.59.41-.85.57-.9,1.45-1.48,2.27-2.1.51-.39,1.05-.73,1.59-1.08.16-.1.36-.13.55-.19.04.07.08.14.12.22"/>
  <path class="cls-3" d="m63.74,18.77c-.32-1.27-.06-2.52.08-3.78.06-.55.18-1.1.3-1.64.04-.19.18-.35.28-.53.06.01.12.02.18.04.02.15.1.33.05.45-.64,1.49-.68,3.08-.8,4.65-.02.27-.05.54-.08.81"/>
  <path class="cls-3" d="m56.05,22.62c-.45-.85-.56-1.77-.51-2.71.04-.9.12-1.8.19-2.7.02-.29.12-.54.6-.59-.66,2.01-.62,3.99-.28,6"/>
  <path class="cls-3" d="m73.4,33.53c.28-.36.48-.75.8-1.01.83-.68,1.69-1.31,2.56-1.95.09-.07.26-.02.39-.03-.04.12-.04.32-.12.36-1.33.68-2.46,1.59-3.49,2.66,0,0-.03,0-.14-.04"/>
  <path class="cls-3" d="m44.36,87.97c.14-.7.2-1.43.44-2.09.45-1.23.99-2.43,1.53-3.63.12-.27.39-.48.64-.67.1-.08.3-.02.45-.02-.07.12-.12.26-.2.37-.4.56-.89,1.07-1.17,1.68-.5,1.07-.88,2.19-1.28,3.3-.12.35-.13.73-.19,1.1-.07-.01-.15-.02-.22-.03"/>
  <path class="cls-3" d="m64.42,74.82c.1.32.22.64.3.96.24,1.05.42,2.12.72,3.15.24.81.62,1.58.92,2.38.06.15,0,.33,0,.5-.11-.12-.26-.21-.32-.35-.89-2.04-1.36-4.19-1.71-6.38-.01-.08-.02-.16-.03-.23l.12-.03"/>
</svg>