<?xml version="1.0" encoding="UTF-8"?>
<svg id="Layer_1" data-name="Layer 1" xmlns="http://www.w3.org/2000/svg" viewBox="0 0 196.36 341.37">
  <defs>
    <style>
      .cls-1 {
        fill: none;
        stroke: #fff;
        stroke-miterlimit: 10;
      }
    </style>
  </defs>
  <path class="cls-1" d="m153.37,102.03c.59.24,1.18.49,1.76.75,1.89.84,3.81,1.6,5.83,2.03,1.53.33,1.73.19,2.27-1.36.5.19,1,.36,1.49.57.68.29,1.33.65,2.02.9,1.06.38,2.13.75,3.22,1.02,1.4.33,2.64.07,3.42-1.31.04-.07.17-.09.38-.2.5.16,1.11.34,1.7.55,1.29.46,2.59.93,3.87,1.43.97.38,1.83.2,2.64-.37.27-.19.53-.4.81-.61.49.23.94.42,1.38.64,3.72,1.86,7.55,1.72,11.53.64-.1-.26-.16-.5-.29-.69-.62-.88-1.23-1.77-1.89-2.63-1.16-1.51-2.6-2.68-4.31-3.5-1.15-.56-2.3-1.12-3.49-1.59-3.07-1.21-6-2.69-8.94-4.18-1.75-.88-3.52-1.74-5.33-2.51-2.71-1.15-5.46-2.21-8.21-3.28-2.61-1.02-5.3-1.81-8.08-2.21-2.53-.37-5.05-.76-7.49-1.54-.98-.32-1.98-.57-2.97-.87-2.02-.62-4.08-.64-6.13-.36-2.45.33-4.8,1.03-7.03,2.09-1.73.82-3.43,1.7-5.16,2.52s-3.47,1.61-5.24,2.34c-1.54.64-3.15,1.11-4.68,1.76-3.54,1.51-6.77,3.57-10,5.64-.26.17-.56.29-.9.46-.29-1.71-.64-3.29-1.61-4.66,1.27-4.13,2.53-8.21,3.77-12.3.69-2.26,1.51-4.46,2.44-6.63.41-.96.93-1.81,1.73-2.52,1.87-1.68,3.59-3.5,5.04-5.55.08-.11.22-.19.3-.26.77-.07,1.51-.2,2.24-.2.78,0,1.57.11,2.35.17.34.03.69.06,1.03.08,2.11.1,2.72-.15,4.13-1.77.25-.02.54-.06.84-.05,2.37.05,4.71-.18,7.03-.65.96-.19,1.89-.52,2.82-.81.41-.13.64-.44.71-.86.04-.22.08-.45.12-.68,2.66-.25,5.1-.96,7.51-1.84.83-.3,1.23-.74,1.12-1.62,0-.07.08-.16.16-.32,1.51-.12,3.08-.23,4.64-.36.88-.08,1.77-.14,2.63-.31.82-.15,1.63-.39,2.41-.66.83-.29,1.1-.96.75-1.77-.11-.26-.31-.49-.47-.74-.13-.19-.25-.37-.48-.69,2.75-.62,5.33-1.34,7.52-2.93.35-.18-.07-.32-.13-.36-1.26-.76-2.71-.98-4.38-1.47,1.04-.44,1.8-.74,2.55-1.08.67-.31,1.38-.57,1.95-1.01.71-.54,1.46-.74,2.32-.78,1.67-.07,3.34-.15,5-.3.92-.08,1.84-.29,2.75-.48.28-.06.55-.21.79-.36.32-.2.35-.7.03-.87-.6-.32-1.23-.62-1.87-.83-4.14-1.33-8.4-1.98-12.74-2.19-.73-.04-1.46-.19-2.19-.28-.36-.05-.65-.19-.88-.48-.59-.74-1.42-.97-2.32-1.11-2.12-.32-4.21-.06-6.31.21-.43.06-.86.08-1.3.12-.43-.97-1.2-1.2-2.09-1.16-.64.03-1.28.05-1.9.16-2.7.5-5.4,1.04-8.09,1.56-.18.04-.38,0-.62,0-.2-.26-.4-.53-.6-.81-.42-.58-1.01-.76-1.69-.65-.29.04-.58.12-.85.21-1.17.39-2.26.94-3.29,1.64-1.84,1.26-3.46,2.75-4.8,4.53-.14.19-.23.53-.71.45.49-.86.98-1.65,1.39-2.47.41-.83.72-1.72,1.12-2.56.4-.83.29-1.86,1.02-2.53,1.06.1,2.1.1,3.09.32,1.06.23,2.03.05,3.04-.18,1.77-.4,3.51-.88,5.36-.88,2.03,0,4.01-.46,5.8-1.47,1.55-.88,3.24-1.37,4.92-1.95,2.04-.7,4.04-1.52,6.05-2.3.24-.09.43-.23.32-.57-1-.45-2.02-.95-3.05-1.38-1.41-.58-2.82-1.11-4.38-1.19-.83-.04-1.64-.28-2.46-.43-1.06-.19-2.12-.42-3.19-.54-1.97-.23-5.44.33-7.39,1.04,0-.12,0-.24,0-.35.02-.58.08-1.17.07-1.75,0-.22-.1-.57-.25-.65-.51-.25-.51-.69-.53-1.12-.1-1.62-.26-3.23-.27-4.85,0-.93-.25-1.75-.69-2.52-.55-.96-.82-1.98-.88-3.08-.02-.39.04-3.23-.27-3.78-.02-.06-.04-.12-.06-.18-.28-.72-.21-1.45-.14-2.18.14-1.42.31-2.83.44-4.24.05-.53.07-1.08-.01-1.62-.05-.33-.16-.49-.32-.67-.66.85-1.14,1.7-1.41,2.61-.62.79-3.08,3.7-3.45,4.5-.04.06-.08.11-.11.17-.52.82-.82,1.79-1.79,2.26-.08.04-.15.14-.18.22-.37.94-1.12,1.59-1.76,2.33-.95,1.09-1.68,2.29-1.89,3.76-.05.32-.21.67-.42.91-.39.45-.45.95-.4,1.51.08.78.16,1.56.21,2.34.04.62.2,1.24.06,1.83-.12.04-.18.08-.21.06-.22-.11-.44-.21-.63-.35-2.07-1.51-4.27-2.8-6.65-3.75-1.33-.53-2.5-1.35-3.62-2.23-.65-.52-1.26-1.09-1.9-1.63-.13-.11-.24-.33-.45-.16.2.86.46,1.7.58,2.56.37,2.62,1.6,4.84,3.28,6.8,1.12,1.31,2.15,2.67,3.08,4.12.69,1.06,1.48,2.08,2.37,2.99,1.13,1.15,2.42,2.15,3.62,3.24.5.46,1,.95,1.41,1.5.54.73,1.01,1.52,1.03,2.44-.03.14-.07.28-.1.45-.93,2.63-2.28,5.09-3.7,7.42-.41-.39-.26-.81-.26-1.17-.02-1.09-.13-2.16-.43-3.2-.23-.81-.7-1.36-1.57-1.58-.66-.16-1.31-.42-1.94-.68-.57-.23-.98-.64-1.18-1.24-.29-.88-.62-1.76-.89-2.65-.25-.84-.43-1.71-.67-2.56-.12-.41-.23-.87-.8-1-.35.25-.72.52-1.12.81-.83-1.55-1.6-3.03-2.41-4.47-.41-.72-.88-1.41-1.39-2.07-.23-.3-.57-.54-.89-.75-.37-.24-.67-.16-1.04.18-.21.19-.42.38-.63.57-.18-.1-.33-.15-.43-.25-1.1-1.19-2.18-2.39-3.3-3.56-.54-.56-1.14-1.07-1.74-1.57-.31-.26-.69-.37-1.08-.08-.04.09-.11.18-.12.27-.03.34-.06.69-.05,1.03.04,2.51-.78,4.75-2.32,6.67-.67.84-.92,1.69-.95,2.69,0,.39.02.79-.04,1.18-.05.33-.1.73-.31.95-.54.56-.58,1.21-.58,1.91,0,.9.18,1.76.46,2.6.22.65.46,1.29.68,1.95.18.54.18,1.06-.22,1.52-.12.14-.17.34-.25.51.11.25.19.49.3.7.57,1.14,1.16,2.28,1.72,3.42.43.86.41,1.7-.18,2.5-.2.28-.4.56-.59.85-.36.57-.51,1.17-.11,1.8.1.16.18.35.24.53.26.8.46,1.56.09,2.43-.29.68-.19,1.45.03,2.17.36,1.18.82,2.32,1.53,3.33.71,1,1.48,1.96,2.14,3,.69,1.08,1.53,2.03,2.38,2.98,1.65,1.83,3.38,3.56,5.53,4.81.32.18.58.42.7.78-.99,2.57-2.01,5.69-2.92,8.25-.9,2.54-1.98,5.03-2.7,7.63-.02.07-.11.14-.25.64-.33-.65-.94-1.39-1.18-2.05-.23-.65-.52-1.31-1.09-1.72-.62-.45-1-1.05-1.38-1.69-.33-.55-.69-1.08-1.08-1.58-.93-1.2-1.86-2.41-2.84-3.57-.72-.85-1.52-1.63-2.29-2.44-.63.69-.68.71-.74,1.44-.07.88-.1,1.77-.11,2.65-.02,1.91-.02,3.83,0,5.75,0,.67-.64.88-.57,1.64.16,2,.7,3.85,1.09,5.73.28,1.34.26,2.66-.29,3.9-.54,1.22-.33,2.28.36,3.33.14.21.29.4.39.62.11.22.22.45.24.68.13,1.68.25,3.36.69,5.02-.54-.77-1-1.57-1.45-2.38-.35-.65-.65-1.33-1.03-1.95-2.74-4.54-5.64-8.98-8.64-13.35-.39-.56-.87-1.06-1.33-1.57-.4-.44-.87-.81-1.23-1.27-.75-.96-1.76-1.42-2.92-1.5-1.1-.07-2.11-.4-3.11-.84-2.11-.93-4.23-1.85-6.35-2.75-.63-.27-1.29-.48-1.94-.69-.84-.27-1.66-.25-2.39.28-.53.38-1.07.41-1.68.24-1.04-.28-2.09-.57-3.14-.79-1.74-.37-3.51-.43-5.27-.25-.92.1-1.12.45-.99,1.39.02.14.03.28.05.49-.1.08-.2.2-.33.25-.27.12-.54.24-.82.3-2.42.53-4.65,1.54-6.81,2.74-1.63.91-3.22,1.89-5.05,2.38-.14.04-.28.1-.41.17-1,.49-1.22,1.16-.69,2.16.21.38.45.75.64,1.08-.22.52-.62.74-1.01.93-.75.37-1.5.76-2.29,1.01-2.02.64-3.52,1.93-4.65,3.66-.56.86-1.03,1.78-1.51,2.69-.3.56-.53,1.16-.81,1.73-1.12,2.3-2.55,4.3-5.03,5.35-.77.33-2.17,1.78-2.07,2.45,0,.02,0,.05,0,.07h0c.33.44.86.56,1.36.73,2.84.98,5.72,1.64,8.77,1.73,3.5.1,6.97-.06,10.43-.54,2.29-.32,4.55-.76,6.67-1.75.75-.35,1.57-.59,2.38-.76,3.75-.78,7.47-1.72,11.28-2.14,1.61-.18,3.23-.24,4.85-.26,1.27-.02,2.55.08,3.82.17,3.15.22,6.22.85,9.19,1.95,2.53.94,5.08,1.83,7.62,2.76,2.51.92,5.1,1.45,7.78,1.51.22,0,.5-.1.64.27-.56.59-1.13,1.2-1.7,1.8-1.38,1.48-2.1,3.16-1.74,5.24.15.86.2,1.76.16,2.64-.04.99.04,1.97.34,2.89.26.83.32,1.61.04,2.43-.09.28-.12.58-.18.86-.86,3.88-1.68,7.78-2.58,11.65-.5,2.15-1.17,4.05-1.55,6.22-.06.34-.21,1.21-.34,1.7-.14-.38-.39-1.37-.47-1.6-.75-2.02-1.47-4.06-2.27-6.07-.36-.91-.83-1.78-1.31-2.64-.54-.97-1.23-1.8-2.53-1.65-.46-.7-.85-1.39-1.32-2.01-1.01-1.34-2.17-2.45-4.07-2.05-.09.02-.19-.04-.37-.09-.8-1.15-1.65-2.35-2.48-3.56-.5-.73-.98-1.47-1.82-1.83-.39.16-.74.3-1.13.46-.5-.54-.97-1.04-1.44-1.54-1.27-1.37-2.6-2.68-4.17-3.71-.12-.08-.28-.09-.43-.13-.26.13-.52.26-.83.42-.97-.32-1.81-.92-2.66-1.48-.83-.55-1.4-1.46-2.41-1.99-.08.3-.16.48-.16.65.02.59.03,1.18.14,1.76.42,2.37.88,4.73,1.32,7.1.11.6.44,1.2-.1,1.81-.15.17-.07.57-.02.85.09.53.18,1.07.37,1.57.42,1.1.87,2.19,1.36,3.26.56,1.2,1.04,2.42,1.44,3.63-.68.89-.69.89-.41,1.76.12.37.25.75.43,1.1,1.25,2.41,2.73,4.66,4.6,6.64.23.25.47.49.7.75-.15.33-.29.63-.44.96.85.68,1.65,1.32,2.45,1.96,3.73,2.94,7.85,5.02,12.58,5.76.53.08,1.06.21,1.58.35.27.07.52.2.78.3-.3,1.87-.52,3.68-.9,5.45-.68,3.13-.82,6.33-1.18,9.5-.19,1.66-.18,3.34-.35,5-.31,3.09-.23,6.18,0,9.27.05.66,0,1.33,0,2.08-.47-.47-.54-1.02-.7-1.52-.51-1.64-1.02-3.28-1.48-4.94-.71-2.57-1.77-5-3.07-7.32-.6-1.07-1.2-2.14-1.84-3.19-1.25-2.06-2.64-4.03-4.27-5.81-1.52-1.66-3.35-2.72-5.68-2.68-.1,0-.2,0-.29,0-.54.02-.89-.17-1.16-.69-.33-.65-.78-1.25-1.24-1.82-.68-.84-1.41-1.64-2.14-2.44-1.77-1.94-3.85-3.5-6.02-4.95-.44-.29-.96-.5-1.48-.62-.69-.16-1.12.11-1.41.76-.16.36-.26.74-.41,1.1-.45,1.06-.67,1.2-1.81.84-.69-.22-1.36-.57-1.98-.94-1.71-1.02-3.54-1.67-5.52-1.94-.8-.11-1.58.02-2.33.25-.54.17-1.19.14-1.61.72.09.55.19,1.12.29,1.76-.35.15-.64.33-.96.4-1.31.3-2.63.28-3.96.15-1.62-.16-3.23-.12-4.84.15-2.23.37-4.23,1.25-5.98,2.68-.49.4-1.03.77-1.14,1.5.12.22.23.43.36.64.41.67.54,1.16-.34,1.93-.22.19-.46.37-.72.52-1.28.74-2.57,1.45-4.06,1.69-1.73.28-3.1,1.15-4.17,2.54-1.17,1.51-2.42,2.97-3.59,4.49-.9,1.18-1.86,2.29-3.05,3.18-.43.32-.85.67-1.22,1.07-.69.73-1.45,1.31-2.42,1.62-.35.12-.77.22-.92.69.06.12.09.28.18.37.25.24.52.45.79.66.74.56,1.53,1.07,2.23,1.69,1.61,1.42,3.44,2.46,5.46,3.13,2.33.77,4.68,1.51,7.04,2.16,1.95.54,3.98.65,5.98.7,1.77.04,3.53-.08,5.3-.1,3.29-.04,6.58-.05,9.88-.08,2.81-.02,5.6.23,8.37.65,4.03.62,8.05,1.25,12.01,2.24,1.48.37,2.95.74,4.34,1.4,2,.95,4,1.88,5.77,3.24.47.36,1,.62,1.49.95,1.25.87,2.51,1.73,3.73,2.64.54.41.92,1.06,1.5,1.38.66.36,1.21.83,1.78,1.28.54.43,1.07.87,1.59,1.31,1.7,1.43,3.54,2.65,5.59,3.51.41.17.8.38,1.21.55.78.32,1.23.86,1.47,1.69.37,1.27.84,2.52,1.28,3.76.88,2.45,1.76,4.9,2.64,7.35.07.2,1.26,2.72,1.31,2.94-.41-.38-1.96-3.22-2.22-3.74-1.23-2.55-2.97-4.72-4.88-6.8-2.03-2.22-4.45-3.84-7.13-5.12-1.23-.58-2.52-.85-3.86-.56-1.58.34-3.16.69-4.73,1.1-1.47.38-2.92.86-4.4,1.22-.8.19-1.65.3-2.47.29-2.36-.02-4.71-.1-7.07-.2-1.41-.06-2.74.26-4,.84-2.06.94-4.03,2.06-5.82,3.45-.66.51-1.27,1.09-1.82,1.71-1,1.14-1.99,2.31-2.9,3.53-1.6,2.18-3.18,4.37-4.69,6.61-1.79,2.65-3.73,5.18-5.82,7.6-2.7,3.12-5.31,6.32-7.97,9.47-.53.64-1.11,1.24-1.66,1.86-.16.18-.36.36-.44.58-.3.8-.87,1.42-1.4,2.06-1.59,1.94-3.17,3.88-4.82,5.77-1.37,1.56-2.66,3.15-3.62,5-.39.74-.9,1.4-1.55,1.95-.34.28-.65.6-.94.94-.64.75-1.15,1.57-1.36,2.5.38.57.89.54,1.36.38.88-.29,1.75-.64,2.62-.97.64-.24,1.27-.55,1.93-.73,1.28-.36,2.52-.8,3.76-1.27,1.63-.62,3.15-1.36,4.26-2.69.79-.16,1.41.15,2,.51.83.5,1.64.5,2.53.11.96-.41,1.87-.88,2.62-1.62,1.85-1.82,4-3.35,5.46-5.56.46-.69,1.17-1.05,2.02-1,.59.03,1.19.03,1.75.18.77.22,1.46.09,2.13-.27.3-.16.6-.33.89-.52,1.68-1.13,3.18-2.48,4.44-4.06.98-1.23,2.07-2.37,2.81-3.78.28-.53.78-.73,1.36-.71.29.01.61.02.87.12,1.31.49,2.41.02,3.43-.75,1.03-.77,1.92-1.68,2.75-2.66,1.31-1.53,2.61-3.07,3.97-4.56.87-.96,1.61-1.98,1.94-3.25.02-.08.13-.14.21-.22.53-.21,1.06-.15,1.58.02.87.28,1.64.05,2.39-.39.65-.38,1.21-.85,1.64-1.46.6-.84,1.2-1.68,1.74-2.56,1.45-2.34,2.96-4.64,4.72-6.76.75-.91,1.37-1.91,2.08-2.86.35-.47.74-.91,1.12-1.36.72-.83,1.59-.85,2.54-.46.88.37,1.61.95,2.25,1.63,1.71,1.84,3.35,3.73,4.76,5.81.39.57.8,1.12,1.19,1.69,2.18,3.21,4.39,6.4,6.52,9.65,1.53,2.34,2.97,4.75,4.42,7.14.46.75.92,1.52,1.23,2.34,1,2.61,1.95,5.25,2.9,7.88.07.19.23.54.39,1.31-.3-.35-1.2-1.34-1.53-1.7-1.15-1.29-2.39-2.48-3.8-3.47-.56-.39-1.19-.68-1.8-.97-.8-.38-1.63-.39-2.41.05-.53.29-1,.25-1.55.07-1.31-.41-2.63-.83-3.97-1.12-1.58-.34-3.12-.22-4.5.75-.22.15-.54.23-.81.24-1.71.03-3.16.78-4.41,1.81-.98.81-1.97,1.43-3.19,1.71-.53.12-1.04.31-1.56.43-1.1.26-2.21.5-3.34.16-.16-.05-.36.03-.71.07.27.33.43.56.63.74.71.68,1.48,1.29,2.14,2.02.96,1.06,2.07,1.94,3.19,2.84,3.02,2.42,6.56,3.25,10.31,3.43,1.86.09,3.73.03,5.59.05,3.15.03,6.27.21,9.34,1.06,1.92.53,3.7,1.3,5.43,2.24.56.3.89.74,1.05,1.34.17.62.36,1.23.54,1.84.56,1.83,1.15,3.66,1.66,5.5.47,1.7.86,3.43,1.25,5.15.85,3.74,1.67,7.48,2.08,11.29.18,1.71.38,3.42.49,5.13.15,2.35.28,4.71.33,7.07.07,3.39.13,6.78.07,10.17-.05,2.8-.25,5.59-.4,8.39-.14,2.6-.29,5.2-.47,7.8-.13,1.91-.29,3.82-.46,5.73-.15,1.71-.34,3.42-.5,5.13-.04.42,0,.84,0,1.26.41.12.42-.47.48-.73.09-.48.13-.97.19-1.46.28-2.19.58-4.38.83-6.57.16-1.41.23-2.84.33-4.26.26-3.67.6-7.35.75-11.03.17-4.37.3-8.74.17-13.11-.12-3.83-.32-7.65-.67-11.47-.33-3.58-.97-7.1-1.71-10.61-.77-3.65-1.6-7.29-2.76-10.84-1.43-4.39-2.78-8.8-4.25-13.18-1.17-3.49-2.43-6.96-3.73-10.4-1.53-4.04-3.03-8.1-4.76-12.06-2.54-5.81-4.88-11.7-7.03-17.66-.58-1.62-1.22-3.22-1.72-4.86-.99-3.24-1.95-6.49-2.84-9.76-.82-3.04-1.54-6.11-1.72-9.26-.17-2.99-.18-5.99-.26-8.98,0-.2.03-1.27.05-1.46.1-1.76.09-2.06.22-3.52.25-2.75.33-5.49.58-8.22.16-1.76.45-3.51.76-5.25.5-2.76,1.1-5.48,2.02-8.14.53-1.53.98-3.09,1.36-4.66.5-2.05.88-4.13,1.34-6.19,1.29-5.75,2.77-11.46,3.82-17.26.03-.15.17-.28.32-.51.18.81.28,1.49.49,2.14.16.49.74,1.78,1.35,2.56.06.33.06.65-.04,1-.24.8-.41,1.62-.61,2.43-.8,3.19-1.62,6.37-2.38,9.57-.16.69-.43,1.27-.84,1.84-1.96,2.72-3.19,5.74-3.65,9.06-.03.22-.2.54.22.71.26-.96.52-1.91.77-2.85.89-3.3,2.62-6.12,4.94-8.6.8-.85,1.74-1.45,2.84-1.82-.02.88.57,1.29,1.23,1.66.59-.69,1.35-1.08,2.2-1.34.79-.25,1.55-.59,2.33-.85.31-.1.65-.1,1.05-.05,1.24-1,2.67-1.14,4.17-1.04.37.02.64.21.82.54.12.21.25.41.4.65h1.32c-.8.77-1.61,1.48-2.35,2.25-1.53,1.6-2.65,3.52-3.87,5.35-.43.64-.88,1.09-1.64,1.34-1.3.42-2.57.97-3.84,1.46-.35.14-.7.27-1.24.48.13-.44.16-.73.29-.96.92-1.62,1.86-3.23,2.81-4.82.75-1.26,1.54-2.5,2.33-3.86-.16.05-.38.19-.52.38-1.29,1.79-2.63,3.56-3.82,5.41-.76,1.19-1.33,2.51-1.96,3.78-.18.35-.3.72-.69.92-1.52.78-3.04,1.58-4.53,2.35-.33-.22-.21-.46-.11-.67.23-.49.45-.98.72-1.45,1.85-3.12,3.64-6.29,5.82-9.21.12-.16.2-.33.24-.57-.85.87-1.73,1.75-2.41,2.75-1.47,2.14-2.87,4.33-4.23,6.53-.49.78-.84,1.66-1.16,2.53-.21.59-.46,1.07-1.06,1.31-.14.06-.25.18-.38.27.02.03.05.07.07.1.5-.15,1-.3,1.39-.42,1.34.69,2.53,1.38,3.78,1.92,2.69,1.17,5.38,2.39,8.36,2.64-.21-.11-.41-.27-.64-.34-3.35-1.03-6.49-2.54-9.61-4.08-.18-.09-.35-.18-.51-.29-.08-.05-.13-.14-.19-.22.73-.67,3.03-1.84,4.67-2.4,1.59.81,3.08,1.69,4.65,2.35,2.76,1.17,5.62,2.07,8.55,2.7.72.16,1.44.23,2.46.08-5.18-1.45-10.09-2.82-14.49-5.38-.07-.46.23-.52.43-.6,1.51-.59,3.02-1.16,4.53-1.75.49-.19.92-.18,1.41.06,3.63,1.72,7.55,2.46,11.45,3.22,1,.19,2.06.14,3.08.2.18,0,.36.02.57.04-.4.8-1.2,1.62-2.11,2.21-.84.54-1.75.88-2.72.84-.37.45-.69.88-1.05,1.24-1.13,1.13-2.63,1.44-4.12,1.69-1.55.27-3.12.29-4.7.09-.52-.07-1.07-.26-1.63.33-.15.48-.24.74-.3.96-1.75.4-3.4.2-5.04-.04-2.23-.32-4.4-.88-6.52-1.62-.4-.14-1.36-.49-1.78-.57h0c-.08-.03-.17-.06-.25-.09-.49,1.07-.6,2.15-.73,3.21-.37,2.87-.64,5.76-.97,8.64-.31,2.69-.47,5.38-.43,8.09.03,2.01.06,4.03.13,6.04.12,3.74.45,7.45,1.42,11.08.2.76.3,1.54.43,2.32.17.97.28,1.95.5,2.9.49,2.06,1.01,4.1,1.56,6.14.27.99.58,1.98.95,2.94.42,1.1.92,2.17,1.41,3.24.09.2.27.35.47.61.21-.36.37-.61.49-.87.39-.84.76-1.7,1.16-2.55,1.98-4.12,4.58-7.78,8-10.84.84-.75,1.74-1.43,2.61-2.16.94-.79,1.49-1.83,1.71-3.02.24-1.3.4-2.62.58-3.93.1-.68.12-1.37.26-2.04.41-1.87,1.58-2.71,3.68-2.63-.12,1.12-.25,2.22-.35,3.34-.1,1.16.27,2.33.07,3.51-1.48,1.1-2.71,2.39-3.94,3.72.21.02.39-.02.53-.12,1.41-.96,2.68-2.12,4.1-3.08,1.35-.92,2.71-1.76,4.26-2.28.22-.07.46-.11.72-.17.12.22.22.39.29.57,1.14,2.77,2.26,5.55,3.42,8.31,1.2,2.86,2.49,5.67,4.22,8.25.74,1.1,1.48,2.2,2.22,3.31.15.22.27.47.41.71-.41-.06-.66-.26-.92-.45-.56-.41-1.14-.83-1.86-.8-.95.05-1.58-.45-2.14-1.1-.23-.26-.44-.53-.65-.8-1.58-2.13-3.14-4.28-5.08-6.11-.31-.29-.48-.72-.69-1.11-.93-1.73-1.85-3.47-2.78-5.19-.12-.22-.23-.49-.73-.52.86,1.67,1.66,3.21,2.31,5.03-.37-.14-.59-.21-.8-.29-1.18-.48-2.35-1.01-3.55-1.42-1.47-.5-2.87-.4-4.14.69-1.31,1.12-2.56,2.29-3.69,3.59-3.76,4.29-5.81,8.18-7.9,14.05-.22.62-.03,1.94.23,2.56.77,1.86,1.4,3.78,2.29,5.58,2.03,4.1,3.77,8.32,5.64,12.49,2.32,5.16,4.23,10.48,6.06,15.82,1.88,5.48,3.3,11.11,4.72,16.72.83,3.28,1.53,6.6,2.19,9.93.32,1.59.37,3.22.61,4.82.38,2.53.7,5.06.83,7.62.07,1.42.23,2.84.35,4.26.14,1.67.35,3.32.41,4.99.08,2.36.06,4.72.06,7.07,0,3.54.02,7.08-.06,10.62-.06,2.75-.18,5.5-.37,8.24-.15,2.06-.45,4.1-.72,6.14-.22,1.66-.47,3.31-.29,4.99.02.15-.04.42.34.37.05-.16.14-.33.17-.52.23-1.55.45-3.11.66-4.67.2-1.41.45-2.82.57-4.24.38-4.5.63-9.02.56-13.54-.03-2.02,0-4.03.02-6.05.06-4.96.04-9.93-.62-14.86-.08-.58-.14-1.17-.16-1.76-.08-4.34-.8-8.61-1.43-12.88-.76-5.1-2.09-10.09-3.46-15.07-.8-2.89-1.6-5.77-2.42-8.65-.15-.54-.19-1.06-.03-1.59.63-2.07,1.73-3.84,3.46-5.19.87-.68,1.83-1.12,2.98-1.1.43,0,.92-.02,1.29-.2,1.55-.76,3.08-1.58,4.05-3.08.49-.76,1.17-1.32,1.86-1.88.18-.14.47-.29.65-.24.82.23,1.32-.25,1.78-.77.42-.48.77-1.02,1.17-1.51.67-.83,1.43-1.48,2.62-1.31.45.06.9-.1,1.23-.41,1.14-1.08,2.45-1.98,3.33-3.32.65-1,1.41-1.89,2.34-2.63.64-.5.95-1.15.74-1.94-.21-.78-.03-1.45.36-2.11.3-.51.59-1.02.86-1.54.5-.95,1-1.91,1.49-2.87.12-.22.17-.46-.15-.74-.25.1-.58.19-.85.36-.54.34-1.03.76-1.56,1.11-1.85,1.19-3.81,1.79-6.01,1.02-.55-.19-1.07-.13-1.45.39-.48.66-1.16.88-1.94.84-.88-.04-1.77-.07-2.65-.15-.9-.08-1.78-.06-2.57.43-.88.55-1.78,1.06-2.58,1.7-1.11.9-2.37,1.37-3.74,1.62-1.05.19-1.93.69-2.74,1.35-.3.24-.6.48-.91.72-.16-.14-.28-.22-.37-.33-.09-.11-.14-.26-.23-.37-.38-.46-.82-.5-1.27-.11-.25.23-.47.5-.68.77-.67.86-1.17,1.82-1.55,2.84-.6,1.61-1.18,3.23-1.78,4.84-.4,1.06-.69,2.15-.84,3.27-.02.15.05.42-.29.38-.07-.11-.17-.23-.22-.36-1.57-3.71-3.1-7.43-4.7-11.13-1.15-2.66-2.42-5.26-3.6-7.91-.94-2.11-1.79-4.25-2.72-6.37-.38-.87-.35-1.67-.04-2.55,1.74-4.97,4.25-9.49,7.7-13.49,1.23-1.42,2.58-2.69,4.1-3.8.27-.2.57-.36.86-.53,2.06.48,3.97,1.27,5.86,2.08.44.19.88.47,1.21.81,1.56,1.63,3.18,3.2,4.46,5.09.71,1.05,1.58,2,2.4,2.98.53.63,1.24,1.01,2.06,1,.92-.01,1.59.41,2.21,1,.96.92,1.91,1.84,2.85,2.78,2.01,2.01,4.4,3.43,7.02,4.49.89.36,1.76.55,2.68.03.54-.3,1.11-.22,1.68.1,2.25,1.25,4.68,2.02,7.12,2.77,2.01.62,4.03.88,6.05.06.05-.02.1-.02.14-.04.77-.26,1.52-.21,2.31-.02,3.5.8,6.9,1.94,10.3,3.07.67.22,1.31.37,2.01.3.54-.05,1.09-.05,1.61-.17.76-.17,1.44-.07,2.12.32,1.54.87,3.09,1.72,4.64,2.57,2.41,1.32,4.8,2.7,7.25,3.94,1.17.6,2.46.96,3.71,1.39.32.11.68.14,1.01.13.48-.02.76-.52.57-.97-.09-.22-.24-.43-.35-.64-.4-.73-.84-1.44-1.18-2.2-.59-1.3-1.2-2.58-2.18-3.65-.3-.33-.49-.72-.48-1.2.04-1.48-.5-2.79-1.3-4-.72-1.11-1.46-2.21-2.27-3.27-.46-.59-.64-1.19-.54-1.91.03-.24.03-.49.1-.73.21-.76-.09-1.36-.58-1.87-.44-.46-.9-.92-1.41-1.29-1.36-.99-2.24-2.32-2.83-3.87-.53-1.41-1.43-2.55-2.52-3.58-2.54-2.39-5.06-4.8-7.4-7.39-.32-.36-.67-.53-1.14-.58-1.05-.12-1.93-.59-2.76-1.27-1.44-1.18-2.7-2.57-4.25-3.64-2.14-1.49-4.18-3.1-6.26-4.66-.56-.42-1.16-.73-1.88-.78-.88-.06-1.76-.17-2.64-.18-.76,0-1.45-.16-2.13-.48-.75-.36-1.51-.71-2.29-1-1.35-.49-2.61-1.14-3.85-1.84-1.2-.68-2.45-1.26-3.7-1.83-.53-.24-1.11-.43-1.69-.5-1.81-.24-3.63-.22-5.43.12-1.75.33-3.41.94-5.02,1.67-1.46.67-2.99.96-4.58.9-.88-.03-1.77-.09-2.65-.08-.73,0-1.49,0-2.19.18-1.66.44-3.29.98-4.93,1.51-1.11.36-1.83,1.13-2.13,2.25-.13.47-.23.96-.29,1.44-.09.73-.12,1.47-.18,2.2-.04.49-.05.96-.35,1.41-.18.27-.21.64-.27.97-.06.29-.02.6-.09.88-.3,1.26-.76,2.37-1.97,3.12-1.51.93-2.79,2.18-3.99,3.47-2.81,3.02-5.04,6.4-6.46,10.29-.14.37-.13.7-.64,1.49-.26-.6-.66-1.54-.84-2.14-.58-1.93-1.18-3.85-1.66-5.81-.8-3.29-1.51-6.6-2.28-9.9-.66-2.83-1.04-5.71-1.16-8.6-.13-3.29-.12-6.58-.11-9.88,0-1.37.14-2.75.25-4.11.21-2.45.45-4.89.68-7.34.13-1.47.25-2.94.37-4.41.03-.34.11-.68.16-1.02.02-.15.08-.25.17-.31,2.3,1.26,5.31,1.99,7.78,2.43,1.59.29,3.19.48,4.83.19.87-.15,1.5-.4,1.7-1.32.02-.07.14-.11.13-.11,1.06,0,2.04-.02,3.02,0,1.89.05,3.71-.25,5.45-1.01.54-.24,1.12-.44,1.56-.8.4-.32.64-.84.97-1.3,1.76-.24,3.14-1.21,4.43-2.4,1.71-1.58,3.12-3.39,4.49-5.26.54-.74,1.27-1.39,1.32-2.41,0-.13.14-.25.23-.37,1.12-1.43,1.98-3.05,3.32-4.31.19-.18.25-.49.4-.8-.4-.16-.7-.3-1.02-.41-1.65-.55-3.36-.63-5.12-.58-.35-.71-.98-1-1.64-1.21-.7-.22-1.41-.43-2.13-.55-1.7-.28-3.41-.38-5.14-.28-.32.02-.67.13-.97-.24.93-2.68,1.92-5.35,2-8.35.99-.4,1.1-1.32.95-2.2-.21-1.22.03-2.32.38-3.46.22-.74.25-1.54.42-2.31.29-1.34-.92-2.35-.79-3.65,0-.08-.07-.18-.13-.26-.17-.24-.36-.47-.51-.72-.82-1.38-1.93-2.44-3.38-3.18-.69-.35-1.3-.88-1.88-1.4-.4-.35-.7-.82-1.01-1.26-.58-.83-1.31-1.43-2.25-1.83-.78-.34-1.53-.76-2.29-1.15.45-.76.75-1.92.96-2.6.49-1.54,1.24-3,1.4-4.64.05-.49.41-.76.75-1.04,2.53-2.21,5.28-4.08,8.24-5.66,1.65-.88,3.38-1.56,5.18-2.11,2.06-.63,4.11-.91,6.24-.5,1.83.36,3.69.66,5.33,1.62,1.61.94,3.18,1.96,4.76,2.94,1.96,1.22,3.91,2.45,5.87,3.67,1.11.69,2.19.95,3.08-.35.88.19,1.6.61,2.36.96,1.16.54,2.32,1.08,3.49,1.57.35.15.76.23,1.14.23.65,0,1.05-.51.97-1.17-.04-.28-.2-.56.07-.89.14,0,.33,0,.5.06h0Zm-48.4,155.97c.19.7.45,1.38.74,2.23-.31-.1-.48-.13-.63-.21-1.48-.78-2.82-1.75-4.07-2.86-1.87-1.66-3.82-3.22-5.74-4.83.23.94,1.1,1.59,1.87,2.33.95.91,1.95,1.78,2.92,2.67.2.18.35.41.61.72-2.06-.36-3.98-.69-6.06-1.04-1.8-1.41-3.75-2.95-5.71-4.47-.31-.24-.65-.43-.97-.65-.14.06-.1.23,0,.32,1.52,1.31,2.83,2.87,4.5,4.01.27.19.49.45.85.79-.3.09-.47.17-.64.18-.69.02-1.37,0-2.06,0-.9,0-1.73-.23-2.57-.56-2.24-.88-4.36-2.01-6.35-3.39-.24.34.06.45.2.57,1.27,1.1,2.72,1.92,4.16,2.77.16.1.33.17.5.25-.06.12-.07.19-.1.2-1.32.31-2.63.34-3.86-.29-1.17-.61-2.3-1.31-3.46-1.95-.28-.15-.5-.5-.97-.29.7.84,1.75,1.21,2.55,2.04-1.51-.23-3.04-.84-4.42-1.74-1.92-1.24-4.23-2.94-4.95-4.02.23,0,1.57.64,1.71.7.86.35,1.75.61,2.61.95.97.39,2.07.55,3.17.41.52-.06.98-.26,1.23-.71.22-.41.56-.53.95-.58.53-.06,1.08-.08,1.61-.1,1.22-.05,2.45.13,3.66-.19.44-.12.72.24,1.06.41.01-.17-.19-.38-.39-.59v-1.8c.63-.06,1.19.07,1.74.24,1.49.47,2.96.96,4.45,1.42.63.19,1.08.64,1.58,1.03.58-.24.97-.57,1.36-.91.82-.13,1.54.14,2.23.54,1.84,1.06,3.39,2.49,4.93,3.94.25.23.47.5.71.75.49.5.86,1.05,1.04,1.74h0Zm-.96-2.57c-1.18-1.1-2.15-2.07-3.19-2.96-.66-.57-1.41-1.05-2.14-1.55-.28-.19-.6-.33-.92-.46-1.16-.45-1.82-.33-2.76.41-1.9-.64-3.75-1.29-5.62-1.86-.84-.26-1.72-.41-2.59-.55-.54-.09-.82.22-.78.79.02.34.09.67.13.97-.38.5-.88.49-1.37.49-1.08.02-2.16.01-3.24.05-.44.02-.88.08-1.3.19-.27.07-.61.21-.74.42-.53.82-1.28.78-2.08.65-.05,0-.1-.02-.14-.03-1.54-.49-3.08-.98-4.61-1.49-.22-.07-.72-.15-.94-.27-1.16-.49.72-.47.97-.54.99-.29,1.97-.59,2.97-.85.78-.21,1.46-.58,1.99-1.18.92-1.03,2.15-1.55,3.4-1.96.62-.2,1.35-.09,2.09-.13,1.07-1.28,2.57-1.37,4.1-1.08,1.3.25,2.57.66,3.82,1.07.77.25,1.48.44,2.25-.04.48-.3,1.04-.28,1.55-.02.65.33,1.33.63,1.93,1.05,1.72,1.23,3.23,2.71,4.69,4.23.52.61.91,1.04,1.28,1.51.69.86.89,1.91,1.25,3.14Zm-10.83-28.3c1.18,2.75,2.35,5.51,3.52,8.27.07.17.1.36.02.63-.14-.15-.29-.29-.41-.46-.22-.33-.43-.66-.62-1-1.24-2.24-2.6-4.4-4.07-6.49-1.7-2.41-3.34-4.86-5-7.29-1.47-2.16-3.16-4.14-4.95-6.03-1.03-1.09-2.2-1.94-3.74-2.19-.64-.1-1.17-.01-1.67.36-.67.5-1.26,1.08-1.75,1.77-1,1.39-2.08,2.74-3.06,4.14-1.3,1.85-2.54,3.73-3.81,5.6-.55.81-1.04,1.67-1.64,2.44-.38.49-.88.92-1.38,1.3-.57.45-1.24.52-1.96.37-.52-.11-1.07-.19-1.59-.16-.69.04-1.21.39-1.36,1.13-.19.96-.76,1.68-1.39,2.39-1.47,1.66-2.91,3.33-4.36,5-.81.93-1.66,1.81-2.67,2.53-.76.54-1.55.84-2.48.48-.22-.09-.48-.11-.72-.15-1.08-.15-1.9.25-2.53,1.14-.82,1.16-1.68,2.29-2.54,3.43-1.01,1.35-2.27,2.44-3.56,3.51-.45.37-.97.67-1.47.98-.56.35-1.14.45-1.82.28-.65-.17-1.36-.15-2.04-.18-1.07-.05-1.95.41-2.52,1.27-1.38,2.09-3.39,3.54-5.12,5.27-.78.77-1.7,1.31-2.72,1.71-.54.21-1.03.19-1.55-.07-.52-.26-1.07-.5-1.64-.63-.65-.15-1.26-.03-1.71.57-.78,1.02-1.91,1.53-3.05,1.98-1.46.57-2.9,1.2-4.44,1.54-.61.13-1.18.47-1.78.71-.77.31-1.54.62-2.27.92-.34-.28-.14-.53-.03-.69.34-.47.69-.96,1.12-1.35.98-.92,1.78-1.96,2.39-3.15.65-1.27,1.51-2.41,2.48-3.47,2.67-2.89,5.09-5.99,7.5-9.09.42-.54.91-1.03,1.42-1.48,1.71-1.55,3.45-3.06,5.36-4.38-.58-.17-1,.28-1.51.57-.49.29-.96.62-1.46.95-.19-.44.12-.61.28-.8,1.47-1.72,2.95-3.42,4.42-5.13.29-.33.61-.65.87-1,1.7-2.31,4.03-3.84,6.44-5.27.28-.17.55-.34.79-.58-1.24.13-2.17.97-3.35,1.54.04-.23.02-.38.09-.48,2.33-3.28,4.68-6.55,6.99-9.84.57-.81,1.27-1.27,2.23-1.51,1.67-.41,3.3-.94,4.95-1.42,1.09-.32,2.21-.42,3.35-.38.22,0,.45.1.88.21-.41.22-.61.34-.82.44-.75.36-1.5.72-2.26,1.08-1.4.66-2.58,1.6-3.57,2.79-1.1,1.31-2.21,2.63-3.31,3.95-.76.9-1.46,1.83-2.42,2.55-.54.4-.95.99-1.4,1.5-.81.92-1.66,1.82-2.42,2.77-1.63,2.03-3.27,4.09-5.32,5.7-.35.27-.58.44-.82.69,0,0,0,.01,0,.02-.09.09-.18.18-.27.28-.26.28-.34.34-.6.62-.02.02-.22.22-.24.24-.1.12-.18.24-.27.33-2.66,2.58-4.76,5.62-6.87,8.64-1.23,1.77-2.4,3.6-3.59,5.4-.25.39-.48.8-.55,1.32.26-.33.53-.65.78-.98,2.34-3.15,4.64-6.35,7.04-9.46,1.26-1.63,2.71-3.11,4.08-4.65.03-.04.06-.08.1-.1,1.17-.6,1.84-1.72,2.7-2.64.84-.9,1.64-1.83,2.46-2.74,1.65-1.82,3.29-3.65,4.94-5.47.23-.25.48-.49.75-.7.06-.04.17,0,.28.02-.16.49-.38,1.63-.46,1.99-.37,1.78-.71,3.55-1.05,5.34-.54,2.85-.92,5.71-.79,8.63.02.39.04.78.12,1.16.03.14.22.25.51.53.2-1.17.23-2.13.22-3.1-.01-.69-.06-1.38,0-2.06.34-3.59,1.35-9.4,2.06-13.09,1.53-2.38,3.39-4.51,5.25-6.64.68-.78,1.48-1.43,2.42-1.88,1.23-.59,2.5-1.12,3.73-1.7.52-.24,1.09-.07,1.63-.4.48-.29,1.12-.29,1.69-.45.52-.14,1.02-.33,1.54-.5.56-.18,1.11-.4,1.68-.54,1-.24,2.01-.44,3.02-.61.03,0,.06,0,.09,0,.37-.1.75-.16,1.14-.2.08-.02.13-.03.18-.04,2.15-.34,4.1-1.24,6.18-1.82.08-.02.19.02.33.05-.02.12,0,.26-.06.37-1.57,3.12-2.87,6.35-4.12,9.6-.22.57-.57,1.16-.25,1.94.2-.17.42-.27.5-.45.22-.49.39-1,.58-1.51.99-2.67,1.97-5.34,2.96-8.01.19-.5.42-.99.65-1.48.26-.57.68-.93,1.33-1.03.77-.12,1.55-.28,2.32-.42.18-.03.36-.07.53-.19-.72-.26-1.43-.14-2.14-.06-1.67.19-3.25.7-4.84,1.18-1.17.36-2.35.69-3.54.99-.01,0-.03,0-.04,0-.09,0-.14.02-.19.02-.73.12-1.38.25-2.12.32-.13.04-.26.07-.39.1-1.59.29-3.15.73-4.67,1.28-.5.18-1.04.29-1.55.45-1.14.34-2.26.46-3.46.13-.94-.26-1.95-.22-2.92.02-1.19.3-2.36.65-3.54.98-.79.22-1.57.53-2.54.59.18-.3.28-.51.43-.68.97-1.11,2.07-2.09,3.34-2.86.33-.2.68-.39,1-.61,1.41-1,2.97-1.35,4.69-1.4,2.47-.08,4.89.04,7.27.77.28.09.58.1.87.14-1.87-1.09-4.17-1.48-6.56-1.51-.44,0-.88.02-1.32.02-.04,0-.09-.04-.25-.11.23-.14.39-.28.57-.32.38-.08.77-.14,1.16-.15,2.36-.01,4.72-.06,7.07.22,1.09.13,2.15.03,3.21-.22,1-.24,1.97-.64,3.03-.56.14,0,.32-.03.41-.12.73-.66,1.69-.75,2.57-1.02.84-.25,1.71-.44,2.58-.6,1.59-.29,3.06-.06,4.54.72,4.79,2.51,8.15,6.36,10.78,10.98,1.36,2.39,2.86,4.7,4.29,7.04.18.29.39.57.52.88h0Zm-33.05-37.25c-3.14-.84-6.3-1.52-9.53-1.91-.64-.08-1.05-.32-1.42-.87-2.39-3.56-5.12-6.85-8.04-9.98-2.28-2.44-4.65-4.8-7.38-6.76-.24-.17-.5-.32-.75-.47.11.28.39.69.75,1.01,5.26,4.76,9.94,10.03,14.03,15.83.13.19.25.39.48.77-.63-.06-1.04-.1-1.46-.14-2.79-.26-5.52-.81-8.2-1.64-3.44-1.06-6.64-2.66-9.7-4.55-3.38-2.09-6.74-4.21-10.11-6.32-.45-.29-.93-.53-1.4-.8,0,.25.2.54.47.72,3.79,2.55,7.56,5.13,11.4,7.6,2.31,1.49,4.8,2.68,7.38,3.66.27.1.52.24.77.35-.09.33-.33.25-.5.25-1.77,0-3.54,0-5.31,0-1.14,0-2.24-.24-3.32-.57-6.08-1.86-11.97-4.13-17.35-7.58-.02.48.49.73.92,1.03,2.82,1.97,5.77,3.72,9,4.93,1.61.6,3.22,1.18,4.83,1.77.26.1.52.21.75.49-.66.02-1.31.04-1.97.08-2.36.12-4.7-.06-7.04-.37-.63-.08-1.25-.24-1.86-.41-1.65-.47-3.29-.96-4.93-1.47-2.56-.78-4.92-1.94-6.91-3.78-.36-.33-.75-.63-1.12-.95-.03-.03-.04-.09-.06-.14.03-.28.26-.24.44-.26.97-.09,1.95-.2,2.93-.25,1.18-.06,2.33-.26,3.45-.67.31-.12.66-.14.99-.21.4-.2.51-.45.7-.53.87-.38,1.23-1.07,1.34-1.96.09-.73.21-1.46.32-2.24.84-.63,1.81-.85,2.87-.74,1.55-.55,2.99-.74,4.45-.83.39-.02.77,0,1.08,0,.57-.39.74-.91.92-1.41.46-1.32,1.43-1.94,2.77-2.02.78-.05,1.57-.08,2.34,0,1.41.13,2.82.33,4.22.53.29.04.55.19.83.29.39-.21.64-.19.88-.17.95.08,1.57-.41,2.05-1.17.48-.75.86-1.53,1.11-2.4.28-.99.6-1.2,1.59-1.1,1.13.11,2.22.38,3.24.92.92.48,1.86.88,2.77,1.38.47.25.92.58,1.29.96,1.92,1.97,3.77,3.99,5.44,6.2,2.07,2.75,4.18,5.47,5.96,8.41.64,1.05,1.22,2.13,1.82,3.2.65,1.16,1.29,2.32,1.92,3.48.11.21.2.43.32.7-.2.05-.34.14-.46.1h0Zm24.12,12.21c.49,1.18.79,2.39,1.09,3.77-.31-.1-.49-.13-.64-.2-2.32-1.1-4.46-2.46-6.41-4.13-1.04-.89-2.11-1.76-3.19-2.61-.48-.38-.78-.83-.99-1.41-1.63-4.47-3.23-8.95-5.14-13.31-.24-.54-.42-1.11-.71-1.61-1.66-2.89-3.27-5.82-5.39-8.41-.99-1.21-2-2.42-3-3.63.74,1.35,1.71,2.77,2.66,4.19.71,1.06,1.4,2.14,2.09,3.21.11.17.18.35.29.51,2.96,4.42,4.57,9.44,6.44,14.35.37.96.73,1.93,1.08,2.9.11.31.2.62.29.91-.35.24-.53.02-.72-.1-1.77-1.16-3.5-2.37-5.3-3.48-1.17-.72-2.41-1.32-3.65-1.91-.75-.36-1.2-.86-1.58-1.62-2.48-4.98-5.22-9.8-8.78-14.11-.78-.95-1.52-1.94-2.32-2.86-.9-1.04-1.85-2.03-2.78-3.04-.22-.24-.43-.48-.71-.78,1.17.06,1.4-.04,1.85-.9.23-.43.38-.9.58-1.35.34-.77.69-.96,1.51-.75.97.24,1.82.73,2.65,1.27,1.56,1.02,3.12,2.06,4.68,3.08.41.26.77.63,1.33.53.48-.29.75-.51,1.05-.66.81-.4,1.57-.4,2.33.19,1.24.97,2.43,2.01,3.39,3.26,3.42,4.49,6.97,8.88,9.85,13.76,1.52,2.57,3.06,5.15,4.68,7.66,1.48,2.29,2.45,4.81,3.48,7.3h0Zm-1.7-6.2c-.22-.3-.46-.58-.65-.89-1.77-2.89-3.56-5.77-5.28-8.69-1.88-3.18-4.09-6.13-6.3-9.07-.83-1.1-1.64-2.21-2.48-3.3-1.26-1.65-2.7-3.1-4.31-4.41-1.16-.95-2.29-1-3.55-.39-.26.13-.51.28-.85.46-.85-.55-1.71-1.1-2.57-1.67-.82-.54-1.64-1.08-2.46-1.63-.82-.48-1.45-.87-2.11-1.18-.49-.22-1.02-.38-1.55-.45-.86-.12-1.52.29-1.89,1.09-.29.61-.44,1.3-.9,1.77-.17,0-.28.02-.35-.02-1.02-.69-2.13-1.22-3.26-1.7-.86-.37-1.68-.8-2.51-1.24-1.01-.53-2.09-.85-3.22-1.01-.39-.06-.79-.09-1.17-.05-.84.1-1.48.45-1.69,1.37-.21.92-.61,1.76-1.12,2.55-.36.54-.81.82-1.48.74-1.31-.16-2.64-.28-3.95-.46-1.37-.18-2.73-.28-4.11-.19-1.8.12-3.08.91-3.7,2.65-.06.18-.18.34-.27.52-.02.04-.07.07-.1.1-2.04.33-4.07.65-6.1,1-.58.1-1.14.28-1.7.46-.78.25-1.21.77-1.23,1.63-.01.59-.12,1.17-.19,1.75-.09.64-.45,1.03-1.04,1.31-1.9.91-3.9,1.27-5.98,1.21-.2-.32.03-.48.2-.62.43-.4.87-.79,1.34-1.16,1.01-.8,1.86-1.74,2.65-2.75,1.29-1.67,2.65-3.29,3.94-4.96.89-1.14,2.01-1.85,3.43-2.09,1.53-.26,2.88-.95,4.19-1.74.42-.25.82-.55,1.18-.87.7-.61.91-1.37.61-2.26-.09-.28-.2-.55-.33-.9.22-.23.42-.5.68-.71,2.52-2.07,5.49-2.75,8.67-2.73,1.23,0,2.45.18,3.68.14.87-.02,1.75-.2,2.6-.42.86-.23,1.01-.52,1-1.39,0-.29-.06-.58-.08-.84.98-.64,1.83-.83,2.93-.7,1.68.21,3.25.72,4.73,1.55.51.29,1,.64,1.55.86.58.24,1.2.45,1.82.53,1.04.14,1.42-.12,1.86-1.06.17-.36.28-.74.43-1.09.1-.22.24-.41.34-.59.72-.17,1.22.18,1.7.51,2.17,1.46,4.22,3.04,5.97,5,.56.62,1.14,1.23,1.65,1.89.51.65,1.01,1.33,1.39,2.07.34.65.79.97,1.5.96.2,0,.39,0,.59,0,1.78-.05,3.26.65,4.51,1.85.63.61,1.22,1.28,1.76,1.98,2.55,3.27,4.61,6.84,6.41,10.56.66,1.36,1.1,2.83,1.59,4.27,1.03,3.02,2.02,6.05,3.04,9.07.36,1.08.42,2.2.54,3.37h0Zm-10.99-67.66c.38-.05.42.24.56.42.75,1.03,1.48,2.07,2.25,3.09.45.6.63.67,1.37.35.58-.25,1.04-.14,1.51.19.61.43,1.16.91,1.55,1.55.4.67.8,1.35,1.2,2.02.39.46.71.49,1.06.36.39-.14.68.02.9.31.27.35.57.69.75,1.08.48,1.02.88,2.07,1.34,3.1.3.67.29,1.34.06,2.01-.88,2.65-1.77,5.29-2.67,7.94-.06.18-.17.35-.31.63-.2-.18-.41-.3-.5-.48-.82-1.56-1.62-3.13-2.43-4.7-.18-.33-.14-.65-.03-.99.33-1.08.64-2.16.97-3.23.56-1.84.86-3.72.97-5.63-.46.38-.5,1.19-.63,1.94-.37,2.09-1.04,4.08-1.67,6.09-.04.14-.13.25-.25.48-.23-.32-.45-.57-.6-.86-.46-.87-.87-1.76-1.35-2.61-.27-.47-.24-.94-.22-1.43.08-1.86.18-3.72.25-5.58.02-.39,0-.77-.08-1.17-.33,1.04-.43,2.12-.51,3.2-.08,1.09.12,2.21-.37,3.42-1.17-1.63-2.25-3.13-3.39-4.71.49-2.2.23-4.5.25-6.79h0Zm-4.61-3.51c.54.57,1.04,1.17,1.58,1.75.33.35.62.77,1.2.88.27-.2.57-.43.95-.72.17.31.41.55.42.79.05,2.1.1,4.21-.35,6.29,0,.04-.07.06-.15.12-.1-.05-.26-.07-.33-.16-1.07-1.28-2.12-2.57-3.17-3.86-.09-.11-.12-.26-.18-.4-.03-1.03-.02-1.82-.11-2.59-.09-.77-.28-1.53-.43-2.31.29-.21.43.06.57.21Zm-7.87-4.72c.92.82,2.01,1.37,3.09,1.95.55.29,1.01.21,1.5-.06,2.44,1.67,2.05,1.56,2.48,3.88.17.9.1,1.84.14,2.72-.41.17-.55-.06-.7-.24-.46-.51-.89-1.04-1.36-1.54-1.29-1.4-2.59-2.8-3.89-4.2-.73-.79-1.25-1.72-1.8-2.63.3-.23.41,0,.53.11h0Zm2.72,16.6c-.41-.99-.81-1.99-1.31-2.95-.66-1.26-1.13-2.61-1.25-4.04.28-.37.48-.78.97-.87-.4-.41-.73-.91-.84-1.66-.27-1.79-.67-3.56-1.01-5.34-.05-.28-.05-.58-.08-.87.38-.1.44.18.52.37.44.95,1.11,1.72,1.8,2.49,1.38,1.52,2.76,3.04,4.13,4.57.19.21.34.45.53.72-.38.29-.71.12-1.02.08-1.21-.16-2.42-.32-3.63-.47.1.5.64.47,1.09.58,1.29.32,2.58.61,3.89.83.67.12,1.18.4,1.63.9,1.05,1.17,1.97,2.43,2.88,3.62-.18.55-.57.49-.89.52-1.63.12-3.23-.05-4.84-.34-.87-.16-1.74-.27-2.61-.4-.04,0-.09.04-.13.06,1.94,1.08,5.35,1.52,9.08,1.15.54.38.89.98,1.3,1.52.45.58.88,1.19,1.26,1.82.34.57.88,1.05.96,1.82-.8.11-1.52.02-2.24-.13-2.83-.6-5.66-1.23-8.5-1.81-.61-.12-.97-.41-1.19-.95-.16-.4-.32-.81-.49-1.22h0Zm5.86,13.08c.13-.28.26-.57.41-.91-1.22-1.01-2.23-2.21-3.1-3.51-1.08-1.63-2.26-3.21-2.93-5.09-.19-.66.18-.77.45-.97.31-.21.62-.24.98-.13,1.36.41,2.73.81,4.1,1.21,2.17.63,4.36,1.2,6.64,1.25.24,0,.48.09.74.14.57.63.82,1.44,1.19,2.19.33.69.83,1.32,1.02,2.15-1.37.18-2.54-.29-3.74-.44-1.17-.14-2.33-.37-3.48-.58-1.19-.22-2.37-.53-3.82-.69,1.03.55,4.57,1.63,5.79,1.81,1.94.28,3.89.55,5.88.83.74,1.42,1.46,2.8,2.16,4.15-.23.42-.55.29-.81.25-.68-.1-1.36-.22-2.03-.37-2.2-.51-4.39-1.04-6.59-1.56-.23-.05-.46-.06-.75.07.18.1.35.24.55.3,3.11.92,6.18,1.97,9.42,2.3.64.06,1.1.29,1.43.87.77,1.36,1.62,2.68,2.34,4.21-6.11-.85-11.33-3.31-15.84-7.48h0Zm18.92.68c-.64,2.35-1.38,4.41-2.25,6.8-.21-.37-.29-.55-.4-.72-.81-1.39-1.63-2.79-2.47-4.22,1.46-3.07,2.16-6.34,3.14-9.59.15-.79.31.04.34.14.64,1.8,1.33,3.67,1.69,5.57.14.7.14,1.36-.06,2.03h0Zm23.53,105.64c-.21.33-.42.43-.47.16-.12-.61.17-1.07.86-1.59-.17.63-.28,1.03-.39,1.43Zm26.94-24.22c-.09.43-.08.88-.1,1.31-.02.39,0,.77,0,1.21-1.22.99-2.19,2.21-3.15,3.46-.8,1.04-1.86,1.88-2.83,2.79-.33.31-.75.45-1.23.39-.98-.11-1.71.36-2.33,1.04-.46.51-.85,1.08-1.27,1.62-.43.56-.87,1.05-1.71.89-.25-.05-.58.11-.8.28-.79.58-1.56,1.19-2.11,2.03-.92,1.42-2.38,2.17-3.81,2.94-.2.11-.48.14-.72.13-1.23-.06-2.33.3-3.33.98-.07.05-.18.04-.28.06-.17-.29.08-.44.22-.61,1.09-1.34,2.29-2.58,3.72-3.55,2.07-1.4,4.16-2.8,6.28-4.13,2.17-1.36,4.29-2.78,6.2-4.49,1.61-1.44,3.12-3,4.67-4.5,1.1-1.04,3.19-3.63,4.22-4.67-.14.35-1.56,2.45-1.64,2.81h0Zm-30.08,15.75c.23-1.05.42-2.12.77-3.13.68-1.94,1.45-3.86,2.18-5.78.39-1.01.88-1.97,1.54-2.84.15-.2.26-.42.45-.73.3.39.44.57.58.75.5.65,1.21.78,1.74.2,1.04-1.15,2.42-1.41,3.81-1.7.18-.04.38.02.58.02.12,0,.12.36.29.12.62-.85,1.61-1.23,2.41-1.87.76-.61,1.59-1.16,2.46-1.61.67-.35,1.43-.72,2.18-.09.41-.12.8-.11,1.2-.1.59.01,1.18,0,1.76,0,.73,0,1.34-.25,1.84-.78.1-.11.19-.26.31-.3.21-.06.45-.13.65-.07,0,0,.01,0,.02,0,0,0,0,0,0,0,0,0,0,0,.02,0,0,0,.02,0,.03.01.04.03.09.05.14.07.02,0,.04.02.06.03-.02,0,.03.01.04.02.09.03.18.06.27.09.1.03.19.06.29.07.76-.03,1.55,0,2.3-.14.8-.14,2.87-1.14,4.07-1.99-2.76,3.11-6.33,6.7-9.04,8.96-.34-.22-.18-.46-.11-.65.7-1.82,1.42-3.63,2.13-5.45-.45-.04-.58.42-.78.79-.93,1.73-1.8,3.49-2.35,5.39-.26.91-.71,1.58-1.48,2.1-.89.6-1.76,1.25-2.64,1.87-.19.14-.41.23-.65.37-.12-1.51.51-4.63,2-9.92-.25.34-.6.88-.8,1.47-.91,2.55-1.55,5.16-2.04,7.82-.07.38-.08.78-.12,1.27-.56.37-1.17.76-1.77,1.18-1.45,1.01-2.89,2.02-4.32,3.04-1.36.98-2.56,2.15-3.56,3.49-1.26,1.69-2.45,3.43-3.68,5.14-.08.12-.18.22-.35.43-.14-.22-.3-.38-.37-.57-.61-1.65-1.2-3.32-1.83-4.97-.25-.66-.38-1.32-.23-2.01h0Zm36.74-25.68c-.99-.42-2.02-.8-2.94-1.35-.84-.5-1.63-.61-2.53-.33-.23.07-.47.14-.63.19-2.09-.55-3.92-1.48-5.69-2.56-.72-.44-1.37-.96-1.86-1.64-2.38-3.31-4.82-6.58-6.83-10.13-.82-1.45-1.48-2.99-2.19-4.5-1.35-2.89-2.69-5.78-4.02-8.68-.14-.31-.25-.62-.42-1.02.29-.15.53-.28.78-.41,3.21-.99,6.13-.59,9.09.27.1.23.22.44.31.66.76,1.86,1.45,3.75,2.28,5.58.54,1.2,1.21,2.36,1.93,3.47,1.57,2.43,3.29,4.77,5.19,6.96.45.52.89,1.05,1.38,1.53,1.6,1.55,2.93,3.32,3.9,5.32,1.08,2.22,2.42,4.26,3.74,6.33.15.23.27.47.45.8-.77-.02-1.37-.25-1.94-.49h0Zm13.41,1.36c-1.74-.63-3.45-.56-5.16.14-.89.36-1.83.35-2.76.14-.91-.2-1.8-.45-2.72-.68-.12-.52-.02-1.03-.4-1.41-.23-.24-.37-.58-.56-.86-1.23-1.83-2.37-3.71-3.38-5.69s-2.33-3.74-3.89-5.34c-2.68-2.75-4.98-5.82-7.1-9.01-.76-1.15-1.38-2.37-1.9-3.65-.53-1.32-1.19-2.58-1.78-3.88-.13-.29-.21-.61-.35-1.07,1.08.17,1.89.59,2.71.98,1.1.53,2.16,1.19,3.3,1.6,1.43.52,2.77,1.24,4.17,1.82,1.1.49,1.99.9,2.9,1.28.49.2.74.55.96,1.03.85,1.87,1.77,3.72,2.65,5.58.58,1.22,1.56,2.14,2.42,3.14,2.63,3.05,5.06,6.25,7.33,9.58,1.38,2.02,2.72,4.07,4.16,6.25-.32.02-.5.08-.64.03h0Zm27.73,10.23c-2.3-1-4.49-2.21-6.46-3.31-.59-1.18-1.02-2.17-1.56-3.09-1.14-1.95-2.26-3.91-3.12-6.01-.05-.13-.16-.24-.38-.57.05.43.04.64.1.82.57,1.73,1.38,3.36,2.27,4.95.41.73.8,1.46,1.19,2.21.1.19.13.42.26.86-.46-.21-.72-.31-.95-.44-1.29-.71-2.58-1.42-3.86-2.14-.88-.5-1.76-.77-2.81-.52-.66.16-1.36.14-2.05.15-.42,0-.73-.2-.91-.61-.93-2.21-1.94-4.4-2.73-6.68-.8-2.32-1.69-4.61-2.68-6.86-.59-1.34-1.43-2.57-2.15-3.85,0,.37.16.83.38,1.27.95,1.83,1.77,3.73,2.45,5.68.57,1.62,1.1,3.26,1.71,4.86.56,1.47,1.19,2.91,1.79,4.36.15.36.32.7.54,1.19-1.42-.02-2.54-.68-3.74-1-1.18-.33-2.35-.72-3.55-1.09-.41-1.17-1.12-2.17-1.8-3.18-1.84-2.73-3.64-5.49-5.59-8.14-1.72-2.33-3.64-4.51-5.44-6.78-.52-.65-.99-1.34-1.43-2.04-.57-.92-1.08-1.87-1.6-2.82-.35-.64-.68-1.29-.99-1.9.33-.4.62-.21.87-.11,1.44.62,2.92,1.17,4.31,1.9,3.08,1.63,6.13,3.33,9.17,5.03.9.5,1.81,1.02,2.3,1.99.18,0,.22-.13.29-.35.3.14.57.24.81.38,2.04,1.18,4.12,2.3,6.1,3.58,2.36,1.52,4.39,3.43,6.31,5.5,2.22,2.39,3.96,5.13,5.73,7.83,2.21,3.37,4.97,6.04,7.97,8.67.07.06.25.26.53.43.03.02.85.49,1.28.82-.33-.11-2.24-.84-2.54-.97h0Zm-20.3-34.27c.46.01.81.21,1.15.55,2.57,2.63,5.12,5.29,7.92,7.7.53.46,1.01.99,1.17,1.66.24,1.02.88,1.83,1.26,2.77.33.83.99,1.45,1.66,2.04.51.46,1.02.92,1.54,1.37.4.34.64.75.52,1.29-.16.71.08,1.47-.27,2.16.11.41.49.61.7.92,1.03,1.49,2.08,2.97,2.99,4.53.37.65.49,1.49.55,2.26.06.83.31,1.52.86,2.13.97,1.07,1.55,2.37,2.1,3.68.05.12.64.95.87,1.47-.24-.12-1.25-1.13-1.38-1.24-.45-.38-.89-.76-1.31-1.18-1.11-1.11-2.22-2.22-3.28-3.37-.63-.68-1.23-1.4-1.76-2.16-2.06-2.92-4.09-5.87-6.12-8.81-.02-.04-.02-.1-.02-.15.21-.28.42-.07.62,0,1.1.41,2.2.82,3.29,1.23-.1-.16-.42-.38-.77-.55-1.42-.67-2.85-1.31-4.26-1.98-.26-.12-.49-.33-.69-.53-3.14-3.26-6.9-5.65-10.84-7.79-.39-.21-.76-.44-1.14-.67-.03-.02-.03-.08-.04-.12.9-.25,2.39-.28,4.16-.09,1.42.15,2.8.48,4.16.92,1.33.43,2.61,1.03,4.04,1.2-.15-.11-.29-.25-.45-.33-2.47-1.09-4.97-2.16-7.7-2.38-1.56-.13-3.14-.11-4.7-.08-.66.02-1.22-.07-1.81-.41-2.38-1.37-4.79-2.69-7.19-4.03-1.93-1.07-3.91-2.04-5.97-2.85-.13-.05-.25-.14-.36-.21-.06-.37.23-.39.44-.47,1.83-.63,3.74-.77,5.66-.8,2.26-.04,4.51.12,6.76.33.93.09,1.86.17,2.79.19.92.02,1.74.21,2.45.82.7.59,1.5.95,2.42.97h0Zm-40.01-14.9c2.48-1.05,5.05-1.53,7.75-1.38,1.86.11,3.46.87,5.2,1.92-1.46.39-2.72.7-3.96,1.08-1.32.4-2.59.95-3.7,1.76-1.07.77-2.07,1.64-3.1,2.47.48.19.85-.18,1.22-.47,2.82-2.21,6.1-3.31,9.57-3.95.79-.14,1.51-.13,2.26.33,1.73,1.05,3.7,1.55,5.6,2.21.5.18,1.06.2,1.59.26.44.05.88.06,1.32.1,1.35.11,2.56.49,3.64,1.38,2.17,1.76,4.43,3.42,6.63,5.15.65.51,1.2,1.13,1.76,1.68-.18.42-.46.31-.67.28-1.02-.13-2.04-.29-3.06-.43-3.27-.44-6.56-.57-9.84-.18-1.07.13-2.13.38-3.15.71-.91.3-1.69.22-2.54-.17-3.4-1.54-6.85-2.96-10.16-4.69-1.12-.59-2.36-.97-3.53-1.46-.21-.09-.38-.26-.57-.4-.53.11-1,.05-1.5-.07-1.67-.41-3.37-.67-5.1-.46-.97.12-1.92.37-2.88.55-.27.05-.54.08-.93.13.25-.74.58-1.28.97-1.78,1.3-1.64,2.84-2.95,4.88-3.62.79-.26,1.55-.63,2.31-.95Zm-13.41,2.51c1.02-.67,2.22-.95,3.42-1.08,1.55-.17,3.1.02,4.79.07-.29.68-.86.92-1.21,1.34-.38.45-.74.91-1.12,1.36-.39.76-.64,1.34-.95,1.89-.16.28-.37.61-.65.75-1.3.67-2.63,1.29-4.03,1.96-.06-.1-.2-.24-.23-.4-.29-1.94-.4-3.88-.03-5.9h0Zm59.41-94.81c2.81,1.17,5.53,2.53,8.22,3.96.33.24.46.43.63.5,2.26.95,4.53,1.85,6.78,2.83,1.3.56,2.57,1.19,3.81,1.87,1.76.96,3.02,2.46,4.14,4.12-.15.04-.27.11-.33.08-2.45-1.31-4.9-2.64-7.32-3.94.04-.47.35-.38.56-.45.18-.06.41.03.52-.25-.5,0-1-.07-1.46.02-.48.1-.86.03-1.26-.21-2.1-1.28-4.32-2.32-6.62-3.2-.17-.06-.31-.18-.49-.28.19-.17.32-.28.49-.42-.19-.05-.33-.12-.46-.1-1.16.16-2.21-.22-3.29-.59-2.92-1.01-5.86-1.98-8.79-2.96-.5-.17-.99-.37-1.55-.58.5-.58,1.12-.56,1.66-.69,1.61-.38,3.18-.36,4.76.3h0Zm-65.75,6.86c-.33.33-.73.61-1.11.89-.02.02-.09-.04-.16-.09.39-.51.84-1.2,1.16-1.36.3.13.26.42.12.56h0Zm-.55-3.96c.07.13.09.28.12.42.44,2.07.45,1.72-.53,3.28-.12.2-.62.92-.91,1.34-.25.27-.46.63-.95.77.54-2.2,1-4.29,1.81-6.44.21.29.35.45.45.63Zm68.01-50.32c-1.71.12-3.43.24-5.15.33-1.19.06-2.32.24-3.31,1.02-.41.33-.96.49-1.46.69-.96.39-1.93.73-2.88,1.13-.31.13-.61.32-.85.54-.27.24-.14.73.21.83.37.11.76.2,1.15.22.99.07,2.57.37,3.5.73-1.24.93-2.7,1.4-3.92,1.03-2.69-.83-5.14-2.19-7.69-3.35-.36-.16-.72-.32-1.07-.48.1.56.68.75,1.19,1.02,2.21,1.17,4.44,2.32,6.82,3.11.09.03.26.09.35.13.77.3-.36.39-.58.44-.57.13-1.15.24-1.73.37-.41.1-.82.22-1.19.32-.57.14.2.5.4.62.63.37,1.03.92,1.2,1.61.06.24-.09.53-.16.86-.42-.09-.76-.14-1.08-.22-3.43-.9-6.73-2.13-9.87-3.79-1.3-.69-2.64-1.3-4.03-1.98-.05.48.31.53.5.64,3.7,2.16,7.52,4.04,11.68,5.13.33.09.66.18.99.29.09.03.17.09.37.19-.22.14-.38.29-.57.34-.38.1-.77.19-1.16.22-2.2.15-4.41.29-6.61.42-.29.02-.59-.02-.86-.11-2.56-.84-5.14-1.64-7.67-2.57-1.84-.68-3.61-1.53-5.41-2.3-.07.43.34.53.68.7,2.29,1.25,4.64,2.35,7.13,3.13,1.4.45,2.82.85,4.22,1.28.28.09.54.21.87.34.06.38.11.76.16,1.07-.12.14-.16.25-.24.29-2.15.86-4.37,1.47-6.67,1.75-.53.06-1.08.04-1.6.42-.07.33-.14.71-.22,1.08-.13.1-.23.22-.36.28-.94.45-1.96.63-2.97.8-2.18.36-4.38.57-6.59.59-.49,0-.97.07-1.39.1-.14.12-.25.17-.28.25-.36,1.1-1.19,1.49-2.27,1.5-.39,0-.79,0-1.18,0-1.57-.06-3.13-.12-4.79-.18.04-.17.06-.4.16-.58.33-.66.66-1.32,1.04-1.95,1.11-1.83,1.84-3.79,2.03-5.94,0-.09.07-.18.11-.26.25-.17,1.95-1,2.82-1.45.02,0,.03-.02.05-.02.36-.14.72-.3,1.04-.5.64-.4,1.27-.38,1.92-.07.19.02.21.03.21.04-.1-.21-.18-.42-.28-.69.23-.15.41-.31.62-.4,1.24-.54,2.5-1.04,3.72-1.6.59-.27,1.12-.2,1.67.05.15-.16.08-.34-.03-.61.86-.28,1.68-.59,2.53-.82,1.7-.47,3.42-.87,5.12-1.34.61-.17,1.17-.49,1.78-.66,2.04-.54,4.1-1.03,6.14-1.56.65-.17,1.26-.12,1.84.23.17-.13.1-.31.03-.49,3.61-1.73,19.77-2.93,23.61-2.71-.38.3-1.61.48-1.77.49h0Zm-46.85-1.32c1.74-1.82,3.72-3.33,6.12-4.24.67-.25,1.31-.38,2.06-.1.09.1.25.23.34.4.42.77,1.01.94,1.85.71.99-.27,2.02-.41,3.03-.59.23-.04.48.02.72.03.45,0,.73-.26,1.05-.31,1.4-.25,2.81-.44,4.21-.64.34-.05.69-.04,1.03-.01.4.03.79.14.93.58.22.67.76.7,1.31.63,1.07-.14,2.13-.37,3.19-.47.92-.09,1.86-.05,2.79-.04.18,0,.36.13.54.19.97-.28,1.7.06,2.24.64.51.55,1.07.81,1.78.88.83.08,1.65.18,2.47.26.33.03.57.12.59.49.36-.18.77-.42,1.39-.36,2.98.29,5.92.76,8.79,1.64.23.07,1.75.48,2.07.61-1.06,0-2.9,0-3.52.03-.73.04-1.47,0-2.2,0-.69,0-1.45,0-2.13.02s-1.37.05-2.05.1c-.73.05-1.39.04-2.12.11-.68.07-1.12.08-1.96.18.16-.29.24-.49.37-.65.38-.45.78-.88,1.18-1.31-.23.12-.66.34-1.05.62-.4.29-.77.61-1.12.95-.56.53-1.22.76-1.96.9-2.07.39-4.13.83-6.2,1.24-.23.05-.48.03-.73.05,0-.61.41-.93.68-1.31.7-1,1.42-1.99,2.14-2.99-1.19.84-2.12,2.17-3.13,3.43-1.04,1.29-1.01,1.31-2.58,1.7-1.71.42-3.43.84-5.15,1.26-.18.04-.36.07-.79.14,1.51-2.2,3.12-4.03,4.49-6.04-.29-.25-.37.03-.49.12-.15.12-.27.28-.4.43-1.52,1.8-3.05,3.59-4.56,5.41-.33.4-.69.66-1.19.81-2.02.59-4.04,1.21-6.06,1.81-.08.02-.18-.02-.29-.03-.22-.24-.02-.45.07-.66.68-1.53,1.5-2.98,2.44-4.36.92-1.34,1.79-2.7,2.68-4.05-.1-.07-.33.04-.48.22-1.53,1.98-3.16,3.89-4.42,6.06-.52.89-.95,1.82-1.4,2.75-.18.36-.33.71-.73.87-1.26.53-2.52,1.07-3.75,1.59-.26-.26-.15-.49-.08-.72.77-2.8,2-5.42,3.17-8.07.19-.43.47-.84.49-1.64-.32.48-.51.72-.65.99-1.58,3.1-3.21,6.18-4.15,9.56-.13.46-.41.74-.83.96-.84.43-1.67.88-2.51,1.33-.75.33-1.51.7-1.66.75-.4-1.77-.79-3.47-1.2-5.27,0,.02,0-.08.06-.16,1.58-2.6,3.15-5.21,5.27-7.43h0Zm25.17-11.67c-.24-.06-.46-.16-.69-.24-.1.21.06.45.25.75-.8.46-1.59.73-2.46.16-.06.29-.1.46-.16.73-.37.12-.77.25-1.19.39-.82.27-1.64.49-2.38,1.01-.93.66-1.02.59-2.45.13.19.25.31.41.43.57-1.01.91-2.83,1.14-4.64.6-.12.13-.21.35-.35.38-.81.2-1.63.35-2.44.51-.14.03-.3.03-.43-.02-.41-.16-.76-.2-.95.29-.95.2-1.84.61-2.87.45-1.15-.18-2.33-.22-3.42-.32-.3-.42-.06-.65.14-.84.24-.24.52-.45.81-.62,1.26-.7,2.3-1,3.83-1.26.92-.15,1.82-.37,2.72-.58,1.24-.29,2.46-.64,3.7-.88,2.21-.43,4.42-.83,6.65-1.19,1-.16,2.03-.19,3.03-.43.59-.14,1.17-.06,1.73.15.43-.31.74-.42,1.1-.45.25-.02.49-.05.73-.06.49,0,.97,0,1.51,0-.76.76-1.4.97-2.2.76h0Zm-16.03-3.13c.82-.17,2.82-.88,3.61-1.03,2.1-.41,4.2-.29,6.26.26.08.02.13.14.23.32.3.03.58-.13.84-.1.85.09,1.7.25,2.63.45.52-.11.96-.02,1.37.11,1.34.42,2.66.91,3.9,1.68-.49.19-2.11.36-2.79.26-.16-.02-.3-.2-.47-.32-1.17.64-2.44.72-3.9.62.25-.35.41-.58.67-.88-.61.09-1.11.53-1.58,1.13-.86.13-1.74.44-2.8.37.1-.27.13-.5.24-.67.35-.53.72-1.04,1.13-1.66-.39.28-.86.64-1.25,1.07-.4.43-.73.92-1.14,1.45-.69.17-1.4.48-2.3.35.23-.53.43-1,.73-1.7-.87.59-1.11,1.35-1.63,2.04-1.14.26-2.36.54-3.67.84.01-.83.66-1.27.8-1.93-.26-.2-.33.08-.43.2-.24.31-.5.61-.67.96-.7,1.49-2.03,1.64-3.4,1.74-.15-.46.19-.59.39-.73,1.37-.92,2.21-2.2,2.63-3.77.1-.39.29-.71.57-1.09h0Zm-16.86,3.59c.3-.09,1.47-.22,1.63-.31-.02-.04-1,0-1.03,0-.84.01-1.53-.33-2.05-.97-.65-.8-1.31-1.59-1.9-2.42-.54-.76-1-1.57-1.51-2.35-1.54-1.42-2.64-2.97-3.57-4.65-.72-1.28-1.19-2.63-1.33-4.17,2.81,2.03,6.07,4.56,8.8,6.52-.52.08-1.35.07-1.38.3,1.65.18,2.06.49,3.04,1.63-1.12.3-2.58.22-3.69.01-.59-.11-1.16-.23-1.72.04.28.17.79.11,1.24.25,1,.31,2,.45,3.04.31.1-.01.2,0,.29,0,.87-.12,1.52.18,1.92.99.25.52.65.96.81,1.65-.69.1-1.29.2-1.89.29,0,.04-.82.1-.82.13.72.05,2.38,0,3.02.05.42.57.51,1.1.6,1.62.27,1.62.69,3.22.74,5.13-1.41-1.54-2.91-2.61-4.25-4.02h0Zm1.04,15.78c.81-1.4,1.58-2.83,2.35-4.26.55-1.01,1.39-3.79,1.58-4.96.34-.95.33-1.87.06-2.84-.2-.7-.28-1.44-.41-2.17-.29-1.59-.48-3.21-1.22-4.68-1-1.99-2.23-3.82-3.79-5.41-.65-.66-1.42-1.2-2.15-1.77-.58-.45-1.19-.86-1.78-1.31-.13-.1-4.32-2.69-2.56-1.84,2.54,1.09,7.26,3.86,9.38,5.62.69.57,1.2,1.29,1.49,2.15.29.83.52,1.71.95,2.47.71,1.23.9,2.58,1.14,3.92.14.77.3,1.54.5,2.3.05.2.25.36.45.63.09-.28.19-.41.17-.53-.28-1.74-.63-3.47-1.28-5.13-.14-.36-.34-.73-.37-1.11-.11-1.36-.66-2.56-1.37-3.69-.4-.64-.65-1.32-.73-2.06-.13-1.17-.25-2.34-.35-3.51-.06-.67-.24-1.37.45-1.9.16-.12.19-.44.22-.68.21-1.8,1.16-3.23,2.41-4.44.84-.81,1.19-2.01,2.23-2.66.22-.13.28-.51.42-.76.42-.72.85-1.43,1.26-2.16.03-.06.06-.12.09-.18.14-.19.27-.39.41-.62.2-.26.32-.41.45-.54.06-.05.81-.91,1.3-1.61,0,.02,0,.04-.01.06-.1.6-.29,1.13-.51,1.67-1.22,3.11-2.5,6.19-3.21,9.47-.03.15-.14.57-.14,1.15-.33-.84-.82-2.14-1.09-2.83,0,.95.27,1.83.55,2.71.15.47.28.92.25,1.43-.07,1.42-.08,2.84-.14,4.27,0,.21.14.49-.24.65-.17-.22-.35-.45-.52-.68-.17-.24-.33-.49-.49-.73-.19-.28-.37-.58-.59-.84-.16-.19-.21-.54-.71-.49.75,1.23,1.44,2.4,2.17,3.55.27.42.47.85.49,1.36.03.83.1,1.67.11,2.5,0,.21-.11.43-.22.81-.45-.49-.77-.84-1.1-1.2-.09-.1-.18-.18-.27-.27,0,0,0,0,0-.01-.23-.39-.6-1.17-.99-1.51.11.5.92,2.1,1.43,2.65.08.11.17.22.27.31.62.61.83,1.3.79,2.12-.08,1.52-.16,3.04-.24,4.56-.01.26-.21.58.17.76.08-.05.22-.08.23-.14.55-1.96.38-3.99.49-6,.72-.61,1.45-1.18,2.14-1.81.58-.53,1.11-1.11,1.66-1.67.03-.03.05-.09.04-.13-.01-.03-.07-.06-.12-.1-1.15.85-2.1,1.99-3.55,2.67-.21-1.03-.22-1.95-.24-2.87-.02-1.6-.13-1.34,1.08-2.35.45-.38.88-.78,1.32-1.17.13-.12.33-.22.18-.55-.39.3-.76.59-1.15.87-.43.31-.78.74-1.32.9-.37-1.48-.4-4.06-.08-5.28.11-.44.34-.79.74-1.05.66-.42,1.31-.88,1.91-1.37.41-.34.75-.77,1.1-1.18.08-.09.1-.23.22-.56-.68.58-1.18,1.04-1.71,1.44-.58.45-1.15.91-1.92,1.19-.17-.82.17-1.51.35-2.18,1.05-3.89,2.55-7.62,4.07-11.34.02-.03.49-1.51.35-.03-.12,1.32-.19,2.64-.36,3.94-.19,1.47-.15,2.57.28,3.81-.04.84-.07,1.93-.06,2,.06.38.23.76.24,1.14.02,1.21.38,2.31.97,3.35.29.52.5,1.06.53,1.67.07,1.77.17,3.53.25,5.3.02.54.05,1.07.42,1.53.14.18.22.45.21.68-.14,2.56-.97,4.82-2.96,6.51-.7.6-1.53,1.09-2.38,1.45-1.71.73-2.69,1.98-3.27,3.74-.49,1.49-1.13,2.94-1.86,4.33-1.32,2.53-2.76,4.98-3.82,7.64-.09.22-.24.42-.4.6-.18.21-.71.11-.76-.15-.16-.85-.38-1.7.12-2.55h0Zm-16.66,19.06c-.42-.54-.95-1-1.42-1.5-.33-.36-.69-.7-.97-1.1-1.02-1.44-2-2.91-3.01-4.36-.65-.94-1.04-2-1.4-3.07-.18-.53-.3-1.1-.06-1.59.55-1.1.16-2.1-.17-3.13-.09-.28-.23-.54-.34-.79,0-.56.32-.96.64-1.31.51-.56.64-1.17.54-1.9-.08-.58-.09-1.17-.13-1.75-.8-1.12-1.47-2.3-1.99-3.56.64-1.39.61-1.39.11-2.93-.33-1.02-.61-2.07-.86-3.12-.05-.2.1-.44.15-.67-.04-.46-.28-.85.17-1.25.41-.36.43-.84.49-1.33.09-.86-.02-1.76.36-2.58.14-.43.29-.68.51-.89.7-.66,1.07-1.51,1.38-2.4.46-1.3.96-2.58,1.02-3.98,0-.17.13-.33.24-.58.55.73.76,1.49,1,2.23.56,1.73,1.09,3.47,1.63,5.2.65,2.06,1.31,4.11,1.97,6.17.07.22.12.45.2.73-1.16-.42-2.03-.93-2.79-1.7-.86-.87-1.68-1.79-2.54-2.67-.58-.6-1.2-1.16-1.79-1.74-.13.09-.11.3,0,.44,1.02,1.25,2.07,2.49,3.1,3.74,1.18,1.44,2.7,2.39,4.38,3.13.39.74,1.86,5.67,2.01,6.8-1.44-.75-2.57-1.82-3.76-2.8-1.18-.96-2.32-1.96-3.45-2.97-1.16-1.05-2.29-2.14-3.44-3.21.15.39.44.91.82,1.35.6.71,1.21,1.43,1.9,2.04,2.14,1.87,4.13,3.91,6.5,5.51.61.41,1.24.79,1.97,1.25.73,1.82,1.47,3.78,1.61,6.07-.49-.18-.86-.27-1.18-.45-2.17-1.14-4.22-2.49-6.22-3.9-.8-.57-1.63-1.09-2.44-1.63-.1.14,0,.33.14.44,3.03,2.44,6.11,4.78,9.66,6.43.21.1.46.28.52.47.31,1.02.65,2.04.58,3.22-1.59-.51-3.01-1.12-4.29-2.05-1.15-.84-2.32-1.65-3.48-2.47-.19-.13-.39-.24-.59-.35-.05.12-.09.16-.08.19,0,.05.04.1.07.13,1.39,1.08,2.79,2.17,4.19,3.24.23.18.48.34.73.49.25.15.51.29.78.41.89.41,1.78.82,2.65,1.22.38,1.16.71,4.83.62,6.99-.33-.16-.65-.26-.91-.44-3.2-2.2-6.24-4.6-8.97-7.38-.17-.17-.34-.33-.51-.49-.08.08-.14.11-.14.15,0,.04.02.1.06.13.42.48.84.96,1.28,1.42.54.57,1.1,1.12,1.67,1.67.46.44.94.87,1.43,1.28.79.66,1.59,1.32,2.41,1.94,1.21.92,2.45,1.81,3.67,2.72.04.03.05.08.15.25.02,1.53.09,3.18-.06,4.8-.52.21-.86-.03-1.19-.23-1.82-1.16-3.69-2.25-5.06-3.98h0Zm-.79,22.96c.13-.5.36-1.03.5-1.45.59-1.77,1.16-3.54,1.82-5.28,1.23-3.26,2.36-6.56,3.22-9.93.04-.14.23-.69.34-1.12.11-.02.22-.03.32-.03.24.02.47.09.76.15.05.65.1,1.26.16,1.97.45-.18.52-.5.53-.81.06-1.17.1-2.35.13-3.52.02-.93.03-1.86.02-2.79,0-.37.12-.67.37-.92,2.66-2.76,4.75-5.96,6.98-9.05.83-1.15,1.57-2.37,1.92-3.94-.15.12-.39.38-.55.68-1.08,2-2.51,3.75-3.86,5.56-1.21,1.61-2.41,3.23-3.64,4.83-.29.37-.53.82-1,.98-.09-.04-.14-.06-.18-.09-.03-.03-.06-.08-.06-.12-.18-2.5-.35-4.99-.53-7.54,1.82-1.87,3.19-4.07,4.46-6.35.67-1.2,1.49-2.31,2.22-3.47.29-.45.51-.95.75-1.43,0-.02-.05-.08-.08-.12-.08.04-.19.06-.23.12-1.27,1.81-2.57,3.6-3.78,5.44-1.02,1.55-2.05,3.11-3.31,4.69-.16-.33-.29-.52-.34-.72-.18-.66-.28-1.35-.5-2-.19-.58-.07-1.01.25-1.51,1.37-2.05,2.45-4.25,3.23-6.59.06-.17.08-.35-.06-.6-.55,1.17-1.07,2.37-1.67,3.51-.59,1.12-1.14,2.27-2,3.37-.46-.68-.43-1.38-.62-2-.21-.65-.42-1.31-.64-1.96-.22-.65-.44-1.3-.66-1.94,2.01-2.95,3.33-6.11,3.61-9.66-.51,1.46-.97,2.94-1.55,4.37-.59,1.45-1.26,2.87-2.19,4.15-.13-.08-.24-.11-.26-.18-.47-1.5-.95-3-1.36-4.51-.1-.35-.03-.78.06-1.15.36-1.38.76-2.75,1.16-4.11.42-1.42.57-2.87.33-4.35-.25,1.26-.43,2.54-.78,3.77-.36,1.26-.69,2.54-1.28,3.9-.21-.45-.38-.73-.48-1.04-.57-1.67-1.13-3.35-1.67-5.03-.66-2.06-1.3-4.12-1.94-6.18-.39-1.27-.93-2.46-1.78-3.66.55,0,.76.28.97.5,1.22,1.27,2.43,2.57,3.65,3.85.1.11.19.23.29.34.76.82.97.84,1.84.17.15-.11.29-.23.42-.34.45.28.69.42.85.65l.62.8s0,0,.01.02c.61.91.82,1.42,1.22,2.06.46.75.9,1.52,1.27,2.32.36.76.62,1.57.91,2.32,0-.84.86-.86,1.41-1.43.18.54.3.94.43,1.34.44,1.4.89,2.8,1.31,4.22.26.88.85,1.41,1.67,1.74.59.24,1.19.47,1.8.64.71.19,1.04.64,1.2,1.33.34,1.45.35,2.92.44,4.39.05.83.08,1.67.14,2.5.05.69.12,1.37.76,1.83.11.08.06.36.04.66.16-.13.37-.37.64-.7.47.56.54,1.15.69,1.7.47,1.77.7,3.57.22,5.38-.18.71-.39,1.43-.71,2.08-1.42,2.92-3.08,5.7-5.23,8.16-.88,1-1.82,1.92-2.74,2.88-.3.32-.61.64-.9.98-.32.37-.65.71-.67,1.26,0,.27-.22.54-.35.8-.85,1.72-1.59,3.47-2.23,5.28-1.33,3.75-2.46,7.56-3.58,11.37-.8,2.73-1.72,5.43-2.34,8.21-.62,2.78-1.27,5.55-1.91,8.32-.18.76-.39,1.51-.58,2.26-.87.39-1.67.74-2.45,1.09-.48-.15-.42-.5-.35-.85.86-4.63,1.74-9.26,3.05-13.79.67-2.32,1.37-3.99,2.06-6.7h0Zm-2.42,4.93c-.15,1.15-.39,2.13-.82,3.16-.4-1.39-.3-1.72.82-3.16Zm-5.82-16.57c1.05,1.3,2.11,2.59,3.11,3.93.67.91,1.23,1.89,1.83,2.84.27.22.51.18.61.29.21.2.37.46.49.72.36.8.82,1.53,1.29,2.29.1.16.15.18.34.44.08.1.11.16.17.26-.85,2.64-1.52,4.03-3.24,6.31-.16-.44-.29-.69-.34-.95-.26-1.2-.47-2.41-.75-3.59-.12-.5-.1-.93.1-1.42.44-1.09.8-2.21,1.19-3.31-.33.45-.7,1.13-1.07,1.82-.16.29-.31.59-.55,1.05-1.55-4.04-3.04-7.89-4.59-11.93.69.39,1.07.82,1.43,1.26Zm-72.51,29.42c.54-.6,1.22-1.29,1.77-1.49,2.27-.81,3.7-2.53,4.82-4.54.5-.9.92-1.84,1.37-2.77.58-1.2,1.25-2.33,2.11-3.36.88-1.04,1.94-1.8,3.2-2.29.87-.33,1.74-.68,2.56-1.12.55-.3,1.02-.75,1.48-1.18.27-.25.28-.62.06-.95-.25-.37-.53-.71-.75-1.09-.26-.45-.11-.84.38-1.08.13-.06.27-.13.41-.17,1.92-.54,3.59-1.59,5.31-2.54,2.03-1.12,4.13-2.06,6.41-2.54.29-.06.58-.13.85-.24.75-.32.94-.69.91-1.62,0-.14.03-.27.06-.46.3-.05.58-.14.87-.15,1.82-.07,3.63-.02,5.4.49.71.21,1.43.37,2.14.57.79.21,1.54.26,2.25-.27.5-.37,1.09-.41,1.69-.27.29.07.59.1.85.22,1.76.74,3.52,1.5,5.28,2.25,1.13.49,2.23,1.03,3.38,1.45.68.25,1.43.37,2.15.45,1.08.13,1.95.55,2.65,1.41.65.8,1.48,1.46,2.1,2.27,1.1,1.44,2.15,2.93,3.13,4.45,1.92,2.97,3.81,5.96,5.67,8.97.54.87.95,1.83,1.42,2.75.06.11.06.25.14.63-.35-.38-.54-.57-.73-.78-2.48-2.79-4.92-5.62-7.45-8.37-1.43-1.55-3-2.98-4.54-4.42-1.16-1.08-2.47-1.93-3.98-2.46-.51-.18-1-.41-1.48-.65-1.01-.5-2.06-.61-3.15-.35-.24.06-.48.09-.72.13-1,.14-1.92.04-2.78-.62-1.2-.91-2.67-1.24-4.1-1.55-1.02-.22-1.51.1-1.96,1.08-.17.36-.34.71-.49,1.07-.33.81-.95,1.11-1.77.98-.63-.1-1.26-.24-1.86-.45-1.51-.51-3.06-.71-4.64-.76-1.15-.04-1.43.15-1.86,1.26-.24.61-.55,1.14-1.02,1.6-.44.42-.93.69-1.56.72-1.08.06-2.16.14-3.23.25-.68.07-1.36.17-2.03.31-1.73.37-2.84,1.48-3.5,3.08-.17.4-.31.82-.49,1.27-.72.23-1.43.43-2.11.68-1.01.37-2.04.73-3.01,1.19-.56.27-1.07.69-1.53,1.11-.44.41-.72.93-.65,1.58.1.9-.36,1.51-1.05,1.97-1.14.76-2.27,1.56-3.47,2.23-1.33.74-2.72,1.37-4.09,2.03-.2.08-.45.08-.82.11h0Zm30.81-1.1c-1.55.28-3.08.65-4.53,1.25-.62.25-1.22.29-1.87.2-1.07-.15-2.14-.27-3.21-.4-.34-.04-.69-.09-1.03-.06-2.28.16-4.49-.27-6.68-.85-1.8-.47-3.57-1.04-5.36-1.57.32.28.86.63,1.44.85,2.57.96,5.14,1.94,7.9,2.22,1.02.1,2.05.14,3.08.18.78.03,1.56,0,2.44.4-1.13.41-2.17.55-3.2.69-3.99.53-7.99.82-12.02.54-1.77-.12-3.49-.51-5.19-.96-.55-.14-1.14-.16-1.74-.57.43-.24.76-.44,1.09-.62,1.42-.76,2.84-1.51,4.26-2.25.63-.4,1.08-.67,1.72-1.06.03-.02.23-.17.26-.17.37-.29.76-.59,1.13-.9.51-.43.87-.96.8-1.66-.12-1.16.58-1.8,1.43-2.37.08-.06.17-.1.25-.15.88-.53,1.7-.55,2.59.05,1.96,1.32,4.08,2.35,6.18,3.4,1.37.69,2.79,1.17,4.29,1.51,1.96.45,3.9.97,5.85,1.47.37.1.72.25,1.3.46-.54.17-.85.3-1.18.36h0Zm7.47-1.48c-.62.13-1.26.22-1.88.33-1.66.5-3.02.32-4.43-.09-2.49-.73-5.03-1.31-7.54-1.97-.85-.22-1.73-.42-2.52-.8-2.61-1.23-5.19-2.54-7.78-3.83-.03-.02-.05-.08-.07-.12,0-.05-.02-.1,0-.13.02-.04.07-.07.12-.09.65-.22,1.29-.52,1.96-.62.91-.14,1.39-.63,1.63-1.46.08-.28.18-.57.31-.83.62-1.25,1.54-2.15,2.96-2.41.39-.07.76-.18,1.16-.23,1.25-.16,2.4-.02,3.43.86.78.66,1.73,1.11,2.59,1.68,1.11.72,2.22,1.43,3.29,2.21.95.69,1.85,1.46,2.77,2.2,1.67,1.32,3.06,2.9,4.39,4.54.09.11.14.25.26.47-.22.1-.41.23-.62.27h0Zm9.53-.4c-1.23-.04-2.45-.13-3.68-.14-.88,0-1.76.1-2.64.15-.49.03-.97.07-1.4.1-.92-1.13-1.74-2.22-2.66-3.24-.76-.83-1.59-1.6-2.45-2.33-.86-.73-1.78-1.39-2.67-2.09-1.2-.94-2.48-1.75-3.86-2.41-.88-.42-1.73-.92-2.59-1.4-.2-.11-.37-.28-.66-.51.37-.11.6-.22.83-.23,1.41-.06,2.19-.97,2.86-2.04.08-.12.13-.26.19-.4.56-1.23.56-1.25,1.83-1.16,1.42.1,2.84.25,4.18.78.14.05.28.1.43.12,1.64.21,2.7,1.29,3.71,2.45,1.39,1.59,2.76,3.2,4.14,4.79.58.67,1.18,1.32,1.77,1.98,1.49,1.78,2.66,3.53,3.81,5.26.24.53-.76.34-1.13.33h0Zm24.06,5.99c-1.41-.18-2.82-.4-4.18-.85-1.4-.46-2.8-.92-4.2-1.36-.6-.18-1.05-.52-1.34-1.07-.49-.96-1.08-1.88-1.46-2.88-2.05-5.47-5.41-9.97-9.78-13.79-.2-.04-.2-.03-.2-.03.06.6.57.91.93,1.28,2.05,2.14,3.79,4.51,5.35,7.01.76,1.2,1.43,2.46,2.06,3.73.73,1.5,1.36,3.04,2.05,4.58-.23.33-.5.09-.74,0-2.24-.9-4.53-1.61-6.91-2.03-1.11-.2-2.23-.35-3.44-.54-.41-.64-.85-1.34-1.32-2.02-1.52-2.23-3.18-4.36-5.06-6.31-.65-.67-1.26-1.37-1.88-2.07s-1.19-1.44-1.84-2.11c-.61-.63-1.29-1.2-2.01-1.86.3-.25.62-.45.86-.72.22-.25.38-.57.53-.87.18-.35.32-.72.49-1.07.32-.67.6-.87,1.26-.71,1.33.32,2.74.57,3.84,1.42,1.27.99,2.65,1,4.05.7.98-.21,1.83-.12,2.71.27.72.32,1.44.63,2.16.93,1.1.45,2.1,1.08,2.96,1.9,1.85,1.76,3.72,3.5,5.47,5.35,2.09,2.21,4.08,4.52,6.08,6.81.81.92,1.53,1.92,2.32,2.86.82.98,1.68,1.92,2.51,2.89.12.14.22.28.41.53-.66.15-1.19.1-1.7.04h0Zm.14-5.21c-.13-.25-.21-.56-.24-.85-.14-1.31-.25-2.62-.38-3.94-1.25-1.39-1.46-2.67-.82-4.25.5-1.23.49-2.58.22-3.9-.32-1.54-.59-3.08-.9-4.62-.07-.35-.22-.95.02-1.26.28-.36.3-.42.69-.64-.06-.31-.35-.56-.34-1.01.04-2.41.06-4.81.1-7.22,0-.18.1-.37.2-.73.81,1.29.96,2.66,1.44,3.9.49,1.28.96,2.58,1.45,3.86.49,1.28,1.06,2.52,1.47,3.96-.54-.05-.72-.4-.99-.62-.26-.22-.51-.46-.79-.66-.32-.23-.65-.43-.98-.64-.15.14-.12.3-.02.39.91.89,1.84,1.76,2.75,2.66.2.2.41.44.49.71.48,1.6.83,3.23.99,4.89,0,.09-.05.18-.1.36-1.28.01-2.33-.75-3.49-1.16.93,1.25,2.37,1.54,3.7,2,.72,2.45.71,3.39-.05,5.7-.26-.03-.55,0-.81-.09-.92-.33-1.83-.7-2.74-1.05.19.6.85.93,1.53,1.22.58.25,1.18.46,1.85.72-.1,1.43-.48,2.78-.74,4.15-.4-.03-.68-.05-1.17-.08.39.35.65.58.96.86,0,.65-.09,1.3-.38,1.9-.12-.02-.19,0-.21-.03-1.08-1.39-1.9-2.96-2.7-4.52h0Zm1.8,23.76c-.15-.36-.35-.7-.49-1.06-.4-1.04-.49-2.02.13-3.07,1.06-1.78,1.94-3.66,3.13-5.47.43-.49,1.42-1.64,1.53-2.16-.03.01-.61.57-.66.62-.35.38-1.12,1.3-1.35,1.68,0,0,0,0,0,0-.65.72-1.09,1.59-1.57,2.43-.55.97-1.09,1.95-1.62,2.89-.96.75-1.08-.12-1.26-.92-.3-1.35-.13-2.56.58-3.79,1.15-1.99,2.31-3.96,3.91-5.64.37-.39.69-.82,1.09-1.31-.23.1-.54.26-.79.48-1.62,1.45-3,3.1-4.03,5.03-.21.38-.52.89-.75,1.36-.01.02-.18.41-.2-.27-.06-.76-.18-1.52-.18-2.28,0-1.19.58-2.17,1.29-3.06.55-.69,1.16-1.34,1.76-1.98.48-.51,1.11-.78,1.77-.97h0c.15.23.88.74,1.28,1.31.35.26.69.73.88.97.3.39.38.47.63.88.92,1.56,2.1,2.94,3.12,4.43.55.81,1.05,1.66,1.57,2.49.29.46.27.91.03,1.39-1.26,2.58-1.82,5.38-2.45,8.15-.06.26,0,.54,0,1.14.68-1.23.75-2.32,1.06-3.33.31-1.03.53-2.1.84-3.13.3-1.02.59-2.05,1.04-3.21.73.92,1.19,1.78,1.58,2.68.44.99.8,2.01,1.24,2.99.28.63.28,1.21-.01,1.82-.74,1.55-.88,3.2-.87,4.88,0,.27.08.54.18,1.15.61-2.16.32-4.14,1.19-6.02.63.87.76,1.84,1.07,2.73.32.92.58,1.87.83,2.82.25.93.58,1.86.65,2.99-.4-.17-.65-.27-.89-.39-1.23-.6-2.45-1.24-3.7-1.81-2.05-.93-4.13-1.82-6.19-2.74-.25-.11-.64-.31-.66-.51-.1-.81-.85-.87-1.4-1.29.51-4.05,1.97-7.82,3.66-11.58-.39.01-.43.27-.53.45-1.59,2.96-2.72,6.09-3.33,9.39-.08.43-.21.85-.33,1.33-.87-.17-1.4-.73-1.95-1.26-.34-.5-.79-1.15-.84-1.28h0Zm14.38,11.38c-.17-.21-.35-.43-.53-.64-.35-.4-.82-.57-1.31-.59-.58-.02-1.19,0-1.75.13-1.05.25-2.09.55-3.1.92-1.61.59-3.2,1.25-4.8,1.88-.75-.11-.54-.58-.62-.93-.11-.48-.43-.67-.86-.41-.8.48-1.58,1-2.36,1.51-.24.16-.45.35-.67.51-.49.49-.39.25-.36.13.06-.22.14-.51.15-.55.19-.86.39-1.57.61-2.43.72-2.85,1.45-5.7,2.19-8.6.64.02,1.01.45,1.44.72.24.15.44.47.69.52.59.11.97.37,1.22.93.11.24.4.41.63.58.15.11.36.16.53.24,2.42,1.08,4.85,2.13,7.25,3.26,1.11.52,2.15,1.18,3.21,1.79.15.09.25.26.47.49-.74.19-1.34.35-2.03.53h0Zm15.99,5.22c-.26.41-.56.81-.86,1.19-.33.41-.7.8-1.12,1.27-.02.25.04.65-.1.97-.15.34-.48.61-.73.91-.88,1.26-1.72,2.34-2.53,3.44-.48.65-1.04.97-1.88.82-1.16-.21-2.34-.26-3.48-.52-2.29-.51-4.57-1.08-6.84-1.68-1.22-.33-2.39-.8-3.61-1.37.27-.38.62-.42.91-.5,2.52-.62,5.04-1.23,7.56-1.84.49-.12.96-.06,1.44.1,1.21.4,2.44.72,3.64,1.15,1.46.52,2.95.7,4.48.59-.18-.13-.64-.27-1.11-.38-.62-.14-1.26-.19-1.87-.37-1.17-.36-2.32-.78-3.48-1.19-.18-.06-.34-.18-.63-.33.25-.14.38-.25.54-.29,2.55-.56,4.94-1.59,7.37-2.5.82-.31,1.67-.57,2.51-.84.13-.04.28,0,.52,0-.06.59-.47.96-.73,1.38h0Zm-12.58-4.98c1.32.04,2.65.02,3.97.05.39,0,.79.02,1.09.34.47-.09.93-.1,1.44.05,1.07.31,1.62.63,2.52,1.51,1.35-.03,2.75-.11,4.15.43-.17.14-.23.22-.32.25-2.59.91-5.17,1.82-7.76,2.72-1.06.37-2.15.6-3.42.81.19-.43.28-.74.46-1,.71-1.06,1.45-2.09,2.17-3.14.28-.4.53-.82.79-1.23-1.76,1.51-3.22,3.47-4.5,5.67-2.76.69-5.57,1.4-8.37,2.1-.06.02-.16-.07-.23-.11,0-.05-.03-.11,0-.14,1.72-2.57,3.37-5.19,5.66-7.32.69-.64,1.4-1.02,2.35-.99h0Zm-.9-2.52c-.62-1.39-.74-2.73-1.15-3.99-.42-1.3-.85-2.6-1.28-3.9.1-.26.24-.4.3-.36,1.33.73,2.49,1.69,3.74,2.6-.15,1.98-.68,3.77-1.62,5.65h0Zm-6.61-26.52c-1.35-.19-2.55-.17-3.88.28.54.25.96.15,1.35.13,1.14-.06,2.25.09,3.36.31.81.16,1.45.54,1.93,1.23.36.51.76.99,1.21,1.56-.48.28-.91.12-1.32.11-.39,0-.78-.06-1.18-.06-.44,0-.88,0-1.33.02-.38.02-.75.06-1.13.28.28.02.55.05.83.07,1.56.14,3.12.33,4.69.42,1.68.1,2.82,1.04,3.76,2.3.31.41.62.86.76,1.46-.86.16-1.49-.31-2.19-.46-.72-.15-1.43-.36-2.15-.48-.68-.12-1.36-.2-2.05-.22-.7-.03-1.42-.15-2.12.19.53.05,1.06.09,1.59.16.53.07,1.07.18,1.6.23,1.78.18,3.43.84,5.09,1.42.68.24.99.77,1.15,1.42.25.98.17,1.95-.1,2.91-.12.42-.27.84-.4,1.26-.27.85-.47,1.68-.22,2.59.19.67.15,1.34-.53,1.85-.27.2-.36.65-.58,1.08-.4-.26-.81-.5-1.2-.77-.8-.57-1.59-1.16-2.53-1.48-.45-.15-.74-.44-.91-.89-.17-.46-.37-.91-.57-1.36-.62-1.39-1.24-2.76-1.87-4.17.14-.3.41-.14.61-.07.75.23,1.51.45,2.22.76,1.39.62,2.74,1.31,4.11,1.97.17.08.36.14.51.2.27-.2.17-.37,0-.49-.19-.15-.41-.26-.63-.38-2.32-1.19-4.62-2.4-7.23-2.66-.15-.16-.27-.25-.34-.37-1.13-1.96-2.35-3.86-3.81-5.58-.26-.3-.32-.64-.36-1-.49-.09-.69-.51-.96-.85-.25-.31-.52-.59-.75-.91-.45-.6-1.07-1.59-1.78-2.14.06-.12.14-.22.3-.28,1.2-.44,2.43-.8,3.71-.88,1.02-.07,2.31.46,3.31,1.31h0Zm-1.9-1.95h-2.18c-.04-.13-.06-.18-.06-.22,0-.04,0-.1.04-.13.9-.77,1.81-1.54,2.84-2.41-.02.78-.49,1.99-.64,2.76h0Zm1.81-6.03c-.23.58-.41,1.22-.77,1.72-.87,1.19-1.93,2.21-3.1,3.12-.1.08-.25.09-.42.15-.11-.95.26-1.65.89-2.26.84-.83,1.67-1.66,2.5-2.49.33-.3.51-.45.76-.67.07.21.17.34.14.43h0Zm47.57-.61c-.21.34-.53.24-.78.14-1.17-.51-2.33-1.04-3.49-1.57-.85-.39-1.69-.79-2.54-1.17-.17-.08-.37-.1-.59-.16-.34.38-.67.73-1.04,1.14-.32-.08-.67-.11-.96-.26-.78-.41-1.56-.83-2.31-1.3-1.54-.97-3.04-2-4.57-2.97-1.45-.92-2.89-1.86-4.41-2.68-2.11-1.14-4.42-1.54-6.8-1.76-2.85-.25-5.44.62-7.98,1.67-3.23,1.34-6.21,3.15-8.99,5.3-1.95,1.51-3.74,3.19-5.35,5.05-.41.48-.85.93-1.27,1.39-.34-.23-.18-.47-.14-.68.08-.38.18-.76.28-1.15.43-1.71.41-1.74,1.79-2.9,1.74-1.45,3.51-2.85,5.44-4.04,2.77-1.69,5.52-3.41,8.52-4.67,1.67-.71,3.4-1.27,5.09-1.95,1.46-.58,2.91-1.19,4.33-1.85,1.65-.76,3.25-1.62,4.89-2.4,1.99-.95,4.03-1.75,6.25-2.05.86-.11,1.71-.37,2.6-.42,1.84-.1,3.62.16,5.37.71,1.64.51,3.28,1.04,4.94,1.46.99.25,2.03.33,3.05.45,3.24.38,6.36,1.22,9.39,2.41,1.42.56,2.82,1.14,4.23,1.72.22.09.49.12.52.52-.16.03-.33.11-.51.1-1.05-.03-2.06.15-3.03.51-.7.26-1.32.17-1.98-.09-2.56-1.02-5.11-2.02-7.68-3.02-1.78-.7-3.55-1.45-5.37-2.04-.92-.3-1.93-.35-2.9-.41-1.27-.08-2.55-.1-3.83-.06-1.52.06-3.04.2-4.56.33-.38.03-.64-.09-.86-.43-.2.47-.57.63-1.04.71-3.41.59-6.59,1.93-9.82,3.1-.18.06-.34.19-.81.47.54-.09.75-.1.94-.16,2.49-.76,4.97-1.55,7.46-2.29.8-.24,1.63-.34,2.45-.51.5-.11.97-.04,1.41.24,1.29.8,2.59,1.6,3.89,2.4,2.36,1.97,4.38,3.96,6.05,6.3.83,1.16,1.65,2.32,2.49,3.47.52.71,1.06,1.42,1.62,2.1.32.38.66.74.61,1.29h0Zm-.24-1.72c-.44-.58-.86-1.12-1.27-1.67-1.34-1.82-2.64-3.67-4.01-5.46-1.2-1.57-2.65-2.91-4.19-4.12-1.15-.9-2.49-1.55-3.75-2.32-.28-.17-.62-.28-.82-.64.48-.3.96-.33,1.44-.36,1.67-.1,3.33-.28,5-.26,1.22.02,2.43.28,3.64.49.37.06.71.32,1.04.52.33.2.64.45.96.68.14-.14.06-.31-.08-.6.35.06.59.06.81.14,1.01.38,2.02.76,3.02,1.17,3.27,1.33,6.51,2.74,9.81,4,2.29.88,4.64,1.57,6.97,2.35,1.12.37,2.22.78,3.34,1.16,1.21.4,2.39.86,3.47,1.56.49.09.79.07,1.05.17,2.11.79,4.15,1.74,6.07,2.91.54.33,1,.76,1.51,1.16.32-.08.54-.09.79.03.58.27,1.17.49,1.73.8,1.8.98,3.59,1.98,5.39,2.99.07.04.09.16.19.34-.52.12-1.02.29-1.52.34-.26.03-.56-.11-.82-.23-.35-.17-.67-.4-1-.61-.11.25,0,.49.13.81-1.3.22-2.47-.1-3.64-.37-1.56-.35-2.92-1.08-3.97-2.32-.79-.93-1.62-1.82-2.43-2.73-.71-.8-1.33-1.69-2.28-2.25-.1.13,0,.36.15.55,1.21,1.48,2.44,2.95,3.66,4.43.06.07.09.17.15.29-.1.14-.23.29-.33.45-.76,1.12-1.17,1.28-2.45.84-1.07-.36-2.12-.79-3.18-1.16-.48-.17-.83-.48-1.18-.84-.54-.56-1.12-1.12-1.75-1.56-2.5-1.75-4.82-3.72-7.11-5.72-.25-.22-.52-.41-.89-.69-.01.53.3.72.52.93,2.06,1.97,4.17,3.89,6.49,5.55.51.37,1.07.69,1.56,1.3-.34.09-.64.09-.83.23-.22.17-.36.45-.49.71-.42.81-1.07,1.08-1.95.94-1.42-.22-2.77-.65-4.06-1.27-.61-.32-1.06-.5-1.51-.69-.41-.17-.81-.36-1.22-.51-1.2-.44-1.47-.26-1.72,1.08,0,.04-.05.08-.09.14-.36.25-.74.08-1.11,0-1.97-.47-3.84-1.2-5.68-2.02-.49-.22-.98-.45-1.48-.66-.65-.28-1.31-.42-2.02.05h0Zm-29.15-58.77c-.06-.47-.12-.64-.08-.77.1-.38.24-.75.41-1.22.33-.92.61-1.73,1.18-2.41-.41,1.38-.67,2.81-1.51,4.4h0ZM52.04,220.21c.18-.55.43-1.08.83-1.58-.02.19,0,.39-.05.57-.94,2.91-1.48,5.9-1.75,8.93-.09,1.02.05,2.06.09,3.22,0,1.07-.02,2-.03,2.94,0,.08-.08.16-.13.25-.25.09-.37-.06-.43-.25-.09-.33-.2-.67-.2-1,.02-2.21-.16-4.42.18-6.61.35-2.18.82-4.34,1.48-6.45h0Zm10.27-4.18s.05.03.07.03c-.09.49-.14,1-.3,1.47-.98,2.93-1.71,5.94-2.42,8.95-.12.52-.18,1.06-.3,1.59-.02.1-.22.23-.32.22-.11-.01-.24-.15-.3-.27-.06-.12-.08-.29-.06-.43.04-.34.1-.68.18-1.01.93-3.41,1.85-6.82,3.16-10.1.06-.13.12-.26.28-.44h0Zm-32.07,25.53c.19-.99.48-1.97.88-2.92-.02.33,0,.66-.06.99-.6,3.71-1.2,7.42-1.81,11.13,0,.06-.15.1-.23.14-.27-.54-.27-.54-.23-1.27.49-2.77.95-5.42,1.45-8.06h0Zm113.74-142.3c-.44.09-.75-.17-1.05-.38-.48-.34-.93-.72-1.39-1.09-3.21-2.59-6.53-5.03-10.24-6.89-.2-.1-.37-.25-.53-.45.75.02,1.38.4,2.14.73,3.98,2.07,9.67,6.23,11.07,8.08Zm-15.24-43.98c2.45,1.38,5.02,2.45,7.72,3.23.75.22,1.47.55,2.19.86.16.06.27.23.48.42-2.94-.26-8.44-2.59-11.8-5.04-.02-.04-.02-.06-.03-.07.48.2,1,.34,1.45.6Zm-1.45-.6s-.02,0-.02,0c0,0,0,0,.02,0Zm-2.41,3.61c1.79.88,3.57,1.78,5.54,2.77-.37.03-.59.11-.76.06-.42-.12-.85-.25-1.23-.46-1.28-.7-2.55-1.43-3.88-2.23.08-.1.24-.19.34-.14h0Zm26.87,31.79c-.51-.45-.96-.96-1.46-1.56,2.14,1.44,4.17,3.12,5.78,5.26,1.54,2.06,3.44,3.74,5.52,5.23,1.47,1.06,2.87,2.2,4.29,3.33.34.27.64.61.9.95.07.1-.05.34-.18.58-.53-.4-.94-.9-1.43-1.29-1.18-.96-2.37-1.91-3.62-2.79-2.35-1.66-4.44-3.56-6.12-5.91-1.04-1.45-2.36-2.63-3.68-3.81h0Zm-39.81,157.67c-.22-2.6.22-5,.72-7.4.14-.65.18-1.35.77-2.16-.16,1.07-.26,1.88-.4,2.68-.37,2.12-.59,4.25-.45,6.41.05.71.09,1.43-.12,2.24-.72-.49-.45-1.12-.53-1.79h0Zm5.99-3.14c-.37-1.21-.06-2.41-.01-3.75.18-1.55.35-2.95.53-4.36.02-.18.08-.34.25-.5,0,.82.03,1.65,0,2.47-.08,1.76-.19,3.52-.29,5.28-.02.33.04.71-.46.86h0Zm-3.16-220.86c-1.17-.12-2.29-.44-3.31-1.07,1.23.18,2.43.41,3.67.83-.1.14-.23.25-.36.24Z"/>
</svg>