<?xml version="1.0" encoding="UTF-8"?>
<svg id="Layer_1" data-name="Layer 1" xmlns="http://www.w3.org/2000/svg" viewBox="0 0 237.29 351.49">
  <defs>
    <style>
      .cls-1 {
        fill: #fff;
        stroke-width: 0px;
      }
    </style>
  </defs>
  <path class="cls-1" d="m171.38,120.82c-1.2,3.05-2.13,6.08-3.6,8.82-1.48,2.75-3.67,5.11-4.43,8.27-.07.38-.27.79-.21,1.1.14.45.48.86.72,1.27.34-.27.69-.48.96-.76.27-.27.41-.69.72-.89.48-.27,1.03-.62,1.54-.58.31.03.62.69.82,1.1.24.48.41,1,.62,1.51.76-.96,2.54.76,3.05-1.27.41-1.65,1.37-1.72,2.92-.93.51.31,1.34.17,1.96.03,1.44-.24,2.81-.89,4.22-.93,2.44-.03,3.67,1.99,4.67,3.74,1,1.68,1.75,3.6,1.48,5.73-.21,1.75-1.82,2.92-3.54,2.37-.34-.14-.69-.31-1.03-.38-.76-.14-1.48-.24-2.23-.34.31.58.79,1.17.89,1.78.17.89.38,2.09-.07,2.71-.31.41-1.68.21-2.57.1-.93-.14-1.58-1.51-2.88-.41-.89.76-.72,1.37-.27,2.03,1.03,1.58.82,2.3-.17,3.81-.55.86-.45,2.23-.48,3.36,0,.82.14,1.65.34,2.44.1.34.48.62.72.93.1-.34.27-.69.27-1.03.03-1.54,0-3.09.03-4.63,0-.41,0-.96.24-1.24.58-.65,1.34-1.13,2.03-1.68.48.72,1.13,1.34,1.48,2.13,1.78,4.26,2.27,8.82,3.16,13.28.48,2.37,1.48,4.63,2.23,6.97.48,1.41.96,2.81,1.48,4.19.14.34.51.58.79.89.1-.34.24-.69.24-1.03-.1-4.08-.21-8.17-.34-12.22-.07-1.92-.21-3.81-.31-5.7-.03-.41-.14-.89.07-1.17.51-.69,1.17-1.24,1.75-1.85.76.86,1.92,1.61,2.2,2.61.62,2.33.79,4.74,1.1,7.11.62,4.53,1.13,9.03,1.75,13.56.38,2.71.89,5.46,1.37,8.17.1.51.45,1,.65,1.51.24-.55.58-1.1.69-1.68.21-.96.14-1.96.38-2.92,1-4.22,1.78-8.51,3.19-12.6.65-1.92,2.51-3.43,3.81-5.08.1-.14.45-.27.48-.24.17.21.38.45.38.69.03,3.64.21,7.28-.03,10.88-.21,3.26-.86,6.49-1.3,9.71-.03.27.14.58.24.89.17-.21.41-.41.55-.65,2.37-4.12,5.35-7.79,8.79-11.09.79-.79,1.99-1.3,3.09-1.61,1.1-.27,1.75.41,1.75,1.61-.03,2.68-1.34,4.84-2.64,7-3.23,5.42-8.17,9.27-12.6,13.59-2.54,2.47-4.36,5.53-4.91,8.92-.45,2.81.38,5.73,1.54,8.44.86,1.99,1.65,4.02,2.47,6.01.1.27.27.48.41.72.21-.24.51-.45.58-.72.62-2.23,1.17-4.46,1.75-6.66.07-.31.27-.72.48-.79.21-.07.69.17.79.41.65,1.37,1.41,2.78,1.75,4.22.93,3.71-.14,7.14-1.54,10.57-.38.93-.03,2.2.1,3.3.51,4.22,2.47,8,3.88,11.94,1.54,4.26,2.99,8.58,4.46,12.91.1.27.31.58.45.86.1-.34.31-.72.24-1.03-.45-2.27-.93-4.53-1.44-6.8-1.06-4.29-2.16-8.58-1.96-13.08.03-.45.31-.89.45-1.34.31.27.76.48.93.82,1.06,2.16,2.06,4.32,3.09,6.45.17.34.51.58.79.89.07-.34.21-.72.21-1.06-.03-2.99.58-5.8,2.09-8.41.17-.31.45-.55.65-.82.17.31.27.62.45.93,1.65,3.43,2.4,7.07,2.33,10.88,0,1.44.31,2.88.48,4.32.03.24.24.45.38.69.17-.27.45-.55.48-.82.14-1.72.21-3.47.38-5.18.03-.41.31-.79.48-1.17.41.17.93.27,1.27.55,1.37,1.1,1.48,2.75,1.65,4.29.31,2.99.72,5.97.62,8.96-.07,2.27-.96,4.5-1.44,6.76-.07.31,0,.69,0,1.03.27-.21.62-.41.82-.69,1.85-2.47,3.64-5.01,5.53-7.48.55-.72,1.24-1.37,1.99-1.85.48-.31,1.2-.31,1.78-.21.17.03.27.79.31,1.24.34,3.3-1.3,6.08-2.51,8.92-2.57,6.04-6.69,11.22-10.19,16.72-1.75,2.71-2.37,5.46-1.41,8.65.79,2.57,1.17,5.25,1.78,7.86,1.24,5.15,2.57,10.26,3.74,15.45,1.68,7.31,3.23,14.69,4.84,22.04.45,2.13,1.06,4.29,1.3,6.45.21,1.89-1.61,3.57-3.54,3.57-.93,0-1.92.07-2.85-.14-2.57-.51-3.26-2.75-3.81-4.81-.48-1.85-.55-3.81-.72-5.73-.51-4.98-.45-9.99-1.68-14.9-1.78-7.14-3.12-14.38-4.91-21.52-1.37-5.53-5.08-9.64-9.64-12.7-2.78-1.89-6.14-2.99-9.85-2.06-2.47.65-5.08,1.03-7.62,1.03-4.74.07-8.96-1.61-12.63-4.6-.79-.62-1.44-1.41-2.06-2.2-.96-1.3.07-1.75,1.03-2.03.51-.17,1.17-.1,1.72-.03,3.16.48,6.35,1,9.51,1.48,1.34.21,2.71.38,4.05.58,3.05.51,6.08,1.06,9.13,1.58.41.07.86.03,1.27.03-.31-.38-.58-.79-.96-1.06-2.85-2.09-5.84-4.02-8.58-6.25-5.84-4.7-9.92-11.02-14.62-16.72-.76-.89-1.13-2.16-1.48-3.33-.1-.38.24-1.3.55-1.37.79-.24,1.85-.41,2.51-.07,2.75,1.51,5.46,3.16,8.07,4.94,3.02,2.06,5.97,4.22,8.82,6.49,1.44,1.1,2.61,2.54,3.95,3.78.27.27.69.38,1.06.55-.1-.34-.14-.72-.31-1.03-1.34-2.4-2.85-4.77-4.02-7.28-.76-1.61-1-3.47-1.44-5.22-.07-.24.1-.51.14-.79.27.17.62.27.82.48,1.65,1.72,3.05,3.67,4.91,5.11,2.75,2.16,4.08,5.29,6.11,7.93.31.41.65.76.96,1.13-.07-.58-.03-1.17-.21-1.72-.58-1.65-1.2-3.3-1.82-4.91-2.54-6.69-5.11-13.35-7.62-20.01-.69-1.78-1.3-3.6-1.96-5.39-.76-2.09-1.75-3.84-4.29-4.29-2.37-.45-4.67-1.2-7.04-1.65-.86-.14-1.85.34-2.75.27-2.03-.14-4.05-.48-6.08-.62-.79-.07-1.61.31-2.44.27-3.95,0-7.65-1.24-11.29-2.51-3.81-1.3-7.31-3.26-10.54-5.66-2.51-1.89-5.11-3.67-7.65-5.53-.21-.17-.27-.48-.41-.72.24-.1.55-.31.79-.27,2.03.17,4.08.27,6.08.69,3.5.69,7.04,1.44,10.47,2.4,3.05.86,6.01,2.09,8.99,3.16.34.14.62.48.96.55.38.07.76-.07,1.17-.1-.24-.24-.41-.55-.69-.72-2.54-1.82-4.29-4.32-5.97-6.93-.76-1.24-.96-2.64-.07-3.3.79-.58,2.54-.62,3.47-.14,3.57,1.78,6.9,4.12,10.5,5.8,3.6,1.72,7,3.71,10.13,6.14.45.38.69,1,1.13,1.41.24.27.69.34,1.03.48,0-.38.07-.79-.03-1.13-.65-1.61-1.34-3.23-2.06-4.84-1.37-2.99-2.81-5.9-4.12-8.92-.65-1.58-1.82-2.16-3.36-2.51-3.71-.72-7.45-1.3-11.02-2.47-2.4-.79-4.74-2.27-6.76-3.88-3.74-3.02-7.69-5.94-10.02-10.33-.65-1.2-1-2.57-1.34-3.88-.17-.76-.17-1.72.93-1.78.76-.03,1.72-.03,2.2.38,1.48,1.37,2.71,3.02,4.19,4.39,1.61,1.51,3.33,2.88,5.08,4.19,1,.72,2.13,1.2,3.23,1.75.31.17.69.21,1.06.31-.21-.27-.38-.58-.58-.86-1.58-2.13-3.98-3.67-4.5-6.56-.14-.65-.55-1.3-.58-1.96,0-.62.21-1.17,1.13-.62,2.37,1.48,4.77,2.81,7.21,4.15,2.54,1.41,5.18,2.61,7.04,4.98.17.17.62.1.93.17-.03-.24,0-.55-.14-.72-2.37-3.05-4.53-6.35-7.21-9.16-2.78-2.92-6.14-4.94-10.5-5.29-2.92-.24-5.66-.1-8.58.27-4.53.62-9.27.58-13.42-2.2-.62-.41-1.37-.72-1.85-1.24-.38-.45-.82-1.44-.65-1.68.48-.58,1.3-1.13,2.03-1.17,1.37-.1,2.78.24,4.15.24,1.61,0,3.23-.1,4.84-.34,2.03-.24,4.05-.76,6.08-.96,3.09-.34,6.14-.86,9.27.24,3.09,1.1,5.9,2.47,8.44,4.57.31.24.69.38,1.06.58-.03-.41.14-.96-.07-1.27-2.75-3.88-4.26-8.72-8.62-11.33-2.37-1.44-4.98-2.57-7.52-3.78-.51-.24-1.27-.1-1.92-.03-2.95.41-4.87,2.85-7.48,3.88-.48.21-1,.34-1.48.58-1.3.69-2.51.51-3.4-.58-.89-1.1-.82-2.33-.38-3.71.55-1.61,1.58-2.71,2.95-3.57.17-.14.34-.27.55-.45-.17-.07-.34-.17-.51-.27-1.03-.69-2.2-1.24-3.05-2.09-.65-.69-1.03-1.78-1.17-2.71-.03-.41.96-.89,1.44-1.37.14-.1.24-.34.21-.48-.07-.24-.27-.45-.34-.72-.21-.72-.38-1.48-.55-2.2.96.03,1.92.03,2.92.14.31.03.62.31.93.45-.07-.34-.21-.65-.21-1-.03-.65,0-1.3.07-1.92.03-.48.17-.96.27-1.44.07-.34.14-.72.21-1.06.38.24.86.38,1.13.72.76.93,1.41,1.92,2.09,2.88.14.21.31.34.48.51.07-.27.14-.51.21-.76.03-.34.14-.65.17-.96.03-1.13.24-2.33-.03-3.36-.41-1.58-.1-2.64,1.41-3.12.93-.31.79-.51.27-1.17-1.99-2.51-4.6-4.02-7.65-4.63-.93-.17-2.16.27-3.05.79-2.81,1.65-5.46,3.6-8.34,5.15-2.78,1.48-5.84,1.3-8.79.41-.62-.21-1.27-.58-.48-1.41.48-.48.72-1.2,1.24-1.51,2.57-1.54,5.18-2.95,7.79-4.39.14-.1.31-.1.48-.14.72-.27,1.48-.58,2.2-.86-.79-.27-1.54-.69-2.37-.82-4.7-.79-8.51-3.3-11.94-6.35-1.68-1.51-3.09-3.26-4.5-4.98-.27-.31-.03-1.03-.03-1.58.55,0,1.24-.21,1.72.03,4.05,2.23,8.03,4.57,12.56,5.66,2.06.48,4.19.69,6.32,1,.17.03.41-.07.62-.14-.17-.17-.31-.41-.51-.58-1.3-1.2-2.61-2.44-3.95-3.6-1.72-1.51-1.96-3.57-2.33-5.56-.03-.27.21-.62.31-.89.24.1.51.17.72.34,1.72,1.48,3.43,2.99,5.18,4.43.24.24.62.27.93.38-.1-.34-.14-.69-.31-1.03-.93-2.13-1.99-4.19-2.81-6.35-.38-1-.27-2.2-.55-3.23-1.2-4.46-4.15-7.11-8.62-8.13-.48-.1-.89-.34-1.37-.48-.76-.17-1.54-.34-2.3-.48.14.76.24,1.54.38,2.3.14.76.48,1.48.51,2.2.07,2.71-1.61,3.98-4.29,3.33-.69-.17-1.41-.38-2.09-.31-1.27.1-2.47-.14-2.78-1.34-.34-1.24-.14-2.64-.07-3.98,0-.45.31-.93.58-1.3.65-.89.31-1.44-.45-1.99-.34-.24-.86-.72-.79-.82,1.13-2.09-1.78-2.99-1.37-4.63.41-1.48,1.89-1.48,3.19-1.41.17,0,.34-.07.55-.14-.96-1.44-.45-3.23-1-4.6-.62-1.61-2.16-2.92-3.47-4.15-2.68-2.57-5.56-1-8.31-.1-2.75.89-5.35,2.23-8.13,3.12-3.6,1.17-7.31,1.48-11.09.76-1.34-.24-2.75-.17-4.12,0-2.23.27-3.98-.86-5.84-1.65-.24-.1-.41-.38-.62-.58.24-.17.48-.48.76-.55,3.4-.82,6.76-1.61,10.16-2.37.55-.14,1.17.03,1.72-.07.38-.07.72-.38,1.1-.55-.31-.27-.62-.76-.93-.76-2.81-.03-4.91-1.72-7.11-3.16-.38-.24-.69-.69-.89-1.13-.31-.65-.48-1.41-.69-2.09.65.07,1.34.14,2.03.17.31.03.69,0,1.03,0,.45.03.93.03,1.41.07-.38-.38-.79-.72-1.13-1.1-2.23-2.54-4.57-5.01-6.66-7.69-.93-1.2.03-2.51,1.61-2.23,1.27.24,2.61.62,3.78,1.24,3.12,1.58,6.14,3.36,9.23,5.05,2.85,1.54,5.73,3.02,8.62,4.5.24.1.62.07.93.1-.14-.31-.21-.72-.41-.93-1.85-1.85-3.33-3.91-3.98-6.45-.17-.69-.1-1.44-.14-2.16.65.21,1.34.41,1.99.62.34.14.69.31,1.03.41.14.03.31-.07.48-.07-.07-.14-.1-.27-.17-.38-1.13-1.37-2.61-2.13-4.36-1.92-1,.14-2.03.58-1.92,2.03.07,1.2-.38,2.33-1.72,2.33-1.24.03-1.75-.93-1.72-2.2,0-.27-.51-.82-.62-.79-2.4.96-4.43-.31-6.49-1.06-1.75-.65-3.5-1.3-5.11-2.16-3.4-1.78-3.12-2.81-.76-5.87.41-.51,1.41-.65,2.16-.86.41-.14.93.03,1.37-.07.27-.03.55-.27.82-.45-.24-.17-.45-.38-.69-.55-.62-.34-1.3-.58-1.78-1.03-.48-.48-.76-1.17-1.13-1.75.51-.24,1.06-.41,1.54-.65.48-.24.96-.51,1.44-.76-.55-.21-1.06-.58-1.61-.58-4.94.03-9.51,1.34-13.73,4.08-4.77,3.09-9.82,2.44-14.83.55-.58-.24-1.13-.72-1.54-1.2-.79-1.06-.31-2.47.86-2.4,4.46.27,8.27-1.85,12.32-3.05,2.88-.86,6.01-.96,9.03-1.44.51-.1,1-.31,1.51-.45-.41-.21-.86-.48-1.3-.58-1.24-.27-2.44-.62-3.67-.65-2.16-.03-4.19-.27-6.28-1-3.57-1.24-7.11-.89-10.61.69-1.85.86-3.98,1.24-6.01,1.61-2.61.51-4.12-1.17-3.74-3.84.03-.24-.34-.62-.62-.79-1.85-1.1-2.06-1.82-1.37-3.81.17-.45.03-1.27-.31-1.61-1.58-1.72-3.26-3.33-4.91-4.98-.82-.82-1.51-1.96-.55-2.85.72-.69,2.03-1.24,2.99-1.13,2.81.31,5.59.89,8.07,2.44.21.14.58,0,.89,0-.14-.27-.17-.65-.41-.82-1.2-.89-2.44-1.82-3.67-2.64-1.54-1.03-3.05-2.03-4.67-2.88-1.78-.96-3.3-.1-4.98,1.99-1.68,2.13-3.47,4.29-6.28,5.22-3.16,1-4.02-.27-4.6-3.05-.38-1.75.17-3.36,1.58-4.63.48-.45.82-1.03,1.1-1.61.27-.62,1.17-1.65.14-1.96-.79-.21-2.06.38-2.81.96-.76.62-1.17,1.65-1.75,2.51-2.61,3.98-7.76,5.11-11.64,2.61-1.85-1.2-2.03-2.06-.45-3.5,1.2-1.1.96-2.51.55-3.57-.31-.72-1.61-1.3-2.54-1.44-1.24-.17-2.51-.1-3.09-1.44-.45-1.1.69-3.5,1.96-4.08,1.17-.51,2.44-.79,3.67-1.03.76-.17,1.82.27.72-1.17-.55-.69-.41-1.85.55-2.51.79-.58,1.65-1.06,2.33-1.75.41-.34.51-1.03.69-1.58.24-.76.41-1.54.58-2.3,1.1.31,2.33.34,3.19.93,1.48,1.03,2.68,2.4,4.05,3.57.27.27.79.31,1.17.41-.14-.41-.14-.96-.41-1.27-.96-1.2-2.09-2.2-2.95-3.43-.41-.55-.55-1.58-.27-2.13.21-.48,1.17-.79,1.82-.76.93,0,1.85.45,2.81.62.76.14,1.58.1,2.37.21.45.07.96.14,1.37.34.38.14.65.48.96.72.17-.45.41-.93.41-1.37-.03-.55-.27-1.06-.41-1.61.55.34,1.17.62,1.61,1.06,1.58,1.51,3.43,2.78,4.02,5.15.34,1.3.38,2.33-.48,3.33-.65.72-.62,1.24.1,2.06,1.78,1.99,3.36,4.19,5.01,6.32,2.54,3.19,6.08,4.94,9.78,6.28,3.6,1.3,6.45,3.78,9.58,5.84.41.27.86.48,1.3.72-.17-.55-.21-1.17-.51-1.61-1.34-1.99-2.92-3.81-4.05-5.9-.69-1.27-1.03-2.92-.96-4.36.1-1.48,1.92-1.92,3.09-.93.65.55,1.03,1.24,1.17-.38.1-1.13.86-1.92,2.3-1.82.79.03,1.61-.58,2.47-.62,1.24-.07,2.71-.34,3.71.21,2.61,1.41,4.84,3.43,6.38,5.97,1.61,2.68,1.99,5.53-.72,7.96-1.3,1.2-2.23,2.81-3.3,4.29-1.2,1.65-.69,4.6.86,5.84,1.78,1.41,3.54,2.81,5.32,4.19.17.14.51.1.79.14-.07-.27-.03-.58-.17-.79-1.34-1.96-1.96-4.15-2.23-6.45-.07-.58.03-1.17.07-1.75.89.17,2.03,0,2.61.51,1.3,1.1,2.44,2.47,3.47,3.88,1.48,2.03,2.64,4.29,4.19,6.28.76,1,2.06,1.54,3.12,2.3.07.03.24-.03.34,0,1.1.51,2.2,1,3.33,1.51.34-1.03.45-2.3,1.13-3.05,2.78-3.16.45-5.7-1.06-8.1-2.64-4.26-6.56-7.31-10.5-10.33-.93-.72-1.54-2.13-1.85-3.33-.34-1.41,1.72-2.4,3.36-1.51,1.82.96,3.54,2.09,5.11,3.36,2.06,1.65,4.05,3.36,5.9,5.22,1.41,1.41,2.4,3.19,3.78,4.6,2.4,2.37,3.54,5.35,4.5,8.44.17.51.07,1.13.34,1.58.34.62.86,1.41,1.44,1.54,1.58.41,2.4,1.34,1.92,2.92-.48,1.58-1.34,3.09,0,4.63.07.07.03.24,0,.34-.96,3.43,1.72,5.53,3.09,8.07,1.61,3.05,3.43,6.01,5.18,8.99.34.55.79,1.03,1.2,1.51.17-.62.34-1.2.48-1.85.38-1.54.76-3.12,1.03-4.7.48-2.54,1.61-4.98.76-7.69-.34-1.06.14-2.37-.17-3.43-.41-1.51-1.27-2.88-1.85-4.36-.34-.89-.62-1.85-.76-2.78-.07-.76-.38-1.89.93-1.96.79-.03,1.78.1,2.4.55.86.62,1.44,1.58,2.13,2.37.14.17.27.38.41.55.1-.21.21-.45.27-.69.14-.45.21-.93.38-1.37.38-.93.79-1.82,1.2-2.75.58.79,1.34,1.51,1.65,2.4.93,2.57,1.58,5.15.76,8-.45,1.51-.03,3.3.24,4.91.27,1.68,1.17,3.3,1.2,4.98.1,2.85-.17,5.7-.45,8.55-.27,2.81-1.06,5.59-1.1,8.41-.03,2.37,1.34,4.32,3.4,5.63,1.27.86,1.75.51,2.03-1,.24-1.34.76-2.33,2.47-1.75.27.1.76-.07,1.06-.27,3.16-2.23,6.35-1.89,8.75,1.2,1.03,1.3,1.75,2.92,2.4,4.5.17.45-.24,1.58-.65,1.75-.76.27-1.75.21-2.57,0-1.24-.31-1.78-2.16-3.43-1.65-.51.17-1.03.45-1.51.65.41.24.82.58,1.3.72,1.27.34,2.09,1.92,1.2,2.71-1.44,1.34-.79,2.61-.03,3.67,2.44,3.4,5.15,6.66,7.59,10.09,2.54,3.6,4.87,7.35,7.31,11.02.24.38.62.65.93,1,.07-.38.21-.72.21-1.1,0-3.5.62-6.86,2.06-10.13.89-2.06-.14-4.02-.69-5.94-1.06-3.74-2.33-7.38-3.33-11.16-.34-1.27-.17-2.71,0-4.05.03-.31,1.37-.86,1.58-.69,1.03.86,2.16,1.78,2.75,2.92,1.54,3.09,2.81,6.28,4.19,9.44.1.24.21.48.34.72.14.24.34.48.55.72.14-.27.38-.55.45-.82.31-1.51.96-2.61,2.47-3.33,1.24-.58,1.58.03,1.61.82.21,3.36.1,6.66-1.85,9.71-.65,1.03-.51,2.68-.48,4.05.14,3.47.55,6.9.62,10.37.07,2.92-.21,5.84-.27,8.79,0,.45.41.89.65,1.34.24-.38.55-.72.69-1.13.96-2.71,1.92-5.42,2.75-8.13.76-2.51,1.34-5.05,2.09-7.55.48-1.58,1-3.16,1.75-4.6.34-.58,1.3-1.03,2.03-1.13.31-.07,1.1.79,1.17,1.3.48,2.92.62,5.84-.14,8.89M22.75,8.75c-.14-.07-.24-.1-.34-.34.21-.1.58-.38.69-.31,1.1.93,2.3,1.78,3.19,2.88,1.99,2.47,3.91,5.01,5.7,7.59,2.03,2.95,4.32,5.35,7.55,7.14,2.44,1.34,5.05,1.34,7.55,2.06.31.1.69-.14,1.06-.21-.27-.24-.48-.55-.79-.65-1.85-.76-3.78-1.37-5.59-2.23-2.57-1.17-5.22-2.23-6.93-4.77-1.54-2.33-3.33-4.5-5.18-6.59-1.82-2.06-1.92-1.96-.79-4.53.1-.21.03-.45.07-.69.27-1.78-.76-3.12-1.68-4.43-.21-.27-.62-.38-.96-.55-.14.34-.41.65-.45,1-.17,1.37.24,2.54,1.03,3.71.34.51.17,1.34.24,2.06-.41-.38-.82-.69-1.2-1.06-.17-.17-.31-.45-.41-.69-1.61-3.09-4.26-4.77-7.55-5.53-.38-.1-.79.07-1.17.1.14.27.24.58.41.82.48.72.86,1.61,1.48,2.13,1.24,1,1.58,3.09,3.74,3.09.1.07.21.1.34.34.1.07.21.1.34.34.1,0,.21,0,.31.03-.1-.07-.21-.14-.31-.38-.14-.07-.24-.1-.34-.34m143.47,149.65c.1.07.21.1.34.34.72,1.65,1.48,3.3,2.16,4.94.17.41.03.93.07,1.41-.27-.34-.65-.62-.86-1-.93-1.51-1.72-3.09-2.71-4.53-.24-.41-1-.51-1.51-.76.1.51.1,1.1.34,1.54,1.24,2.06,2.51,4.12,3.74,6.18.17.31.07.76.1,1.13-.27-.17-.55-.41-.86-.48-.31-.1-.69,0-1.06,0-.31,0-.69.1-.93,0-3.54-1.65-6.28-4.29-8.82-7.14-.96-1.06-2.23-2.06-3.47-1.41-2.47,1.3-4.5.17-6.69-.45-.58-.17-1.17-.27-1.78-.27-.21,0-.45.27-.65.41.14.21.27.45.45.58.51.34,1.03.58,1.54.86,2.23,1.17,3.67,3.91,6.76,3.33.03,0,.07.1.1.1,1.24.48,2.51.93,3.74,1.34.21.07.48.03.72.03-.17-.17-.27-.41-.48-.51-.82-.48-1.65-.93-2.47-1.41-.21-.1-.34-.31-.48-.48.14-.07.27-.14.45-.17,1.78-.38,3.4.62,4.02,2.37.07.21.17.45.34.55,2.06,1.2,4.05,2.68,6.28,3.43,2.27.76,3.95,2.03,5.56,3.6.24.24.55.34.86.51-.07-.41,0-.89-.21-1.17-1.2-1.51-1.41-3.16-.82-4.94.07-.21.34-.38.51-.58.17.21.48.41.48.62-.03.45-.24.82-.31,1.27-.07.41-.24.93-.07,1.27,1.17,2.71,2.37,5.42,3.6,8.1.62,1.3,1.44,2.51,1.92,3.84,1.65,4.7,3.09,9.47,4.77,14.14.96,2.68,2.27,5.25,3.36,7.89.24.58.34,1.24.45,1.85.03.38-.07.76-.14,1.13-.27-.31-.62-.62-.86-.96-.79-1.03-1.34-2.37-2.33-3.05-4.36-2.99-8.82-5.77-13.25-8.58-.34-.21-.79-.21-1.17-.31.1.38.1.86.34,1.17,2.54,3.05,4.67,6.56,8.41,8.41.45.21.93.34,1.41.51-.27-.45-.48-1-.86-1.3-1.68-1.41-3.43-2.75-5.15-4.15-.17-.14-.21-.38-.31-.58.21.07.41.07.58.21,2.47,1.89,4.91,3.81,7.41,5.66,1.92,1.41,3.78,3.05,5.94,3.91,1.2.48,1.61,1.13,1.99,2.03.14.31-.1.79-.21,1.2-.38-.17-.79-.31-1.13-.55-.62-.48-1.1-1.2-1.75-1.48-3.57-1.44-7.24-2.61-10.3-5.01-.55-.45-1.34-.72-2.06-.82-4.02-.58-7.31-2.54-10.16-5.32-1.65-1.61-3.05-3.5-4.63-5.25-.31-.31-.79-.48-1.17-.72.03.45,0,.96.17,1.37,1.24,3.12,3.05,5.84,5.77,7.89,1.44,1.1,2.75,2.4,4.22,3.47,1.37,1.03,2.71,2.23,4.7,1.99.69-.07,1.48.24,2.16.48,1.54.58,3.02,1.3,4.6,1.78,2.81.89,5.7,1.65,8.55,2.54.45.14,1,.48,1.2.89.72,1.61,1.3,3.33,2.03,4.94,1.27,2.85,2.71,5.63,3.88,8.51,1.2,3.05,2.09,6.21,3.3,9.27.69,1.72,1.85,3.26,2.47,4.98,1.96,5.25,3.57,10.67,5.66,15.86,2.88,7,5.35,14.18,7.45,21.45.93,3.23,1.58,6.56,2.47,9.78.21.86,1.06,1.51,1.27,2.37.65,2.44,1.34,4.84,1.48,7.45.17,2.78,1.65,5.46,2.33,8.24,1.78,7.41,3.98,14.76,4.84,22.38.55,4.98,1.1,9.95,1.72,14.9.17,1.48.41,2.92.69,4.36.1.76.27,1.48.48,2.2.07.17.45.24.69.38.07-.27.21-.51.17-.76-.07-.55-.24-1.06-.31-1.58-.03-.24.14-.48.17-.72.17.21.41.41.48.65.34.96.79,1.89.96,2.88.24,1.41,1.24,1.27,2.2,1.2,1.03-.07,1.48-.65,1.72-1.72.38-1.92-.24-3.64-.72-5.46-1-3.81-1.85-7.69-2.75-11.53-.72-2.99-1.41-5.97-2.06-8.92-.93-4.22-1.78-8.44-2.75-12.63-.48-2.23-1.34-4.39-1.68-6.66-.76-5.01-1.96-9.89-3.47-14.69-.24-.72-.1-1.82-.58-2.13-2.23-1.54-2.68-4.02-3.12-6.28-.65-3.47-.76-7.04-1.13-10.54-.1-1.06-.21-2.2-.58-3.19-1.27-3.47-2.75-6.86-4.08-10.33-1.03-2.71-2.13-5.39-2.99-8.17-1.1-3.5-1.99-7.07-2.95-10.64-.58-2.13,1.2-3.6,1.58-5.49.62-2.92.93-5.77.1-8.65-.03-.21-.21-.41-.34-.62-.14.21-.31.38-.38.58-.14.31-.27.62-.27.93.1,2.27-1.37,4.19-.82,6.69.48,2.27-1,4.67-.58,7.14.03.21-.24.45-.38.69-.1-.07-.27-.1-.27-.17-.14-1.24-1.34-2.03-.89-3.6.55-1.99.34-4.08-.89-6.04-1.51-2.4-2.71-5.05-3.88-7.65-.41-.89-.31-2.03-.55-3.02-.79-3.74-1.65-7.45-1.34-11.29.38-5.01-.55-9.85-1.75-14.72-1.03-4.22-1.72-8.58-2.33-12.91-.45-3.02-.48-6.11-.76-9.16-.14-1.51-.38-3.02-.72-4.5-.1-.48-.69-.86-1.03-1.3-.1.45-.27.93-.27,1.37.1,3.33.21,6.66.34,9.99.07,1.54.21,3.09.34,4.67.1,1.65.24,3.33.31,4.98.07.82-.1,1.68.03,2.47.38,2.3.82,4.57,1.37,6.8.38,1.54.89,3.09,1.41,4.6.24.72.86,1.37.93,2.13.24,2.37.31,4.74.38,7.11.07,1.92.07,3.81,0,5.73-.03.41-.48.82-.76,1.24-.17-.14-.45-.21-.48-.34-.17-.89-.62-1.89-.41-2.71.48-1.72.41-3.3-.38-4.91-.14-.31-.03-.72,0-1.06,0-1.03.21-2.06,0-3.02-.27-1.3-1.03-2.54-1.37-3.88-.69-2.75-1-5.63-1.92-8.31-1.17-3.43-2.92-6.66-4.12-10.13-1.27-3.64-2.27-7.41-3.23-11.19-.89-3.57-1.61-7.21-2.44-10.81-.03-.24-.41-.38-.62-.55-.14.17-.38.38-.38.55.1,2.64.14,5.29.41,7.89.31,2.81.79,5.59,1.3,8.38.51,2.95,1.1,5.84,1.72,8.75.07.38.38.76.58,1.1-.03-.41,0-.82-.07-1.27-.41-2.78-.82-5.59-1.2-8.41-.03-.14.07-.31.1-.45.07.14.21.31.24.48.45,1.61,1.2,3.26,1.3,4.91.24,4.19.65,8.31,1.78,12.32.41,1.37,1.13,2.64,1.65,3.95.51,1.41,1.61,2.99,1.3,4.19-.65,2.44,1.48,3.16,2.13,4.74.07.14.38.17.58.24.03-.21.14-.41.07-.58-.51-1.68-1.13-3.3-1.61-4.98-.51-1.75-.96-3.5-1.37-5.29-.03-.24.17-.55.27-.82.14.24.31.48.38.76.72,2.03,1.37,4.12,2.09,6.18.51,1.48,1.17,2.95,1.68,4.43.1.27-.03.93-.14.93-1.96.31-.31.89-.1,1.34.17.34.62.69.55.96-.14.82-.45,1.65-.69,2.44,0,.07-.07.1-.1.14-.17-.51-.34-1-.55-1.51-.03-.07-.1-.17-.21-.24-3.36-3.64-5.08-8.17-6.59-12.73-.93-2.71-1.44-5.59-2.16-8.38-.76-2.99-1.58-5.97-2.33-8.99-.48-1.78-.79-3.67-1.41-5.42-1.44-4.02-3.16-7.93-3.47-12.32-.07-1.17-.65-2.33-1.03-3.47-.24-.62-.58-1.2-.86-1.78.62.24,1.24.48,1.89.72.07.03.14.17.24.24.24.21.48.41.72.65.03-.41.24-.89.1-1.13-.45-.58-.96-1.41-1.54-1.51-1.24-.24-2.51-.07-3.78-.07-.17,0-.34.21-.48.27.1.14.24.27.38.41,2.88,2.4,2.81,5.84,3.02,9.13,0,.14-.27.45-.45.45-.21,0-.45-.21-.55-.38-1.51-2.13-2.99-4.29-4.46-6.62-.14-.07-.24-.1-.34-.34,0-.27.03-.58-.03-.82-.07-.38-.17-.79-.41-1.03-.14-.14-.82-.03-.86.1-.14.41-.24,1.03-.03,1.27.27.34.86.45,1.34.82m36.73,125.28c.41.45.82.93,1.3,1.3.38.27.86.38,1.27.55-.27-.34-.48-.72-.82-1-.55-.38-1.17-.69-1.75-1.2-1.17-.93-2.3-1.85-3.5-2.75-.1-.1-.38-.07-.55-.07.07.17.17.34.27.51.86,1.41,2.2,2.09,3.78,2.64m-54.57-118.07c.1-.41.27-.82.31-1.24,0-.17-.41-.38-.62-.55-.69,1.58-2.81,2.13-2.85,4.29,0,1.41.38,2.13,1.68,1.75,1.2-.34,2.37-.89,3.47-1.51.38-.21.51-.89.72-1.37-.41.07-.82.17-1.27.27-.55.07-1.06.21-1.61.21-.07,0-.14-.65-.17-.82.07.07.17.17.24.17.82-.24,1.61-.51,2.4-.76-.07-.14-.14-.38-.17-.34-.72,0-1.44.03-2.13-.1m6.18-38.1c.1,0,.21,0,.31.03-.1-.07-.21-.14-.31-.38.1-1,.34-1.96.31-2.95-.14-1.89-.48-3.81-.65-5.7-.17-1.92-.24-3.84-.38-5.73,0-.31-.14-.55-.21-.82-.24.24-.55.45-.72.72-.1.24-.03.55-.1.82-.21,1.51-.51,2.99-.65,4.5-.17,1.99-.31,3.95-.31,5.94,0,.45.51.89.82,1.34.03-.45.07-.89.17-1.3.07-.27.24-.51.38-.76.21.24.51.41.62.69.1.38.17.89,0,1.17-.79,1.13-.21,1.72.72,2.44m19.74,24.2c1.17-1,2.95-.96,4.53.07.31.21.69.34,1.06.51-.03-.45.03-.89-.14-1.27-.89-1.96-2.3-3.43-4.22-4.46-.41-.24-1.1-.38-1.2-.69-.38-1.27-1.13-.31-1.65-.31-.31,0-.65.41-.96.65.38.34.79.69,1.17,1.03.17.14.34.27.55.41-.24.1-.48.27-.72.24-.34,0-.76-.24-1.06-.17-.45.07-.82.38-1.2.62.03.1.1.21.17.27.79.62,1.2,1.75,2.51,1.78.34,0,.65.86.82,1.3h-3.84c-.34,0-.69.03-1.06.07.1.51.1,1.41.31,1.44,1.17.31,2.4.62,3.54.45.51-.07.82-1.27,1.41-1.96m30.72,46.51c-.17.27-.34.55-.48.82-.03.1.07.24.1.38.58-.65,1.48-1.2,1.61-1.92.17-.76-.1-.82.51-1.17.58-.34,1.37-.51,1.78-1.03,1.96-2.3,3.88-4.6,5.7-7.04.76-1.03,1.24-2.33,1.72-3.57.14-.38-.1-.93-.21-1.41-.41.21-.96.31-1.24.65-2.51,2.81-5.01,5.66-7.45,8.55-1.06,1.24-1.99,2.57-2.99,3.88-.62.89-1.34,1.72-1.82,2.68-.41.82-.55,1.82-.82,2.71-.03.24-.07.48-.1.72.24-.1.65-.14.69-.31.41-1.3,2.37-1.72,1.99-3.5-.03-.1.65-.41,1-.45m-79.12-97.31c-.58.1-1.17.24-1.75.34-.27.07-.55.14-.82.17.07-.31.07-.69.24-.89.48-.58,1.17-1,1.51-1.65.21-.38.1-1.13-.1-1.58-.21-.38-.76-.58-1.17-.86-.17.45-.31.89-.51,1.34-.1.24-.31.69-.38.69-.34-.1-.93-.31-.93-.51-.1-1.2-.27-2.47-.07-3.67.31-1.82-.21-2.64-2.09-2.64-.41,0-.86-.1-1.2.03-.31.14-.82.62-.76.79.21.69.76,1.3.96,1.99.31,1.13.31,2.37.76,3.47.34.79.24,1-.48,1.3-.86.38-1.72.86-2.51,1.41-.38.24-.55.76-.82,1.17.48.07,1.03.34,1.41.21.82-.31,1.61-.82,2.37-1.3.41-.24.79-.62,1.2-.82.27-.14.62-.03.96-.07-.1.24-.17.48-.27.72-.45,1.03-.86,2.06-1.34,3.05-.17.34-.17,1.72-1.1.41-.07-.1-.62-.07-.69.07-.65,1.03-1.44,2.03-1.75,3.19-.24.76.03,2.16.55,2.47.96.58,2.27.69,3.43.72.69.03,1.61-.31,1.99-.82.34-.45.17-1.37.03-2.03s-.58-1.24-.79-1.89c-.62-1.82.31-3.26,2.13-3.02,1.44.14,2.85.82,4.29,1.2.38.1.86-.03,1.27-.03-.27-.31-.48-.65-.76-.89-.89-.69-1.78-1.37-2.47-2.06.24-.21.51-.41.76-.62-.24-.14-.45-.27-.69-.41-.07.34-.17.69-.41,1.03m-10.98-18.19c-.62-.24-1.17-.58-1.78-.65-1.06-.17-2.37.24-3.16-.27-1.72-1.1-3.43-2.37-4.67-3.98-2.33-3.05-5.42-5.11-8.48-7.28-.21-.17-.58-.07-.89-.07.07.27.1.62.27.86.69,1.03,1.3,2.13,2.13,3.05,1.48,1.58,2.95,3.19,4.6,4.53,1.68,1.3,3.6,2.3,5.42,3.47.21.14.31.38.45.58-.21-.03-.48-.07-.69-.17-3.09-1.13-6.11-2.47-9.23-3.33-4.43-1.17-8.07-3.74-11.98-5.87-3.09-1.65-6.21-3.23-9.34-4.81-.34-.17-.82,0-1.24,0,.17.31.31.69.51.93,1.06,1.2,2.06,2.44,3.16,3.5,1.82,1.75,3.5,3.78,5.66,4.94,2.78,1.54,5.9,2.54,8.99,3.47,2.2.69,4.32,1.78,6.83,1.17.89-.24,1.96.1,2.92.27,1.37.31,2.68.69,4.05,1.03.65.14,1.3.21,1.96.34.48.1.93.21,1.41.34-.17-.48-.34-.93-.34-1.37,1.65,1.58,3.26,3.16,4.98,4.7.89.79,1.82,1.58,2.88,2.13.69.34,1.61.27,2.44.41.17.03.34.1.48.14,0-.17.07-.38,0-.48-.27-.41-.65-.76-.93-1.17-1.58-2.13-3.16-4.22-4.67-6.42-.48-.65-.62-1.54-1-2.3-.1-.21-.45-.31-.65-.45-.1.21-.31.45-.27.65.07.72.21,1.41.17,2.09m99.71,210.23c.1,0,.21,0,.31.03-.1-.07-.21-.14-.31-.38-.27-.93-.27-2.03-.79-2.75-2.68-3.91-4.57-8.34-8.44-11.46-3.78-3.02-6.97-6.8-10.74-9.75-4.43-3.47-9.23-6.42-13.9-9.54-.76-.48-1.65-.82-2.47-1.24.41.93.62,1.99,1.27,2.68,1.75,1.89,3.02,4.19,5.53,5.39,1.3.65,2.16,2.13,3.3,3.16,2.85,2.57,5.7,5.15,8.65,7.62,2.78,2.33,5.7,4.46,8.48,6.83,1.75,1.44,3.36,3.09,4.98,4.7,1.44,1.44,2.78,3.02,4.15,4.7M61.37,40.16c.55.93,1.17,1.78,1.65,2.75.07.21-.45,1-.65,1-1.44-.1-2.92-.14-4.26-.51-2.81-.82-3.23-1.2-2.44-4.57.17-.76.41-1.54.34-2.27-.41-3.4-3.54-6.69-6.97-7.38-2.03-.38-4.08-.69-6.11-1.03-.21-.03-.41.1-.62.17.07.17.07.45.21.55,1.41,1.24,2.13,2.92,3.12,4.36,1.58,2.2,3.74,3.95,5.66,5.9.48.48,1.2,1.41,1.44,1.3,1.85-.89,1.06,1.2,1.82,1.51-.14.21-.31.62-.38.58-.51-.1-1.13-.14-1.51-.45-2.64-2.09-5.32-4.19-7.83-6.42-3.3-2.99-7.38-3.6-11.53-4.08-.17,0-.41.1-.62.14.1.24.17.51.34.72,2.09,2.33,4.08,4.81,6.35,6.93,1.1,1.06,2.51,1.99,4.36,1.85,2.06-.14,4.12-.17,6.14.93,1.78.96,3.36,2.57,5.73,2.3.82-.1,1.68.31,2.54.45,2.88.38,5.77.72,8.65,1.1.76.1,1.51.21,2.2.48,1.61.72,3.16,1.48,4.7,2.3,1.2.62,2.3,1.34,3.47,2.03.72.41,1.44.96,2.23,1.2.34.1,1.27-.48,1.27-.62-.24-1.44-.41-2.95-1.06-4.19-.89-1.65-2.23-3.09-3.33-4.63-1.44-1.92-2.85-3.84-4.26-5.77-.17-.21-.45-.27-.69-.41-.07.31-.27.65-.21.89.27.76.76,1.41,1,2.16,1.2,3.95,3.12,7.38,6.86,9.47.27.17.51.45.72.72.24.34.41.72.58,1.06-.45-.03-1.03.07-1.37-.17-1.72-1.3-3.33-2.68-5.05-3.98-.65-.48-1.37-.86-2.06-1.24-3.09-1.65-6.38-3.02-7.93-6.56-.79-1.78-1-3.74-2.37-5.39-2.16-2.57-4.87-4.91-5.01-8.68-.03-.62-.24-1.24-.14-1.82.27-1.48.69-2.92,1-4.39.07-.27-.21-.65-.31-.96-.45.17-1.17.21-1.3.51-.27.65-.27,1.44-.31,2.16,0,.27.45.55.45.82,0,.51-.17,1.03-.27,1.51-.27-.31-.55-.62-.82-.93-.69-.79-1.34-1.61-2.09-2.33-.21-.24-.65-.24-1.03-.34-.03.34-.21.69-.1.96.55,1.61.93,3.36,1.85,4.74,2.09,3.16,4.5,6.11,6.69,9.23.82,1.17,1.44,2.47,2.06,3.78.31.69.34,1.44.51,2.2-.51-.65-1-1.3-1.51-1.96-1.48-1.78-2.95-3.6-4.46-5.35-.14-.21-.58-.17-.89-.17-.03-.03-.21.45-.14.58.69,1.17,1.13,2.75,2.13,3.36,1.58.96,2.51,2.23,3.54,3.88m97.31,102.46c-.58-.55-1.2-1.1-1.72-1.72-1.06-1.24-1.99-2.75-4.02-2.23-.27.1-.55.34-.79.55-.03.03.14.41.27.45,1.61.48,2.13,1.72,2.78,3.12.58,1.2,2.06,1.99,3.12,2.95.17.14.34.31.51.48.03-.27.07-.55.17-.79.58-1.44.65-3.3,2.92-3.4.21,0,1.78-.38.21-1.2-.45-.21-.58-1.2-.72-1.89-.38-1.61-.69-3.26-1.06-4.87-.07-.24-.34-.45-.58-.62-.14-.14-.38-.17-.55-.27-.07.24-.24.51-.21.72.31,1.3.69,2.61,1,3.88.07.24,0,.48,0,.76-.24-.17-.55-.27-.65-.48-.27-.62-.34-1.37-.72-1.92-.82-1.17-1.78-2.23-2.75-3.3-1.75-1.92-3.19-4.05-4.29-6.45-.89-1.89-2.37-3.47-3.57-5.22-3.43-4.91-6.38-10.09-10.5-14.52-2.71-2.92-4.94-6.25-7.45-9.37-.21-.31-.72-.69-.93-.62-.72.34-1.51.72-2.03,1.3-.14.21.41,1.06.69,1.58.14.21.48.31.62.51,2.54,3.19,5.05,6.38,7.55,9.58.21.24.24,1.13,1.06.27.96-1,1.99-.51,2.47.86.17.51.34,1,.48,1.51,1.27,4.74,4.46,8.31,7.28,12.08,2.09,2.81,4.43,5.42,5.63,8.86.51,1.58,1.54,3.16,2.81,4.26,1.54,1.37,2.4,2.92,2.95,5.15m63.16,126.66c.21-1.75.55-3.47.65-5.22.1-2.27.21-4.57-.07-6.83-.34-3.05-1.06-6.04-1.61-9.06-.27-1.41-.45-2.81-.72-4.19-.07-.34-.34-.62-.51-.96-.17.41-.45.79-.48,1.2-.17,1.48-.1,2.99-.38,4.46-.72,3.91-1.85,7.76-2.3,11.7-.38,3.36-.1,6.76-.07,10.16,0,.21.1.41.17.62.17-.21.34-.45.58-.58.17-.1.41-.07.62-.1,0,2.3.24,4.63.03,6.93-.24,2.64.72,4.84,1.82,7.07.03.14.34.14.55.17.03-.82.45-1.96.07-2.47-1-1.24-1.1-2.57-1.1-4.02v-3.5c0-2.13-.14-4.26.03-6.38.17-2.33.62-4.67,1-7,.1-.58.34-1.17.55-1.75.14.62.55,1.3.41,1.85-.65,2.61-.58,5.25-.65,7.93-.07,2.78-.27,5.59-.27,8.41-.03,1.06.38,2.13.58,3.16.03.21.17.38.24.55.07-.14.14-.27.14-.45.24-3.78.48-7.59.72-11.7M33.05,24.2c.31.07.62.17.93.24.21.07.45.14.69.17-.1-.27-.17-.58-.34-.79-.14-.21-.41-.38-.65-.48-2.81-1.13-5.66-2.3-8.51-3.43-1.13-.41-2.23-.41-3.23-1.61-.93-1.06-1.3-1.96-1.27-3.23,0-.31-.17-.65-.34-.89-.14-.21-.45-.31-.65-.45-.14.21-.34.41-.34.62,0,1.17,0,2.33,1.06,3.19.24.21.1.96,0,1.41-.03.1-.96.17-1.03,0-.55-.89-1.27-1.85-1.34-2.81-.14-1.44-1.24-3.57,1.65-3.78-.03-.21,0-.51-.14-.62-2.16-1.85-4.39-3.71-6.59-5.56-.31-.27-.72-.41-1.06-.62-.03.48-.17,1-.1,1.48.17,1.44.55,2.88.65,4.36.1,1.37.48,2.47,1.72,3.19.62.38,1.24.72,1.72,1.24.34.38.48.96.72,1.48-.45-.07-.93-.03-1.27-.21-2.81-1.54-5.59-3.12-9.03-2.68-1.89.24-3.67.65-4.5,2.64-.1.21.14.76.21.76,1.96-.14,3.47,1.03,5.15,1.68,1.65.62,3.78,1.48,5.11.93,1.65-.72,2.85.24,4.22-.07.34-.07.72.07,1.06.14-.14-.41-.21-.79-.38-1.17-.1-.27-.31-.48-.48-.72.34.07.72.1,1.03.24.86.45,1.61,1.1,2.51,1.37,2.54.79,5.15,1.37,7.69,2.09,1.68.51,3.33,1.13,5.15,1.89m145.88,205.26c.41.31.82.69,1.3.96,1.75,1,3.5,2.03,5.32,2.85.48.24,1.2-.17,1.85-.27-.45-.21-.86-.38-1.27-.62-.65-.41-1.3-.89-1.96-1.3.86.24,1.96.21,2.51.76,1.41,1.41,3.33,1.13,4.91,1.89.24.14.65-.03.96-.07-.21-.21-.38-.45-.62-.58-2.23-1.17-4.43-2.27-6.62-3.43-.34-.21-.62-.51-.89-.79.38-.07.79-.21,1.2-.21.31-.03.65.07.93.24,1.51.79,2.95,1.65,4.5,2.37.58.31,1.3.38,1.96.55-.41-.38-.82-.76-1.24-1.13-.07-.1-.14-.17-.24-.24-3.6-2.88-7.38-5.49-11.67-7.38-3.6-1.58-6.86-3.81-10.33-5.7-.62-.31-1.41-.27-2.13-.41.24.65.45,1.34.65,1.99.03.1.17.17.24.24,1.58,1.92,3.09,3.91,4.74,5.73,1.65,1.82,3.26,3.64,5.9,4.57m-27.8-133.52c.1.82.07,1.68.38,2.4,2.13,4.7,2.78,9.78,3.64,14.76.69,4.08.55,8.27.76,12.43.03.31.14.76-.03,1-1.54,1.99.17,3.5.82,5.15.07.21.82.38.86.34.41-.76,1-1.51,1.06-2.3.24-2.23.34-4.46.38-6.73.07-2.68.07-5.39,0-8.1-.03-2.03-.21-4.05-.34-6.11,0-.07-.07-.17-.1-.27-1.24-2.99-2.4-6.01-3.67-8.96-1.3-2.99-2.71-5.94-4.12-8.92-.14-.27-.51-.45-.79-.69-.07.31-.27.65-.21.89.41,1.61.89,3.19,1.37,5.11m-9.1,84.27c-.41.1-.82.17-1.2.27.21.31.38.72.69.89,2.09,1.2,4.29,2.3,6.76,2.23,3.33-.1,6.69-.58,10.02-.62,2.64,0,5.32.24,7.93.69,3.19.55,5.9,2.09,8,4.67,1.06,1.37,2.3,2.61,3.5,3.88.17.17.48.21.69.31-.07-.21-.1-.45-.21-.65-.79-1.89-1.44-3.88-2.47-5.66-.48-.79-1.68-1.17-2.44-1.85-5.49-5.08-11.91-6.25-19.02-4.5-3.88.96-7.76.69-11.67.58-.1,0-.17-.17-.58-.24M59.82,27.63c.24-.48.41-.96.72-1.41.27-.41.69-.79,1.03-1.17.1.55.27,1.13.27,1.68-.07,2.23-.21,4.5.89,6.56.14.24.31.55.55.65.14.03.58-.27.62-.48.38-2.44,1.96-4.15,3.67-5.66,1.41-1.27,1.37-2.64.89-4.22-1.06-3.4-3.84-5.22-6.62-6.9-1.41-.86-2.88.17-3.09,1.82-.07.76-.21,1.51-.31,2.27-.38,2.61-.93,5.22.51,7.69.24.41.69.69,1.03,1.03-.07-.51-.1-1-.17-1.85m105.2,197.88c-.76-.17-1.48-.31-2.23-.48-4.63-1.1-9.27-2.2-13.9-3.3-.21-.03-.48,0-.72.03.14.21.24.55.45.65,4.63,2.09,8.27,5.8,13.15,7.65,4.39,1.65,8.75,3.05,13.49,3.02,1.75-.03,3.47.21,5.18.31.76.03,1.51.03,2.27.07-.69-.38-1.34-.76-2.03-1.1-1.72-.93-3.4-1.96-5.22-2.71-3.33-1.48-6.73-2.78-10.43-4.15M113.37,53.72c.34,1.75.93,3.47.96,5.22.07,3.88.48,7.69,1.06,11.53.31,2.06.24,4.15.38,6.25.03.48.07,1.1.38,1.34,1,.89,1.75,1.82,1.78,3.23,0,.14.41.27.65.41.1-.17.24-.34.24-.51.24-2.37.72-4.74.65-7.11-.1-2.68.62-5.39-.55-8.1-.58-1.34-.34-3.05-.41-4.63-.21-4.84-2.68-8.55-5.77-11.98-.31-.31-.86-.41-1.3-.62.07.51,0,1.06.17,1.51.48,1.13,1.03,2.2,1.75,3.47m19.05,79.8c.65.21,1.3.41,1.96.62,3.64,1,7.21,2.44,11.12,2.13.27,0,.58.21.89.27,1.58.38,3.12.79,4.7,1.06.51.07,1.13-.27,1.68-.45-.41-.27-.79-.62-1.24-.89-.62-.34-1.27-.55-1.85-.93-3.71-2.44-7.79-3.91-12.15-4.53-1.72-.24-3.54.03-5.15-.48-3.78-1.2-7.52-2.61-10.71-5.11-.38-.27-.93-.34-1.41-.48.21.45.41.93.65,1.41.1.17.27.34.48.48,3.36,2.57,6.69,5.22,11.02,6.9m-51.49-67.62c2.13,1.2,4.43,1.92,6.8,1,1.06-.45,1.82-1.65,2.88-2.06,2.16-.79,3.5-2.3,4.81-4.08.89-1.24,2.3-2.09,3.4-3.19.31-.31.41-.86.62-1.27-.41,0-.86-.07-1.27,0-1.27.31-2.57.65-3.84,1.03-.45.14-.96.31-1.27.62-.93.82-1.85,1.72-2.68,2.64-.76.86.55,2.61-1.3,3.02.03.07.03.17.07.24,1.27,1.41-.14,1.06-.72,1-1.89-.21-3.78-.55-5.63-.86-.93-.14-1.82-.27-2.71-.51-.38-.07-.69-.38-1.03-.62.27-.1.58-.38.89-.34,2.33,0,4.67.1,7,.17.24,0,.45-.07.69-.1-.14-.14-.21-.38-.34-.45-3.12-1.41-6.25-3.05-9.82-1.99-.76.21-1.48,1.13-1.82,1.89-.41.96.1,1.75,1.17,2.2,1.27.48,2.51,1.1,4.12,1.68m116.87,138.15c-.21.45-.38,1.2-.62,1.24-1.1.14-.79.89-.76,1.44.03.58.21,1.17.31,1.75.07.27.1.55.1.82.21-.21.48-.41.58-.65,2.23-4.46,3.84-9.1,4.5-14.11.69-5.01,1.89-9.95,1.37-15.1-.1-1-.24-2.03-.34-3.02-.69,1-1.37,1.99-2.06,2.99-.07.1.03.34-.03.51-1,4.29-2.09,8.62-3.05,12.94-.62,2.71-2.06,5.29-1.06,8.2.27.79.27,1.65.41,2.47.31-.82.69-1.61.96-2.44.14-.41,0-.89.03-1.37.1-1.54-.27-3.47.51-4.6,1.37-1.99.96-4.19,1.51-6.25.55-2.03.93-4.08,1.41-6.11.07-.21.31-.34.48-.48.07.24.21.48.17.72-.21,2.03-.24,4.08-.72,6.08-1.13,4.94-1.51,10.06-3.71,14.97m37.41,61.78c.21-.93.48-1.85.65-2.81.07-.24-.1-.51-.14-.79-.27.17-.62.27-.82.48-.93,1.1-1.85,2.2-2.68,3.36-2.4,3.54-5.56,6.62-7.04,10.81-.24.65-.34,1.37-.55,2.09.82.1.45.34.14.72-1.92,2.54-3.36,5.29-3.3,8.58,0,.21.03.45.07.65.14-.21.24-.38.38-.55,2.03-3.19,3.81-6.52,6.11-9.47,3.09-3.95,5.08-8.38,7.17-13.08m-58.01,17.85c.76.65,1.48,1.3,2.27,1.92,3.33,2.51,7.24,3.6,11.29,3.64,2.51.03,5.25-.07,7.41-1.82.14-.1.34-.17.48-.14,2.85.82,5.9,1.27,8.55,2.54,2.16,1.03,3.88,3.05,5.8,4.6.24.17.55.21.82.31-.03-.17.03-.45-.07-.55-2.16-2.75-4.43-5.46-7.89-6.52-2.16-.65-4.43-1.03-6.62-1.37-2.03-.34-4.05-.51-6.08-.69-.38-.03-.79.27-1.17.45.41.17.79.48,1.24.51.93.1,1.85,0,2.78.07.24,0,.48.24.76.38-.31.07-.58.27-.86.27-2.44-.27-4.91-.55-7.38-.82-.79-.1-1.65-.14-2.4-.38-2.51-.86-4.98-1.78-7.48-2.64-.48-.14-1.1.03-1.44.24m-33.47-161.49c-.14-.24-.21-.51-.38-.69-2.37-2.95-4.08-6.14-4.63-9.95-.07-.38-.51-.69-.79-1.03-.31.41-.89.89-.86,1.27.24,1.92.34,3.95,1.03,5.73,2.4,6.35,6.18,11.74,11.98,15.48.27.21.62.27.96.41-.1-.34-.1-.72-.24-1.06-1.58-3.84-4.29-6.86-7.07-10.16m-59.04-32.61c1.65,0,3.36.14,5.01-.03,2.09-.21,4.22-.45,6.25-1.03,3.12-.96,6.14-2.27,9.2-3.4.34-.14.65-.34.96-.51-.38-.17-.76-.51-1.13-.48-1.27.03-2.57.38-3.81.27-3.91-.27-7.59.82-11.29,1.72-3.54.86-7,1.85-10.5,2.78-.34.1-.69.27-1.03.41.38.1.79.24,1.2.27h5.15m-9.61-38.79c-.31-.1-.62-.31-.89-.34-4.6-.24-9.06.65-13.42,1.96-3.84,1.17-7.41,3.5-11.7,2.88-.17-.03-.38.21-.58.31.17.14.34.34.58.41,1.92.45,3.84,1,5.8,1.27,3.74.51,6.97-1.06,10.16-2.75.38-.21.51-.89.79-1.34.14-.24.34-.62.58-.65,1.06-.17,2.16-.24,3.26-.38,1.96-.24,3.95-.45,5.9-.69-.07-.24-.1-.45-.48-.69m101.6,89.59c-.41.21-.82.41-1.2.65.69,1.06-.51.96-.86,1.37-.14.17-.34.31-.51.45.21.1.45.27.65.27.79-.1,1.51-.31,2.27-.31.41,0,.79.41,1.2.65-.34.21-.65.58-1,.65-.62.1-1.27-.03-1.85.07-.34.07-.65.48-.93.72.27.1.55.21.82.27.31.1.72.07.93.24,1.99,1.89,4.77,1.37,7.07,2.44,1,.48,2.13.07,1.78-1.48-.27-1.3-.65-2.57-1-3.88-.96-3.43-4.43-3.91-7.38-2.13m-45.31-49.43c1.72-1.17,3.36-1.48,5.08.21.48.51,1.44.58,2.2.79.1.03.41-.45.41-.48-1.65-1.78-3.09-3.81-5.01-5.22-1.51-1.13-3.23-.51-4.26.76-.14.21-.21.48-.31.72.27.03.55.17.82.14.45-.07.93-.27,1.41-.31.07,0,.34.62.27.65-1.61,1.41-3.3,2.75-4.98,4.12-.14.1-.62.03-.62,0-.21-1.89-1.96-.65-2.75-1.37-.1.14-.24.27-.34.41.17,0,.34-.07.51-.03,1.1.27,1.24.96.45,1.92-.55.62-1.1,1.24-1.54,1.92-.14.21,0,.58.03.89.24-.1.48-.27.72-.31.51-.07,1.17-.24,1.61-.03,1.2.55,2.2.41,3.3-.38,1.06-.72,2.3-1.48,3.74-.65.31.17.76.1,1.13.17-.31-.27-.58-.55-.89-.82-.27-.24-.55-.58-.89-.65-1.89-.51-1.48-1.41-.1-2.44m34.84,51.66c.14-.62.34-1.24.45-1.85.03-.31-.1-.62-.17-.96-.21.21-.41.38-.62.55-.51.48-1,.96-1.54,1.41-1,.79-2.4,1.27-2.33,2.95.03.14-.38,1.41-.93.17-.07-.1-.14-.24-.21-.34-.07.14-.17.31-.14.45.21,1,.62,1.99.62,2.99.07,1.85.14,3.54,1.72,4.98,1.2,1.13,2.88,2.2,4.36,1.85.17-.03.48-.17.48-.27,0-.27-.07-.65-.21-.72-.38-.21-.82-.24-1.2-.38-.45-.17-.89-.34-1.3-.55-.03-.03.1-.45.1-.41.55.07,1.06.21,1.61.31.21.07.51.27.58.17.86-.82.45-2.81-.72-3.23-1.24-.41-2.54-.69-3.81-1.13-.34-.14-.58-.62-.86-.93.27-.14.58-.31.89-.41,1.37-.55,2.2.51,3.16,1.13.17.14.38.14.58.21.03-.17.07-.38.07-.58-.21-1.68-.41-3.36-.58-5.39m-11.33,7.21c.69,1.65,1.41,3.3,2.03,4.98.14.38-.14.93-.24,1.37-.24-.34-.58-.69-.76-1.06-.69-1.37-1.3-2.78-1.99-4.15-.17-.27-.62-.41-.93-.62-.07.31-.17.62-.17.96-.03.31-.07.69.07,1,1.2,3.23,3.5,5.77,5.66,8.38.1.17.45.17.69.24-.07-.24-.14-.48-.17-.72-.38-1.44-1.24-2.99-1-4.32.38-1.96-.82-3.3-1.17-4.94-.1-.55-.38-1.03-.55-1.54.51.41,1.1.79,1.58,1.27.14.14-.07.62.03.89.27.65.27,1.48,1.54.93,1.51-.69.34-1.27.14-1.78-.82-2.06-1.72-4.12-4.08-4.91-.69-.24-1.51-.14-2.27-.21.07.65,0,1.37.21,1.99.27.76.79,1.41,1.37,2.27M88.83,56.63c.27.17.62.27.79.48.89,1.24,1.82-.03,2.71.14-.45-.55-.89-1.1-1.34-1.65-.21-.27-.38-.62-.65-.86-1.24-1.1-2.33-2.75-3.78-3.12-2.2-.58-4.43.21-6.11,2.03-.55.55-1.37.86-1.99,1.37-.17.14-.24.79-.1.89,1.1.82,2.27,1.61,3.47,2.3.55.31,1.2.38,1.78.55-.14-.51-.27-1.03-.38-1.54-.1-.31-.24-.62-.24-.93.03-.24.27-.65.34-.65,1.78.24,3.54.55,5.49,1m-9.44-28.66c1.54,1.34,3.3,2.51,4.63,4.02,2.57,2.92,5.29,5.77,6.59,9.58.07.21.76.41.89.31,1.34-1,1.06-2.51-.34-4.57-2.61-3.81-6.08-6.73-9.47-9.71-1.34-1.2-2.85-2.16-4.29-3.23-.27-.17-.69-.17-1.03-.27.03.45-.14,1.03.1,1.27.86.86,1.82,1.61,2.92,2.61m9.95,19.56c-.24,1.06-.55,2.09-.65,3.16-.03.34.55.72.86,1.1.14-.27.34-.55.45-.82.1-.24.1-.55.14-.82.27.27.69.45.82.79.86,1.58,1.61,3.19,2.44,4.77.17.31.41.58.62.89.14-.34.38-.65.45-1.03.07-.27-.07-.62-.1-.96-.21-1.82-.76-3.67-.48-5.42.38-2.13.14-4.08-.41-6.11-.24-.89-.55-1.03-1.1-.27-1.03,1.44-2.03,2.92-3.02,4.74m79.46,73.97c-.03-.07-.1-.17-.1-.24,0-.62.21-.79.89-.82.14,0,.38-.34.38-.51.14-2.13.27-4.26.34-6.38,0-.41-.21-.86-.31-1.3-.34.38-.86.72-1,1.2-.58,1.85-1.2,3.74-1.58,5.66-1.06,5.22-3.19,9.99-5.42,14.72-.31.65-.21,1.51-.21,2.3,0,.14.31.31.45.48.1-.21.21-.38.24-.58.27-.82.38-1.68.76-2.44,1.72-3.16,3.57-6.28,5.29-9.47.38-.69.31-1.61.27-2.61M24.81,24.88c-1.96.31-3.19,1.68-3.84,3.3-.41.93-.24,2.51.34,3.36.69.96,1.99.41,2.92-.27.31-.21.69-.34.96-.62,1.61-1.58,3.19-3.19,4.81-4.77.31-.34.65-.65.96-.96-.48-.07-.96-.14-1.41-.21-1.54-.24-3.05-.65-4.74.17m183.29,248.85c-1.72-2.06-3.5-4.12-5.15-6.25-1.24-1.54-2.37-3.23-3.57-4.84-.21-.24-.69-.27-1.03-.41.03.31,0,.65.14.93.41.96.89,1.92,1.37,2.85,1.51,2.95,3.02,5.94,4.6,8.86.31.55,1,.89,1.54,1.3-.27-.62-.55-1.24-.79-1.89-.17-.45-.27-.93-.41-1.41.27.27.58.51.82.82.41.48.82,1,1.2,1.51,1.1,1.54,2.16,3.12,3.26,4.63.1.14.38.14.58.21.03-.17.14-.41.07-.55-.89-1.82-1.78-3.64-2.64-5.77M109.08,75.17c-1.44-2.33-2.88-4.63-4.29-6.97-1.13-1.82-2.23-3.67-3.4-5.46-.17-.27-.69-.34-1.03-.48,0,.38-.1.82.03,1.13,1.61,3.26,3.36,6.49,4.94,9.78.96,2.09,1.48,4.46,3.54,5.9.27.21.62.38.93.48.51.14,1.03.21,1.54.27.34.07.72.14,1.06.21-.03-.41.1-.96-.14-1.27-.89-1.24-1.89-2.4-3.19-3.6m18.19,68.65c3.98.07,7.72-.58,10.57-3.74.45-.45.82-1,1.27-1.41.62-.48,1.27-.89,1.89-1.34-.86-.14-1.72-.31-2.57-.34-.34-.03-.72.14-1.03.31-3.47,1.82-6.93,3.67-10.4,5.49-.65.34-.62.65.27,1.03m-24.2-72.94c-1.27-2.75-2.54-5.46-3.74-8.2-.14-.34-.1-1.06.07-1.1,1.65-.72.07-1.61.21-2.4-.27-.03-.72-.21-.82-.1-.72.72-1.78,1.27-.93,2.64.38.58.24,1.48.41,2.23.14.76.38,1.48.58,2.23-1.06-.45-2.13-.86-3.19-1.34-.17-.07-.27-.34-.48-.45-.21-.07-.51-.1-.69-.03-.62.31-1.17.72-1.75,1.06-.21.14-.41.24-.62.38.21.03.45.14.65.1,2.13-.76,3.78.62,5.15,1.68,1.82,1.48,3.19,3.54,4.81,5.29.45.48,1,.86,1.48,1.27-.14-.55-.27-1.13-.48-1.65-.17-.45-.45-.86-.65-1.61m-60.58-23.51c.79-.1,1.61-.14,2.4-.34,1.99-.58,3.95-1.2,5.9-1.85.31-.07.51-.41.79-.65-.31-.21-.62-.48-.93-.58-1.58-.38-3.16-.62-4.7-1.03-1.78-.48-3.78.17-4.81,1.68-.69,1-.17,2.51,1.34,2.78m181.4,218.13c-.14.76-.31,1.51-.34,2.27-.03.65.07,1.34.14,1.99.41-.72.86-1.41,1.2-2.16.14-.34,0-.79.03-1.2,0-.21.03-.41.07-.65.21.17.41.31.58.48.14.1.17.27.27.41.14-.17.41-.34.41-.51.14-1.51.34-2.99.34-4.5-.03-2.64-.21-5.32-.34-7.96-.03-.58-.17-1.17-.34-1.75-.07-.24-.31-.41-.48-.65-.07.27-.17.51-.17.76-.03,1.44.07,2.88-.1,4.26-.34,2.99-.86,5.94-1.27,9.23m-64.36-108.98c.17.79.34,1.58.48,2.37.51,2.47,1.1,4.87,3.6,6.18.45.21,1,.17,1.51.27-.21-.38-.41-.72-.62-1.06-.14-.27-.31-.58-.48-.82-1.34-1.92-3.43-3.64-1.1-6.32.69-.79-.34-3.47-1.37-3.64-.58-.07-1.48.41-1.92.93-.34.45-.21,1.27-.1,2.09M13.66,24.03c.14-.17.31-.31.48-.48-.24-.07-.51-.24-.72-.21-1.75.31-3.5.62-5.22,1.03-.62.14-1.17.55-1.65.96-.79.62-.55,1.27.21,1.75,2.06,1.34,7.24.48,8.72-1.48.31-.41.41-1,.62-1.51-.41.27-.86.55-1.3.82-.27.17-.55.45-.82.45-.48.07-1-.07-1.48-.1.31-.34.65-.72,1.17-1.24m14.07-7.21c.51-.1,1.03-.17,1.54-.27-.27-.45-.45-1.03-.82-1.34-1.27-1.06-2.4-2.51-4.39-2.16-.86.14-1.72.24-2.57.38.21.58.45,1.13.55,1.72.24,1.54,1.51,3.09,2.88,3.33.17.03.38-.17.58-.31.62-.45,1.24-.89,2.23-1.34m55.6,64.87c1.06.27,2.3.34,3.23.89,2.3,1.37,4.74,1.48,7.28,1.17.41-.07.82-.27,1.2-.41-.34-.21-.69-.41-1.06-.62-.24-.14-.45-.27-.72-.34-1.85-.38-3.71-.65-5.53-1.13-2.23-.55-4.39-1.3-6.56-1.92-.24-.07-.51.1-.76.17.1.24.17.55.38.69.76.48,1.58.89,2.54,1.51m64.53,70.71c.62,1.06,1.27,2.09,1.85,3.16.07.1-.27.62-.34.58-.93-.31-1.89-.65-2.81-1-.62-.21-1.27-.38-1.89-.58.41.58.86,1.2,1.3,1.78.03.07.07.1.1.14,2.37,1.72,4.94.76,7.48.72.07,0,.21-.24.17-.27-.69-1.06-1.3-2.23-2.16-3.16-.76-.82-1.78-1.41-2.71-2.06-.34-.24-.72-.41-1.06-.62-.03.38-.07.76.07,1.3m-4.46-22.65c.34.24.69.51,1.06.72.31.14.69.17,1.03.24-.21-.27-.34-.62-.62-.82-3.4-2.71-6.76-5.42-10.16-8.13-.1-.07-.34,0-.48,0,0,.21-.07.45.03.58.79,1.06,1.44,2.33,2.47,3.09,2.03,1.51,4.29,2.78,6.66,4.32m-29.35-54.75c-.14-.48-.34-.93-.34-1.41-.03-1.44,0-2.88-.03-4.32-.03-.31-.34-.62-.51-.96-.17.34-.38.65-.48,1-.17.62-.31,1.27-.34,1.92-.1,2.44-.72,4.98.96,7.17.24.27.55.55.82.82.1-.31.27-.65.24-.93-.07-1-.21-1.99-.31-3.3m-18.88-20.25c.17.27.38.51.55.79,1.41-1.44,3.54-2.37,3.54-4.77,0-.45-.17-.89-.27-1.34-.51.21-1.17.24-1.44.58-.48.62-.62,1.85-1.13,1.99-1.48.41-1.2,1.41-1.24,2.75m64.87,51.14c.34-1.92.69-3.81,1-5.73.03-.17-.21-.41-.31-.62-.1.07-.27.14-.34.24-1.2,2.27-2.44,4.5-1.72,7.21.07.24.27.45.38.69.24-.17.48-.34.62-.58.17-.24.24-.55.38-1.2m36.73,172.31c-2.27-2.03-4.5-4.02-6.73-6.01-.31-.27-.72-.41-1.06-.62.14.41.1,1,.38,1.24,2.27,2.13,4.6,4.22,6.93,6.25.38.34.93.41,1.37.62-.24-.45-.48-.86-.89-1.48m18.88-22.31c-.03-.65-.1-1.3-.1-1.99.03-.93.34-1.92.07-2.75-.51-1.72-1.34-3.33-2.06-4.98-.1-.24-.24-.51-.34-.76-.1.34-.34.69-.31,1,.41,2.09.82,4.19,1.37,6.28.34,1.2.89,2.37,1.37,3.19M84.54,58.18c1.2,1,2.71,1.82,3.6,3.05.72,1,.76.14.82-.07.24-1.34-.24-2.61-1.3-3.16-.96-.51-2.27-.41-3.4-.58.03.21.07.38.27.76M7.82,10.64c.41.65.76,1.44,1.34,1.99.55.48,1.37.72,2.06,1.1-.03-.62-.07-1.24-.17-1.82-.14-1-.34-1.99-.55-2.99-.79.58-1.58,1.13-2.68,1.72m87.7,40.33c.45-1,1.44-2.13,1.24-2.99-.58-2.47-1.68-4.84-2.61-7.28-.07-.21-.34-.34-.55-.51-.07.24-.17.51-.14.79.07.27.24.58.45.82,1.85,2.33,2.06,4.87,1.1,7.65-.24.65-.76,1.54.51,1.51m-36.38-10.98c-.45-.65-.89-1.34-1.34-1.99-.03-.07-.34-.03-.38.03-.86,1.58-.38,3.43,1.13,4.08.65.27,1.44.27,2.16.41-.31-.58-.58-1.17-.93-1.72-.14-.24-.31-.45-.65-.82m108.29,103.14c-.03.31-.07.62-.1.93.27-.1.55-.17.79-.27,1.2-.51,2.27-.65,3.05.69.1.21.48.51.55.48.27-.17.69-.55.62-.69-.21-.76-.69-2.09-.86-2.06-1.3.24-2.95-1.06-4.05.93m-49.94-89.07c.21.41.41.86.69,1.24.1.14.45.03.69.07-.24-2.13-.48-4.26-.72-6.38,0-.1-.24-.24-.34-.21-.14,0-.31.17-.31.27-.03,1.54,0,3.12,0,5.01m52.52,90.96c-.58.14-1.65.17-1.68.41-.24,1.03-.24,2.13-.17,3.19.03.38.55.69.86,1.03.1-.41.17-.79.31-1.2.17-.55.41-1.06.58-1.61.14-.55.17-1.1.1-1.82M31.68,21.11c.21-.1.65-.27.62-.34-.31-1.48-3.3-3.05-4.81-2.54-.24.07-.58.41-.58.65,0,.21.41.69.58.65,1.65-.38,2.81.51,4.19,1.58m193.24,248.16c-.34,1.58-.72,3.12-1.03,4.7-.03.17.21.41.31.62.24-.21.65-.38.69-.62.27-1.72.48-3.43.69-5.18.03-.21-.1-.45-.17-.69-.17.27-.34.55-.48,1.17m-55.43-111.38c-.17-.21-.34-.45-.55-.62-.27-.27-.58-.48-.89-.72-.03.41-.17.79-.1,1.17.07.41.21.89.48,1.17.65.62,1.41,1.17,2.09,1.72-.27-.79-.58-1.58-.86-2.37-.03-.07,0-.1-.17-.34M20.35,11.16c.76.17,1.54.41,2.33.48.31.03.65-.24,1-.41-.31-.17-.62-.41-.96-.58-.51-.24-1.03-.58-1.58-.69-.51-.14-1.06-.03-1.61-.07.21.38.41.72.82,1.27m132.32,154.63c.38.1.79.34,1.2.31.45-.03.89-.27,1.34-.45-.38-.17-.72-.38-1.1-.55-.45-.21-.93-.45-1.41-.65-.62-.21-1.24-.41-1.89-.62l1.54,1.65c.03.07.07.1.31.31m-37.58-68.13c-.17.21-.31.41-.45.62.62.31,1.2.76,1.85.89.48.1,1.03-.24,1.54-.34-.34-.34-.65-.76-1.06-.96-.55-.24-1.17-.24-1.89-.21M9.37,22.83c.65-.24,1.34-.48,2.03-.72-.79-.17-1.58-.31-2.37-.48-.1-.03-.24-.03-.34,0-.45.14-.93.27-1.37.41.38.31.76.69,1.2.96.17.1.45,0,.86-.17m119.62,66.76c-.24-.34-.45-.72-.72-1.03-.41-.48-.86-.89-1.3-1.3-.07.14-.24.31-.21.45.24.72.41,1.54.86,2.13.17.24,1-.03,1.37-.24M39.06,42.9c.65,0,1.34.03,2.03-.03.17,0,.34-.24.55-.38-.76-.31-1.51-.82-2.3-.93-1.17-.17-.45.72-.27,1.34m44.96,7.55c.27-.17.51-.31.79-.48-.21-.1-.38-.24-.62-.34-.38-.17-.76-.38-1.17-.48-.51-.1-1.06-.14-1.58-.21.34.45.65,1,1.1,1.37.24.21.72.1,1.48.14m101.77,216.76c-.1-.03-.17-.07-.27-.1,0,0-.1.1-.07.14.79,1.13,1.61,2.3,2.44,3.43.03.03.14.03.24.03,0-.17.07-.34,0-.45-.72-1-1.44-1.92-2.33-3.05m-11.67-127.34c-.34-.24-.65-.48-1-.76-.14.41-.27.79-.38,1.2-.07.27-.07.58,0,.86.03.21.21.51.38.55s.51-.14.62-.27c.17-.38.24-.82.38-1.58m-76.89-75.86c-.14-.62-.21-1.27-.38-1.89-.07-.24-.31-.41-.45-.65-.21.17-.41.31-.55.55-.89,1.41.03,1.85,1.37,1.99M23.78,22.83c-.82.79-.31.93.45.86.62-.07,1.24-.27,1.85-.41-.07-.14-.1-.34-.17-.34-.65-.1-1.3-.17-2.13-.1m65.9,46.68c1.37.27.21-1.2,1-1.48.21-.07.14-.93.21-1.44-.17.03-.41.03-.45.1-.31.55-.65,1.1-.86,1.68-.1.21.03.51.1,1.13m42.39,26.6c-.38-.21-.72-.45-1.06-.65.07.27.07.58.21.79.21.34.51.58.76.89.1-.27.17-.58.1-1.03m53.89,104.69c-.14-.34-.27-.69-.41-1.03-.14.1-.31.21-.45.31.21.31.45.58.86.72m7.38,32.44c.27.38.55.79.82,1.17l.17-.17c-.24-.34-.48-.69-.72-1.06-.03-.03-.07-.07-.27.07M14.17,21.8c.27.03.58.1.86.14.03,0,.03-.14.07-.21-.24-.03-.51-.07-.93.07m158.92,185.69c-.21-.03-.38-.1-.55-.14-.03,0-.07.14-.07.21.14.03.27.07.62-.07m10.81-10.81c.03-.17.07-.38.1-.55,0,0-.14-.03-.21-.07-.03.17-.07.31.1.62m-1.2,88.04c.17.03.34.1.51.14.03,0,.07-.14.07-.21-.14-.03-.27-.07-.58.07"/>
  <path class="cls-1" d="m189.91,215.31c.34.41.76.86,1,1.44.69,1.51,1.3,3.09,1.92,4.67.1.27.03.62.07.89-.21-.17-.48-.34-.58-.58-.82-2.13-1.61-4.22-2.4-6.42"/>
  <path class="cls-1" d="m199.86,229.97c.03.34.1.48.1.65.03.45.07.93.07,1.37-.17-.34-.41-.69-.51-1.1-.48-1.51-.96-3.02-1.37-4.57-.07-.24.07-.51.14-.79.1.21.27.41.34.65.41,1.2.82,2.4,1.24,3.78"/>
  <path class="cls-1" d="m196.09,230.24c-.89-1.68-1.78-3.43-2.68-5.18-.03-.03.03-.14.07-.24.21.07.48.1.58.24.41.72.86,1.44,1.17,2.2.34.93.58,1.92.86,2.99"/>
  <path class="cls-1" d="m188.88,213.15c.21.24.45.62.65,1.03.03.03-.14.21-.21.27-.17-.38-.31-.76-.45-1.3"/>
  <path class="cls-1" d="m230.48,347.8c.14.21.17.48.21.79,0,0-.14.03-.21.07-.03-.27-.07-.51,0-.86"/>
  <path class="cls-1" d="m196.43,231.27c-.14-.21-.24-.51-.34-.86.1.17.21.48.34.86"/>
  <path class="cls-1" d="m196.77,232.3c-.14-.21-.24-.51-.34-.86.1.17.21.48.34.86"/>
  <path class="cls-1" d="m196.77,232.48c.1.07.21.24.31.45-.07,0-.17.03-.24.07-.03-.17-.07-.31-.07-.51"/>
  <path class="cls-1" d="m153.53,160.22c-.24,0-.45-.07-.69-.14.24.03.45.03.69.14"/>
  <path class="cls-1" d="m210.4,265.77c.07.21.03.34,0,.51-.07-.03-.21-.07-.21-.07.03-.17.07-.38.21-.45"/>
  <path class="cls-1" d="m153.53,160.4c.1-.03.21.03.31.1-.1-.03-.21-.03-.31-.1"/>
  <path class="cls-1" d="m189.91,215.14c-.14,0-.24-.07-.34-.14.1.03.21.03.34.14"/>
  <path class="cls-1" d="m64.35,43.35c.21-.1.34-.14.41-.1.76.45,1.51.89,2.23,1.34.03.03-.07.27-.07.27-.96-.21-1.92-.41-2.88-.62.07-.27.14-.55.31-.89"/>
  <path class="cls-1" d="m44.38,38.72c-.31-.03-.69-.07-.86-.27-.31-.38-.55-.86-.79-1.27.21-.03.55-.17.62-.1.27.41.51.86.79,1.3.03.1.14.17.24.34"/>
  <path class="cls-1" d="m44.38,38.89c.1-.03.21.03.31.1-.1-.03-.21-.03-.31-.1"/>
  <path class="cls-1" d="m41.97,36.83c.1-.03.21.03.31.1-.1-.03-.21-.03-.31-.1"/>
  <path class="cls-1" d="m41.97,36.66c-.14,0-.24-.07-.34-.14.1.03.21.03.34.14"/>
  <path class="cls-1" d="m83.75,75.27c-.89-.79-1.68-1.48-2.47-2.16-.21-.17-.31-.41-.45-.62.31.03.69-.03.93.1,1.34.82,2.61,1.72,3.95,2.54,4.43,2.75,9.3,4.53,14.24,6.21.34.14.65.38,1,.58-.45,0-.89.07-1.27-.07-3.4-1.06-6.83-2.03-10.13-3.33-2.03-.79-3.81-2.09-5.8-3.26"/>
  <path class="cls-1" d="m111.31,83.34c-.14,0-.24-.07-.34-.14.1.03.21.03.34.14"/>
  <path class="cls-1" d="m115.08,82.82c.1-.03.21.03.31.1-.1-.03-.21-.03-.31-.1"/>
  <path class="cls-1" d="m217.78,266.28c-.21-.34-.45-.62-.41-.82.17-.51.41-1,.65-1.51.1.48.34.96.34,1.44,0,.31-.31.65-.58.89"/>
  <path class="cls-1" d="m15.96,11.6c.24.1.51.1.51.21.17.48.24.96.38,1.48-.27-.1-.69-.1-.79-.27-.34-.51-.51-1.06-.76-1.61.17.03.38.07.65.21"/>
  <path class="cls-1" d="m181.74,230.07c.1,0,.1.1.14.21-.07-.03-.14-.1-.14-.21"/>
  <path class="cls-1" d="m157.65,127.68c.03-.45.07-.69.1-.96.03.41.07.82.1,1.24,0,0-.07.03-.1,0-.03,0-.07-.07-.1-.27"/>
  <path class="cls-1" d="m162.11,180.89c.79.17,1.41.31,2.03.48-.65.17-1.3.51-1.96.51-1.37,0-2.75-.17-4.12-.31-.27-.03-.51-.24-.76-.38.24-.17.48-.48.72-.48,1.3,0,2.61.1,4.08.17"/>
  <path class="cls-1" d="m165.27,181.68c.24-.07.38-.03.51,0,0,.07-.03.21-.07.21-.17-.03-.34-.1-.45-.21"/>
  <path class="cls-1" d="m59.03,25.16c-.14-.24-.27-.45-.24-.55.21-.41.48-.86.72-1.27.1.45.21.93.27,1.37.03.17.03.34,0,.51-.07.41-.14.79-.24,1.2-.14-.41-.27-.79-.51-1.27"/>
  <path class="cls-1" d="m168.87,230.42c-4.19-.17-7.72-1.92-11.26-3.74-.24-.14-.41-.48-.62-.72.34-.03.72-.21,1-.07,1.3.51,2.57,1.17,3.91,1.68,1.89.69,3.81,1.27,5.73,1.92.1.03.31-.14.48-.21.34-.14.76-.41,1.03-.31,2.33.76,4.6,1.54,6.9,2.37.17.07.31.34.48.48-.21,0-.41-.03-.62-.07-2.3-.41-4.63-.86-7.04-1.34"/>
  <path class="cls-1" d="m117.49,76.2c0-1.24-.03-2.33,0-3.4,0-.24.14-.45.21-.69.1.24.34.48.34.72-.07,1.78-.14,3.6-.24,5.42,0,.1-.07.21-.1.27-.07-.1-.21-.17-.21-.27-.03-.65,0-1.27,0-2.06"/>
  <path class="cls-1" d="m164.51,144.5c-.14.41-.24.65-.38.89-.27.51-.55,1-.86,1.51-.03-.55-.24-1.17-.1-1.65.14-.55.21-1.61,1.34-.76"/>
  <path class="cls-1" d="m210.92,190.6c1.1-1.68,2.09-3.26,3.12-4.84.1-.14.31-.24.48-.34-.03.21.03.45-.07.58-1.68,2.61-3.36,5.22-5.08,7.83-.1.17-.31.27-.48.38-.03-.14-.17-.34-.1-.45.65-1.03,1.37-2.06,2.13-3.16"/>
  <path class="cls-1" d="m205.08,198.05c-.03-.1.03-.21.1-.31,0,.1,0,.21-.1.31"/>
  <path class="cls-1" d="m89.34,55.19c-.41-.03-.82-.14-1.24-.27-1.06-.41-2.06-1.06-3.33-.38-.34.17-1-.24-1.51-.38.41-.21.79-.41,1.2-.62,2.13-1.06,3.47.34,4.87,1.65"/>
  <path class="cls-1" d="m89.34,55.36c.1-.03.21.03.31.1-.1-.03-.21-.03-.31-.1"/>
  <path class="cls-1" d="m173.16,148.38c.21-.1.31-.1.41-.1.41.07.82.14,1.24.21-.07.17-.14.45-.17.45-.51-.14-1.03-.31-1.48-.55"/>
  <path class="cls-1" d="m42.73,44.38c1-.24,1.92-.48,2.61.41.07.07-.1.48-.17.48-.96.1-1.92.17-2.44-.89"/>
  <path class="cls-1" d="m148.28,165.78c.03.24-.03.45-.17.69-.03-.24.03-.45.17-.69"/>
</svg>