<?xml version="1.0" encoding="UTF-8"?>
<svg id="Contours" xmlns="http://www.w3.org/2000/svg" viewBox="0 0 87.52 35.03">
  <defs>
    <style>
      .cls-1 {
        fill: #fff;
        stroke: #fff;
        stroke-miterlimit: 10;
      }
    </style>
  </defs>
  <g>
    <path class="cls-1" d="m41.49,15.28c-.36.38-.75.56-1.24.62-.39.06-.75.37-1.14.52-1.52.6-3.08,1.12-4.56,1.8-1.35.6-2.63,1.38-3.94,2.08-.36.18-.72.35-1.08.53-.6.3-1.2.6-1.8.93-.94.51-1.86,1.04-2.79,1.57-.6.34-1.18.69-1.79,1-.52.27-1.06.5-1.58.74-.78.34-1.54.75-2.35,1-1.4.45-2.84.81-4.26,1.21-.04,0-.07.03-.1.04-1.12.52-2.41.38-3.5.82-1.25.51-2.59.4-3.84.83-.61.21-1.32.16-1.99.22-.08,0-.18-.05-.25-.02-1.02.47-2.15.28-3.21.54-.87.21-1.67-.72-1.57-1.59.1-.77.45-1.14,1.17-1.39,1-.35,1.98-.77,2.93-1.25.84-.42,1.61-.97,2.41-1.44.49-.29.99-.56,1.46-.86.43-.26.86-.54,1.28-.83,1.32-.94,2.64-1.86,3.94-2.81,1.19-.87,2.36-1.77,3.55-2.64.95-.69,1.94-1.34,2.87-2.05.84-.65,1.66-1.27,2.64-1.74.92-.45,1.72-1.13,2.6-1.66.5-.3,1.04-.51,1.58-.74,1.4-.62,2.9-1.09,4.19-1.91,1.49-.94,3.13-1.46,4.72-2.1,1.3-.53,2.63-1.02,3.98-1.42,1.38-.42,2.81-.7,4.21-1.07.55-.14,1.07-.4,1.62-.49,1.38-.2,2.62-.97,4.06-1.03.4,0,.8-.24,1.21-.33,1.23-.26,2.5-.4,3.7-.77,1.12-.35,2.25-.44,3.38-.55,2.02-.2,4.06-.43,6.09-.36,1.2.05,2.36-.18,3.55-.16,1.11.03,2.22-.04,3.33,0,1.42.05,2.84.07,4.24.26,1.56.22,3.09.61,4.62.93,1.18.24,2.06,1.02,3.06,1.61.11.06.18.16.29.2.34.13.6.37.47.73-.09.27-.29.61-.51.68-1.3.41-2.45,1.26-3.91,1.2-.48-.01-1,.13-1.45.33-.95.44-1.98.42-2.97.61-1.39.27-2.8.41-4.2.66-.64.11-1.27.35-1.91.48-.72.15-1.43.24-2.16.38-.69.14-1.37.29-2.05.45-.94.23-1.86.58-2.86.59-.54,0-1.11.2-1.64.36-.29.08-.5.1-.69-.17-.06-.08-.19-.11-.29-.15,0,.1-.02.23.03.31.2.4-.02.24-.25.25-.58.03-1.17.09-1.75.21-.66.13-1.3.39-1.96.5-.98.17-1.85.68-2.87.72-.47.02-.98.29-1.47.42-1.47.38-2.93.87-4.39,1.33-.91.29-1.82.6-2.71.93-.72.28-1.4.61-2.14.94m-13.45,1.61s-.03.08-.04.1c-.99.55-1.97,1.13-2.98,1.64-1.44.71-2.88,1.39-4.35,2.03-1.71.74-3.45,1.41-5.17,2.13-1.41.6-2.82,1.24-4.22,1.87-.21.09-.41.2-.62.25-.74.18-1.44.5-2.2.67-1.07.24-2.03.88-3.04,1.35-.41.19-.81.38-1.22.59-.33.16-.65.35-.98.48-.1.04-.27-.07-.4-.1.08-.1.15-.22.26-.3.35-.25.73-.48,1.09-.74.06-.05.09-.15.13-.23-.08,0-.16-.03-.23,0-.41.15-.86.24-1.2.49-.44.3-1.09.35-1.24,1.08-.13.62-.2.65.47.57.64-.06,1.27-.17,1.9-.3.96-.19,1.91-.39,2.85-.62.71-.17,1.41-.44,2.12-.57,1.23-.22,2.49-.41,3.75-.52,1.53-.14,2.98-.6,4.41-1.05,1.16-.38,2.28-.89,3.39-1.42,1.49-.69,3.01-1.34,4.4-2.26.43-.28,1.01-.36,1.48-.6.53-.27.98-.69,1.53-.92,1.05-.42,2.07-.92,3.03-1.52,1.11-.7,2.28-1.31,3.44-1.92,1.31-.68,2.6-1.41,3.96-1.97,1.04-.43,2.19-.6,3.26-.95,1.89-.63,3.76-1.29,5.64-1.94.14-.05.29-.14.44-.17.99-.23,1.99-.43,2.96-.69,1.03-.28,2.04-.65,3.06-.94,1.11-.3,2.24-.56,3.35-.83.72-.18,1.44-.37,2.16-.53,1.26-.27,2.56-.32,3.77-.83.17-.07.37-.07.55-.1.82-.13,1.64-.23,2.45-.38.61-.11,1.21-.29,1.81-.41.64-.12,1.28-.2,1.9-.33.72-.14,1.43-.33,2.16-.45.88-.15,1.77-.21,2.65-.37,2.01-.34,4.01-.72,6.01-1.09.1-.01.16-.14.24-.22-.08-.04-.16-.09-.24-.1-.82-.11-1.63-.2-2.44-.31-1.95-.25-3.9-.25-5.84-.07-1.17.12-2.33.16-3.5.27-.91.08-1.8.2-2.71.28-.48.05-.97.05-1.45.11-.8.1-1.6.24-2.4.34-.69.09-1.4.13-2.09.24-.91.14-1.81.29-2.7.47-.77.16-1.54.35-2.31.55-.37.09-.73.26-1.1.3-1.5.15-2.91.58-4.32,1.09-.76.27-1.47.78-2.36.69-.05,0-.11.07-.17.09-.95.4-1.87.84-2.84,1.17-1,.34-2.06.52-3.05.87-1.26.45-2.48,1.02-3.7,1.54-.11.04-.24.07-.35.1-.46.15-.94.25-1.37.46-.84.4-1.64.87-2.48,1.28-.62.31-1.28.55-1.9.86-1.1.57-2.21,1.15-3.4,1.78m25.05-10.39c.73-.17,1.46-.35,2.2-.5,1.04-.23,2.07-.46,3.11-.65.9-.15,1.81-.21,2.71-.34,1-.13,2-.32,3.01-.46.55-.06,1.13-.02,1.69-.09,1.07-.13,2.14-.34,3.2-.43,1.41-.12,2.83-.17,4.25-.22,1.05-.05,2.1-.11,3.15-.07.88.03,1.76.19,2.64.27.73.08,1.46.15,2.19.22.13.02.28-.02.42-.03-.05-.14-.07-.36-.17-.42-.43-.28-.88-.57-1.36-.77-.52-.21-1.09-.3-1.63-.49-1.32-.47-2.67-.81-4.07-.9-1.28-.11-2.57-.04-3.84-.19-.66-.08-1.26-.08-1.91,0-1.06.12-2.16.07-3.24.1-.95,0-1.9-.02-2.84.05-1.07.05-2.14.18-3.21.3-1.33.16-2.67.31-4,.5-.74.11-1.47.3-2.21.4-1.87.25-3.67.75-5.47,1.3-.6.19-1.18.49-1.78.68-.91.27-1.83.5-2.77.72-.56.14-1.14.17-1.69.33-.4.11-.77.32-1.14.49-.14.06-.29.23-.41.2-.64-.13-1.2.16-1.75.35-1.38.49-2.72,1.03-4.07,1.56-.76.31-1.53.64-2.27.99-1.29.64-2.57,1.31-3.85,1.95-.81.39-1.61.77-2.41,1.16-.06.02-.1.07-.14.11.06.03.13.1.2.09.3-.06.62-.11.9-.23.93-.42,1.83-.89,2.77-1.28.84-.35,1.71-.6,2.58-.9.11-.03.25-.04.38-.07-.04.14-.03.3-.12.4-.11.13-.29.25-.45.31-.35.12-.72.17-1.05.3-.59.24-1.15.54-1.74.78-.92.38-1.84.71-2.77,1.08-.12.05-.24.14-.35.21-.65.45-1.29.92-1.94,1.36-.81.54-1.63,1.07-2.44,1.64-.44.32-.81.75-1.27,1.06-1.18.79-2.38,1.55-3.57,2.32-.13.08-.2.27-.3.4.19-.04.38-.08.55-.12.06-.02.13-.06.17-.11.29-.35.6-.51,1.05-.25.09.06.26-.04.39-.07-.04-.08-.14-.15-.13-.22.03-.16.07-.41.19-.48.79-.41,1.59-.81,2.41-1.17.79-.34,1.62-.63,2.43-.94.1-.05.18-.1.26-.16.76-.52,1.41-1.21,2.36-1.45.45-.12.88-.32,1.32-.51.22-.09.42-.24.63-.35.49-.24.99-.45,1.48-.69,1.35-.67,2.68-1.42,4.06-2.01,1.08-.47,2.24-.73,3.36-1.1.33-.11.61-.34.93-.46.83-.3,1.69-.58,2.53-.86.57-.2,1.15-.34,1.71-.56,1.59-.59,3.18-1.22,4.76-1.83.78-.3,1.55-.64,2.34-.89.79-.25,1.59-.41,2.4-.59.13-.03.27.02.41.04-.12.09-.23.23-.36.28-.55.19-1.11.35-1.66.54-1.1.38-2.22.77-3.32,1.17-.68.25-1.35.52-2.02.78-1.67.65-3.33,1.29-5.01,1.93-.5.19-1.03.32-1.56.5-.24.08-.46.18-.69.29-.36.16-.72.38-1.09.5-.68.22-1.4.33-2.05.59-.8.32-1.55.76-2.34,1.11-1.05.48-2.14.9-3.2,1.37-1.06.47-2.12.95-3.16,1.47-.38.18-.72.49-1.07.75-.08.06-.13.15-.19.23.09-.01.19,0,.28-.05.78-.37,1.55-.81,2.37-1.12,1.41-.56,2.86-1.02,4.28-1.56,1-.39,1.96-.83,2.95-1.24.37-.15.74-.3,1.13-.44.61-.24,1.24-.46,1.86-.7.67-.26,1.34-.55,2.02-.8.53-.19,1.03-.51,1.64-.41.08,0,.17-.15.28-.21.3-.2.57-.44.89-.57.82-.32,1.65-.59,2.48-.86.24-.07.51-.07.76-.1-.24.14-.46.32-.71.41-.63.23-1.26.42-1.9.63-.06.02-.11.08-.16.12.06-.01.14,0,.2-.02.6-.16,1.2-.34,1.81-.47.91-.19,1.8-.42,2.46-1.13.08-.08.23-.13.31-.11.67.26,1.29-.13,1.78-.36,1.32-.63,2.71-1,4.22-1.33m-35.59,14.58c-.15.06-.3.15-.46.17-.12,0-.39.53-.4-.08,0-.02-.33-.06-.49-.02-.08.02-.14.18-.2.27.13.03.27.07.41.1.06.01.19,0,.21.02.15.38.41.21.61.11.95-.44,1.91-.89,2.87-1.33.93-.44,1.89-.85,2.8-1.33,1.51-.78,2.97-1.6,4.45-2.42.2-.11.34-.34.55-.42.76-.33,1.55-.61,2.32-.91.05-.02.09-.06.13-.08-.04-.02-.07-.04-.12-.04-.36.02-.75-.03-1.09.09-.81.3-1.59.68-2.4,1.02-.45.2-.91.36-1.37.54-.43.15-.85.28-1.28.44-.18.06-.35.12-.5.2-.07.03-.11.11-.15.17.08.02.16.06.24.06.19-.02.37-.06.56-.09.11-.02.21-.01.33-.02-.08.07-.15.15-.23.22-.47.33-1.1.27-1.57.78-.49.54-1.26.82-1.94,1.15-1.04.48-2.12.9-3.28,1.4m1.68-4.18c-.52.37-1.03.76-1.55,1.12-.78.53-1.56,1.06-2.32,1.59-.12.08-.19.21-.28.33.17.02.34.05.51.03.09-.01.17-.1.25-.16,1.03-.72,2.07-1.45,3.09-2.17.81-.58,1.6-1.16,2.4-1.75.16-.11.28-.28.44-.39.7-.43,1.4-.84,2.09-1.28.11-.08.14-.27.2-.4-.13,0-.27-.04-.37.01-.53.31-1.06.61-1.57.95-.97.66-1.92,1.36-2.9,2.11m-12.12,8.34c-.07.03-.15.03-.2.08-.17.12-.33.27-.48.4.24-.01.47,0,.71-.02l.05-.02c.81-.48,1.65-.92,2.44-1.42,1.35-.85,2.69-1.71,4-2.59.41-.26.77-.59,1.13-.9.12-.09.17-.25.26-.38-.17,0-.39-.05-.51.03-.41.28-.78.63-1.19.9-1.24.83-2.48,1.65-3.73,2.45-.78.5-1.59.95-2.48,1.47m13.3-5.73c.71-.39,1.41-.78,2.12-1.18.11-.05.2-.15.3-.22-.16-.02-.34-.1-.46-.04-.67.31-1.32.64-1.96.98-.81.42-1.61.86-2.42,1.28-.06.03-.11.08-.17.11.08.03.18.1.24.08.73-.35,1.59-.43,2.35-1.01m-9.81,5.18c.03-.06.06-.14.12-.16.65-.3,1.32-.57,1.97-.89.28-.13.54-.35.79-.54.07-.05.11-.16.16-.24-.09.01-.18.02-.25.05-.75.33-1.52.63-2.24,1-.29.15-.51.41-.76.64-.01,0,.07.11.21.14M82.32,4.22c.09,0,.21.02.3-.01s.17-.12.26-.19c-.2-.01-.4-.04-.61-.07,0,.08-.02.16.05.27M14.12,22.68c-.06-.16-.12-.31-.19-.47,0-.01-.1,0-.11.03-.11.2.05.46.31.44m19.17-8.98c.18-.05.37-.09.56-.14-.02-.04-.03-.09-.04-.13-.17.04-.32.09-.49.14-.04.02-.07.06-.03.13m1.2-.64c.14,0,.28,0,.42,0,0-.05,0-.1-.01-.15-.13.03-.25.05-.41.15M5.46,26.03c0,.05.03.1.05.15.13-.06.24-.12.37-.18-.12-.02-.25-.03-.42.02m36.31-15.85s-.02.03-.02.04c0,.01.01.03.01.03.12-.06.23-.11.35-.17-.08.02-.16.04-.34.1m-11.03,4.73s.07-.05.12-.08c-.02-.02-.04-.05-.04-.05-.06.03-.1.06-.08.13m1.67-.76s.01-.05.02-.08c-.03.01-.06.02-.02.08m-17.3,7.97s-.01.05-.02.08c.03-.02.06-.03.02-.08"/>
    <path class="cls-1" d="m38.34,8.04c.91-.31,1.77-.61,2.64-.88.43-.13.9-.19,1.35-.32,1.52-.44,3.01-1,4.56-1.31.86-.17,1.67-.5,2.52-.72.62-.16,1.27-.26,1.9-.39l2.11-.47c.07-.02.15-.01.22-.02-.03.07-.04.16-.1.19-.16.12-.33.27-.52.32-1.52.41-3.05.8-4.57,1.2-1.2.3-2.4.63-3.61.92-.64.17-1.3.28-1.94.45-.37.1-.72.26-1.08.38-.6.2-1.2.37-1.79.58-1.01.35-2.05.66-3.04,1.07-1.32.53-2.71,1.02-3.91,1.79-.81.51-1.67.84-2.5,1.27-.61.32-1.12.82-1.7,1.17-.83.49-1.69.93-2.55,1.38-.07.04-.17,0-.27,0,.06-.06.12-.13.19-.19.72-.75,1.74-.96,2.59-1.47.04-.03.08-.07.12-.09-.05-.03-.09-.06-.13-.08-.09-.05-.19-.09-.28-.13.11-.09.21-.27.29-.26.68.09,1.06-.43,1.58-.71.48-.27,1.06-.34,1.59-.53.14-.05.33-.21.36-.33.07-.38.32-.51.65-.63,1.05-.42,2.09-.89,3.14-1.32.71-.29,1.42-.55,2.19-.85"/>
    <path class="cls-1" d="m53.29,5c-.1-.04-.18-.07-.24-.09.34-.19.66-.41,1.03-.55.1-.04.28.15.42.23-.12.08-.24.19-.38.23-.26.09-.53.13-.83.18"/>
    <path class="cls-1" d="m23.83,15.53c-.01.26-.69.73-.84.6-.05-.03,0-.28.06-.31.24-.13.5-.2.78-.29"/>
    <path class="cls-1" d="m26.28,13.77c-.12.14-.28.26-.44.38-.01-.03-.06-.08-.05-.09.15-.1.3-.21.49-.29"/>
    <path class="cls-1" d="m32.95,9.66c0,.07-.01.12-.05.12-.14.04-.29.09-.44.12.16-.1.31-.2.48-.25"/>
    <path class="cls-1" d="m21.48,16.79c.07-.04.11-.05.16-.06,0,.03,0,.08,0,.08-.06.01-.12.01-.17-.02"/>
  </g>
  <g>
    <path class="cls-1" d="m50.73,29.12c-.43.13-.82.3-1.21.42-.8.24-1.61.45-2.41.68-.42.12-.83.25-1.25.37-.06.02-.13.05-.19.03-.72-.17-1.31.33-1.98.39-.34.03-.67.16-1,.24-.07.02-.17,0-.22.03-.83.55-1.85.37-2.75.71-.53.2-1.11.31-1.67.39-.56.1-1.14.09-1.7.16-.3.04-.62.1-.88.23-.53.27-1.1.2-1.66.29-.56.1-1.12.23-1.68.34-.59.11-1.21.12-1.75.43-.03.02-.11.01-.15,0-.46-.23-.88-.04-1.33.09-.66.17-1.34.23-2.02.32-.52.07-1.06.13-1.58.17-.79.05-1.58.21-2.37-.01-.13-.04-.28-.03-.43-.03-.48,0-.96,0-1.45,0-.24,0-.48.05-.72.04-.48-.01-.97-.06-1.46-.07-1.17-.04-2.32-.15-3.5-.18-1-.02-2.02-.08-3.03-.3-.47-.11-.91-.22-1.37-.4-.44-.18-.98-.09-1.45-.2-.86-.21-1.7-.53-2.57-.71-1.01-.21-1.88-.75-2.83-1.09-.47-.16-.99-.25-1.4-.51-.54-.34-1.24-.53-1.46-1.27-.11-.41.14-.75.56-.77.12,0,.24-.08.36-.11-.06-.15-.11-.3-.18-.43-.06-.1-.14-.19-.21-.27.14,0,.3-.06.41,0,.49.26.95.6,1.46.83.38.18.82.26,1.25.35.39.09.79.08,1.16.18.79.21,1.56.24,2.38.02.62-.17,1.31-.12,1.96-.18.8-.09,1.61-.18,2.41-.27.88-.1,1.77-.17,2.64-.29.87-.13,1.73-.26,2.58-.48,1.1-.3,2.19-.68,3.28-1.01.52-.16,1.04-.26,1.57-.4.05-.01.13-.02.19-.05.71-.32,1.44-.51,2.22-.58.49-.05.97-.28,1.44-.45.92-.32,1.85-.61,2.81-.78,1.03-.18,2.03-.5,3.04-.8.83-.25,1.64-.57,2.47-.82,1.42-.43,2.85-.85,4.29-1.24.19-.05.43.1.64.15l.25.07c-.03-.06-.05-.14-.1-.19-.15-.18-.11-.26.11-.32,1.08-.28,2.16-.57,3.22-.87.9-.25,1.8-.51,2.7-.75.89-.24,1.78-.48,2.68-.68.43-.1.84-.19,1.26-.39.47-.22,1.05-.24,1.59-.35.5-.09,1-.16,1.51-.24.8-.14,1.59-.28,2.4-.42.19-.03.36-.15.55-.17.41-.06.83-.09,1.24-.12.99-.08,1.97-.18,2.95-.23.37-.02.74.12,1.09-.09.7.37,1.49-.23,2.18.18.6-.21,1.2.1,1.8.02.19-.02.38.05.58.06.24.03.49.08.73.03.35-.07.66-.04,1,.03.46.09.95.08,1.43.13.13.01.26.04.39.06.4.06.8.1,1.19.19.23.05.43.18.66.26.23.08.48.12.72.16.25.05.52.05.77.1.27.06.53.15.8.22.5.14.98.3,1.49.41.47.1.87.43,1.41.41.37-.02.76.24,1.14.39.09.02.15.09.24.11.56.17,1.14.3,1.69.49.71.26,1.42.56,2.12.87.96.42,1.82,1.01,2.65,1.67.47.38.88.82,1.35,1.17.27.21.34.46.33.73,0,.23.09.33.24.46.12.1.19.24.28.37.09.15.16.32.26.46.31.46.07.92-.48,1.09-.45.14-.87.36-1.32.47-.4.1-.83.16-1.25.14-.78-.04-1.57-.15-2.36-.24-.03,0-.06,0-.08-.02-.56-.37-1.2-.18-1.79-.28-.55-.09-1.07-.35-1.6-.53-.1-.04-.2-.06-.3-.09-.73-.17-1.45-.35-2.18-.52-.14-.04-.31-.13-.42-.08-.51.21-.98.02-1.46-.05-.84-.12-1.67-.32-2.51-.44-.36-.05-.72-.07-.99-.37-.01-.02-.16.08-.24.13-.08.05-.19.16-.24.14-.46-.18-.95-.16-1.43-.16-.28,0-.56-.15-.84-.22-.05-.01-.09,0-.15,0,.05.02.1.05.13.08.09.09.16.2.25.3-.13,0-.25,0-.37,0-.37,0-.74,0-1.12-.04-.74-.08-1.43.15-2.13.31-.21.05-.45-.03-.68,0-.45.05-.9.15-1.35.21-.61.08-1.23.12-1.85.24-.35.06-.68.25-1.03.36-.64.19-1.28.39-1.92.56-.57.14-1.17.18-1.71.39-.46.18-.92.32-1.4.44-1,.23-1.98.48-2.98.73-.11.03-.22.07-.36.1m23.59-3.39l.02-.07s-.04.04-.1.05c-.02.03-.02.05-.03.08.02-.02.05-.04.11-.05m-50.14,4.91s-.02.05-.03.08c.02-.02.05-.04.11-.05.06.02.12.03.18.03,0-.02,0-.04,0-.06-.07,0-.15,0-.26,0m-8,1.97s-.02.05-.03.08c.02-.02.05-.04.11-.05.09.02.17.04.26.06,0-.03-.02-.07-.03-.07-.09,0-.18,0-.3-.01m-2.75-1.6c-.19.11-.38.3-.56.3-.94-.02-1.89-.07-2.84-.15-.83-.06-1.65-.14-2.47-.27-.44-.07-.86-.24-1.3-.36-.07-.02-.15,0-.21,0,.02.07.03.18.07.22.25.17.5.39.78.46.42.1.86.11,1.2.44.08.07.29.02.45,0,.24-.02.48-.09.71-.08.57.03,1.15.13,1.73.14.58,0,1.16-.07,1.74-.12.14-.01.27-.08.39-.15.13-.07.24-.16.36-.26.08-.08.16-.17.22-.26,0-.02-.07-.09-.11-.13-.05.06-.1.12-.17.23m10.78-2.12c-.19.05-.38.09-.56.15-.08.02-.15.09-.21.14.07.04.13.1.19.1.4-.01.79-.03,1.18-.06.73-.06,1.46-.12,2.19-.22.75-.1,1.5-.23,2.24-.42.59-.15,1.14-.43,1.72-.63.22-.07.47-.05.68-.12.87-.3,1.72-.68,2.61-.94.59-.18,1.23-.22,1.83-.34.88-.18,1.76-.38,2.64-.57.19-.04.4-.03.56-.12,1.03-.55,2.17-.82,3.27-1.19.33-.11.7-.14,1.04-.26.64-.22,1.26-.48,1.9-.71.28-.1.59-.13.9-.17.25-.04.51-.03.75-.09.86-.18,1.72-.38,2.57-.59.37-.09.74-.22,1.11-.31.4-.11.79-.23,1.19-.3.77-.15,1.58-.06,2.33-.37.22-.1.49-.08.74-.11.44-.06.88-.1,1.32-.19.7-.12,1.39-.3,2.09-.41.29-.05.55-.02.85-.11.83-.25,1.71-.34,2.59-.38.29,0,.62.08.93-.02.04,0,.08.02.12.03.46.02.92.09,1.37.04.61-.06,1.2-.21,1.75.17.07.04.19.02.27,0,.61-.23,1.23-.24,1.86-.06.05.01.1.02.16.02.55,0,1.09-.02,1.64,0,.35,0,.69.04,1.04.06.3.02.61.04.92.08.59.07,1.17.16,1.75.24.53.07,1.07.09,1.58.21,1.25.32,2.48.7,3.72,1.05.2.06.4.07.58.15.47.19.91.54,1.37.55.5.02.92.21,1.31.37.89.38,1.85.68,2.55,1.42.03.04.14.03.19.01.03-.02.06-.12.04-.15-.12-.19-.22-.42-.4-.53-.59-.39-1.21-.77-1.83-1.11-.58-.31-1.11-.71-1.79-.81-.12-.02-.22-.12-.34-.18-.61-.26-1.22-.55-1.85-.78-.61-.23-1.25-.37-1.87-.55-.29-.09-.56-.27-.85-.31-.49-.06-.99-.04-1.4-.37-.03-.03-.1,0-.16-.01-.55-.04-1.1-.05-1.65-.13-.93-.14-1.76-.68-2.75-.56-.45.06-.94-.18-1.41-.28-.14-.03-.28-.03-.43-.04-.47-.02-.98.04-1.41-.09-.75-.24-1.52-.22-2.27-.27-.86-.06-1.72.19-2.59,0-.26-.05-.54-.03-.8.01-.79.12-1.57,0-2.36.12-.47.07-.98.02-1.48.07-.73.09-1.48.15-2.22.22-.45.05-.9.08-1.36.13-.46.04-.91.07-1.36.14-.65.1-1.3.23-1.94.36-.22.04-.46.07-.62.2-.51.37-1.12.35-1.67.49-.71.2-1.45.3-2.16.49-.97.27-1.94.59-2.92.87-.5.15-1.01.26-1.52.38-.3.08-.59.14-.89.23-.64.2-1.28.44-1.92.63-.97.29-1.95.56-2.92.85-1.14.33-2.27.66-3.4,1.02-.56.17-1.1.4-1.66.57-.57.19-1.15.35-1.74.49-.45.11-.93.12-1.38.25-.81.24-1.62.54-2.43.79-1.15.37-2.32.69-3.47,1.08-1.05.37-2.09.68-3.19.86-.67.11-1.34.24-2.02.35-.44.08-.9.07-1.31.21-.5.18-.98.38-1.53.37-.64,0-1.28.07-1.93.09-.1,0-.2-.03-.31-.05.07.11.13.23.22.3.11.08.27.17.38.15,1.09-.16,2.2-.02,3.29-.37.27-.08.58-.15.88-.19.51-.08,1.03-.16,1.54-.2.68-.05,1.32-.36,2.04-.25.35.06.73-.06,1.09-.09.71-.05,1.34-.5,2.08-.35.06,0,.15,0,.18-.04.27-.35.61-.19.93-.11m42.23-3.85s.05-.01.13,0c.04,0,.11.01.12,0,.05-.05.05-.15.1-.17.08-.04.2-.05.25-.01.07.05.08.18.11.26.08-.09.15-.21.26-.27.1-.06.24-.05.37-.05.12,0,.28.06.37,0,.16-.09.28-.25.42-.38-.11,0-.23.01-.34.02-.03,0-.04.03-.07.03-.62.02-1.25,0-1.87.05-1.23.12-2.46.27-3.69.45-.69.09-1.37.37-2.05.36-1.22-.02-2.36.31-3.53.49-1.24.19-2.46.54-3.7.79-.68.14-1.38.19-2.06.32-.77.16-1.54.39-2.31.56-1.21.27-2.41.53-3.62.76-1.29.23-2.58.4-3.87.61-.58.1-1.17.25-1.76.34-.66.1-1.34.13-1.99.26-.94.19-1.85.5-2.79.65-.75.13-1.53.12-2.25.47-.01,0-.02.01-.03.02-.72.11-1.42.22-2.14.32-.13.02-.28,0-.42-.03-.06-.02-.11-.11-.16-.17.05-.03.11-.07.16-.08.4-.09.8-.18,1.19-.26.55-.11,1.11-.19,1.65-.3.23-.05.43-.18.66-.23.43-.08.88-.09,1.31-.18.73-.16,1.43-.41,2.16-.52,1.33-.22,2.64-.51,4-.49.04,0,.09-.06.14-.07.52-.12,1.04-.28,1.57-.37.62-.1,1.26-.1,1.88-.22,1.01-.2,1.99-.46,2.98-.69.77-.18,1.54-.34,2.31-.5.97-.19,1.95-.37,2.92-.55.55-.1,1.11-.14,1.66-.23.4-.07.79-.24,1.19-.27.29-.03.54-.11.82-.17.55-.12,1.12-.21,1.68-.29.8-.12,1.6-.22,2.41-.34.31-.05.61-.17.93-.23.7-.13,1.39-.27,2.09-.37.4-.06.81-.11,1.21-.13.68-.04,1.35-.04,2.02-.07.61-.03,1.21-.12,1.82-.1.69.03,1.37.15,2.05.21.59.05,1.18.06,1.77.11.66.06,1.33.07,1.96.25.33.09.9-.23,1.01.43,0,.02.05.03.08.02.41-.15.77.06,1.15.14.62.13,1.25.19,1.87.31.57.11,1.14.28,1.72.4.32.07.66.08.98.16.77.22,1.53.47,2.3.7.51.15,1.07.15,1.51.38.42.22.77-.05,1.13,0,.05.01.11-.12.17-.19-.06-.04-.11-.1-.18-.12-.21-.06-.4-.08-.38-.39,0-.1-.16-.23-.26-.31-.47-.32-.98-.6-1.44-.94-.72-.52-1.51-.9-2.35-1.2-.55-.19-1.08-.48-1.62-.7-.36-.15-.72-.3-1.09-.4-.51-.12-1.03-.18-1.55-.28-.16-.04-.3-.17-.46-.21-.52-.11-1.04-.18-1.56-.29-.52-.11-1.04-.25-1.56-.35-.31-.06-.65-.07-.97-.12-.65-.07-1.29-.15-1.93-.2-.45-.04-.9-.03-1.34-.05-.71-.03-1.41-.12-2.12-.12-.76-.01-1.52.06-2.28.05-.71,0-1.41-.06-2.11-.09-.45-.03-.89-.05-1.34-.04-.48.02-.97.06-1.44.13-.35.05-.69.2-1.04.26-.34.07-.67.08-1.01.14-.54.09-1.07.22-1.61.31-.56.09-1.13.11-1.69.21-.64.1-1.27.28-1.91.38-.45.07-.93-.01-1.36.1-1.47.37-2.89.87-4.37,1.15-.64.12-1.27.28-1.9.45-.57.15-1.14.32-1.7.48-.7.21-1.41.4-2.1.63-.71.22-1.39.52-2.1.73-.55.16-1.12.23-1.68.36-.68.16-1.35.36-2.04.53-.62.14-1.26.2-1.86.38-.94.28-1.86.63-2.8.94-.23.07-.5.03-.71.14-.83.46-1.77.59-2.67.75-1.06.19-2.16.22-3.25.32-.65.06-1.31.15-1.96.21-.07,0-.14-.03-.22-.05.05-.04.09-.08.14-.11.05-.03.12-.04.14-.08.06-.08.09-.17.13-.25-.08.02-.18.02-.25.06-.45.24-.89.44-1.44.41-.75-.03-1.52.09-2.27.19-.84.11-1.66.26-2.48.4-.1.01-.27.1-.27.13.03.15.1.29.17.43.08-.05.16-.09.24-.14.06-.03.12-.06.17-.1.18-.11.33-.2.27.14-.03.15.15.28.23.17.17-.29.23-.21.34.02.03.05.13.11.19.11.19-.02.38-.09.58-.13.01,0,.02-.05.03-.08-.14-.01-.29,0-.42-.04-.18-.06-.36-.16-.53-.24.15-.06.3-.13.45-.17.09-.03.2-.04.3-.03.55.02,1.1.06,1.66.07.35,0,.7-.05,1.05-.06.38-.02.77,0,1.14-.02.8-.07,1.56-.33,2.37-.34,1.41-.01,2.82-.08,4.18-.58.58-.22,1.21-.31,1.82-.42.85-.17,1.71-.31,2.58-.46.33-.06.7-.04,1.01-.15.6-.2,1.23-.2,1.84-.32.28-.05.54-.13.83-.16.57-.07,1.16-.1,1.73-.18.58-.07,1.15-.21,1.72-.3.11-.01.21.03.32.05-.09.07-.17.19-.27.21-.7.15-1.41.3-2.13.41-.69.11-1.38.17-2.07.27-.62.09-1.23.22-1.84.32-.46.08-.93.14-1.39.2-.08.01-.22,0-.23.03-.03.12-.04.25-.02.38,0,.03.18.04.27.03.51-.1,1.01-.22,1.52-.31.34-.06.69-.05,1.03-.06.04,0,.09.04.13.07-.04.03-.09.07-.13.08-.19.05-.39.09-.59.13-.83.15-1.65.3-2.48.43-.39.07-.79.05-1.17.13-.58.13-1.15.37-1.74.47-.95.17-1.9.27-2.86.4-.7.09-1.4.19-2.11.25-.81.07-1.62.08-2.43.14-1.02.07-2.04.17-3.07.23-.57.04-1.12.17-1.71.12-.8-.08-1.63,0-2.43.07-.73.05-1.46.17-2.18.27-.21.03-.39.13-.58.19.21.06.43.16.65.16.45,0,.91-.07,1.36-.04.63.03,1.29.09,1.88.05.87-.07,1.74.09,2.61-.2.64-.21,1.35-.21,2.02-.29.58-.07,1.16-.11,1.74-.18.81-.1,1.61-.24,2.41-.33.96-.11,1.94-.2,2.9-.29.16,0,.31.02.46.06.05.01.07.11.11.16-.04,0-.1,0-.15.02-.08.02-.16.06-.25.07-1.41.17-2.82.34-4.22.5-.62.08-1.24.15-1.86.21-.58.05-1.19,0-1.73.16-.44.13-.86.25-1.32.26-.05.01-.11.07-.16.11.05.02.09.07.14.06.42,0,.84.04,1.26,0,.43-.04.85-.19,1.28-.2.81,0,1.6.14,2.41,0,.68-.12,1.39-.1,2.08-.19,1.01-.14,2-.32,3-.48.04,0,.08.01.12,0,.65-.08,1.3-.16,1.96-.23.18-.02.35-.05.52-.07.35-.04.7.04,1.06-.1.4-.16.87-.12,1.31-.17.6-.07,1.21-.12,1.81-.21.41-.07.82-.19,1.22-.27.51-.09,1-.16,1.51-.24.41-.06.83-.12,1.24-.16.05,0,.13.09.19.14-.08.06-.14.16-.22.18-.73.14-1.47.27-2.21.39-.79.13-1.57.27-2.37.38-1.06.15-2.13.29-3.2.41-1.02.12-2.04.18-3.05.34-1.11.17-2.2.41-3.3.62-.12.02-.25.01-.38.03-.63.05-1.26.11-1.89.17-.18.02-.35.09-.52.07-.41-.06-.82-.17-1.23-.22-.13-.02-.31.04-.14.24.03.04.08.06.11.1-.05,0-.1,0-.15,0-.46-.12-.91-.23-1.41-.16-.61.08-1.24.06-1.86.06-1.13,0-2.26.27-3.38-.01-.1-.02-.23.01-.34.01-.26,0-.51,0-.76-.01-.27-.03-.53-.09-.8-.12-.07,0-.14.06-.21.09.07.05.13.14.21.15.31.05.63.07.94.11.36.04.7.11,1.05.12.77.03,1.54,0,2.3.08.68.08,1.33-.28,2.02-.04.36.13.75.23,1.14.24,1.37.03,2.74,0,4.12,0,.19,0,.37-.07.56-.09.81-.07,1.64-.09,2.45-.18.94-.11,1.86-.27,2.78-.41.21-.02.43,0,.65-.03.74-.12,1.47-.25,2.21-.4,1.24-.25,2.48-.52,3.73-.76,1.02-.19,2.05-.34,3.07-.54.38-.07.73-.23,1.12-.32.58-.12,1.23-.02,1.74-.43.02-.02.07,0,.11-.02.99-.25,1.98-.51,2.97-.77.15-.03.32-.16.44-.11.69.23,1.23-.19,1.78-.41.58-.24,1.09-.64,1.77-.55.05,0,.11-.07.17-.1.78-.32,1.54-.72,2.35-.94.88-.24,1.74-.56,2.67-.66.65-.08,1.28-.38,1.93-.52.9-.19,1.82-.34,2.73-.5.94-.16,1.9-.32,2.85-.45.89-.13,1.78-.26,2.67-.35.55-.05,1.12-.02,1.67,0m-34.37,4.02c-.14.01-.28,0-.42.03-.32.08-.63.19-.96.25-.61.14-1.24.25-1.86.38-.14.03-.3.05-.44.07-.06,0-.12.02-.17.03.03.07.05.19.09.2.17.03.36.04.53.02.18-.02.34-.1.52-.13.52-.12,1.04-.23,1.56-.35.38-.08.77-.16,1.15-.24.08-.02.16-.02.24-.03-.06-.07-.11-.13-.23-.23m49.71-2.21c-.4-.06-.81-.08-1.21-.18-.69-.17-1.36-.39-2.04-.58-.07-.02-.17.04-.26.07.06.08.11.21.19.23.49.16.97.38,1.47.41.49.03.91.1,1.37.31.36.17.49.06.48-.27M5.52,31l.4-.04c-.09-.11-.16-.28-.27-.33-.43-.18-.88-.34-1.33-.47-.09-.03-.23.07-.34.12.07.09.13.22.22.26.41.16.82.3,1.32.46m9.12-.07c.17.13.35.25.53.37.02,0,.15-.06.15-.09,0-.22-.4-.57-.62-.55-.17.01-.18.1-.05.28m-.05,1.82c.22.01.45.02.68.02.04,0,.09-.05.14-.08-.04-.04-.09-.12-.13-.12-.28-.01-.55,0-.84,0,.02.06.04.12.14.19m57.34-7.97s-.03.02-.04.02c0,0,0,.03,0,.03.43.08.85.15,1.29.22.02,0,.05-.02.07-.04-.03-.02-.06-.04-.1-.05-.39-.08-.78-.15-1.22-.19m-16.62,2.49s.09-.04.14-.08c.06-.04.12-.1.19-.15-.1,0-.19-.01-.29.01-.14.04-.27.09-.4.15-.09.04-.19.08-.28.12.13.03.25.08.38.08.07,0,.14-.07.26-.14m17.8-7.66s.1,0,.15,0c-.03-.04-.06-.09-.11-.1-.2-.07-.41-.14-.61-.21-.06-.02-.1-.08-.16-.1-.03,0-.07.05-.11.07.05.07.1.16.17.19.2.07.41.12.67.15m-58.93,12.9c-.22,0-.45-.03-.66-.03-.02,0-.03.07-.04.1.21,0,.42.02.63.03.02,0,.03,0,.06-.1m42.8-5.7c.1.06.2.11.3.16,0-.07.03-.18,0-.2-.12-.08-.27-.23-.3.03m12.34-2.05c.07-.17.02-.26-.16-.23-.08.01-.15.08-.23.13.11.05.23.09.4.11m-15.66,2.89c.14-.04.28-.08.41-.13.01,0,0-.05,0-.08-.16.01-.32.03-.48.04-.04,0-.08.06-.12.09.04.02.07.04.18.08m-3.07.7c.12.04.24.09.37.12.03,0,.08-.05.12-.08-.14-.03-.27-.06-.4-.09,0,0-.02.01-.08.05m21.18-2.76s0,.04.01.04c.2.03.38.07.58.1,0,0,.01-.05.03-.07-.14-.03-.28-.06-.43-.09-.07-.01-.15-.02-.19.02m13.8-.27c-.11,0-.21-.02-.32-.02.06.07.11.15.18.19.02.01.11-.07.13-.17m-68.66,7.33c.06,0,.12-.02.18-.03.1-.01.2-.03.3-.04-.01-.02-.02-.06-.04-.05-.11,0-.23-.01-.33,0-.05,0-.1.05-.11.12m53.27-7.77c.1-.01.2-.04.3-.06-.05-.05-.1-.14-.12-.14-.08.04-.14.1-.18.2m2.94.76c-.06.02-.13.03-.19.03-.06,0-.13,0-.2,0,.06.03.12.06.18.08.08.03.17.05.27.08,0-.05,0-.11-.07-.19m-23.74,3.05s-.01-.02-.02-.03h-.02c-.07.1-.14.2-.19.31,0,0,.05.04.09.06.04-.08.08-.17.16-.34m-22.22,1.61c-.13,0-.25,0-.37,0,0,.03.02.07.04.07.12,0,.24-.02.33-.08m42.07-11.93s-.08.06-.11.05c-.07,0-.13-.01-.19-.01.05.02.09.07.15.08.08.03.16.05.24.07.02,0,.04-.03.07-.05-.04-.03-.09-.06-.15-.14m-16.17,9.42l-.31-.09s-.02.06-.02.1c.09,0,.19.01.33-.02m-25.44,2.26c.06.05.13.11.2.15.02,0,.06-.06.09-.08-.08-.03-.17-.07-.3-.07m47.43-4.41c-.04-.06-.09-.11-.13-.16,0-.01-.05.02-.07.04.05.05.1.1.21.12m-5.12-6.73s-.03.02-.04.02c0,0,0,.02,0,.03.07.01.14.02.21.04-.03-.02-.07-.04-.17-.08M13.01,30.97s-.08-.04-.12-.06c0,0-.02.03-.03.04.03.02.06.03.15.02m63.96-5.26s.07.01.1.01c0-.02,0-.05,0-.05-.05,0-.09,0-.11.04m-51.44,8.09s.02.03.04.05c0-.03,0-.05-.04-.05m30.66-15.38s.02.03.04.05c0-.03,0-.05-.04-.05m7.84-.35s.02-.03.05-.04c-.03,0-.05,0-.05.04m10.07,7.04s.02.03.04.05c0-.03,0-.05-.04-.05m-60.84,5.85s-.03-.02-.04-.05c0,.02-.01.05.04.05m-2.5-.68s.02-.03.05-.04c-.03,0-.05,0-.05.04"/>
    <path class="cls-1" d="m57.43,23.84c-.27.02-.53.04-.78.05-.06,0-.13-.05-.2-.03-.8.15-1.62.31-2.43.47-.7.14-1.39.34-2.09.42-.49.05-1.02.32-1.52,0-.44.27-.95.17-1.42.26-.46.08-.91.23-1.37.35-.01,0-.06-.04-.06-.07,0-.08,0-.21.02-.22.3-.13.67-.4.9-.31.47.17.83-.09,1.21-.17.43-.08.84-.32,1.29-.1.05.02.13,0,.18-.03.62-.25,1.25-.31,1.91-.32.45,0,.89-.24,1.34-.33.51-.11,1.02-.19,1.54-.27.55-.08,1.1-.16,1.65-.21.33-.03.66-.02.99-.05.39-.03.78-.08,1.17-.1.24,0,.49.05.73.04.94-.05,1.87-.11,2.8-.15.73-.03,1.48.05,2.21-.07.47-.07.86-.02,1.31.03.35.05.71-.15,1.11-.02.3.1.64.1.96.12.82.07,1.64.13,2.46.2.27.03.54.1.81.14,1.06.19,2.11.37,3.16.57.19.03.37.1.56.16.03,0,.05.05.08.07-.05.02-.1.07-.15.07-.39-.05-.77-.11-1.16-.15-.52-.07-1.03-.13-1.55-.2-.55-.06-1.09-.15-1.63-.2-.68-.07-1.36-.11-2.04-.17-.46-.04-.92-.08-1.37-.14-.63-.06-1.26-.18-1.89-.18-.7,0-1.39.11-2.09.15-.21.02-.43.02-.64.03-.97.05-1.95.12-2.92.15-.36.02-.72-.06-1.08-.05-.25,0-.5.09-.74.12-.42.05-.83.08-1.28.13"/>
    <path class="cls-1" d="m46.94,25.04c.12.04.2.06.28.1-.05.11-.07.28-.16.32-.31.14-.64.25-.98.36-.3.09-.61.17-.93.25-.95.22-1.9.47-2.87.65-.55.1-1.13.07-1.7.09-.08,0-.21-.03-.22,0-.24.52-.79.37-1.19.49-.62.21-1.29.29-1.94.43-.06.02-.13.04-.19.02-.09-.02-.17-.07-.25-.11.08-.05.15-.12.24-.15.53-.17,1.06-.32,1.59-.47.07-.02.15-.05.22-.06.55-.02,1.02-.22,1.52-.46.45-.22,1.05-.13,1.58-.16.09,0,.18,0,.26-.02,1.13-.29,2.25-.58,3.38-.89.44-.12.88-.27,1.37-.39"/>
    <path class="cls-1" d="m28.73,31c-.09-.07-.14-.13-.18-.2.14,0,.3,0,.45.03.03,0,.06.09.09.13-.11.02-.22.04-.35.04"/>
    <path class="cls-1" d="m29.78,30.82s0,.04-.02.05c-.17,0-.35.02-.52.03,0,0,0-.09-.01-.13.19.01.36.02.56.06"/>
    <path class="cls-1" d="m35.93,28.88s.08-.03.12-.04c0,.02,0,.04,0,.06-.03,0-.07,0-.12-.02"/>
    <path class="cls-1" d="m35.65,28.97s.08-.03.14-.04c-.02.03-.07.04-.14.04"/>
    <path class="cls-1" d="m35.61,28.96s-.02.05-.05.07c0-.02.01-.05.05-.07"/>
    <path class="cls-1" d="m66.52,25s-.04,0-.07,0c.01,0,.04-.01.07,0"/>
    <path class="cls-1" d="m35.9,28.87s-.02.05-.06.07c0-.03.02-.05.06-.07"/>
    <path class="cls-1" d="m24.23,28.85c.09-.08.2-.18.31-.26.09-.06.18-.11.26-.16.05.07.13.17.11.21-.04.1-.12.24-.2.26-.15.03-.31-.02-.48-.04"/>
    <path class="cls-1" d="m25.8,28.71c-.09.03-.18.02-.26,0,.03-.09.06-.19.1-.28.05.08.11.16.16.28"/>
    <path class="cls-1" d="m13.45,30.97s.03-.04.04-.06c0,.02-.01.05-.04.06"/>
  </g>
</svg>