<?xml version="1.0" encoding="UTF-8"?>
<svg id="Contours" xmlns="http://www.w3.org/2000/svg" viewBox="0 0 60.76 24.73">
  <defs>
    <style>
      .cls-1 {
        fill: #fff;
        stroke: #fff;
        stroke-miterlimit: 10;
      }
    </style>
  </defs>
  <g>
    <path class="cls-1" d="m28.81,10.7c-.25.26-.52.39-.86.43-.27.04-.52.26-.79.36-1.05.41-2.13.77-3.15,1.24-.93.41-1.82.95-2.72,1.44-.25.12-.5.24-.75.37-.41.21-.83.41-1.24.64-.65.35-1.28.72-1.93,1.08-.41.23-.81.48-1.24.69-.36.19-.73.35-1.09.51-.54.23-1.06.52-1.62.69-.97.31-1.96.56-2.94.84-.03,0-.05.02-.07.03-.77.36-1.66.26-2.42.57-.86.35-1.79.28-2.65.57-.42.15-.91.11-1.37.15-.06,0-.12-.03-.17-.01-.7.32-1.48.19-2.22.37-.6.15-1.15-.5-1.08-1.1.07-.53.31-.79.81-.96.69-.24,1.37-.53,2.02-.86.58-.29,1.11-.67,1.66-.99.34-.2.68-.39,1.01-.59.3-.18.59-.37.88-.57.91-.65,1.82-1.28,2.72-1.94.82-.6,1.63-1.22,2.45-1.82.66-.48,1.34-.93,1.98-1.42.58-.45,1.15-.88,1.82-1.2.64-.31,1.19-.78,1.8-1.15.35-.21.72-.35,1.09-.51.97-.43,2-.75,2.89-1.32,1.03-.65,2.16-1.01,3.26-1.45.9-.37,1.82-.7,2.75-.98.95-.29,1.94-.48,2.91-.74.38-.1.74-.28,1.12-.34.95-.14,1.81-.67,2.8-.71.28,0,.55-.17.84-.23.85-.18,1.73-.28,2.56-.53.77-.24,1.55-.3,2.33-.38,1.39-.14,2.8-.3,4.21-.25.83.03,1.63-.12,2.45-.11.77.02,1.53-.03,2.3,0,.98.03,1.96.05,2.93.18,1.08.15,2.13.42,3.19.64.81.17,1.42.7,2.11,1.11.08.04.12.11.2.14.23.09.41.26.32.5-.06.19-.2.42-.35.47-.9.28-1.69.87-2.7.83-.33,0-.69.09-1,.23-.66.3-1.37.29-2.05.42-.96.19-1.93.28-2.9.46-.44.08-.88.24-1.32.33-.5.1-.99.17-1.49.26-.48.1-.95.2-1.42.31-.65.16-1.28.4-1.97.41-.37,0-.77.14-1.13.25-.2.06-.35.07-.48-.12-.04-.06-.13-.08-.2-.1,0,.07-.01.16.02.21.14.28-.01.17-.17.17-.4.02-.81.06-1.21.15-.46.09-.9.27-1.35.35-.68.12-1.28.47-1.98.5-.32.01-.68.2-1.02.29-1.02.26-2.02.6-3.03.92-.63.2-1.26.41-1.87.64-.5.19-.97.42-1.48.65m-9.29,1.11s-.02.06-.03.07c-.68.38-1.36.78-2.06,1.13-.99.49-1.99.96-3,1.4-1.18.51-2.38.97-3.57,1.47-.97.41-1.95.86-2.91,1.29-.15.06-.28.14-.43.17-.51.12-.99.35-1.52.46-.74.17-1.4.61-2.1.93-.28.13-.56.26-.84.41-.23.11-.45.24-.68.33-.07.03-.19-.05-.28-.07.06-.07.1-.15.18-.21.24-.17.5-.33.75-.51.04-.03.06-.1.09-.16-.06,0-.11-.02-.16,0-.28.1-.59.17-.83.34-.3.21-.75.24-.86.75-.09.43-.14.45.32.39.44-.04.88-.12,1.31-.21.66-.13,1.32-.27,1.97-.43.49-.12.97-.3,1.46-.39.85-.15,1.72-.28,2.59-.36,1.06-.1,2.06-.41,3.05-.73.8-.26,1.57-.61,2.34-.98,1.03-.48,2.08-.93,3.04-1.56.3-.19.7-.25,1.02-.41.37-.19.68-.48,1.06-.64.73-.29,1.43-.64,2.09-1.05.77-.48,1.57-.9,2.38-1.33.9-.47,1.8-.97,2.73-1.36.72-.3,1.51-.41,2.25-.66,1.31-.44,2.6-.89,3.89-1.34.1-.03.2-.1.3-.12.68-.16,1.37-.3,2.04-.48.71-.19,1.41-.45,2.11-.65.77-.21,1.55-.39,2.31-.57.5-.12.99-.26,1.49-.37.87-.19,1.77-.22,2.6-.57.12-.05.26-.05.38-.07.57-.09,1.13-.16,1.69-.26.42-.08.84-.2,1.25-.28.44-.08.88-.14,1.31-.23.5-.1.99-.23,1.49-.31.61-.1,1.22-.15,1.83-.26,1.39-.23,2.77-.5,4.15-.75.07,0,.11-.1.17-.15-.06-.03-.11-.06-.17-.07-.57-.08-1.13-.14-1.68-.21-1.35-.17-2.69-.17-4.03-.05-.81.08-1.61.11-2.42.19-.63.06-1.24.14-1.87.19-.33.03-.67.03-1,.08-.55.07-1.1.17-1.66.23-.48.06-.97.09-1.44.17-.63.1-1.25.2-1.86.32-.53.11-1.06.24-1.6.38-.26.06-.5.18-.76.21-1.04.1-2.01.4-2.98.75-.52.19-1.02.54-1.63.48-.03,0-.08.05-.12.06-.66.28-1.29.58-1.96.81-.69.23-1.42.36-2.11.6-.87.31-1.71.7-2.56,1.06-.08.03-.17.05-.24.07-.32.1-.65.17-.95.32-.58.28-1.13.6-1.71.88-.43.21-.88.38-1.31.59-.76.39-1.53.79-2.35,1.23m17.3-7.17c.5-.12,1.01-.24,1.52-.35.72-.16,1.43-.32,2.15-.45.62-.1,1.25-.15,1.87-.23.69-.09,1.38-.22,2.08-.32.38-.04.78-.01,1.17-.06.74-.09,1.48-.23,2.21-.3.97-.08,1.95-.12,2.93-.15.73-.03,1.45-.08,2.18-.05.61.02,1.22.13,1.82.19.5.06,1.01.1,1.51.15.09.01.19-.01.29-.02-.03-.1-.05-.25-.12-.29-.3-.19-.61-.39-.94-.53-.36-.15-.75-.21-1.13-.34-.91-.32-1.84-.56-2.81-.62-.88-.08-1.77-.03-2.65-.13-.46-.06-.87-.06-1.32,0-.73.08-1.49.05-2.24.07-.66,0-1.31-.01-1.96.03-.74.03-1.48.12-2.22.21-.92.11-1.84.21-2.76.35-.51.08-1.02.21-1.53.28-1.29.17-2.53.52-3.78.9-.41.13-.81.34-1.23.47-.63.19-1.26.35-1.91.5-.39.1-.79.12-1.17.23-.28.08-.53.22-.79.34-.1.04-.2.16-.28.14-.44-.09-.83.11-1.21.24-.95.34-1.88.71-2.81,1.08-.52.21-1.06.44-1.57.68-.89.44-1.77.9-2.66,1.35-.56.27-1.11.53-1.66.8-.04.01-.07.05-.1.08.04.02.09.07.14.06.21-.04.43-.08.62-.16.64-.29,1.26-.61,1.91-.88.58-.24,1.18-.41,1.78-.62.08-.02.17-.03.26-.05-.03.1-.02.21-.08.28-.08.09-.2.17-.31.21-.24.08-.5.12-.73.21-.41.17-.79.37-1.2.54-.64.26-1.27.49-1.91.75-.08.03-.17.1-.24.15-.45.31-.89.64-1.34.94-.56.37-1.13.74-1.68,1.13-.3.22-.56.52-.88.73-.81.55-1.64,1.07-2.47,1.6-.09.06-.14.19-.21.28.13-.03.26-.06.38-.08.04-.01.09-.04.12-.08.2-.24.41-.35.73-.17.06.04.18-.03.27-.05-.03-.06-.1-.1-.09-.15.02-.11.05-.28.13-.33.55-.28,1.1-.56,1.66-.81.55-.23,1.12-.44,1.68-.65.07-.03.12-.07.18-.11.52-.36.97-.84,1.63-1,.31-.08.61-.22.91-.35.15-.06.29-.17.44-.24.34-.17.68-.31,1.02-.48.93-.46,1.85-.98,2.8-1.39.75-.32,1.55-.5,2.32-.76.23-.08.42-.23.64-.32.57-.21,1.17-.4,1.75-.59.39-.14.79-.23,1.18-.39,1.1-.41,2.2-.84,3.29-1.26.54-.21,1.07-.44,1.62-.61s1.1-.28,1.66-.41c.09-.02.19.01.28.03-.08.06-.16.16-.25.19-.38.13-.77.24-1.15.37-.76.26-1.53.53-2.29.81-.47.17-.93.36-1.39.54-1.15.45-2.3.89-3.46,1.33-.35.13-.71.22-1.08.35-.17.06-.32.12-.48.2-.25.11-.5.26-.75.35-.47.15-.97.23-1.42.41-.55.22-1.07.52-1.62.77-.73.33-1.48.62-2.21.95-.73.32-1.46.66-2.18,1.02-.26.12-.5.34-.74.52-.06.04-.09.1-.13.16.06,0,.13,0,.19-.03.54-.26,1.07-.56,1.64-.77.97-.39,1.97-.7,2.96-1.08.69-.27,1.35-.57,2.04-.86.26-.1.51-.21.78-.3.42-.17.86-.32,1.28-.48.46-.18.93-.38,1.39-.55.37-.13.71-.35,1.13-.28.06,0,.12-.1.19-.15.21-.14.39-.3.61-.39.57-.22,1.14-.41,1.71-.59.17-.05.35-.05.52-.07-.17.1-.32.22-.49.28-.44.16-.87.29-1.31.44-.04.01-.08.06-.11.08.04,0,.1,0,.14-.01.41-.11.83-.23,1.25-.32.63-.13,1.24-.29,1.7-.78.06-.06.16-.09.21-.08.46.18.89-.09,1.23-.25.91-.44,1.87-.69,2.91-.92M12.27,14.7c-.1.04-.21.1-.32.12-.08,0-.27.37-.28-.06,0-.01-.23-.04-.34-.01-.06.01-.1.12-.14.19.09.02.19.05.28.07.04,0,.13,0,.15.01.1.26.28.15.42.08.66-.3,1.32-.61,1.98-.92.64-.3,1.31-.59,1.93-.92,1.04-.54,2.05-1.1,3.07-1.67.14-.08.23-.23.38-.29.52-.23,1.07-.42,1.6-.63.03-.01.06-.04.09-.06-.03-.01-.05-.03-.08-.03-.25.01-.52-.02-.75.06-.56.21-1.1.47-1.66.7-.31.14-.63.25-.95.37-.3.1-.59.19-.88.3-.12.04-.24.08-.35.14-.05.02-.08.08-.1.12.06.01.11.04.17.04.13-.01.26-.04.39-.06.08-.01.15,0,.23-.01-.06.05-.1.1-.16.15-.32.23-.76.19-1.08.54-.34.37-.87.57-1.34.79-.72.33-1.46.62-2.27.97m1.16-2.89c-.36.26-.71.52-1.07.77-.54.37-1.08.73-1.6,1.1-.08.06-.13.15-.19.23.12.01.23.03.35.02.06,0,.12-.07.17-.11.71-.5,1.43-1,2.13-1.5.56-.4,1.1-.8,1.66-1.21.11-.08.19-.19.3-.27.48-.3.97-.58,1.44-.88.08-.06.1-.19.14-.28-.09,0-.19-.03-.26,0-.37.21-.73.42-1.08.66-.67.46-1.33.94-2,1.46m-8.37,5.76s-.1.02-.14.06c-.12.08-.23.19-.33.28.17,0,.32,0,.49-.01h.03c.56-.35,1.14-.65,1.68-.99.93-.59,1.86-1.18,2.76-1.79.28-.18.53-.41.78-.62.08-.06.12-.17.18-.26-.12,0-.27-.03-.35.02-.28.19-.54.44-.82.62-.86.57-1.71,1.14-2.58,1.69-.54.35-1.1.66-1.71,1.02m9.18-3.96c.49-.27.97-.54,1.46-.81.08-.03.14-.1.21-.15-.11-.01-.23-.07-.32-.03-.46.21-.91.44-1.35.68-.56.29-1.11.59-1.67.88-.04.02-.08.06-.12.08.06.02.12.07.17.06.5-.24,1.1-.3,1.62-.7m-6.77,3.58s.04-.1.08-.11c.45-.21.91-.39,1.36-.61.19-.09.37-.24.55-.37.05-.03.08-.11.11-.17-.06,0-.12.01-.17.03-.52.23-1.05.44-1.55.69-.2.1-.35.28-.52.44,0,0,.05.08.15.1M57.01,3.06c.06,0,.15.01.21,0s.12-.08.18-.13c-.14,0-.28-.03-.42-.05,0,.06-.01.11.03.19M9.91,15.81c-.04-.11-.08-.21-.13-.32,0,0-.07,0-.08.02-.08.14.03.32.21.3m13.24-6.2c.12-.03.26-.06.39-.1-.01-.03-.02-.06-.03-.09-.12.03-.22.06-.34.1-.03.01-.05.04-.02.09m.83-.44h.29s0-.07,0-.1c-.09.02-.17.03-.28.1M3.93,18.12s.02.07.03.1c.09-.04.17-.08.26-.12-.08-.01-.17-.02-.29.01M29,7.17s-.01.02-.01.03,0,.02,0,.02c.08-.04.16-.08.24-.12-.06.01-.11.03-.23.07m-7.62,3.27s.05-.03.08-.06c-.01-.01-.03-.03-.03-.03-.04.02-.07.04-.06.09m1.15-.52s0-.03.01-.06c-.02,0-.04.01-.01.06m-11.95,5.5s0,.03-.01.06c.02-.01.04-.02.01-.06"/>
    <path class="cls-1" d="m26.64,5.7c.63-.21,1.22-.42,1.82-.61.3-.09.62-.13.93-.22,1.05-.3,2.08-.69,3.15-.9.59-.12,1.15-.35,1.74-.5.43-.11.88-.18,1.31-.27l1.46-.32s.1,0,.15-.01c-.02.05-.03.11-.07.13-.11.08-.23.19-.36.22-1.05.28-2.11.55-3.16.83-.83.21-1.66.44-2.49.64-.44.12-.9.19-1.34.31-.26.07-.5.18-.75.26-.41.14-.83.26-1.24.4-.7.24-1.42.46-2.1.74-.91.37-1.87.7-2.7,1.24-.56.35-1.15.58-1.73.88-.42.22-.77.57-1.17.81-.57.34-1.17.64-1.76.95-.05.03-.12,0-.19,0,.04-.04.08-.09.13-.13.5-.52,1.2-.66,1.79-1.02.03-.02.06-.05.08-.06-.03-.02-.06-.04-.09-.06-.06-.03-.13-.06-.19-.09.08-.06.15-.19.2-.18.47.06.73-.3,1.09-.49.33-.19.73-.23,1.1-.37.1-.03.23-.15.25-.23.05-.26.22-.35.45-.44.73-.29,1.44-.61,2.17-.91.49-.2.98-.38,1.51-.59"/>
    <path class="cls-1" d="m36.96,3.6c-.07-.03-.12-.05-.17-.06.23-.13.46-.28.71-.38.07-.03.19.1.29.16-.08.06-.17.13-.26.16-.18.06-.37.09-.57.12"/>
    <path class="cls-1" d="m16.62,10.87c0,.18-.48.5-.58.41-.03-.02,0-.19.04-.21.17-.09.35-.14.54-.2"/>
    <path class="cls-1" d="m18.31,9.66c-.08.1-.19.18-.3.26,0-.02-.04-.06-.03-.06.1-.07.21-.15.34-.2"/>
    <path class="cls-1" d="m22.91,6.82s0,.08-.03.08c-.1.03-.2.06-.3.08.11-.07.21-.14.33-.17"/>
    <path class="cls-1" d="m14.99,11.74s.08-.03.11-.04v.06s-.08,0-.12-.01"/>
  </g>
  <g>
    <path class="cls-1" d="m35.19,20.26c-.3.09-.57.21-.84.29-.55.17-1.11.31-1.66.47-.29.08-.57.17-.86.26-.04.01-.09.03-.13.02-.5-.12-.9.23-1.37.27-.23.02-.46.11-.69.17-.05.01-.12,0-.15.02-.57.38-1.28.26-1.9.49-.37.14-.77.21-1.15.27-.39.07-.79.06-1.17.11-.21.03-.43.07-.61.16-.37.19-.76.14-1.15.2-.39.07-.77.16-1.16.23-.41.08-.84.08-1.21.3-.02.01-.08,0-.1,0-.32-.16-.61-.03-.92.06-.46.12-.93.16-1.39.22-.36.05-.73.09-1.09.12-.55.03-1.09.15-1.64,0-.09-.03-.19-.02-.3-.02h-1c-.17,0-.33.03-.5.03-.33,0-.67-.04-1.01-.05-.81-.03-1.6-.1-2.42-.12-.69-.01-1.39-.06-2.09-.21-.32-.08-.63-.15-.95-.28-.3-.12-.68-.06-1-.14-.59-.15-1.17-.37-1.77-.49-.7-.15-1.3-.52-1.95-.75-.32-.11-.68-.17-.97-.35-.37-.23-.86-.37-1.01-.88-.08-.28.1-.52.39-.53.08,0,.17-.06.25-.08-.04-.1-.08-.21-.12-.3-.04-.07-.1-.13-.15-.19.1,0,.21-.04.28,0,.34.18.66.41,1.01.57.26.12.57.18.86.24.27.06.55.06.8.12.55.15,1.08.17,1.64.01.43-.12.9-.08,1.35-.12.55-.06,1.11-.12,1.66-.19.61-.07,1.22-.12,1.82-.2.6-.09,1.19-.18,1.78-.33.76-.21,1.51-.47,2.27-.7.36-.11.72-.18,1.08-.28.03,0,.09-.01.13-.03.49-.22.99-.35,1.53-.4.34-.03.67-.19.99-.31.64-.22,1.28-.42,1.94-.54.71-.12,1.4-.35,2.1-.55.57-.17,1.13-.39,1.71-.57.98-.3,1.97-.59,2.96-.86.13-.03.3.07.44.1l.17.05s-.03-.1-.07-.13c-.1-.12-.08-.18.08-.22.75-.19,1.49-.39,2.22-.6.62-.17,1.24-.35,1.86-.52.61-.17,1.23-.33,1.85-.47.3-.07.58-.13.87-.27.32-.15.73-.17,1.1-.24.35-.06.69-.11,1.04-.17.55-.1,1.1-.19,1.66-.29.13-.02.25-.1.38-.12.28-.04.57-.06.86-.08.68-.06,1.36-.12,2.04-.16.26-.01.51.08.75-.06.48.26,1.03-.16,1.51.12.41-.15.83.07,1.24.01.13-.01.26.03.4.04.17.02.34.06.5.02.24-.05.46-.03.69.02.32.06.66.06.99.09.09,0,.18.03.27.04.28.04.55.07.82.13.16.03.3.12.46.18s.33.08.5.11c.17.03.36.03.53.07.19.04.37.1.55.15.35.1.68.21,1.03.28.32.07.6.3.97.28.26-.01.52.17.79.27.06.01.1.06.17.08.39.12.79.21,1.17.34.49.18.98.39,1.46.6.66.29,1.26.7,1.83,1.15.32.26.61.57.93.81.19.15.23.32.23.5,0,.16.06.23.17.32.08.07.13.17.19.26.06.1.11.22.18.32.21.32.05.64-.33.75-.31.1-.6.25-.91.32-.28.07-.57.11-.86.1-.54-.03-1.08-.1-1.63-.17-.02,0-.04,0-.06-.01-.39-.26-.83-.12-1.24-.19-.38-.06-.74-.24-1.1-.37-.07-.03-.14-.04-.21-.06-.5-.12-1-.24-1.51-.36-.1-.03-.21-.09-.29-.06-.35.15-.68.01-1.01-.03-.58-.08-1.15-.22-1.73-.3-.25-.03-.5-.05-.68-.26,0-.01-.11.06-.17.09-.06.03-.13.11-.17.1-.32-.12-.66-.11-.99-.11-.19,0-.39-.1-.58-.15-.03,0-.06,0-.1,0,.03.01.07.03.09.06.06.06.11.14.17.21h-.26c-.26,0-.51,0-.77-.03-.51-.06-.99.1-1.47.21-.15.03-.31-.02-.47,0-.31.03-.62.1-.93.15-.42.06-.85.08-1.28.17-.24.04-.47.17-.71.25-.44.13-.88.27-1.33.39-.39.1-.81.12-1.18.27-.32.12-.64.22-.97.3-.69.16-1.37.33-2.06.5-.08.02-.15.05-.25.07m16.29-2.34v-.05s-.01.03-.06.03c-.01.02-.01.03-.02.06.01-.01.03-.03.08-.03m-34.62,3.39s-.01.03-.02.06c.01-.01.03-.03.08-.03.04.01.08.02.12.02v-.04h-.18m-5.52,1.36s-.01.03-.02.06c.01-.01.03-.03.08-.03.06.01.12.03.18.04,0-.02-.01-.05-.02-.05-.06,0-.12,0-.21,0m-1.9-1.1c-.13.08-.26.21-.39.21-.65-.01-1.31-.05-1.96-.1-.57-.04-1.14-.1-1.71-.19-.3-.05-.59-.17-.9-.25-.05-.01-.1,0-.15,0,.01.05.02.12.05.15.17.12.35.27.54.32.29.07.59.08.83.3.06.05.2.01.31,0,.17-.01.33-.06.49-.06.39.02.79.09,1.19.1.4,0,.8-.05,1.2-.08.1,0,.19-.06.27-.1.09-.05.17-.11.25-.18.06-.06.11-.12.15-.18,0-.01-.05-.06-.08-.09-.03.04-.07.08-.12.16m7.44-1.46c-.13.03-.26.06-.39.1-.06.01-.1.06-.15.1.05.03.09.07.13.07.28,0,.55-.02.81-.04.5-.04,1.01-.08,1.51-.15.52-.07,1.04-.16,1.55-.29.41-.1.79-.3,1.19-.44.15-.05.32-.03.47-.08.6-.21,1.19-.47,1.8-.65.41-.12.85-.15,1.26-.23.61-.12,1.22-.26,1.82-.39.13-.03.28-.02.39-.08.71-.38,1.5-.57,2.26-.82.23-.08.48-.1.72-.18.44-.15.87-.33,1.31-.49.19-.07.41-.09.62-.12.17-.03.35-.02.52-.06.59-.12,1.19-.26,1.77-.41.26-.06.51-.15.77-.21.28-.08.55-.16.82-.21.53-.1,1.09-.04,1.61-.26.15-.07.34-.06.51-.08.3-.04.61-.07.91-.13.48-.08.96-.21,1.44-.28.2-.03.38-.01.59-.08.57-.17,1.18-.23,1.79-.26.2,0,.43.06.64-.01.03,0,.06.01.08.02.32.01.64.06.95.03.42-.04.83-.15,1.21.12.05.03.13.01.19,0,.42-.16.85-.17,1.28-.04.03,0,.07.01.11.01.38,0,.75-.01,1.13,0,.24,0,.48.03.72.04.21.01.42.03.64.06.41.05.81.11,1.21.17.37.05.74.06,1.09.15.86.22,1.71.48,2.57.73.14.04.28.05.4.1.32.13.63.37.95.38.35.01.64.15.9.26.61.26,1.28.47,1.76.98.02.03.1.02.13,0,.02-.01.04-.08.03-.1-.08-.13-.15-.29-.28-.37-.41-.27-.84-.53-1.26-.77-.4-.21-.77-.49-1.24-.56-.08-.01-.15-.08-.23-.12-.42-.18-.84-.38-1.28-.54-.42-.16-.86-.26-1.29-.38-.2-.06-.39-.19-.59-.21-.34-.04-.68-.03-.97-.26-.02-.02-.07,0-.11,0-.38-.03-.76-.03-1.14-.09-.64-.1-1.22-.47-1.9-.39-.31.04-.65-.12-.97-.19-.1-.02-.19-.02-.3-.03-.32-.01-.68.03-.97-.06-.52-.17-1.05-.15-1.57-.19-.59-.04-1.19.13-1.79,0-.18-.03-.37-.02-.55,0-.55.08-1.08,0-1.63.08-.32.05-.68.01-1.02.05-.5.06-1.02.1-1.53.15-.31.03-.62.06-.94.09-.32.03-.63.05-.94.1-.45.07-.9.16-1.34.25-.15.03-.32.05-.43.14-.35.26-.77.24-1.15.34-.49.14-1,.21-1.49.34-.67.19-1.34.41-2.02.6-.35.1-.7.18-1.05.26-.21.06-.41.1-.61.16-.44.14-.88.3-1.33.44-.67.2-1.35.39-2.02.59-.79.23-1.57.46-2.35.7-.39.12-.76.28-1.15.39-.39.13-.79.24-1.2.34-.31.08-.64.08-.95.17-.56.17-1.12.37-1.68.55-.79.26-1.6.48-2.4.75-.73.26-1.44.47-2.2.59-.46.08-.93.17-1.39.24-.3.06-.62.05-.9.15-.35.12-.68.26-1.06.26-.44,0-.88.05-1.33.06-.07,0-.14-.02-.21-.03.05.08.09.16.15.21.08.06.19.12.26.1.75-.11,1.52-.01,2.27-.26.19-.06.4-.1.61-.13.35-.06.71-.11,1.06-.14.47-.03.91-.25,1.41-.17.24.04.5-.04.75-.06.49-.03.93-.35,1.44-.24.04,0,.1,0,.12-.03.19-.24.42-.13.64-.08m29.16-2.66s.03,0,.09,0c.03,0,.08,0,.08,0,.03-.03.03-.1.07-.12.06-.03.14-.03.17,0,.05.03.06.12.08.18.06-.06.1-.15.18-.19.07-.04.17-.03.26-.03.08,0,.19.04.26,0,.11-.06.19-.17.29-.26-.08,0-.16,0-.23.01-.02,0-.03.02-.05.02-.43.01-.86,0-1.29.03-.85.08-1.7.19-2.55.31-.48.06-.95.26-1.42.25-.84-.01-1.63.21-2.44.34-.86.13-1.7.37-2.56.55-.47.1-.95.13-1.42.22-.53.11-1.06.27-1.6.39-.84.19-1.66.37-2.5.52-.89.16-1.78.28-2.67.42-.4.07-.81.17-1.22.23-.46.07-.93.09-1.37.18-.65.13-1.28.35-1.93.45-.52.09-1.06.08-1.55.32,0,0-.01,0-.02.01-.5.08-.98.15-1.48.22-.09.01-.19,0-.29-.02-.04-.01-.08-.08-.11-.12.03-.02.08-.05.11-.06.28-.06.55-.12.82-.18.38-.08.77-.13,1.14-.21.16-.03.3-.12.46-.16.3-.06.61-.06.9-.12.5-.11.99-.28,1.49-.36.92-.15,1.82-.35,2.76-.34.03,0,.06-.04.1-.05.36-.08.72-.19,1.08-.26.43-.07.87-.07,1.3-.15.7-.14,1.37-.32,2.06-.48.53-.12,1.06-.23,1.6-.35.67-.13,1.35-.26,2.02-.38.38-.07.77-.1,1.15-.16.28-.05.55-.17.82-.19.2-.02.37-.08.57-.12.38-.08.77-.15,1.16-.2.55-.08,1.1-.15,1.66-.23.21-.03.42-.12.64-.16.48-.09.96-.19,1.44-.26.28-.04.56-.08.84-.09.47-.03.93-.03,1.39-.05.42-.02.84-.08,1.26-.07.48.02.95.1,1.42.15.41.03.81.04,1.22.08.46.04.92.05,1.35.17.23.06.62-.16.7.3,0,.01.03.02.06.01.28-.1.53.04.79.1.43.09.86.13,1.29.21.39.08.79.19,1.19.28.22.05.46.06.68.11.53.15,1.06.32,1.59.48.35.1.74.1,1.04.26.29.15.53-.03.78,0,.03,0,.08-.08.12-.13-.04-.03-.08-.07-.12-.08-.15-.04-.28-.06-.26-.27,0-.07-.11-.16-.18-.21-.32-.22-.68-.41-.99-.65-.5-.36-1.04-.62-1.62-.83-.38-.13-.75-.33-1.12-.48-.25-.1-.5-.21-.75-.28-.35-.08-.71-.12-1.07-.19-.11-.03-.21-.12-.32-.15-.36-.08-.72-.12-1.08-.2s-.72-.17-1.08-.24c-.21-.04-.45-.05-.67-.08-.45-.05-.89-.1-1.33-.14-.31-.03-.62-.02-.93-.03-.49-.02-.97-.08-1.46-.08-.52,0-1.05.04-1.57.03-.49,0-.97-.04-1.46-.06-.31-.02-.61-.03-.93-.03-.33.01-.67.04-.99.09-.24.03-.48.14-.72.18-.23.05-.46.06-.7.1-.37.06-.74.15-1.11.21-.39.06-.78.08-1.17.15-.44.07-.88.19-1.32.26-.31.05-.64,0-.94.07-1.02.26-2,.6-3.02.79-.44.08-.88.19-1.31.31-.39.1-.79.22-1.17.33-.48.15-.97.28-1.45.44-.49.15-.96.36-1.45.5-.38.11-.77.16-1.16.25-.47.11-.93.25-1.41.37-.43.1-.87.14-1.28.26-.65.19-1.28.44-1.93.65-.16.05-.35.02-.49.1-.57.32-1.22.41-1.84.52-.73.13-1.49.15-2.24.22-.45.04-.9.1-1.35.15-.05,0-.1-.02-.15-.03.03-.03.06-.06.1-.08s.08-.03.1-.06c.04-.06.06-.12.09-.17-.06.01-.12.01-.17.04-.31.17-.61.3-.99.28-.52-.02-1.05.06-1.57.13-.58.08-1.15.18-1.71.28-.07,0-.19.07-.19.09.02.1.07.2.12.3.06-.03.11-.06.17-.1.04-.02.08-.04.12-.07.12-.08.23-.14.19.1-.02.1.1.19.16.12.12-.2.16-.15.23.01.02.03.09.08.13.08.13-.01.26-.06.4-.09,0,0,.01-.03.02-.06-.1,0-.2,0-.29-.03-.12-.04-.25-.11-.37-.17.1-.04.21-.09.31-.12.06-.02.14-.03.21-.02.38.01.76.04,1.15.05.24,0,.48-.03.73-.04.26-.01.53,0,.79-.01.55-.05,1.08-.23,1.64-.23.97,0,1.95-.06,2.89-.4.4-.15.84-.21,1.26-.29.59-.12,1.18-.21,1.78-.32.23-.04.48-.03.7-.1.41-.14.85-.14,1.27-.22.19-.03.37-.09.57-.11.39-.05.8-.07,1.19-.12.4-.05.79-.15,1.19-.21.08,0,.15.02.22.03-.06.05-.12.13-.19.15-.48.1-.97.21-1.47.28-.48.08-.95.12-1.43.19-.43.06-.85.15-1.27.22-.32.06-.64.1-.96.14-.06,0-.15,0-.16.02-.02.08-.03.17-.01.26,0,.02.12.03.19.02.35-.07.7-.15,1.05-.21.23-.04.48-.03.71-.04.03,0,.06.03.09.05-.03.02-.06.05-.09.06-.13.03-.27.06-.41.09-.57.1-1.14.21-1.71.3-.27.05-.55.03-.81.09-.4.09-.79.26-1.2.32-.66.12-1.31.19-1.97.28-.48.06-.97.13-1.46.17-.56.05-1.12.06-1.68.1-.7.05-1.41.12-2.12.16-.39.03-.77.12-1.18.08-.55-.06-1.13,0-1.68.05-.5.03-1.01.12-1.51.19-.15.02-.27.09-.4.13.15.04.3.11.45.11.31,0,.63-.05.94-.03.44.02.89.06,1.3.03.6-.05,1.2.06,1.8-.14.44-.15.93-.15,1.39-.2.4-.05.8-.08,1.2-.12.56-.07,1.11-.17,1.66-.23.66-.08,1.34-.14,2-.2.11,0,.21.01.32.04.03,0,.05.08.08.11-.03,0-.07,0-.1.01-.06.01-.11.04-.17.05-.97.12-1.95.23-2.91.35-.43.06-.86.1-1.28.15-.4.03-.82,0-1.19.11-.3.09-.59.17-.91.18-.03,0-.08.05-.11.08.03.01.06.05.1.04.29,0,.58.03.87,0,.3-.03.59-.13.88-.14.56,0,1.1.1,1.66,0,.47-.08.96-.07,1.44-.13.7-.1,1.38-.22,2.07-.33.03,0,.06,0,.08,0,.45-.06.9-.11,1.35-.16.12-.01.24-.03.36-.05.24-.03.48.03.73-.07.28-.11.6-.08.9-.12.41-.05.84-.08,1.25-.15.28-.05.57-.13.84-.19.35-.06.69-.11,1.04-.17.28-.04.57-.08.86-.11.03,0,.09.06.13.1-.06.04-.1.11-.15.12-.5.1-1.02.19-1.53.27-.55.09-1.08.19-1.64.26-.73.1-1.47.2-2.21.28-.7.08-1.41.12-2.11.23-.77.12-1.52.28-2.28.43-.08.01-.17,0-.26.02-.44.03-.87.08-1.31.12-.12.01-.24.06-.36.05-.28-.04-.57-.12-.85-.15-.09-.01-.21.03-.1.17.02.03.06.04.08.07h-.1c-.32-.08-.63-.16-.97-.11-.42.06-.86.04-1.28.04-.78,0-1.56.19-2.33,0-.07-.01-.16,0-.23,0-.18,0-.35,0-.52,0-.19-.02-.37-.06-.55-.08-.05,0-.1.04-.15.06.05.03.09.1.15.1.21.03.44.05.65.08.25.03.48.08.73.08.53.02,1.06,0,1.59.06.47.06.92-.19,1.39-.03.25.09.52.16.79.17.95.02,1.89,0,2.85,0,.13,0,.26-.05.39-.06.56-.05,1.13-.06,1.69-.12.65-.08,1.28-.19,1.92-.28.15-.01.3,0,.45-.02.51-.08,1.02-.17,1.53-.28.86-.17,1.71-.36,2.58-.52.7-.13,1.42-.23,2.12-.37.26-.05.5-.16.77-.22.4-.08.85-.01,1.2-.3.01-.01.05,0,.08-.01.68-.17,1.37-.35,2.05-.53.1-.02.22-.11.3-.08.48.16.85-.13,1.23-.28.4-.17.75-.44,1.22-.38.03,0,.08-.05.12-.07.54-.22,1.06-.5,1.62-.65.61-.17,1.2-.39,1.84-.46.45-.06.88-.26,1.33-.36.62-.13,1.26-.23,1.89-.35.65-.11,1.31-.22,1.97-.31.61-.09,1.23-.18,1.84-.24.38-.03.77-.01,1.15,0m-23.73,2.78c-.1,0-.19,0-.29.02-.22.06-.44.13-.66.17-.42.1-.86.17-1.28.26-.1.02-.21.03-.3.05-.04,0-.08.01-.12.02.02.05.03.13.06.14.12.02.25.03.37.01.12-.01.23-.07.36-.09.36-.08.72-.16,1.08-.24.26-.06.53-.11.79-.17.06-.01.11-.01.17-.02-.04-.05-.08-.09-.16-.16m34.33-1.53c-.28-.04-.56-.06-.84-.12-.48-.12-.94-.27-1.41-.4-.05-.01-.12.03-.18.05.04.06.08.15.13.16.34.11.67.26,1.02.28.34.02.63.07.95.21.25.12.34.04.33-.19M3.97,21.56l.28-.03c-.06-.08-.11-.19-.19-.23-.3-.12-.61-.23-.92-.32-.06-.02-.16.05-.23.08.05.06.09.15.15.18.28.11.57.21.91.32m6.3-.05c.12.09.24.17.37.26.01,0,.1-.04.1-.06,0-.15-.28-.39-.43-.38-.12,0-.12.07-.03.19m-.03,1.26c.15,0,.31.01.47.01.03,0,.06-.03.1-.06-.03-.03-.06-.08-.09-.08-.19,0-.38,0-.58,0,.01.04.03.08.1.13m39.6-5.5s-.02.01-.03.01v.02c.3.06.59.1.89.15.01,0,.03-.01.05-.03-.02-.01-.04-.03-.07-.03-.27-.06-.54-.1-.84-.13m-11.48,1.72s.06-.03.1-.06c.04-.03.08-.07.13-.1-.07,0-.13,0-.2,0-.1.03-.19.06-.28.1-.06.03-.13.06-.19.08.09.02.17.06.26.06.05,0,.1-.05.18-.1m12.29-5.29h.1s-.04-.06-.08-.07c-.14-.05-.28-.1-.42-.15-.04-.01-.07-.06-.11-.07-.02,0-.05.03-.08.05.03.05.07.11.12.13.14.05.28.08.46.1M9.95,22.6c-.15,0-.31-.02-.46-.02-.01,0-.02.05-.03.07.15,0,.29.01.44.02.01,0,.02,0,.04-.07m29.56-3.94c.07.04.14.08.21.11,0-.05.02-.12,0-.14-.08-.06-.19-.16-.21.02m8.52-1.42c.05-.12.01-.18-.11-.16-.06,0-.1.06-.16.09.08.03.16.06.28.08m-10.81,2c.1-.03.19-.06.28-.09,0,0,0-.03,0-.06-.11,0-.22.02-.33.03-.03,0-.06.04-.08.06.03.01.05.03.12.06m-2.12.48c.08.03.17.06.26.08.02,0,.06-.03.08-.06-.1-.02-.19-.04-.28-.06,0,0-.01,0-.06.03m14.63-1.91s0,.03,0,.03c.14.02.26.05.4.07,0,0,0-.03.02-.05-.1-.02-.19-.04-.3-.06-.05,0-.1-.01-.13.01m9.53-.19c-.08,0-.15-.01-.22-.01.04.05.08.1.12.13.01,0,.08-.05.09-.12m-47.41,5.06s.08-.01.12-.02c.07,0,.14-.02.21-.03,0-.01-.01-.04-.03-.03-.08,0-.16,0-.23,0-.03,0-.07.03-.08.08m36.79-5.37c.07,0,.14-.03.21-.04-.03-.03-.07-.1-.08-.1-.06.03-.1.07-.12.14m2.03.52s-.09.02-.13.02h-.14s.08.04.12.06c.06.02.12.03.19.06,0-.03,0-.08-.05-.13m-16.39,2.11s0-.01-.01-.02h-.01c-.05.07-.1.14-.13.21,0,0,.03.03.06.04.03-.06.06-.12.11-.23m-15.34,1.11h-.26s.01.05.03.05c.08,0,.17-.01.23-.06m29.05-8.24s-.06.04-.08.03c-.05,0-.09,0-.13,0,.03.01.06.05.1.06.06.02.11.03.17.05.01,0,.03-.02.05-.03-.03-.02-.06-.04-.1-.1m-11.17,6.5l-.21-.06s-.01.04-.01.07c.06,0,.13,0,.23-.01m-17.57,1.56s.09.08.14.1c.01,0,.04-.04.06-.06-.06-.02-.12-.05-.21-.05m32.75-3.05s-.06-.08-.09-.11c0,0-.03.01-.05.03.03.03.07.07.15.08m-3.54-4.65s-.02.01-.03.01v.02s.1.01.15.03c-.02-.01-.05-.03-.12-.06M9.14,21.54s-.06-.03-.08-.04c0,0-.01.02-.02.03.02.01.04.02.1.01m44.17-3.63s.05,0,.07,0v-.03s-.06,0-.08.03m-35.52,5.59s.01.02.03.03c0-.02,0-.03-.03-.03m21.17-10.62s.01.02.03.03c0-.02,0-.03-.03-.03m5.41-.24s.01-.02.03-.03c-.02,0-.03,0-.03.03m6.95,4.86s.01.02.03.03c0-.02,0-.03-.03-.03m-42.01,4.04s-.02-.01-.03-.03c0,.01,0,.03.03.03m-1.73-.47s.01-.02.03-.03c-.02,0-.03,0-.03.03"/>
    <path class="cls-1" d="m39.82,16.61c-.19.01-.37.03-.54.03-.04,0-.09-.03-.14-.02-.55.1-1.12.21-1.68.32-.48.1-.96.23-1.44.29-.34.03-.7.22-1.05,0-.3.19-.66.12-.98.18-.32.06-.63.16-.95.24,0,0-.04-.03-.04-.05,0-.06,0-.15.01-.15.21-.09.46-.28.62-.21.32.12.57-.06.84-.12.3-.06.58-.22.89-.07.03.01.09,0,.12-.02.43-.17.86-.21,1.32-.22.31,0,.61-.17.93-.23.35-.08.7-.13,1.06-.19.38-.06.76-.11,1.14-.15.23-.02.46-.01.68-.03.27-.02.54-.06.81-.07.17,0,.34.03.5.03.65-.03,1.29-.08,1.93-.1.5-.02,1.02.03,1.53-.05.32-.05.59-.01.9.02.24.03.49-.1.77-.01.21.07.44.07.66.08.57.05,1.13.09,1.7.14.19.02.37.07.56.1.73.13,1.46.26,2.18.39.13.02.26.07.39.11.02,0,.03.03.06.05-.03.01-.07.05-.1.05-.27-.03-.53-.08-.8-.1-.36-.05-.71-.09-1.07-.14-.38-.04-.75-.1-1.13-.14-.47-.05-.94-.08-1.41-.12-.32-.03-.64-.06-.95-.1-.44-.04-.87-.12-1.31-.12-.48,0-.96.08-1.44.1-.15.01-.3.01-.44.02-.67.03-1.35.08-2.02.1-.25.01-.5-.04-.75-.03-.17,0-.35.06-.51.08-.29.03-.57.06-.88.09"/>
    <path class="cls-1" d="m32.58,17.44c.08.03.14.04.19.07-.03.08-.05.19-.11.22-.21.1-.44.17-.68.25-.21.06-.42.12-.64.17-.66.15-1.31.32-1.98.45-.38.07-.78.05-1.17.06-.06,0-.15-.02-.15,0-.17.36-.55.26-.82.34-.43.15-.89.2-1.34.3-.04.01-.09.03-.13.01-.06-.01-.12-.05-.17-.08.06-.03.1-.08.17-.1.37-.12.73-.22,1.1-.32.05-.01.1-.03.15-.04.38-.01.7-.15,1.05-.32.31-.15.73-.09,1.09-.11.06,0,.12,0,.18-.01.78-.2,1.55-.4,2.33-.61.3-.08.61-.19.95-.27"/>
    <path class="cls-1" d="m20,21.56c-.06-.05-.1-.09-.12-.14.1,0,.21,0,.31.02.02,0,.04.06.06.09-.08.01-.15.03-.24.03"/>
    <path class="cls-1" d="m20.73,21.43s0,.03-.01.03c-.12,0-.24.01-.36.02,0,0,0-.06,0-.09.13,0,.25.01.39.04"/>
    <path class="cls-1" d="m24.97,20.09s.06-.02.08-.03v.04s-.05,0-.08-.01"/>
    <path class="cls-1" d="m24.78,20.15s.06-.02.1-.03c-.01.02-.05.03-.1.03"/>
    <path class="cls-1" d="m24.75,20.15s-.01.03-.03.05c0-.01,0-.03.03-.05"/>
    <path class="cls-1" d="m46.1,17.41h-.05s.03,0,.05,0"/>
    <path class="cls-1" d="m24.95,20.09s-.01.03-.04.05c0-.02.01-.03.04-.05"/>
    <path class="cls-1" d="m16.89,20.07c.06-.06.14-.12.21-.18.06-.04.12-.08.18-.11.03.05.09.12.08.15-.03.07-.08.17-.14.18-.1.02-.21-.01-.33-.03"/>
    <path class="cls-1" d="m17.98,19.98c-.06.02-.12.01-.18,0,.02-.06.04-.13.07-.19.03.06.08.11.11.19"/>
    <path class="cls-1" d="m9.45,21.54s.02-.03.03-.04c0,.01,0,.03-.03.04"/>
  </g>
</svg>